<svg width="100" height="100" viewBox="0 0 100 100" fill="none" xmlns="http://www.w3.org/2000/svg">
<path d="M99.9998 91.3636C99.9998 91.3634 100 91.3635 100 91.3636V96.3365C100 96.6018 99.7849 96.8169 99.5196 96.8169H10C4.47716 96.8169 0 92.3397 0 86.8169V5.90985C0 4.40365 1.22101 3.18265 2.7272 3.18265V3.18265C4.23339 3.18265 5.4544 4.40366 5.4544 5.90985V81.3637C5.4544 86.8865 9.93155 91.3637 15.4544 91.3637H99.9997C99.9997 91.3637 99.9998 91.3636 99.9998 91.3636V91.3636ZM74.9995 12.5235C74.9995 10.8289 73.6258 9.45522 71.9312 9.45522H15.7962C14.1016 9.45522 12.7279 10.8289 12.7279 12.5235V12.5235C12.7279 14.218 14.1016 15.5917 15.7962 15.5917H71.9312C73.6258 15.5917 74.9995 14.218 74.9995 12.5235V12.5235ZM55.0002 23.7499C55.0001 22.0554 53.6265 20.6818 51.932 20.6818H24.8877C23.1932 20.6818 21.8195 22.0555 21.8195 23.75V23.75C21.8195 25.4445 23.1932 26.8181 24.8877 26.8181H51.932C53.6266 26.8181 55.0002 25.4444 55.0002 23.7499V23.7499ZM50 32.9545C50 34.649 51.3737 36.0227 53.0681 36.0227H80.1124C81.8068 36.0227 83.1805 34.649 83.1805 32.9545V32.9545C83.1805 31.2601 81.8068 29.8864 80.1124 29.8864H53.0681C51.3737 29.8864 50 31.2601 50 32.9545V32.9545ZM51.1358 52.3423C51.1358 50.6478 49.762 49.2741 48.0675 49.2741H21.0233C19.3287 49.2741 17.955 50.6478 17.955 52.3423V52.3423C17.955 54.0369 19.3287 55.4106 21.0233 55.4106H48.0675C49.762 55.4106 51.1358 54.0369 51.1358 52.3423V52.3423ZM48.0677 65.9794C49.7622 65.9794 51.1358 64.6058 51.1358 62.9114V62.9114C51.1358 61.217 49.7622 59.8434 48.0677 59.8434H34.205C32.5106 59.8434 31.137 61.217 31.137 62.9114V62.9114C31.137 64.6058 32.5106 65.9794 34.205 65.9794H48.0677ZM68.9766 73.8197C70.6713 73.8197 72.0451 72.4459 72.0451 70.7512V70.7512C72.0451 69.0565 70.6713 67.6827 68.9766 67.6827H55.7946C54.0999 67.6827 52.7261 69.0565 52.7261 70.7512V70.7512C52.7261 72.4459 54.0999 73.8197 55.7946 73.8197H68.9766ZM73.5209 78.4786C73.5209 80.173 74.8945 81.5466 76.5889 81.5466H89.7724C91.4668 81.5466 92.8404 80.173 92.8404 78.4786V78.4786C92.8404 76.7841 91.4668 75.4105 89.7724 75.4105H76.5889C74.8945 75.4105 73.5209 76.7841 73.5209 78.4786V78.4786Z" fill="#5A7F9E"/>
</svg>
