<svg width="48" height="48" viewBox="0 0 48 48" fill="none" xmlns="http://www.w3.org/2000/svg">
<path d="M30.4121 32.0016H30.4098C29.9679 32.0018 29.61 32.3602 29.6102 32.802C29.6104 33.2438 29.9688 33.6018 30.4106 33.6016H30.4122C30.8535 33.6021 31.2112 33.9594 31.2122 34.4008C31.2126 34.8423 31.5707 35.1999 32.0121 35.2H32.013C32.4548 35.1996 32.8126 34.8411 32.8122 34.3992C32.8094 33.0752 31.736 32.0031 30.4121 32.0016Z" fill="#5A7F9E"/>
<path d="M20.8008 35.2016L22.4008 35.2C22.8427 35.1998 23.2006 34.8414 23.2004 34.3996C23.2002 33.9577 22.8418 33.5998 22.4 33.6H22.3991L20.7991 33.6016C20.3573 33.6018 19.9993 33.9602 19.9995 34.402C19.9997 34.8439 20.3581 35.2018 20.7999 35.2016H20.8008Z" fill="#5A7F9E"/>
<path d="M21.1153 31.8781L22.6192 32.4238C22.8882 32.5226 23.1894 32.47 23.4091 32.286C23.6287 32.102 23.7331 31.8144 23.6827 31.5324C23.6324 31.2503 23.435 31.0167 23.1653 30.92L21.6614 30.3743C21.2465 30.2252 20.7893 30.4397 20.6388 30.8541C20.4884 31.2683 20.7015 31.7263 21.1153 31.8781Z" fill="#5A7F9E"/>
<path d="M23.4107 36.5309C23.1916 36.3473 22.8912 36.2947 22.6227 36.3926L21.1196 36.9411C20.8511 37.039 20.6553 37.2728 20.6059 37.5543C20.5565 37.8358 20.661 38.1223 20.8801 38.3059C21.0992 38.4894 21.3996 38.5421 21.6681 38.4442L23.1712 37.8957C23.4397 37.7978 23.6355 37.5639 23.6849 37.2825C23.7343 37.001 23.6298 36.7145 23.4107 36.5309Z" fill="#5A7F9E"/>
<path d="M40 33.5984H39.9992L38.3991 33.6C37.9595 33.6033 37.605 33.9607 37.6052 34.4003C37.6054 34.8399 37.9603 35.197 38.3999 35.1999H38.4006L40.0007 35.1983C40.4425 35.1982 40.8004 34.8397 40.8003 34.3979C40.8001 33.9561 40.4419 33.5982 40 33.5984Z" fill="#5A7F9E"/>
<path d="M37.9273 32.459C38.0209 32.4588 38.1137 32.4422 38.2015 32.4101L39.7042 31.8617C39.9727 31.7637 40.1686 31.5299 40.218 31.2485C40.2674 30.967 40.1629 30.6804 39.9438 30.4969C39.7247 30.3133 39.4243 30.2606 39.1558 30.3586L37.6531 30.907C37.2885 31.0402 37.072 31.4157 37.1395 31.7979C37.207 32.1802 37.5392 32.4589 37.9273 32.459Z" fill="#5A7F9E"/>
<path d="M39.709 36.925L38.2051 36.3789C37.7902 36.2299 37.333 36.4444 37.1825 36.8587C37.0321 37.2731 37.2452 37.731 37.659 37.8829L39.1629 38.429C39.5776 38.5774 40.0342 38.3628 40.1845 37.9489C40.3348 37.5348 40.1223 37.0772 39.709 36.925Z" fill="#5A7F9E"/>
<path d="M16.5329 3.20587C13.5473 3.34865 11.2 5.8109 11.2 8.79993C11.2 9.24177 11.5581 9.5999 11.9999 9.5999C12.4418 9.5999 12.7999 9.24168 12.7999 8.79993C12.798 7.59449 13.3416 6.45299 14.2784 5.69446C15.2294 4.92824 16.4757 4.63293 17.6695 4.89093C19.1906 5.22102 20.3787 6.40921 20.7089 7.9304C20.9487 9.01743 20.7256 10.1553 20.093 11.0712C19.4604 11.9871 18.4752 12.5987 17.3738 12.7593C16.5886 12.8733 16.0046 13.5441 16 14.3374V15.1999C16 15.6417 16.3581 15.9998 16.7999 15.9998C17.2418 15.9998 17.5999 15.6417 17.5999 15.1999L17.6003 14.3428C20.5586 13.9159 22.6604 11.2409 22.3752 8.26546C22.0901 5.29021 19.5186 3.06309 16.5329 3.20587Z" fill="#5A7F9E"/>
<path d="M17.3681 17.832C17.2902 17.7613 17.201 17.7043 17.104 17.6636C16.9091 17.5839 16.6907 17.5839 16.4958 17.6636C16.3979 17.7023 16.3084 17.7595 16.2321 17.832C16.1614 17.9096 16.1044 17.9989 16.0637 18.0957C16.0227 18.192 16.0012 18.2954 16.0001 18.4C16.0013 18.4537 16.0067 18.507 16.0161 18.5598C16.0246 18.6099 16.0407 18.6585 16.0637 18.7039C16.0812 18.7549 16.1056 18.8034 16.136 18.8481C16.168 18.8879 16.2 18.9277 16.2321 18.968C16.3855 19.114 16.5883 19.1968 16.8 19.2C16.9049 19.2027 17.009 19.1808 17.104 19.136C17.2008 19.0953 17.2902 19.0385 17.3681 18.968C17.4 18.9277 17.4321 18.8879 17.4638 18.8481C17.4942 18.8034 17.5184 18.755 17.5361 18.7039C17.559 18.6584 17.5752 18.6098 17.5842 18.5598C17.5933 18.507 17.5987 18.4536 17.6002 18.4C17.599 18.2954 17.5772 18.192 17.5362 18.0957C17.4953 17.999 17.4385 17.9098 17.3681 17.832Z" fill="#5A7F9E"/>
<path d="M35.2 19.2V3.19997C35.198 1.43353 33.7665 0.0020625 32 0H3.19997C1.43353 0.0020625 0.0020625 1.43353 0 3.19997V19.2C0.0020625 20.9664 1.43353 22.398 3.19997 22.4H3.99994V27.1984C3.99938 27.8458 4.38909 28.4297 4.98722 28.6775C5.58534 28.9253 6.27384 28.7879 6.73116 28.3297C6.75038 28.3108 6.76837 28.2909 6.78506 28.2698L11.5792 22.4H31.9999C33.7665 22.398 35.198 20.9664 35.2 19.2ZM11.2 20.8C11.1865 20.8 11.1754 20.8071 11.1621 20.8077C11.0592 20.8232 10.958 20.8481 10.8598 20.8823C10.8182 20.9052 10.7787 20.9318 10.7419 20.9618C10.6944 20.9929 10.6505 21.0289 10.6108 21.0693C10.6018 21.0793 10.5893 21.0835 10.5805 21.0941L5.60006 27.1918V21.6C5.60006 21.1582 5.24194 20.8 4.80009 20.8H3.19997C2.31666 20.7992 1.60088 20.0833 1.59994 19.2V3.19997C1.60078 2.31666 2.31666 1.60088 3.19997 1.59994H32C32.8833 1.60078 33.5991 2.31666 33.6 3.19997V19.2C33.5992 20.0833 32.8833 20.7991 32 20.8H11.2Z" fill="#5A7F9E"/>
<path d="M44.8 25.6H44V20.8016C44 20.1546 43.6101 19.5712 43.0123 19.3236C42.4145 19.076 41.7263 19.2128 41.2687 19.6703C41.2495 19.6892 41.2315 19.7091 41.2148 19.7302L36.4207 25.6H16C14.2336 25.6021 12.802 27.0336 12.8 28.8V44.8C12.8021 46.5665 14.2336 47.998 16 48H44.8C46.5665 47.9979 47.998 46.5665 48 44.8V28.8C47.9979 27.0336 46.5665 25.602 44.8 25.6ZM46.4 44.8C46.3991 45.6833 45.6832 46.3991 44.7999 46.4H15.9999C15.1166 46.3992 14.4008 45.6833 14.3999 44.8V28.8C14.4007 27.9167 15.1166 27.2009 15.9999 27.2H36.8C36.9119 27.1993 37.0224 27.1749 37.1242 27.1283C37.148 27.114 37.171 27.0985 37.1931 27.0818C37.2668 27.0413 37.3337 26.9894 37.391 26.9279C37.3993 26.9186 37.4115 26.9155 37.4195 26.9058L42.3999 20.8081V26.4C42.3999 26.8418 42.7581 27.2 43.1999 27.2H44.7999C45.6832 27.2008 46.399 27.9167 46.4 28.8V44.8Z" fill="#5A7F9E"/>
<path d="M31.0734 28.8398C28.5897 28.538 26.2072 29.9209 25.2375 32.2273C24.2677 34.5337 24.9463 37.2037 26.8996 38.7672C27.0886 38.916 27.1993 39.1431 27.1999 39.3836V40C27.2017 40.5686 27.5061 41.0932 27.999 41.377L27.9999 42.4009C28.0026 43.1714 28.3739 43.8941 28.9987 44.345C29.4056 44.6404 29.8955 44.7993 30.3983 44.7989C30.666 44.7984 30.9318 44.7551 31.1858 44.6704C32.1756 44.3172 32.827 43.3687 32.801 42.318L32.8003 41.3773C33.2934 41.0937 33.5981 40.5689 33.5999 40V39.386C33.6049 39.1366 33.7229 38.903 33.9206 38.7508C35.4898 37.4927 36.2578 35.4855 35.9292 33.5012C35.5114 31.0489 33.5407 29.1572 31.0734 28.8398ZM30.6831 43.1515C30.432 43.2418 30.1525 43.203 29.9355 43.0477C29.7261 42.8977 29.6013 42.6566 29.5999 42.3992L29.5991 41.6H31.2007L31.2011 42.3195C31.2176 42.6774 31.0116 43.0084 30.6831 43.1515ZM32.9156 37.5059C32.3407 37.9611 32.0039 38.6527 31.9999 39.386V39.9973H31.9991L28.7999 40V39.3836C28.8003 38.6566 28.4684 37.9693 27.8988 37.5176C26.5763 36.4561 26.0673 34.6759 26.6284 33.0757C27.1896 31.4754 28.6991 30.4031 30.3948 30.4C30.5592 30.4 30.7234 30.4096 30.8867 30.4289C32.6452 30.6544 34.0502 32.002 34.3487 33.7496C34.5848 35.1686 34.0369 36.6047 32.9156 37.5059Z" fill="#5A7F9E"/>
</svg>
