<svg width="100" height="100" viewBox="0 0 100 100" fill="none" xmlns="http://www.w3.org/2000/svg">
<path d="M50 0C22.4308 0 0 22.4288 0 50C0 77.5712 22.4308 100 50 100C77.5692 100 100 77.5712 100 50C100 22.4288 77.5692 0 50 0ZM50 96.1538C24.5519 96.1538 3.84615 75.4481 3.84615 50C3.84615 24.5519 24.5519 3.84615 50 3.84615C75.4481 3.84615 96.1538 24.5519 96.1538 50C96.1538 75.4481 75.4481 96.1538 50 96.1538Z" fill="black"/>
<path d="M68.6673 31.3327C67.9154 30.5808 66.7 30.5808 65.9481 31.3327L50 47.2808L34.0519 31.3327C33.3 30.5808 32.0846 30.5808 31.3327 31.3327C30.5808 32.0846 30.5808 33.3 31.3327 34.0519L47.2808 50L31.3327 65.9481C30.5808 66.7 30.5808 67.9154 31.3327 68.6673C31.7077 69.0423 32.2 69.2308 32.6923 69.2308C33.1846 69.2308 33.6769 69.0423 34.0519 68.6673L50 52.7192L65.9481 68.6673C66.3231 69.0423 66.8154 69.2308 67.3077 69.2308C67.8 69.2308 68.2923 69.0423 68.6673 68.6673C69.4192 67.9154 69.4192 66.7 68.6673 65.9481L52.7192 50L68.6673 34.0519C69.4192 33.3 69.4192 32.0846 68.6673 31.3327Z" fill="black"/>
</svg>
