<svg width="100" height="100" viewBox="0 0 100 100" fill="none" xmlns="http://www.w3.org/2000/svg">
<path d="M84.5912 73.6738C82.5006 70.2707 79.6278 67.5666 76.2625 65.8203C75.9787 65.5432 75.6138 65.3574 75.208 65.31C72.7738 64.2232 70.208 63.6719 67.5714 63.6719H62V58.5189C65.2242 55.6096 67.5421 51.7561 68.666 47.4609H69.4286C73.5247 47.4609 76.8571 43.9562 76.8571 39.6484C76.8571 37.607 76.108 35.7469 74.8845 34.3535C75.0013 34.2492 75.1153 34.1406 75.2249 34.0256C76.2775 32.9186 76.8571 31.4473 76.8571 29.8828C76.8571 27.3119 75.2737 25.1238 73.0792 24.3367C72.423 15.3555 66.4295 7.68047 58.1773 5.275C57.6883 2.58906 55.5806 0 52.7143 0H45.2857C42.4194 0 40.3117 2.58906 39.8227 5.275C31.5713 7.68027 25.5783 15.3539 24.921 24.334C24.1221 24.6189 23.3894 25.0941 22.7751 25.74C21.7225 26.8471 21.1429 28.3184 21.1429 29.8828C21.1429 31.6725 21.9106 33.2764 23.117 34.352C21.8928 35.7453 21.1429 37.6062 21.1429 39.6484C21.1429 43.9562 24.4753 47.4609 28.5714 47.4609H29.3288C30.267 51.0463 32.046 54.3379 34.5277 57.0568C34.994 57.5682 35.4884 58.0553 36 58.5174V63.6719H30.4286C27.7918 63.6719 25.226 64.2232 22.792 65.3098C22.3864 65.3574 22.0213 65.543 21.7377 65.8201C18.372 67.5666 15.4994 70.2707 13.4088 73.6736C11.1787 77.3039 10 81.4771 10 85.7422V98.0469C10 99.1254 10.8314 100 11.8571 100H86.1429C87.1686 100 88 99.1254 88 98.0469V85.7422C88 81.4771 86.8213 77.3039 84.5912 73.6738ZM21.1429 96.0938H13.7143V85.7422C13.7143 79.8014 16.6081 74.1072 21.1429 70.727V96.0938ZM69.4286 43.5547H69.3439C69.3992 42.9049 69.4286 42.2527 69.4286 41.6016V35.7422C71.4766 35.7422 73.1429 37.4945 73.1429 39.6484C73.1429 41.8023 71.4766 43.5547 69.4286 43.5547ZM39.7143 9.40215V18.1641C39.7143 19.2428 40.5457 20.1172 41.5714 20.1172C42.5971 20.1172 43.4286 19.2428 43.4286 18.1641V6.84824C43.4286 6.84316 43.4286 6.83809 43.4286 6.83301V6.44531C43.4286 5.23516 44.4006 3.90625 45.2857 3.90625H52.7143C53.5994 3.90625 54.5714 5.23516 54.5714 6.44531V6.83301C54.5714 6.83809 54.5714 6.84316 54.5714 6.84824V18.1641C54.5714 19.2428 55.4029 20.1172 56.4286 20.1172C57.4543 20.1172 58.2857 19.2428 58.2857 18.1641V9.40215C64.2824 11.634 68.6114 17.341 69.3248 24.0234H28.6752C29.3886 17.341 33.7176 11.634 39.7143 9.40215ZM28.5714 43.5547C26.5234 43.5547 24.8571 41.8023 24.8571 39.6484C24.8571 37.4945 26.5234 35.7422 28.5714 35.7422V41.6016C28.5714 42.2527 28.6008 42.9051 28.6561 43.5547H28.5714ZM28.5714 31.8359H26.7143C25.6903 31.8359 24.8571 30.9598 24.8571 29.8828C24.8571 29.3617 25.0505 28.8713 25.4015 28.5023C25.7527 28.133 26.2188 27.9297 26.7143 27.9297H71.2857C72.3097 27.9297 73.1429 28.8059 73.1429 29.8828C73.1429 30.4039 72.9495 30.8943 72.5985 31.2633C72.2475 31.6326 71.7812 31.8359 71.2857 31.8359H69.4286H67.5714H30.4286H28.5714ZM32.6232 45.1529C32.6194 45.1316 32.6159 45.1105 32.6115 45.0896C32.3958 43.9434 32.2857 42.7701 32.2857 41.6016V35.7422H65.7143V41.6016C65.7143 42.7691 65.6042 43.9416 65.3885 45.0889C65.3841 45.11 65.3806 45.1312 65.3768 45.1525C64.5469 49.5094 62.25 53.4094 58.9053 56.1371C55.9996 58.5109 52.5744 59.7656 49 59.7656C45.4256 59.7656 42.0004 58.5109 39.092 56.135C38.4262 55.5932 37.7925 54.9938 37.2079 54.3525C34.8651 51.7857 33.2806 48.6059 32.6232 45.1529ZM47.1429 96.0938H32.2857V91.6016C32.2857 90.5229 31.4543 89.6484 30.4286 89.6484C29.4029 89.6484 28.5714 90.5229 28.5714 91.6016V96.0938H24.8571V68.6473C26.0624 68.1693 27.3041 67.8508 28.5714 67.6938V79.8828C28.5714 80.9615 29.4029 81.8359 30.4286 81.8359C31.4543 81.8359 32.2857 80.9615 32.2857 79.8828V67.5781H37.0614L47.1429 78.7109V96.0938ZM39.7143 64.8438V61.2059C42.58 62.826 45.7364 63.6719 49 63.6719C52.2637 63.6719 55.4203 62.8258 58.2857 61.2061V64.8438L49 75.0977L39.7143 64.8438ZM73.1429 96.0938H69.4286V91.6016C69.4286 90.5229 68.5971 89.6484 67.5714 89.6484C66.5457 89.6484 65.7143 90.5229 65.7143 91.6016V96.0938H50.8571V78.7109L60.9386 67.5781H65.7143V79.8828C65.7143 80.9615 66.5457 81.8359 67.5714 81.8359C68.5971 81.8359 69.4286 80.9615 69.4286 79.8828V67.6938C70.6959 67.8508 71.9374 68.1695 73.1429 68.6475V96.0938ZM84.2857 96.0938H76.8571V70.7268C81.3919 74.107 84.2857 79.8012 84.2857 85.7422V96.0938Z" fill="#5A7F9E"/>
</svg>
