<svg width="14" height="14" viewBox="0 0 14 14" fill="none" xmlns="http://www.w3.org/2000/svg">
<path d="M10.5427 7.22764C10.1254 6.90516 9.49934 6.63956 8.66466 6.43089L8.01019 6.28862V3.52846C8.02917 3.54744 8.04812 3.55691 8.0671 3.55691C8.08608 3.55691 8.09556 3.56639 8.09556 3.58537C8.64571 3.85094 8.93977 4.30622 8.97767 4.95122H11.1687C11.1308 3.81301 10.704 2.94037 9.88824 2.33333C9.35707 1.93496 8.73105 1.66939 8.01019 1.53659V0H5.98987V1.47967C5.04137 1.5935 4.29203 1.89703 3.7419 2.39024C3.02104 3.03524 2.6606 3.85097 2.6606 4.8374C2.6606 5.89972 3.03052 6.68699 3.77036 7.19919C4.16873 7.48374 4.90857 7.74931 5.98987 7.99593V10.9553C5.59149 10.8415 5.28796 10.6613 5.0793 10.4146C4.85166 10.1491 4.70938 9.78862 4.65247 9.33333H2.48987C2.48987 10.4526 2.89772 11.3347 3.71345 11.9797C4.30153 12.435 5.06032 12.729 5.98987 12.8618V14H8.01019V12.8902C8.99665 12.7574 9.7839 12.4444 10.372 11.9512C11.1308 11.2873 11.5102 10.4526 11.5102 9.44715C11.5102 8.47968 11.1877 7.73984 10.5427 7.22764ZM5.98987 5.80488C5.66738 5.71004 5.43974 5.62467 5.30694 5.54878C4.9465 5.35907 4.76629 5.06504 4.76629 4.66667C4.76629 4.23036 4.9465 3.89837 5.30694 3.67073C5.49665 3.55691 5.72429 3.46207 5.98987 3.38618V5.80488ZM8.35166 10.8984C8.25681 10.9363 8.14299 10.9648 8.01019 10.9837V8.45122C8.37064 8.56504 8.64569 8.67886 8.8354 8.79268C9.15788 9.00135 9.31914 9.2859 9.31914 9.64634C9.31914 10.2534 8.99665 10.6707 8.35166 10.8984Z" fill="white"/>
</svg>
