<svg width="80" height="80" viewBox="0 0 80 80" fill="none" xmlns="http://www.w3.org/2000/svg">
<g clip-path="url(#clip0)">
<path d="M65.032 13.0873L64.1922 7.08857C64.1498 6.78654 63.9884 6.51404 63.7437 6.33185C63.4992 6.14982 63.192 6.07325 62.8903 6.1195L56.2815 7.13169C55.6589 7.227 55.2315 7.80904 55.3268 8.43154C55.4222 9.05419 56.0045 9.48185 56.6267 9.38622L60.4778 8.79638C55.3278 15.1634 49.7889 20.5868 43.9875 24.9323C38.9393 28.7136 33.6826 31.6939 28.3634 33.7908C19.3104 37.3593 13.1286 37.125 13.0678 37.1228C12.4375 37.0909 11.9057 37.5781 11.8753 38.2065C11.8447 38.8356 12.3298 39.3703 12.9589 39.4009C12.9961 39.4026 13.1517 39.4093 13.4186 39.4093C15.0617 39.4093 20.9073 39.1572 29.0568 35.9686C34.5831 33.8064 40.0367 30.7297 45.2664 26.8237C51.2761 22.3351 57.0042 16.7303 62.3176 10.1486L62.7732 13.4036C62.8531 13.9737 63.3415 14.3859 63.9012 14.3859C63.9537 14.3859 64.0072 14.3823 64.0607 14.3748C64.6845 14.2875 65.1193 13.7111 65.032 13.0873Z" fill="#FF008A"/>
<path d="M77.8958 67.6162H68.6803C69.4389 67.1118 70.1533 66.529 70.812 65.8701C73.4087 63.2734 74.8387 59.8209 74.8387 56.1487C74.8387 52.4763 73.4087 49.0238 70.812 46.4273C69.887 45.5023 68.8602 44.7407 67.7695 44.1349V39.5312C67.7695 38.9013 67.2589 38.3909 66.6292 38.3909C65.9994 38.3909 65.4889 38.9015 65.4889 39.5312V43.1221C62.3675 42.0654 58.9781 42.166 55.9302 43.4032V29.3957C55.9302 29.2482 56.0502 29.1282 56.1977 29.1282H65.2214C65.3689 29.1282 65.4889 29.2482 65.4889 29.3957V32.2262C65.4889 32.856 65.9995 33.3665 66.6292 33.3665C67.2591 33.3665 67.7695 32.8559 67.7695 32.2262V29.3957C67.7695 27.9906 66.6264 26.8474 65.2212 26.8474H56.1975C54.7923 26.8474 53.6492 27.9906 53.6492 29.3957V44.5898C52.8414 45.1099 52.0755 45.7206 51.3692 46.427C48.7725 49.0237 47.3425 52.4762 47.3425 56.1484C47.3425 59.8207 48.7725 63.2732 51.3692 65.8698C52.028 66.5285 52.7423 67.1115 53.5009 67.6159H46.2998V39.7431C46.2998 38.3379 45.1567 37.1948 43.7516 37.1948H34.728C33.3228 37.1948 32.1797 38.3379 32.1797 39.7431V67.6162H24.8302V49.1238C24.8302 47.7187 23.687 46.5756 22.2819 46.5756H13.2581C11.853 46.5756 10.7098 47.7187 10.7098 49.1238V67.6162H6.0125V8.96994C6.0125 7.80963 5.06859 6.86572 3.90828 6.86572H2.10422C0.943906 6.86572 0 7.80963 0 8.96994V17.0659C0 17.6957 0.510625 18.2062 1.14031 18.2062C1.77 18.2062 2.28062 17.6956 2.28062 17.0659V9.1465H3.73156V67.7928C3.73156 68.9531 4.67562 69.897 5.83578 69.897H77.7191V71.6131H2.28078V24.2721C2.28078 23.6423 1.77016 23.1318 1.14047 23.1318C0.510781 23.1318 0 23.6423 0 24.2721V71.7895C0 72.9498 0.943906 73.8937 2.10422 73.8937H77.8958C79.0561 73.8937 80 72.9498 80 71.7895V69.7203C80 68.5601 79.0561 67.6162 77.8958 67.6162ZM22.5494 67.6162H12.9906V49.1238C12.9906 48.9763 13.1106 48.8563 13.2581 48.8563H22.2819C22.4294 48.8563 22.5494 48.9763 22.5494 49.1238V67.6162ZM34.4603 67.6162V39.7431C34.4603 39.5956 34.5803 39.4756 34.7278 39.4756H43.7514C43.8989 39.4756 44.0189 39.5956 44.0189 39.7431V67.6162H34.4603ZM66.1283 66.4503C64.9733 67.0151 63.7183 67.3821 62.44 67.5349C62.4184 67.5374 62.397 67.5404 62.3755 67.5429C62.2881 67.5529 62.2008 67.5613 62.1133 67.5693C61.9798 67.581 61.8462 67.5917 61.712 67.5987C61.6697 67.601 61.6273 67.6023 61.585 67.6042C61.4208 67.611 61.2561 67.6162 61.0906 67.6162C60.9247 67.6162 60.7597 67.611 60.595 67.6042C60.543 67.602 60.4908 67.5995 60.4389 67.5965C60.3147 67.5896 60.1909 67.5801 60.0673 67.5693C59.9648 67.5601 59.8625 67.5493 59.7603 67.5373C59.6872 67.5288 59.6142 67.5202 59.5416 67.5104C59.4377 67.4962 59.3341 67.4812 59.2306 67.4642C59.2172 67.462 59.2038 67.4595 59.1903 67.4571C57.8448 67.2312 56.5455 66.7673 55.36 66.0824C55.3537 66.0788 55.3472 66.0765 55.3409 66.0731C54.49 65.5782 53.6964 64.972 52.9819 64.2573C50.8159 62.0913 49.6231 59.2117 49.6231 56.1485C49.6231 53.0854 50.8159 50.2057 52.9819 48.0398C53.8113 47.2104 54.7375 46.5357 55.7241 46.014C55.7519 45.9992 55.78 45.9851 55.808 45.9706C57.4584 45.1153 59.2742 44.6865 61.0906 44.6865C62.5427 44.6865 63.9945 44.9609 65.3617 45.5074C65.3855 45.517 65.4094 45.526 65.433 45.5357C65.575 45.5935 65.7158 45.6553 65.8558 45.719C65.9116 45.7445 65.9672 45.771 66.0227 45.7974C67.172 46.3437 68.2494 47.0898 69.1992 48.0396C73.6703 52.5109 73.6703 59.7859 69.1992 64.2571C68.3003 65.1565 67.2769 65.8849 66.1698 66.4331C66.1561 66.4392 66.1419 66.4435 66.1283 66.4503Z" fill="#FF008A"/>
<path d="M61.6206 55.0447V50.983C63.0213 51.083 63.5416 51.7233 64.0217 51.7233C64.622 51.7233 64.9022 50.963 64.9022 50.5828C64.9022 49.6024 62.9814 49.1822 61.6208 49.1422V48.6019C61.6208 48.3617 61.3208 48.1417 61.0206 48.1417C60.6805 48.1417 60.4403 48.3617 60.4403 48.6019V49.1822C58.5394 49.3823 56.6386 50.3828 56.6386 52.9039C56.6386 55.465 58.6395 56.1853 60.4403 56.8256V61.5277C58.3994 61.3677 57.8592 59.967 57.1989 59.967C56.6986 59.967 56.2784 60.6272 56.2784 61.1075C56.2784 62.088 57.9592 63.4286 60.4403 63.4686H60.4402V64.0888C60.4402 64.3289 60.6803 64.5489 61.0205 64.5489C61.3205 64.5489 61.6206 64.3289 61.6206 64.0888V63.4084C63.7816 63.1083 65.2622 61.7477 65.2622 59.2866C65.2622 56.5653 63.3614 55.685 61.6206 55.0447ZM60.5605 54.6645C59.4998 54.2644 58.6395 53.8442 58.6397 52.7038C58.6397 51.6631 59.44 51.163 60.5605 51.023V54.6645ZM61.5008 61.4877V57.2658C62.4813 57.6859 63.2616 58.2461 63.2616 59.5067C63.2616 60.6474 62.5813 61.2877 61.5008 61.4877Z" fill="#FF008A"/>
</g>
<defs>
<clipPath id="clip0">
<rect width="80" height="80" fill="white"/>
</clipPath>
</defs>
</svg>
