<svg width="80" height="80" viewBox="0 0 80 80" fill="none" xmlns="http://www.w3.org/2000/svg">
<path d="M73.9897 41.8037C73.1067 41.8037 72.2914 42.019 71.5683 42.3435C70.4689 40.9376 68.7625 40.0276 66.8389 40.0257C65.8448 40.0257 64.9305 40.2894 64.1448 40.6846L64.0627 40.7302L61.6064 42.1871C60.5053 40.8704 58.8561 40.0266 57.0058 40.0257C56.0117 40.0257 55.0973 40.2894 54.3117 40.6846L54.2134 40.7401L44.8092 46.4999C42.6855 45.8724 40.3275 45.1841 38.0491 44.5379C35.6455 43.8559 33.3339 43.2221 31.4811 42.7546C30.5533 42.5204 29.7417 42.3282 29.0784 42.1915C28.7459 42.1226 28.4509 42.0682 28.1891 42.028C27.9236 41.9887 27.7019 41.961 27.4517 41.9601C27.2586 41.961 27.0914 41.9779 26.9011 42.0012C26.2084 42.0924 25.2233 42.3034 24.0613 42.5759C21.6872 43.1337 18.6572 43.9452 16.983 44.401V41.5674C16.983 39.601 15.3741 37.9919 13.4075 37.9919H3.57547C1.60891 37.9923 0 39.6012 0 41.5677V69.277C0 71.2434 1.60891 72.8524 3.57547 72.8524H13.4077C15.3741 72.8524 16.9831 71.2435 16.9831 69.277V67.1256C19.1052 67.5876 23.8148 68.6048 28.7802 69.6246C32.1384 70.3138 35.6091 71.0038 38.4756 71.524C39.9094 71.7841 41.192 72.0013 42.2423 72.1551C43.3016 72.3081 44.0908 72.4027 44.6923 72.4063C45.1606 72.4046 45.6041 72.316 46.0831 72.1837C46.9744 71.9324 47.9887 71.5062 49.1498 70.9421C53.1908 68.9721 58.9945 65.2813 64.4694 61.6291C69.9344 57.9813 75.0462 54.3793 77.5508 52.6541C79.1186 51.5735 80 49.7474 80 47.8149C79.9973 44.4959 77.3094 41.8054 73.9897 41.8037ZM14.3014 69.2766C14.3014 69.761 13.892 70.1704 13.4077 70.1704H3.57547C3.09109 70.1704 2.68172 69.761 2.68172 69.2766V41.5677C2.68172 41.0834 3.09109 40.674 3.57547 40.674H13.4077C13.892 40.674 14.3014 41.0834 14.3014 41.5677V69.2766ZM76.0303 50.4452C72.9502 52.5673 66.0577 57.4341 59.3861 61.7676C56.053 63.9324 52.7753 65.9624 50.0875 67.4337C48.745 68.1693 47.5472 68.7637 46.5898 69.1615C46.1117 69.3598 45.6933 69.5091 45.3616 69.6012C45.0317 69.6949 44.7831 69.7263 44.693 69.7245C44.4006 69.7271 43.6267 69.6502 42.6319 69.5018C39.1102 68.986 32.5181 67.6693 26.842 66.4851C24.0014 65.8924 21.385 65.3329 19.4786 64.9216C18.3711 64.6831 17.5166 64.4962 16.9837 64.3809V47.1818C17.2458 47.1093 17.5889 47.0155 18.0009 46.9038C19.4142 46.5204 21.5709 45.9455 23.5053 45.4693C24.4716 45.2305 25.3842 45.018 26.1091 44.8668C26.4702 44.7918 26.7858 44.7319 27.028 44.6934C27.2656 44.654 27.4506 44.6398 27.4525 44.6424C27.457 44.6415 27.5973 44.6504 27.7886 44.6801C28.5287 44.7909 30.0455 45.1457 31.893 45.6293C37.4608 47.0837 46.24 49.7124 49.7869 50.7895C51.0141 51.1595 52.1252 51.7173 52.8545 52.394C53.2211 52.7319 53.4964 53.093 53.6814 53.4835C53.8664 53.8759 53.9709 54.3005 53.9728 54.8198C53.9719 55.8718 53.55 56.8121 52.8609 57.5032C52.1763 58.1852 51.2466 58.6026 50.2089 58.6124L46.7487 58.2737L34.9402 56.7576C34.2053 56.6638 33.5331 57.1821 33.4384 57.9168C33.3436 58.6516 33.8639 59.3227 34.5977 59.4176L46.4445 60.9379L50.1111 61.2971H50.1772C53.7534 61.2962 56.6522 58.3974 56.6541 54.8202C56.6558 53.9202 56.4566 53.0737 56.1034 52.3327C55.5717 51.2163 54.7162 50.3519 53.7491 49.694C52.7783 49.0343 51.6825 48.5643 50.567 48.2246C49.945 48.036 49.1611 47.7982 48.2655 47.5291L55.5422 43.0715C56.0141 42.8391 56.4969 42.7077 57.0081 42.7068C57.8752 42.7059 58.6581 43.0419 59.25 43.5855L55.655 45.7174C55.0186 46.0948 54.8086 46.9179 55.1867 47.5543C55.5648 48.1907 56.3872 48.4016 57.0244 48.0237L65.3694 43.0744C65.8439 42.8393 66.3294 42.7071 66.8425 42.7071C67.7677 42.7062 68.5998 43.0915 69.2031 43.7029L59.4863 49.4655C58.8489 49.8429 58.6398 50.666 59.018 51.3032C59.3961 51.9396 60.2184 52.1496 60.8556 51.7715L71.3628 45.5396C71.4647 45.5226 71.5675 45.4976 71.6677 45.4546C71.883 45.3634 72.0583 45.2187 72.1931 45.0469L72.5211 44.8521C72.9956 44.6169 73.4811 44.4848 73.9941 44.4848C74.9156 44.4857 75.7397 44.8559 76.3467 45.4601C76.9509 46.0671 77.3209 46.8919 77.322 47.8144C77.3175 48.9382 76.8027 49.9196 76.0303 50.4452Z" fill="#FF008A"/>
<path d="M48.45 22.4125C47.2728 21.549 45.9087 21.0743 44.5547 20.6909C44.3706 20.639 44.19 20.5971 44.0059 20.5487V12.364C45.3136 12.5598 46.2806 12.9675 46.9242 13.4706C47.38 13.8246 47.6939 14.2215 47.9092 14.6675C48.1211 15.1136 48.2347 15.6167 48.2355 16.194C48.2355 16.9342 48.8361 17.5348 49.5762 17.5348C50.3164 17.5348 50.917 16.9342 50.917 16.194C50.918 15.2581 50.7258 14.342 50.3289 13.5117C49.7355 12.2612 48.6789 11.237 47.305 10.5701C46.3548 10.107 45.2464 9.81293 44.0067 9.6673V8.48824C44.0067 7.74715 43.4061 7.14746 42.6659 7.14746C41.9248 7.14746 41.3251 7.74715 41.3251 8.48824V9.59309C40.3536 9.66809 39.4811 9.85855 38.7089 10.1526C37.1911 10.7265 36.0802 11.7061 35.3927 12.8064C34.7027 13.9075 34.4148 15.1043 34.4139 16.194C34.4103 17.3407 34.6864 18.3732 35.2059 19.2143C35.6572 19.9509 36.2705 20.5229 36.9391 20.9618C38.1144 21.7297 39.457 22.1426 40.795 22.5001C40.9711 22.5457 41.148 22.5904 41.3242 22.6342V31.4386C40.0198 31.2947 39.0197 30.8762 38.3486 30.3059C37.5253 29.5979 37.1036 28.6961 37.0945 27.5448C37.0945 26.8037 36.4939 26.204 35.7537 26.204C35.0136 26.204 34.413 26.8037 34.413 27.5448C34.4031 29.4192 35.2022 31.1676 36.6162 32.3528C37.8292 33.3789 39.447 33.9939 41.3241 34.1459V35.3104C41.3241 36.0506 41.9237 36.6512 42.6648 36.6512C43.405 36.6512 44.0056 36.0506 44.0056 35.3104V34.0975C45.5234 33.9445 46.9409 33.5701 48.1531 32.8193C48.9808 32.3026 49.6986 31.5876 50.1831 30.684C50.6712 29.7829 50.918 28.7176 50.9159 27.5448C50.9176 26.3211 50.655 25.2361 50.1562 24.3314C49.722 23.5396 49.1195 22.9057 48.45 22.4125ZM41.3233 19.8623C40.0183 19.5128 38.8931 19.1036 38.2056 18.5761C37.8356 18.2962 37.5798 18.0021 37.3966 17.6437C37.215 17.2826 37.0962 16.8346 37.0944 16.1939C37.0934 15.3698 37.3966 14.3829 38.1366 13.6314C38.5094 13.2515 38.9955 12.9128 39.6614 12.6589C40.12 12.4846 40.6741 12.3557 41.3231 12.2889V19.8623H41.3233ZM47.8233 29.4097C47.6337 29.7582 47.3898 30.0453 47.0716 30.3026C46.5959 30.6853 45.9364 30.9936 45.1141 31.1982C44.7708 31.284 44.3962 31.3475 44.0056 31.3967V23.3262C44.8253 23.5629 45.5762 23.8242 46.1841 24.1511C46.8625 24.5103 47.3514 24.9179 47.6839 25.4204C48.0128 25.9254 48.23 26.5592 48.2345 27.5442C48.2326 28.355 48.0717 28.9456 47.8233 29.4097Z" fill="#FF008A"/>
</svg>
