<svg width="70" height="71" viewBox="0 0 70 71" fill="none" xmlns="http://www.w3.org/2000/svg">
<circle cx="35" cy="35" r="35" fill="#E6E8FB"/>
<g clip-path="url(#clip0)">
<path d="M35.4679 33.1667C35.5105 33.0104 35.6849 32.881 35.8926 32.9408C36.1003 33.0006 36.1841 33.2044 36.1415 33.3607C36.099 33.517 35.9245 33.6464 35.7168 33.5866C35.5091 33.5268 35.4254 33.323 35.4679 33.1667Z" fill="#605FD9" stroke="#605FD9" stroke-width="2"/>
<path d="M37.6899 32.422C37.7324 32.2657 37.9069 32.1363 38.1146 32.1961C38.3222 32.2559 38.406 32.4597 38.3635 32.616C38.3209 32.7723 38.1464 32.9018 37.9387 32.8419C37.7311 32.7821 37.6473 32.5783 37.6899 32.422Z" fill="#605FD9" stroke="#605FD9" stroke-width="2"/>
<path d="M33.945 31.3435C33.9875 31.1872 34.162 31.0578 34.3697 31.1176C34.5774 31.1774 34.6611 31.3812 34.6186 31.5375C34.576 31.6938 34.4016 31.8232 34.1939 31.7634C33.9862 31.7036 33.9024 31.4998 33.945 31.3435Z" fill="#605FD9" stroke="#605FD9" stroke-width="2"/>
<path d="M32.422 29.5203C32.4646 29.364 32.639 29.2346 32.8467 29.2944C33.0544 29.3542 33.1382 29.558 33.0956 29.7143C33.0531 29.8706 32.8786 30 32.6709 29.9402C32.4632 29.8804 32.3795 29.6766 32.422 29.5203Z" fill="#605FD9" stroke="#605FD9" stroke-width="2"/>
<path d="M39.9118 31.6773C39.9543 31.521 40.1288 31.3916 40.3365 31.4514C40.5442 31.5112 40.6279 31.715 40.5854 31.8713C40.5428 32.0276 40.3684 32.1571 40.1607 32.0972C39.953 32.0374 39.8692 31.8336 39.9118 31.6773Z" fill="#605FD9" stroke="#605FD9" stroke-width="2"/>
<path d="M42.1337 30.9326C42.1763 30.7763 42.3507 30.6469 42.5584 30.7067C42.7661 30.7665 42.8499 30.9703 42.8073 31.1266C42.7647 31.283 42.5903 31.4124 42.3826 31.3526C42.1749 31.2927 42.0912 31.089 42.1337 30.9326Z" fill="#605FD9" stroke="#605FD9" stroke-width="2"/>
<path d="M30.8992 27.6971C30.9418 27.5408 31.1162 27.4114 31.3239 27.4712C31.5316 27.531 31.6154 27.7348 31.5728 27.8911C31.5303 28.0474 31.3558 28.1768 31.1481 28.117C30.9404 28.0572 30.8567 27.8534 30.8992 27.6971Z" fill="#605FD9" stroke="#605FD9" stroke-width="2"/>
<path d="M36.1669 30.5988C36.2095 30.4425 36.3839 30.3131 36.5916 30.3729C36.7993 30.4327 36.8831 30.6365 36.8405 30.7928C36.798 30.9491 36.6235 31.0785 36.4158 31.0187C36.2081 30.9589 36.1244 30.7551 36.1669 30.5988Z" fill="#605FD9" stroke="#605FD9" stroke-width="2"/>
<path d="M34.0699 38.3025C34.1124 38.1462 34.2869 38.0168 34.4946 38.0766C34.7022 38.1364 34.786 38.3402 34.7435 38.4965C34.7009 38.6528 34.5264 38.7822 34.3188 38.7224C34.1111 38.6626 34.0273 38.4588 34.0699 38.3025Z" fill="#605FD9" stroke="#605FD9" stroke-width="2"/>
<path d="M33.5456 40.2285C33.5881 40.0721 33.7626 39.9427 33.9703 40.0025C34.178 40.0624 34.2617 40.2661 34.2192 40.4224C34.1766 40.5788 34.0021 40.7082 33.7945 40.6484C33.5868 40.5886 33.503 40.3848 33.5456 40.2285Z" fill="#605FD9" stroke="#605FD9" stroke-width="2"/>
<path d="M33.0213 42.1544C33.0638 41.9981 33.2383 41.8687 33.446 41.9285C33.6537 41.9883 33.7374 42.1921 33.6949 42.3484C33.6523 42.5047 33.4779 42.6341 33.2702 42.5743C33.0625 42.5145 32.9787 42.3107 33.0213 42.1544Z" fill="#605FD9" stroke="#605FD9" stroke-width="2"/>
<path d="M32.497 44.0803C32.5395 43.924 32.714 43.7946 32.9217 43.8544C33.1294 43.9142 33.2131 44.118 33.1706 44.2743C33.128 44.4306 32.9536 44.56 32.7459 44.5002C32.5382 44.4404 32.4544 44.2366 32.497 44.0803Z" fill="#605FD9" stroke="#605FD9" stroke-width="2"/>
<path d="M31.9727 46.0063C32.0152 45.8499 32.1897 45.7205 32.3974 45.7803C32.6051 45.8402 32.6888 46.0439 32.6463 46.2003C32.6037 46.3566 32.4293 46.486 32.2216 46.4262C32.0139 46.3664 31.9301 46.1626 31.9727 46.0063Z" fill="#605FD9" stroke="#605FD9" stroke-width="2"/>
<path d="M31.4484 47.9322C31.491 47.7758 31.6654 47.6464 31.8731 47.7062C32.0808 47.7661 32.1646 47.9698 32.122 48.1262C32.0794 48.2825 31.905 48.4119 31.6973 48.3521C31.4896 48.2923 31.4059 48.0885 31.4484 47.9322Z" fill="#605FD9" stroke="#605FD9" stroke-width="2"/>
<mask id="path-16-inside-1" fill="white">
<path d="M45.1918 58.121L43.3194 57.5818L44.0184 55.0139L40.8977 54.1151L42.6841 47.5528C43.1559 45.8195 42.7566 43.9682 41.616 42.6026L36.231 36.1557L44.0878 33.5225C45.752 32.9647 47.0279 31.5959 47.4998 29.8625L49.2862 23.3003L52.4069 24.199L53.1059 21.6311L54.9784 22.1704C55.3229 22.2696 55.6806 22.0632 55.7773 21.7082C55.8739 21.3531 55.6724 20.9857 55.3279 20.8864L53.4555 20.3472L52.8313 20.1674L27.8656 12.9773L27.2414 12.7975L25.369 12.2583C25.0245 12.1591 24.6668 12.3655 24.5701 12.7205C24.4735 13.0755 24.675 13.443 25.0195 13.5422L26.8919 14.0815L26.1929 16.6494L29.3136 17.5482L27.5272 24.1104C27.0554 25.8438 27.4547 27.6951 28.5953 29.0607L33.9803 35.5075L26.1235 38.1408C24.4593 38.6985 23.1834 40.0674 22.7115 41.8007L20.9251 48.363L17.8044 47.4642L17.1054 50.0321L15.2329 49.4929C14.8884 49.3937 14.5307 49.6001 14.434 49.9551C14.3374 50.3101 14.5389 50.6776 14.8834 50.7768L16.7558 51.3161L17.38 51.4958L42.3457 58.686L42.9699 58.8657L44.8423 59.405C45.1868 59.5042 45.5445 59.2978 45.6412 58.9428C45.7378 58.5878 45.5363 58.2203 45.1918 58.121ZM27.7907 15.7249L28.1402 14.441L51.8577 21.2716L51.5081 22.5556L49.6357 22.0163L29.6631 16.2642L27.7907 15.7249ZM29.5783 28.1918C28.7211 27.1646 28.4207 25.7732 28.7755 24.4699L30.5619 17.9077L48.0379 22.9408L46.2515 29.503C45.8967 30.8062 44.9376 31.835 43.6864 32.2549L35.3157 35.06L29.5783 28.1918ZM23.9598 42.1602C24.3146 40.857 25.2737 39.8283 26.5249 39.4084L34.8956 36.6033L40.633 43.4715C41.4902 44.4986 41.7906 45.8901 41.4358 47.1933L39.6494 53.7556L22.1734 48.7225L23.9598 42.1602ZM18.7032 49.1077L20.5756 49.647L40.5482 55.3991L42.4206 55.9383L42.0711 57.2223L18.3536 50.3916L18.7032 49.1077Z"/>
</mask>
<path d="M45.1918 58.121L43.3194 57.5818L44.0184 55.0139L40.8977 54.1151L42.6841 47.5528C43.1559 45.8195 42.7566 43.9682 41.616 42.6026L36.231 36.1557L44.0878 33.5225C45.752 32.9647 47.0279 31.5959 47.4998 29.8625L49.2862 23.3003L52.4069 24.199L53.1059 21.6311L54.9784 22.1704C55.3229 22.2696 55.6806 22.0632 55.7773 21.7082C55.8739 21.3531 55.6724 20.9857 55.3279 20.8864L53.4555 20.3472L52.8313 20.1674L27.8656 12.9773L27.2414 12.7975L25.369 12.2583C25.0245 12.1591 24.6668 12.3655 24.5701 12.7205C24.4735 13.0755 24.675 13.443 25.0195 13.5422L26.8919 14.0815L26.1929 16.6494L29.3136 17.5482L27.5272 24.1104C27.0554 25.8438 27.4547 27.6951 28.5953 29.0607L33.9803 35.5075L26.1235 38.1408C24.4593 38.6985 23.1834 40.0674 22.7115 41.8007L20.9251 48.363L17.8044 47.4642L17.1054 50.0321L15.2329 49.4929C14.8884 49.3937 14.5307 49.6001 14.434 49.9551C14.3374 50.3101 14.5389 50.6776 14.8834 50.7768L16.7558 51.3161L17.38 51.4958L42.3457 58.686L42.9699 58.8657L44.8423 59.405C45.1868 59.5042 45.5445 59.2978 45.6412 58.9428C45.7378 58.5878 45.5363 58.2203 45.1918 58.121ZM27.7907 15.7249L28.1402 14.441L51.8577 21.2716L51.5081 22.5556L49.6357 22.0163L29.6631 16.2642L27.7907 15.7249ZM29.5783 28.1918C28.7211 27.1646 28.4207 25.7732 28.7755 24.4699L30.5619 17.9077L48.0379 22.9408L46.2515 29.503C45.8967 30.8062 44.9376 31.835 43.6864 32.2549L35.3157 35.06L29.5783 28.1918ZM23.9598 42.1602C24.3146 40.857 25.2737 39.8283 26.5249 39.4084L34.8956 36.6033L40.633 43.4715C41.4902 44.4986 41.7906 45.8901 41.4358 47.1933L39.6494 53.7556L22.1734 48.7225L23.9598 42.1602ZM18.7032 49.1077L20.5756 49.647L40.5482 55.3991L42.4206 55.9383L42.0711 57.2223L18.3536 50.3916L18.7032 49.1077Z" fill="#DADFF4"/>
<path d="M43.3194 57.5818L41.3975 57.0283L40.8722 58.9581L42.794 59.5116L43.3194 57.5818ZM44.0184 55.0139L45.9403 55.5674L46.4656 53.6376L44.5437 53.0841L44.0184 55.0139ZM40.8977 54.1151L38.9758 53.5616L38.4505 55.4914L40.3724 56.0449L40.8977 54.1151ZM41.616 42.6026L43.1337 41.3211L43.1337 41.3211L41.616 42.6026ZM36.231 36.1557L35.5809 34.25L32.8231 35.1743L34.7133 37.4372L36.231 36.1557ZM44.0878 33.5225L43.4378 31.6167L43.4378 31.6167L44.0878 33.5225ZM49.2862 23.3003L49.8115 21.3705L47.8896 20.817L47.3643 22.7468L49.2862 23.3003ZM52.4069 24.199L51.8816 26.1288L53.8035 26.6823L54.3288 24.7525L52.4069 24.199ZM53.1059 21.6311L53.6313 19.7013L51.7094 19.1478L51.1841 21.0776L53.1059 21.6311ZM26.8919 14.0815L28.8138 14.635L29.3391 12.7052L27.4173 12.1517L26.8919 14.0815ZM26.1929 16.6494L24.271 16.0959L23.7457 18.0257L25.6676 18.5792L26.1929 16.6494ZM29.3136 17.5482L31.2355 18.1017L31.7608 16.1719L29.8389 15.6184L29.3136 17.5482ZM28.5953 29.0607L30.113 27.7792L30.113 27.7792L28.5953 29.0607ZM33.9803 35.5075L34.6304 37.4133L37.3882 36.489L35.498 34.2261L33.9803 35.5075ZM26.1235 38.1408L25.4735 36.235L25.4735 36.235L26.1235 38.1408ZM20.9251 48.363L20.3998 50.2928L22.3217 50.8463L22.847 48.9165L20.9251 48.363ZM17.8044 47.4642L18.3297 45.5345L16.4078 44.981L15.8825 46.9107L17.8044 47.4642ZM17.1054 50.0321L16.58 51.9619L18.5019 52.5154L19.0272 50.5856L17.1054 50.0321ZM27.7907 15.7249L25.8688 15.1714L25.3435 17.1012L27.2654 17.6547L27.7907 15.7249ZM28.1402 14.441L28.6655 12.5112L26.7437 11.9577L26.2183 13.8875L28.1402 14.441ZM51.8577 21.2716L53.7795 21.8251L54.3049 19.8953L52.383 19.3418L51.8577 21.2716ZM51.5081 22.5556L50.9828 24.4853L52.9047 25.0388L53.43 23.1091L51.5081 22.5556ZM29.5783 28.1918L28.0601 29.4726L28.0607 29.4733L29.5783 28.1918ZM30.5619 17.9077L31.0872 15.9779L29.1653 15.4244L28.64 17.3542L30.5619 17.9077ZM48.0379 22.9408L49.9598 23.4943L50.4851 21.5645L48.5632 21.011L48.0379 22.9408ZM43.6864 32.2549L44.3364 34.1607L44.3372 34.1604L43.6864 32.2549ZM35.3157 35.06L33.7981 36.3415L34.6796 37.3967L35.9657 36.9658L35.3157 35.06ZM26.5249 39.4084L25.8749 37.5026L25.8741 37.5029L26.5249 39.4084ZM34.8956 36.6033L36.4132 35.3218L35.5317 34.2665L34.2456 34.6975L34.8956 36.6033ZM40.633 43.4715L42.1512 42.1907L42.1506 42.19L40.633 43.4715ZM39.6494 53.7556L39.1241 55.6854L41.046 56.2389L41.5713 54.3091L39.6494 53.7556ZM22.1734 48.7225L20.2515 48.169L19.7262 50.0988L21.6481 50.6523L22.1734 48.7225ZM18.7032 49.1077L19.2285 47.1779L17.3066 46.6244L16.7813 48.5542L18.7032 49.1077ZM42.4206 55.9383L44.3425 56.4918L44.8678 54.562L42.9459 54.0085L42.4206 55.9383ZM42.0711 57.2223L41.5458 59.152L43.4676 59.7056L43.993 57.7758L42.0711 57.2223ZM18.3536 50.3916L16.4318 49.8381L15.9064 51.7679L17.8283 52.3214L18.3536 50.3916ZM45.7171 56.1913L43.8447 55.652L42.794 59.5116L44.6665 60.0508L45.7171 56.1913ZM45.2413 58.1353L45.9403 55.5674L42.0965 54.4604L41.3975 57.0283L45.2413 58.1353ZM44.5437 53.0841L41.423 52.1853L40.3724 56.0449L43.4931 56.9437L44.5437 53.0841ZM42.8196 54.6686L44.606 48.1063L40.7622 46.9993L38.9758 53.5616L42.8196 54.6686ZM44.606 48.1063C45.2479 45.7482 44.7093 43.2075 43.1337 41.3211L40.0983 43.8841C40.804 44.7289 41.064 45.8908 40.7622 46.9993L44.606 48.1063ZM43.1337 41.3211L37.7487 34.8743L34.7133 37.4372L40.0983 43.8841L43.1337 41.3211ZM36.881 38.0615L44.7378 35.4283L43.4378 31.6167L35.5809 34.25L36.881 38.0615ZM44.7378 35.4283C47.0367 34.6578 48.7797 32.7742 49.4217 30.416L45.5779 29.309C45.2761 30.4176 44.4673 31.2717 43.4378 31.6167L44.7378 35.4283ZM49.4217 30.416L51.2081 23.8538L47.3643 22.7468L45.5779 29.309L49.4217 30.416ZM48.7609 25.23L51.8816 26.1288L52.9322 22.2693L49.8115 21.3705L48.7609 25.23ZM54.3288 24.7525L55.0278 22.1846L51.1841 21.0776L50.485 23.6455L54.3288 24.7525ZM52.5806 23.5609L54.453 24.1002L55.5037 20.2406L53.6313 19.7013L52.5806 23.5609ZM54.453 24.1002C55.9011 24.5172 57.324 23.6397 57.6992 22.2617L53.8554 21.1547C54.0372 20.4867 54.7447 20.022 55.5037 20.2406L54.453 24.1002ZM57.6992 22.2617C58.0743 20.8837 57.3013 19.3737 55.8532 18.9567L54.8026 22.8162C54.0436 22.5976 53.6736 21.8226 53.8554 21.1547L57.6992 22.2617ZM55.8532 18.9567L53.9808 18.4174L52.9301 22.2769L54.8026 22.8162L55.8532 18.9567ZM53.9808 18.4174L53.3566 18.2376L52.306 22.0972L52.9301 22.2769L53.9808 18.4174ZM53.3566 18.2376L28.3909 11.0475L27.3403 14.9071L52.306 22.0972L53.3566 18.2376ZM28.3909 11.0475L27.7668 10.8678L26.7161 14.7273L27.3403 14.9071L28.3909 11.0475ZM27.7668 10.8678L25.8943 10.3285L24.8437 14.188L26.7161 14.7273L27.7668 10.8678ZM25.8943 10.3285C24.4463 9.91146 23.0234 10.789 22.6482 12.167L26.492 13.274C26.3102 13.942 25.6027 14.4066 24.8437 14.188L25.8943 10.3285ZM22.6482 12.167C22.2731 13.545 23.0461 15.055 24.4942 15.472L25.5448 11.6125C26.3038 11.831 26.6738 12.606 26.492 13.274L22.6482 12.167ZM24.4942 15.472L26.3666 16.0113L27.4173 12.1517L25.5448 11.6125L24.4942 15.472ZM24.97 13.528L24.271 16.0959L28.1148 17.2029L28.8138 14.635L24.97 13.528ZM25.6676 18.5792L28.7883 19.4779L29.8389 15.6184L26.7182 14.7196L25.6676 18.5792ZM27.3917 16.9947L25.6053 23.5569L29.4491 24.6639L31.2355 18.1017L27.3917 16.9947ZM25.6053 23.5569C24.9634 25.9151 25.502 28.4558 27.0776 30.3421L30.113 27.7792C29.4073 26.9344 29.1473 25.7725 29.4491 24.6639L25.6053 23.5569ZM27.0776 30.3421L32.4627 36.789L35.498 34.2261L30.113 27.7792L27.0776 30.3421ZM33.3303 33.6018L25.4735 36.235L26.7735 40.0465L34.6304 37.4133L33.3303 33.6018ZM25.4735 36.235C23.1746 37.0055 21.4316 38.8891 20.7896 41.2472L24.6334 42.3542C24.9352 41.2457 25.744 40.3916 26.7735 40.0465L25.4735 36.235ZM20.7896 41.2472L19.0032 47.8095L22.847 48.9165L24.6334 42.3542L20.7896 41.2472ZM21.4504 46.4332L18.3297 45.5345L17.2791 49.394L20.3998 50.2928L21.4504 46.4332ZM15.8825 46.9107L15.1835 49.4786L19.0272 50.5856L19.7263 48.0177L15.8825 46.9107ZM17.6307 48.1024L15.7583 47.5631L14.7076 51.4227L16.58 51.9619L17.6307 48.1024ZM15.7583 47.5631C14.3102 47.1461 12.8873 48.0236 12.5121 49.4016L16.3559 50.5086C16.1741 51.1766 15.4666 51.6413 14.7076 51.4227L15.7583 47.5631ZM12.5121 49.4016C12.137 50.7796 12.91 52.2896 14.3581 52.7066L15.4087 48.8471C16.1678 49.0657 16.5377 49.8406 16.3559 50.5086L12.5121 49.4016ZM14.3581 52.7066L16.2305 53.2459L17.2812 49.3863L15.4087 48.8471L14.3581 52.7066ZM16.2305 53.2459L16.8547 53.4256L17.9053 49.5661L17.2812 49.3863L16.2305 53.2459ZM16.8547 53.4256L41.8204 60.6158L42.871 56.7562L17.9053 49.5661L16.8547 53.4256ZM41.8204 60.6158L42.4445 60.7955L43.4952 56.936L42.871 56.7562L41.8204 60.6158ZM42.4445 60.7955L44.317 61.3348L45.3676 57.4752L43.4952 56.936L42.4445 60.7955ZM44.317 61.3348C45.765 61.7518 47.1879 60.8743 47.5631 59.4963L43.7193 58.3893C43.9011 57.7213 44.6086 57.2566 45.3676 57.4752L44.317 61.3348ZM47.5631 59.4963C47.9382 58.1183 47.1652 56.6083 45.7171 56.1913L44.6665 60.0508C43.9075 59.8322 43.5375 59.0573 43.7193 58.3893L47.5631 59.4963ZM29.7126 16.2784L30.0621 14.9945L26.2183 13.8875L25.8688 15.1714L29.7126 16.2784ZM27.6149 16.3708L51.3323 23.2014L52.383 19.3418L28.6655 12.5112L27.6149 16.3708ZM49.9358 20.7181L49.5863 22.0021L53.43 23.1091L53.7795 21.8251L49.9358 20.7181ZM52.0335 20.6258L50.161 20.0865L49.1104 23.9461L50.9828 24.4853L52.0335 20.6258ZM50.161 20.0865L30.1884 14.3344L29.1378 18.194L49.1104 23.9461L50.161 20.0865ZM30.1884 14.3344L28.316 13.7952L27.2654 17.6547L29.1378 18.194L30.1884 14.3344ZM31.0965 26.9109C30.6735 26.4041 30.5128 25.7016 30.6974 25.0234L26.8536 23.9164C26.3287 25.8447 26.7687 27.9252 28.0601 29.4726L31.0965 26.9109ZM30.6974 25.0234L32.4838 18.4612L28.64 17.3542L26.8536 23.9164L30.6974 25.0234ZM30.0366 19.8374L47.5126 24.8705L48.5632 21.011L31.0872 15.9779L30.0366 19.8374ZM46.116 22.3873L44.3296 28.9495L48.1734 30.0565L49.9598 23.4943L46.116 22.3873ZM44.3296 28.9495C44.145 29.6276 43.653 30.1422 43.0356 30.3494L44.3372 34.1604C46.2221 33.5278 47.6485 31.9848 48.1734 30.0565L44.3296 28.9495ZM43.0365 30.3491L34.6658 33.1542L35.9657 36.9658L44.3364 34.1607L43.0365 30.3491ZM36.8333 33.7784L31.0959 26.9102L28.0607 29.4733L33.7981 36.3415L36.8333 33.7784ZM25.8817 42.7137C26.0663 42.0356 26.5583 41.5211 27.1757 41.3139L25.8741 37.5029C23.9892 38.1355 22.5628 39.6784 22.0379 41.6067L25.8817 42.7137ZM27.1748 41.3142L35.5455 38.5091L34.2456 34.6975L25.8749 37.5026L27.1748 41.3142ZM33.378 37.8848L39.1154 44.753L42.1506 42.19L36.4132 35.3218L33.378 37.8848ZM39.1148 44.7523C39.5378 45.2592 39.6985 45.9617 39.5139 46.6398L43.3577 47.7468C43.8826 45.8185 43.4426 43.738 42.1512 42.1907L39.1148 44.7523ZM39.5139 46.6398L37.7275 53.2021L41.5713 54.3091L43.3577 47.7468L39.5139 46.6398ZM40.1747 51.8258L22.6987 46.7927L21.6481 50.6523L39.1241 55.6854L40.1747 51.8258ZM24.0953 49.276L25.8817 42.7137L22.0379 41.6067L20.2515 48.169L24.0953 49.276ZM18.1778 51.0375L20.0503 51.5767L21.1009 47.7172L19.2285 47.1779L18.1778 51.0375ZM20.0503 51.5767L40.0229 57.3288L41.0735 53.4693L21.1009 47.7172L20.0503 51.5767ZM40.0229 57.3288L41.8953 57.8681L42.9459 54.0085L41.0735 53.4693L40.0229 57.3288ZM40.4987 55.3848L40.1492 56.6688L43.993 57.7758L44.3425 56.4918L40.4987 55.3848ZM42.5964 55.2925L18.879 48.4619L17.8283 52.3214L41.5458 59.152L42.5964 55.2925ZM20.2755 50.9452L20.625 49.6612L16.7813 48.5542L16.4318 49.8381L20.2755 50.9452Z" fill="#605FD9" mask="url(#path-16-inside-1)"/>
</g>
<defs>
<clipPath id="clip0">
<rect width="46.7649" height="47.9043" fill="white" transform="matrix(0.960942 0.276751 -0.262664 0.964887 21 11)"/>
</clipPath>
</defs>
</svg>
