<svg width="26" height="100" viewBox="0 0 26 100" fill="none" xmlns="http://www.w3.org/2000/svg">
<path d="M13 62.5C19.9036 62.5 25.5 56.9036 25.5 50C25.5 43.0964 19.9036 37.5 13 37.5C6.09644 37.5 0.5 43.0964 0.5 50C0.5 56.9036 6.09644 62.5 13 62.5Z" fill="#FFFFFF"/>
<path d="M13 100C19.9036 100 25.5 94.4036 25.5 87.5C25.5 80.5964 19.9036 75 13 75C6.09644 75 0.5 80.5964 0.5 87.5C0.5 94.4036 6.09644 100 13 100Z" fill="#FFFFFF"/>
<path d="M13 25C19.9036 25 25.5 19.4036 25.5 12.5C25.5 5.59644 19.9036 0 13 0C6.09644 0 0.5 5.59644 0.5 12.5C0.5 19.4036 6.09644 25 13 25Z" fill="#FFFFFF"/>
</svg>
