<svg width="100" height="100" viewBox="0 0 100 100" fill="none" xmlns="http://www.w3.org/2000/svg">
<path d="M60.3457 22.3661C64.9694 25.2652 68.2117 30.1709 68.802 35.8654C70.6876 36.7465 72.7805 37.2532 74.9994 37.2532C83.1 37.2532 89.6655 30.6876 89.6655 22.5883C89.6655 14.4877 83.1 7.92208 74.9994 7.92208C66.9762 7.92458 60.468 14.3729 60.3457 22.3661ZM50.7376 52.3948C58.8381 52.3948 65.4037 45.828 65.4037 37.7287C65.4037 29.6293 58.8369 23.0637 50.7376 23.0637C42.6382 23.0637 36.0689 29.6306 36.0689 37.7299C36.0689 45.8292 42.6382 52.3948 50.7376 52.3948ZM56.9587 53.3944H44.5139C34.1595 53.3944 25.7357 61.8195 25.7357 72.1739V87.3929L25.7744 87.6313L26.8227 87.9595C36.7041 91.047 45.2889 92.0766 52.3549 92.0766C66.1563 92.0766 74.1558 88.1417 74.6487 87.8909L75.6284 87.3954H75.7332V72.1739C75.7369 61.8195 67.3131 53.3944 56.9587 53.3944ZM81.223 38.254H68.8743C68.7408 43.1948 66.6317 47.6438 63.2959 50.8436C72.4997 53.5804 79.2338 62.1153 79.2338 72.1964V76.8863C91.4264 76.4395 98.4525 72.9839 98.9155 72.7517L99.8952 72.255H100V57.031C100 46.6779 91.5762 38.254 81.223 38.254ZM25.0031 37.2557C27.8722 37.2557 30.5416 36.4183 32.8029 34.9918C33.5218 30.3032 36.0352 26.2061 39.6256 23.4157C39.6406 23.1411 39.6668 22.869 39.6668 22.592C39.6668 14.4914 33.1 7.92583 25.0031 7.92583C16.9013 7.92583 10.337 14.4914 10.337 22.592C10.337 30.6888 16.9013 37.2557 25.0031 37.2557ZM38.1742 50.8436C34.8546 47.66 32.753 43.2347 32.5995 38.3239C32.1415 38.2902 31.6885 38.254 31.2218 38.254H18.7782C8.42381 38.254 0 46.6779 0 57.031V72.2526L0.0386871 72.4872L1.08698 72.8179C9.0141 75.2926 16.0889 76.4333 22.2339 76.7927V72.1964C22.2364 62.1153 28.9679 53.5829 38.1742 50.8436Z" fill="#5A7F9E"/>
</svg>
