<svg width="128" height="129" viewBox="0 0 128 129" fill="none" xmlns="http://www.w3.org/2000/svg">
<circle cx="64" cy="64.436" r="64" fill="#EEF2F5"/>
<circle cx="63.4236" cy="64.436" r="51.8919" fill="#FAFAFA"/>
<path d="M89.9208 45.2504C85.8186 41.1455 79.14 41.1444 75.0333 45.2471C75.0252 45.2551 75.0183 45.264 75.0105 45.2723L67.7177 52.566C67.0631 53.2206 67.0633 54.282 67.7179 54.9364C68.0451 55.2636 68.474 55.4272 68.9031 55.4272C69.332 55.4272 69.7611 55.2636 70.0885 54.9361L77.407 47.6167C77.4119 47.6118 77.416 47.6062 77.4211 47.6013C80.2221 44.8224 84.7601 44.8285 87.5505 47.6205C90.3484 50.4178 90.349 54.9697 87.5522 57.7676L77.2917 68.0279C75.9366 69.3832 74.1346 70.1296 72.218 70.1296C70.3013 70.1296 68.4993 69.3834 67.1438 68.0279C66.4892 67.3733 65.4278 67.3733 64.7732 68.0279C64.1186 68.6825 64.1186 69.7439 64.7732 70.3983C66.7618 72.3867 69.4055 73.4818 72.2177 73.4818C75.0299 73.4818 77.6736 72.3867 79.6621 70.3983L89.9226 60.1377C94.0266 56.0328 94.0255 49.354 89.9208 45.2504Z" fill="#28528C"/>
<path d="M46.337 57.6002L36.0764 67.8605C31.9744 71.9654 31.9744 78.6443 36.0769 82.7494C38.1294 84.8022 40.8254 85.8284 43.5219 85.8282C46.2163 85.828 48.9116 84.8028 50.9635 82.7525C50.964 82.7518 50.9646 82.7514 50.9653 82.7507L58.2838 75.4302C58.9382 74.7754 58.9382 73.7142 58.2834 73.0596C57.6285 72.4052 56.5676 72.4052 55.9128 73.0598L48.5943 80.3803C48.594 80.3806 48.594 80.3808 48.5938 80.381C45.7957 83.1771 41.2445 83.176 38.4477 80.379C35.6514 77.5809 35.6514 73.0281 38.4472 70.2304L48.7076 59.9703C51.5055 57.1722 56.0578 57.172 58.8557 59.9694C59.5103 60.624 60.5717 60.624 61.2261 59.9692C61.8807 59.3146 61.8805 58.2532 61.2259 57.5988C57.1207 53.4946 50.4414 53.4951 46.337 57.6002Z" fill="#28528C"/>
<path d="M60.8052 45.8731C61.0725 46.5187 61.6967 46.9085 62.3546 46.9085C62.5683 46.9085 62.7855 46.8674 62.9952 46.7807C63.8505 46.4266 64.257 45.4462 63.9028 44.5909L62.01 40.0184C61.6562 39.1631 60.6755 38.7568 59.8202 39.1108C58.9649 39.4648 58.5584 40.4453 58.9126 41.3006L60.8052 45.8731Z" fill="#28528C"/>
<path d="M67.3914 46.7804C67.6013 46.8674 67.8185 46.9085 68.0324 46.9085C68.6899 46.9085 69.3141 46.519 69.5816 45.8735L71.4762 41.302C71.8304 40.4467 71.4246 39.4662 70.5693 39.1117C69.7142 38.7575 68.7337 39.1631 68.379 40.0187L66.4845 44.5902C66.1302 45.4453 66.5363 46.426 67.3914 46.7804Z" fill="#28528C"/>
<path d="M53.1245 48.9027L57.6952 50.7975C57.905 50.8847 58.1225 50.9258 58.3364 50.9258C58.9939 50.9258 59.6179 50.5363 59.8854 49.891C60.2399 49.0359 59.8342 48.0553 58.9789 47.7008L54.4083 45.8058C53.5532 45.4509 52.5725 45.8572 52.218 46.7123C51.8636 47.5676 52.2694 48.5483 53.1245 48.9027Z" fill="#28528C"/>
<path d="M65.1952 82.1274C64.8409 81.2721 63.8607 80.8656 63.0054 81.2196C62.1501 81.5736 61.7435 82.554 62.0976 83.4093L63.9899 87.9816C64.2572 88.6272 64.8814 89.0172 65.5393 89.0172C65.753 89.0172 65.97 88.9761 66.1797 88.8894C67.035 88.5354 67.4415 87.5549 67.0875 86.6996L65.1952 82.1274Z" fill="#28528C"/>
<path d="M58.6066 81.2196C57.7511 80.8651 56.7708 81.2705 56.4161 82.1258L54.5209 86.6965C54.1662 87.5518 54.5719 88.5323 55.4272 88.8869C55.6373 88.9741 55.8547 89.0152 56.0686 89.0152C56.7261 89.0152 57.3501 88.6259 57.6176 87.9807L59.5129 83.41C59.8673 82.5547 59.4617 81.5742 58.6066 81.2196Z" fill="#28528C"/>
<path d="M72.8738 79.0968L68.3018 77.2018C67.4465 76.8471 66.466 77.2532 66.1116 78.1083C65.7571 78.9636 66.163 79.9441 67.0181 80.2985L71.5901 82.1938C71.7999 82.2809 72.0174 82.322 72.2313 82.322C72.8888 82.322 73.5128 81.9325 73.7803 81.2873C74.1348 80.4317 73.7289 79.4513 72.8738 79.0968Z" fill="#28528C"/>
</svg>
