<svg width="80" height="80" viewBox="0 0 80 80" fill="none" xmlns="http://www.w3.org/2000/svg">
<g clip-path="url(#clip0)">
<path d="M44.7695 31.0503C44.5368 30.773 44.1933 30.6128 43.8315 30.6128H37.32C36.7258 30.6128 36.2173 31.0393 36.114 31.6248L34.9625 38.1553C34.8995 38.5118 34.9978 38.8778 35.2305 39.1551C35.463 39.4323 35.8065 39.5923 36.1685 39.5923H42.68C43.2743 39.5923 43.7828 39.1658 43.886 38.5806L45.0375 32.0498C45.1005 31.6935 45.0023 31.3273 44.7695 31.0503ZM41.6528 37.1436H37.628L38.3475 33.0618H42.3723L41.6528 37.1436Z" fill="#FF008A"/>
<path d="M56.5815 33.0613C59.057 33.0613 61.0713 31.0473 61.0713 28.5715C61.0713 26.0958 59.0565 24.0813 56.581 24.0813H53.0745L53.7367 20.326C54.1665 17.888 52.5328 15.5548 50.0945 15.1248C49.836 15.0791 49.5725 15.0562 49.3118 15.0562C47.1308 15.0562 45.2725 16.6166 44.8938 18.7668L43.9565 24.0815H39.9317L40.594 20.3262C41.0238 17.888 39.39 15.5549 36.9517 15.1249C36.6932 15.0793 36.43 15.0563 36.169 15.0563C33.988 15.0563 32.1297 16.6168 31.7507 18.7669L30.8135 24.0816H25.7237C23.248 24.0816 21.2338 26.0958 21.2338 28.5715C21.2338 31.0473 23.248 33.0613 25.7237 33.0613H29.23L28.5105 37.1428H23.4205C20.9449 37.1428 18.9307 39.157 18.9307 41.6328C18.9307 44.1085 20.9449 46.1225 23.4205 46.1225H26.927L26.3095 49.6243C25.8797 52.0623 27.5135 54.3955 29.9517 54.8255C30.2105 54.8713 30.474 54.8943 30.735 54.8943C32.9157 54.8943 34.7737 53.3338 35.1527 51.1838L36.0452 46.1225H40.07L39.4525 49.6243C39.0227 52.0623 40.6565 54.3955 43.0947 54.8255C43.3535 54.8713 43.617 54.8943 43.878 54.8943C46.0588 54.8943 47.9165 53.3338 48.2958 51.1838L49.1883 46.1225H54.278C56.7538 46.1225 58.7678 44.1085 58.7678 41.6328C58.7678 39.157 56.7538 37.1428 54.278 37.1428H50.7718L51.4913 33.0613H56.5815ZM48.3743 39.1543C48.607 39.4315 48.9502 39.5915 49.3123 39.5915H54.2778C55.4033 39.5915 56.3188 40.507 56.3188 41.6325C56.3188 42.7578 55.4033 43.6733 54.2778 43.6733H48.1607C47.5665 43.6733 47.058 44.0998 46.9548 44.685L45.8838 50.7578C45.7115 51.7353 44.8678 52.445 43.8777 52.445C43.7587 52.445 43.6382 52.4343 43.5197 52.4133C42.4115 52.2178 41.6687 51.1575 41.864 50.049L42.735 45.1103C42.7977 44.754 42.6995 44.3878 42.467 44.1108C42.2342 43.8335 41.891 43.6733 41.529 43.6733H35.0177C34.4237 43.6733 33.9152 44.1 33.812 44.6853L32.7412 50.758C32.5687 51.7355 31.725 52.445 30.735 52.445C30.616 52.445 30.4955 52.4345 30.377 52.4135C29.2687 52.218 28.5262 51.1575 28.7215 50.0493L29.5922 45.1105C29.6552 44.754 29.557 44.388 29.3242 44.1108C29.0915 43.8338 28.7482 43.6735 28.3862 43.6735H23.4205C22.2952 43.6735 21.3797 42.758 21.3797 41.6328C21.3797 40.5073 22.2952 39.592 23.4205 39.592H29.5377C30.132 39.592 30.6405 39.1653 30.7437 38.58L31.8952 32.0495C31.9582 31.693 31.86 31.327 31.6275 31.0498C31.3947 30.7725 31.0515 30.6125 30.6895 30.6125H25.7237C24.5982 30.6125 23.6828 29.697 23.6828 28.5715C23.6828 27.4463 24.5983 26.5308 25.7237 26.5308H31.8407C32.435 26.5308 32.9435 26.1043 33.0467 25.519L34.1625 19.1924C34.3347 18.2149 35.1787 17.5055 36.169 17.5055C36.288 17.5055 36.4082 17.5162 36.5265 17.5371C37.6347 17.7326 38.3775 18.793 38.182 19.9012L37.2665 25.0938C37.2035 25.4503 37.3015 25.8163 37.5345 26.0935C37.767 26.3708 38.1102 26.5308 38.4725 26.5308H44.984C45.5783 26.5308 46.0865 26.1043 46.19 25.519L47.3055 19.1924C47.4777 18.2149 48.3218 17.5055 49.312 17.5055C49.431 17.5055 49.5513 17.5162 49.6695 17.5371C50.7778 17.7326 51.5205 18.793 51.3253 19.9012L50.4095 25.0938C50.3465 25.4503 50.4448 25.8163 50.6775 26.0935C50.9103 26.3708 51.2535 26.5308 51.6155 26.5308H56.5813C57.7065 26.5308 58.622 27.4463 58.622 28.5715C58.6218 29.6965 57.7063 30.612 56.581 30.612H50.4637C49.8695 30.612 49.3613 31.0388 49.2578 31.624L48.1063 38.1545C48.0433 38.511 48.1415 38.877 48.3743 39.1543Z" fill="#FF008A"/>
<path d="M68.4355 4.13574H11.5645C5.1878 4.13574 0 9.41182 0 15.8968V54.093C0 60.5782 5.1878 65.8542 11.5645 65.8542H12.0703L16.6437 73.9262C17.3209 75.1217 18.587 75.8645 19.948 75.8645C21.3086 75.8645 22.5747 75.1217 23.252 73.9262L27.8255 65.8542H68.4358C74.8125 65.8542 80.0002 60.5782 80.0002 54.093V15.8968C80 9.41182 74.8122 4.13574 68.4355 4.13574ZM77.551 54.093C77.551 59.2277 73.4618 63.4055 68.4355 63.4055H27.112C26.671 63.4055 26.264 63.6425 26.0465 64.0262L21.1214 72.7192C20.878 73.1487 20.4284 73.416 19.948 73.416C19.4676 73.416 19.018 73.1492 18.7745 72.7192L13.8494 64.0262C13.632 63.6425 13.225 63.4055 12.7841 63.4055H11.5647C6.53845 63.4055 2.44906 59.228 2.44906 54.093V15.8968C2.44906 10.7621 6.53845 6.58464 11.5647 6.58464H68.4358C73.462 6.58464 77.5513 10.7621 77.5513 15.8968V54.093H77.551Z" fill="#FF008A"/>
</g>
<defs>
<clipPath id="clip0">
<rect width="80" height="80" fill="white"/>
</clipPath>
</defs>
</svg>
