<svg width="100" height="100" viewBox="0 0 100 100" fill="none" xmlns="http://www.w3.org/2000/svg">
<g clip-path="url(#clip0)">
<path d="M26.6666 43.6023V38.3335C26.6666 37.3335 26 36.6669 25 36.6669H18.3334C17.3334 36.6669 16.6668 37.3335 16.6668 38.3335V43.3335H13.3334V38.3335C13.3334 37.3335 12.6668 36.6669 11.6668 36.6669H5C4 36.6669 3.3334 37.3335 3.3334 38.3335V43.6023C1.35996 44.2644 0 46.0892 0 48.3335V61.6669V78.3335V95.0001C0 96.0001 0.666601 96.6668 1.6666 96.6668H28.3332C29.3332 96.6668 29.9998 96.0001 29.9998 95.0001V78.3335V61.6669V48.3335C30 46.0892 28.64 44.2644 26.6666 43.6023ZM3.3334 63.3335H26.6668V76.6669H3.3334V63.3335ZM20 40.0001H23.3334V43.3335H20V40.0001ZM6.6666 40.0001H10V43.3335H6.6666V40.0001ZM3.3334 48.3335C3.3334 47.3335 4 46.6669 5 46.6669H11.6666H18.3332H25C26 46.6669 26.6666 47.3335 26.6666 48.3335V60.0001H3.3334V48.3335ZM26.6666 93.3335H3.3334V80.0001H26.6668V93.3335H26.6666Z" fill="#5A7F9E"/>
<path d="M61.6666 26.9355V21.6667C61.6666 20.6667 61 20.0001 60 20.0001H53.3334C52.3334 20.0001 51.6668 20.6667 51.6668 21.6667V26.6667H48.3334V21.6667C48.3334 20.6667 47.6668 20.0001 46.6668 20.0001H40C39 20.0001 38.3334 20.6667 38.3334 21.6667V26.9355C36.3601 27.5978 35 29.4226 35 31.6667V45.0001V61.6668V78.3334V95.0002C35 96.0002 35.6666 96.6668 36.6666 96.6668H63.3332C64.3332 96.6668 64.9998 96.0002 64.9998 95.0002V78.3336V61.667V45.0001V31.6667C65 29.4226 63.64 27.5978 61.6666 26.9355ZM61.6666 60.0002H38.3334V46.6667H61.6668V60.0002H61.6666ZM38.3334 63.3336H61.6668V76.667H38.3334V63.3336ZM55 23.3335H58.3334V26.6669H55V23.3335ZM41.6666 23.3335H45V26.6669H41.6666V23.3335ZM38.3334 31.6667C38.3334 30.6667 39 30.0001 40 30.0001H46.6666H53.3332H60C61 30.0001 61.6666 30.6667 61.6666 31.6667V43.3333H38.3334V31.6667ZM61.6666 93.3336H38.3334V80.0002H61.6668V93.3336H61.6666Z" fill="#5A7F9E"/>
<path d="M96.6665 10.2689V5.00015C96.6665 4.00015 95.9999 3.33355 94.9999 3.33355H88.3333C87.3333 3.33355 86.6667 4.00015 86.6667 5.00015V10.0001H83.3333V5.00015C83.3333 4.00015 82.6667 3.33355 81.6667 3.33355H74.9999C73.9999 3.33355 73.3333 4.00015 73.3333 5.00015V10.2689C71.3599 10.9312 69.9999 12.7558 69.9999 15.0001V28.3335V45.0001V61.6667V78.3333V95.0001C69.9999 96.0001 70.6665 96.6667 71.6665 96.6667H98.3331C99.3331 96.6667 99.9997 96.0001 99.9997 95.0001V78.3335V61.6669V45.0001V28.3335V15.0001C99.9999 12.7558 98.6399 10.9312 96.6665 10.2689ZM96.6665 43.3335H73.3333V30.0001H96.6667V43.3335H96.6665ZM96.6665 60.0001H73.3333V46.6667H96.6667V60.0001H96.6665ZM73.3333 63.3335H96.6667V76.6669H73.3333V63.3335ZM89.9999 6.66675H93.3333V10.0001H89.9999V6.66675ZM76.6665 6.66675H79.9999V10.0001H76.6665V6.66675ZM73.3333 15.0001C73.3333 14.0001 73.9999 13.3335 74.9999 13.3335H81.6665H88.3331H94.9999C95.9999 13.3335 96.6665 14.0001 96.6665 15.0001V26.6667H73.3333V15.0001ZM96.6665 93.3335H73.3333V80.0001H96.6667V93.3335H96.6665Z" fill="#5A7F9E"/>
</g>
<defs>
<clipPath id="clip0">
<rect width="100" height="100" fill="white" transform="translate(0 0.00012207)"/>
</clipPath>
</defs>
</svg>
