<svg width="32" height="32" viewBox="0 0 32 32" fill="none" xmlns="http://www.w3.org/2000/svg" style="">
<g clip-path="url(#clip0)">
<path d="M17.9078 12.4201C17.8147 12.3092 17.6773 12.2451 17.5326 12.2451H14.928C14.6903 12.2451 14.4869 12.4157 14.4456 12.6499L13.985 15.2621C13.9598 15.4047 13.9991 15.5511 14.0922 15.662C14.1852 15.7729 14.3226 15.8369 14.4674 15.8369H17.072C17.3097 15.8369 17.5131 15.6663 17.5544 15.4322L18.015 12.8199C18.0402 12.6774 18.0009 12.5309 17.9078 12.4201ZM16.6611 14.8574H15.0512L15.339 13.2247H16.9489L16.6611 14.8574Z" fill="white" class="CIttKrtk_0"></path>
<path d="M22.6326 13.2245C23.6228 13.2245 24.4285 12.4189 24.4285 11.4286C24.4285 10.4383 23.6226 9.63252 22.6324 9.63252H21.2298L21.4947 8.1304C21.6666 7.15521 21.0131 6.2219 20.0378 6.0499C19.9344 6.03165 19.829 6.02246 19.7247 6.02246C18.8523 6.02246 18.109 6.64665 17.9575 7.50671L17.5826 9.63259H15.9727L16.2376 8.13046C16.4095 7.15521 15.756 6.22196 14.7807 6.04996C14.6773 6.03171 14.572 6.02252 14.4676 6.02252C13.5952 6.02252 12.8519 6.64671 12.7003 7.50677L12.3254 9.63265H10.2895C9.2992 9.63265 8.49352 10.4383 8.49352 11.4286C8.49352 12.4189 9.2992 13.2245 10.2895 13.2245H11.692L11.4042 14.8571H9.3682C8.37795 14.8571 7.57227 15.6628 7.57227 16.6531C7.57227 17.6434 8.37795 18.449 9.3682 18.449H10.7708L10.5238 19.8497C10.3519 20.8249 11.0054 21.7582 11.9807 21.9302C12.0842 21.9485 12.1896 21.9577 12.294 21.9577C13.1663 21.9577 13.9095 21.3335 14.0611 20.4735L14.4181 18.449H16.028L15.781 19.8497C15.6091 20.8249 16.2626 21.7582 17.2379 21.9302C17.3414 21.9485 17.4468 21.9577 17.5512 21.9577C18.4235 21.9577 19.1666 21.3335 19.3183 20.4735L19.6753 18.449H21.7112C22.7015 18.449 23.5071 17.6434 23.5071 16.6531C23.5071 15.6628 22.7015 14.8571 21.7112 14.8571H20.3087L20.5965 13.2245H22.6326ZM19.3497 15.6617C19.4428 15.7726 19.5801 15.8366 19.7249 15.8366H21.7111C22.1613 15.8366 22.5275 16.2028 22.5275 16.653C22.5275 17.1031 22.1613 17.4693 21.7111 17.4693H19.2643C19.0266 17.4693 18.8232 17.6399 18.7819 17.874L18.3535 20.3031C18.2846 20.6941 17.9471 20.978 17.5511 20.978C17.5035 20.978 17.4553 20.9737 17.4079 20.9653C16.9646 20.8871 16.6675 20.463 16.7456 20.0196L17.094 18.0441C17.1191 17.9016 17.0798 17.7551 16.9868 17.6443C16.8937 17.5334 16.7564 17.4693 16.6116 17.4693H14.0071C13.7695 17.4693 13.5661 17.64 13.5248 17.8741L13.0965 20.3032C13.0275 20.6942 12.69 20.978 12.294 20.978C12.2464 20.978 12.1982 20.9738 12.1508 20.9654C11.7075 20.8872 11.4105 20.463 11.4886 20.0197L11.8369 18.0442C11.8621 17.9016 11.8228 17.7552 11.7297 17.6443C11.6366 17.5335 11.4993 17.4694 11.3545 17.4694H9.3682C8.91808 17.4694 8.55189 17.1032 8.55189 16.6531C8.55189 16.2029 8.91808 15.8368 9.3682 15.8368H11.8151C12.0528 15.8368 12.2562 15.6661 12.2975 15.432L12.7581 12.8198C12.7833 12.6772 12.744 12.5308 12.651 12.4199C12.5579 12.309 12.4206 12.245 12.2758 12.245H10.2895C9.83927 12.245 9.47314 11.8788 9.47314 11.4286C9.47314 10.9785 9.83933 10.6123 10.2895 10.6123H12.7363C12.974 10.6123 13.1774 10.4417 13.2187 10.2076L13.665 7.67696C13.7339 7.28596 14.0715 7.00221 14.4676 7.00221C14.5152 7.00221 14.5633 7.00646 14.6106 7.01484C15.0539 7.09302 15.351 7.51721 15.2728 7.96046L14.9066 10.0375C14.8814 10.1801 14.9206 10.3265 15.0138 10.4374C15.1068 10.5483 15.2441 10.6123 15.389 10.6123H17.9936C18.2313 10.6123 18.4346 10.4417 18.476 10.2076L18.9222 7.67696C18.9911 7.28596 19.3287 7.00221 19.7248 7.00221C19.7724 7.00221 19.8205 7.00646 19.8678 7.01484C20.3111 7.09302 20.6082 7.51721 20.5301 7.96046L20.1638 10.0375C20.1386 10.1801 20.1779 10.3265 20.271 10.4374C20.3641 10.5483 20.5014 10.6123 20.6462 10.6123H22.6325C23.0826 10.6123 23.4488 10.9785 23.4488 11.4286C23.4487 11.8786 23.0825 12.2448 22.6324 12.2448H20.1855C19.9478 12.2448 19.7445 12.4155 19.7031 12.6496L19.2425 15.2618C19.2173 15.4044 19.2566 15.5508 19.3497 15.6617Z" fill="white" class="CIttKrtk_1"></path>
<path d="M27.3742 1.6543H4.62581C2.07512 1.6543 0 3.76473 0 6.35873V21.6372C0 24.2313 2.07512 26.3417 4.62581 26.3417H4.82812L6.6575 29.5705C6.92837 30.0487 7.43481 30.3458 7.97919 30.3458C8.52344 30.3458 9.02987 30.0487 9.30081 29.5705L11.1302 26.3417H27.3743C29.925 26.3417 32.0001 24.2313 32.0001 21.6372V6.35873C32 3.76473 29.9249 1.6543 27.3742 1.6543ZM31.0204 21.6372C31.0204 23.6911 29.3847 25.3622 27.3742 25.3622H10.8448C10.6684 25.3622 10.5056 25.457 10.4186 25.6105L8.44856 29.0877C8.35119 29.2595 8.17138 29.3664 7.97919 29.3664C7.78706 29.3664 7.60719 29.2597 7.50981 29.0877L5.53975 25.6105C5.45281 25.457 5.29 25.3622 5.11363 25.3622H4.62587C2.61538 25.3622 0.979625 23.6912 0.979625 21.6372V6.35873C0.979625 4.30486 2.61538 2.63386 4.62587 2.63386H27.3743C29.3848 2.63386 31.0205 4.30486 31.0205 6.35873V21.6372H31.0204Z" fill="white" class="CIttKrtk_2"></path>
</g>
<defs>
<clipPath id="clip0">
<path width="32" height="32" fill="white" d="M0 0 L32 0 L32 32 L0 32 Z" class="CIttKrtk_3"></path>
</clipPath>
</defs>
<style data-made-with="vivus-instant">.CIttKrtk_0{stroke-dasharray:21 23;stroke-dashoffset:22;animation:CIttKrtk_draw_0 7200ms linear 0ms infinite,CIttKrtk_fade 7200ms linear 0ms infinite;}.CIttKrtk_1{stroke-dasharray:157 159;stroke-dashoffset:158;animation:CIttKrtk_draw_1 7200ms linear 0ms infinite,CIttKrtk_fade 7200ms linear 0ms infinite;}.CIttKrtk_2{stroke-dasharray:214 216;stroke-dashoffset:215;animation:CIttKrtk_draw_2 7200ms linear 0ms infinite,CIttKrtk_fade 7200ms linear 0ms infinite;}.CIttKrtk_3{stroke-dasharray:128 130;stroke-dashoffset:129;animation:CIttKrtk_draw_3 7200ms linear 0ms infinite,CIttKrtk_fade 7200ms linear 0ms infinite;}@keyframes CIttKrtk_draw{100%{stroke-dashoffset:0;}}@keyframes CIttKrtk_fade{0%{stroke-opacity:1;}94.44444444444444%{stroke-opacity:1;}100%{stroke-opacity:0;}}@keyframes CIttKrtk_draw_0{11.11111111111111%{stroke-dashoffset: 22}38.88888888888889%{ stroke-dashoffset: 0;}100%{ stroke-dashoffset: 0;}}@keyframes CIttKrtk_draw_1{15.740740740740739%{stroke-dashoffset: 158}43.51851851851851%{ stroke-dashoffset: 0;}100%{ stroke-dashoffset: 0;}}@keyframes CIttKrtk_draw_2{20.37037037037037%{stroke-dashoffset: 215}48.148148148148145%{ stroke-dashoffset: 0;}100%{ stroke-dashoffset: 0;}}@keyframes CIttKrtk_draw_3{25%{stroke-dashoffset: 129}52.77777777777778%{ stroke-dashoffset: 0;}100%{ stroke-dashoffset: 0;}}</style></svg>
