<svg width="20" height="20" viewBox="0 0 20 20" fill="none" xmlns="http://www.w3.org/2000/svg">
<path d="M19.6258 8.88874L10.6699 0.310148C10.2768 -0.0664497 9.68404 -0.0664087 9.29109 0.310107L0.335206 8.88878C0.0203136 9.19042 -0.0837018 9.65517 0.070138 10.0728C0.224017 10.4903 0.598675 10.7601 1.02468 10.7601H2.45508V19.3552C2.45508 19.696 2.71793 19.9723 3.0421 19.9723H7.95102C8.27519 19.9723 8.53803 19.6961 8.53803 19.3552V14.1366H11.4231V19.3553C11.4231 19.6961 11.6859 19.9724 12.0101 19.9724H16.9188C17.243 19.9724 17.5058 19.6961 17.5058 19.3553V10.7601H18.9365C19.3625 10.7601 19.7372 10.4903 19.891 10.0728C20.0447 9.65513 19.9407 9.19042 19.6258 8.88874Z" fill="white"/>
<path d="M17.3524 1.25946H13.4102L17.9394 5.58881V1.87651C17.9394 1.53573 17.6766 1.25946 17.3524 1.25946Z" fill="white"/>
</svg>
