<svg width="48" height="42" viewBox="0 0 48 42" fill="none" xmlns="http://www.w3.org/2000/svg">
<g clip-path="url(#clip0)">
<path d="M25.875 19.8048C25.3575 19.8048 24.9375 20.17 24.9375 20.6199C24.9375 21.0697 25.3575 21.4349 25.875 21.4349C26.3925 21.4349 26.8125 21.0697 26.8125 20.6199C26.8125 20.17 26.3925 19.8048 25.875 19.8048Z" fill="#5A7F9E"/>
<path d="M8.99995 8.15014C8.48302 8.15014 8.06246 7.78453 8.06246 7.33513C8.06246 6.88573 8.48302 6.52011 8.99995 6.52011C9.33202 6.52011 9.68274 6.66747 10.014 6.94612C10.386 7.25917 10.9797 7.25053 11.3396 6.92721C11.6996 6.60365 11.6898 6.08775 11.3177 5.7747C10.842 5.37445 10.3659 5.14812 9.93736 5.02448V4.07507C9.93736 3.62502 9.51764 3.26006 8.99986 3.26006C8.48208 3.26006 8.06236 3.62502 8.06236 4.07507V5.03027C6.9713 5.3667 6.18746 6.27267 6.18746 7.33513C6.18746 8.68332 7.44914 9.78017 8.99995 9.78017C9.51689 9.78017 9.93745 10.1458 9.93745 10.5952C9.93745 11.0446 9.51689 11.4102 8.99995 11.4102C8.59936 11.4102 8.16699 11.1912 7.78252 10.7937C7.44933 10.4491 6.85796 10.4046 6.46168 10.6943C6.0653 10.9839 6.01421 11.4981 6.34739 11.8426C6.84858 12.3609 7.43789 12.722 8.06246 12.9041V13.8552C8.06246 14.3053 8.48217 14.6703 8.99995 14.6703C9.51774 14.6703 9.93745 14.3053 9.93745 13.8552V12.9C11.0286 12.5636 11.8125 11.6577 11.8125 10.5952C11.8125 9.24699 10.5508 8.15014 8.99995 8.15014Z" fill="#5A7F9E"/>
<path d="M25.875 26.814H22.125C21.6072 26.814 21.1875 27.1789 21.1875 27.629V30.889C21.1875 31.3391 21.6072 31.7041 22.125 31.7041H25.875C26.3927 31.7041 26.8125 31.3391 26.8125 30.889V27.629C26.8125 27.1789 26.3927 26.814 25.875 26.814ZM24.9375 30.074H23.0625V28.444H24.9375V30.074Z" fill="#5A7F9E"/>
<path d="M33.375 26.814H29.625C29.1073 26.814 28.6875 27.1789 28.6875 27.629V30.889C28.6875 31.3391 29.1073 31.7041 29.625 31.7041H33.375C33.8927 31.7041 34.3125 31.3391 34.3125 30.889V27.629C34.3125 27.1789 33.8927 26.814 33.375 26.814ZM32.4375 30.074H30.5625V28.444H32.4375V30.074Z" fill="#5A7F9E"/>
<path d="M25.875 33.3341H22.125C21.6072 33.3341 21.1875 33.6991 21.1875 34.1491V37.4092C21.1875 37.8592 21.6072 38.2242 22.125 38.2242H25.875C26.3927 38.2242 26.8125 37.8592 26.8125 37.4092V34.1491C26.8125 33.6991 26.3927 33.3341 25.875 33.3341ZM24.9375 36.5941H23.0625V34.9641H24.9375V36.5941Z" fill="#5A7F9E"/>
<path d="M33.375 33.3341H29.625C29.1073 33.3341 28.6875 33.6991 28.6875 34.1491V37.4092C28.6875 37.8592 29.1073 38.2242 29.625 38.2242H33.375C33.8927 38.2242 34.3125 37.8592 34.3125 37.4092V34.1491C34.3125 33.6991 33.8927 33.3341 33.375 33.3341ZM32.4375 36.5941H30.5625V34.9641H32.4375V36.5941Z" fill="#5A7F9E"/>
<path d="M40.875 26.814H37.125C36.6073 26.814 36.1875 27.1789 36.1875 27.629V37.4092C36.1875 37.8592 36.6073 38.2242 37.125 38.2242H40.875C41.3927 38.2242 41.8125 37.8592 41.8125 37.4092V27.629C41.8125 27.1789 41.3927 26.814 40.875 26.814ZM39.9375 36.5941H38.0625V28.444H39.9375V36.5941Z" fill="#5A7F9E"/>
<path d="M40.875 16.5448H22.125C21.6072 16.5448 21.1875 16.9098 21.1875 17.3598V24.3689C21.1875 24.819 21.6072 25.1839 22.125 25.1839H40.875C41.3927 25.1839 41.8125 24.819 41.8125 24.3689V17.3598C41.8125 16.9098 41.3927 16.5448 40.875 16.5448ZM39.9375 23.5539H23.0625V18.1748H39.9375V23.5539Z" fill="#5A7F9E"/>
<path d="M42.75 13.0402H34.3125V8.11673C34.3125 7.47865 34.0316 6.87505 33.5224 6.41759L27.2193 0.745575C26.9483 0.501886 26.6152 0.307586 26.2574 0.181748C26.2447 0.176777 26.2317 0.172213 26.2187 0.16773C26.2178 0.167404 26.2169 0.167078 26.2161 0.166752C25.8903 0.056073 25.5472 0 25.1963 0H5.25C3.69919 0 2.4375 1.09685 2.4375 2.44504V34.1491C2.4375 35.4973 3.69919 36.5941 5.25 36.5941H17.4375V39.2837C17.4375 40.6319 18.6992 41.7287 20.25 41.7287H42.75C44.3008 41.7287 45.5625 40.6319 45.5625 39.2837V15.4853C45.5625 14.1371 44.3008 13.0402 42.75 13.0402ZM26.8125 2.72557L32.1745 7.55078C32.3441 7.70311 32.4375 7.90401 32.4375 8.11673V8.15014H27.75C27.2331 8.15014 26.8125 7.78453 26.8125 7.33513V2.72557ZM17.4375 15.4853V34.9641H5.25C4.73306 34.9641 4.3125 34.5985 4.3125 34.1491V2.44504C4.3125 1.99564 4.73306 1.63003 5.25 1.63003H24.9375V7.33513C24.9375 8.68333 26.1992 9.78017 27.75 9.78017H32.4375V13.0402H20.25C18.6992 13.0402 17.4375 14.1371 17.4375 15.4853ZM43.6875 39.2837C43.6875 39.7331 43.2669 40.0987 42.75 40.0987H20.25C19.7331 40.0987 19.3125 39.7331 19.3125 39.2837V15.4853C19.3125 15.0359 19.7331 14.6703 20.25 14.6703H42.75C43.2669 14.6703 43.6875 15.0359 43.6875 15.4853V39.2837Z" fill="#5A7F9E"/>
<path d="M37.125 19.8048H29.625C29.1073 19.8048 28.6875 20.1698 28.6875 20.6199C28.6875 21.0699 29.1073 21.4349 29.625 21.4349H37.125C37.6427 21.4349 38.0625 21.0699 38.0625 20.6199C38.0625 20.1698 37.6427 19.8048 37.125 19.8048Z" fill="#5A7F9E"/>
<path d="M22.125 9.78017H14.625C14.1072 9.78017 13.6875 10.1451 13.6875 10.5952C13.6875 11.0452 14.1072 11.4102 14.625 11.4102H22.125C22.6427 11.4102 23.0625 11.0452 23.0625 10.5952C23.0625 10.1451 22.6427 9.78017 22.125 9.78017Z" fill="#5A7F9E"/>
<path d="M22.125 6.52011H14.625C14.1072 6.52011 13.6875 6.88507 13.6875 7.33513C13.6875 7.78518 14.1072 8.15014 14.625 8.15014H22.125C22.6427 8.15014 23.0625 7.78518 23.0625 7.33513C23.0625 6.88507 22.6427 6.52011 22.125 6.52011Z" fill="#5A7F9E"/>
<path d="M14.625 16.5448H7.125C6.60722 16.5448 6.1875 16.9098 6.1875 17.3598C6.1875 17.8099 6.60722 18.1748 7.125 18.1748H14.625C15.1428 18.1748 15.5625 17.8099 15.5625 17.3598C15.5625 16.9098 15.1428 16.5448 14.625 16.5448Z" fill="#5A7F9E"/>
<path d="M9 19.8048H7.125C6.60722 19.8048 6.1875 20.1698 6.1875 20.6199C6.1875 21.0699 6.60722 21.4349 7.125 21.4349H9C9.51778 21.4349 9.9375 21.0699 9.9375 20.6199C9.9375 20.1698 9.51778 19.8048 9 19.8048Z" fill="#5A7F9E"/>
<path d="M14.625 19.8048H12.75C12.2322 19.8048 11.8125 20.1698 11.8125 20.6199C11.8125 21.0699 12.2322 21.4349 12.75 21.4349H14.625C15.1428 21.4349 15.5625 21.0699 15.5625 20.6199C15.5625 20.1698 15.1428 19.8048 14.625 19.8048Z" fill="#5A7F9E"/>
<path d="M9 23.5539H7.125C6.60722 23.5539 6.1875 23.9189 6.1875 24.3689C6.1875 24.819 6.60722 25.1839 7.125 25.1839H9C9.51778 25.1839 9.9375 24.819 9.9375 24.3689C9.9375 23.9189 9.51778 23.5539 9 23.5539Z" fill="#5A7F9E"/>
<path d="M14.625 23.5539H12.75C12.2322 23.5539 11.8125 23.9189 11.8125 24.3689C11.8125 24.819 12.2322 25.1839 12.75 25.1839H14.625C15.1428 25.1839 15.5625 24.819 15.5625 24.3689C15.5625 23.9189 15.1428 23.5539 14.625 23.5539Z" fill="#5A7F9E"/>
<path d="M9 26.814H7.125C6.60722 26.814 6.1875 27.1789 6.1875 27.629C6.1875 28.079 6.60722 28.444 7.125 28.444H9C9.51778 28.444 9.9375 28.079 9.9375 27.629C9.9375 27.1789 9.51778 26.814 9 26.814Z" fill="#5A7F9E"/>
<path d="M14.625 26.814H12.75C12.2322 26.814 11.8125 27.1789 11.8125 27.629C11.8125 28.079 12.2322 28.444 12.75 28.444H14.625C15.1428 28.444 15.5625 28.079 15.5625 27.629C15.5625 27.1789 15.1428 26.814 14.625 26.814Z" fill="#5A7F9E"/>
<path d="M9 30.074H7.125C6.60722 30.074 6.1875 30.439 6.1875 30.889C6.1875 31.3391 6.60722 31.7041 7.125 31.7041H9C9.51778 31.7041 9.9375 31.3391 9.9375 30.889C9.9375 30.439 9.51778 30.074 9 30.074Z" fill="#5A7F9E"/>
<path d="M14.625 30.074H12.75C12.2322 30.074 11.8125 30.439 11.8125 30.889C11.8125 31.3391 12.2322 31.7041 12.75 31.7041H14.625C15.1428 31.7041 15.5625 31.3391 15.5625 30.889C15.5625 30.439 15.1428 30.074 14.625 30.074Z" fill="#5A7F9E"/>
</g>
<defs>
<clipPath id="clip0">
<rect width="48" height="41.7287" fill="white"/>
</clipPath>
</defs>
</svg>
