<svg width="20" height="20" viewBox="0 0 20 20" fill="none" xmlns="http://www.w3.org/2000/svg">
<g clip-path="url(#clip0)">
<path d="M12.0835 9.4903H8.77171C8.40198 9.4903 8.10229 9.78998 8.10229 10.1597V19.3201C8.10229 19.6898 8.40198 19.9895 8.77171 19.9895H12.0835C12.4533 19.9895 12.753 19.6898 12.753 19.3201V10.1597C12.753 9.78998 12.4532 9.4903 12.0835 9.4903Z" fill="white"/>
<path d="M19.1536 4.9101H15.8418C15.472 4.9101 15.1724 5.20978 15.1724 5.57951V19.3201C15.1724 19.6898 15.472 19.9895 15.8418 19.9895H19.1536C19.5233 19.9895 19.823 19.6898 19.823 19.3201V5.57951C19.823 5.20978 19.5233 4.9101 19.1536 4.9101Z" fill="white"/>
<path d="M5.01322 12.4604H1.70139C1.33167 12.4604 1.03198 12.7601 1.03198 13.1298V19.3307C1.03198 19.7004 1.33174 20.0001 1.70139 20.0001H5.01322C5.38295 20.0001 5.68264 19.7004 5.68264 19.3307V13.1298C5.68264 12.7601 5.38295 12.4604 5.01322 12.4604Z" fill="white"/>
<path d="M13.6272 1.28172L11.1448 0.102643C10.6173 -0.14807 9.98705 0.0766413 9.73668 0.603856C9.48618 1.13107 9.71061 1.76166 10.2379 2.01202L10.4397 2.10792L0.879583 5.51079C0.329608 5.70654 0.042536 6.31106 0.238216 6.86103C0.392251 7.29382 0.799465 7.56384 1.23402 7.56384C1.3517 7.56384 1.47127 7.54411 1.58846 7.5024L11.1126 4.11235L11.0399 4.26526C10.7894 4.79255 11.0139 5.42306 11.5411 5.67342C11.6876 5.74297 11.842 5.77595 11.9939 5.77595C12.3892 5.77588 12.7685 5.55307 12.9494 5.17221L14.1284 2.68989C14.3789 2.16267 14.1545 1.53216 13.6272 1.28172Z" fill="white"/>
</g>
<defs>
<clipPath id="clip0">
<rect width="20" height="20" fill="white"/>
</clipPath>
</defs>
</svg>
