<svg width="20" height="20" viewBox="0 0 20 20" fill="none" xmlns="http://www.w3.org/2000/svg">
<g clip-path="url(#clip0)">
<path d="M12.2825 4.34788C12.2825 6.74911 10.3359 8.6956 7.93463 8.6956C5.5334 8.6956 3.58691 6.74911 3.58691 4.34788C3.58691 1.94665 5.5334 0 7.93463 0C10.3359 0 12.2825 1.94665 12.2825 4.34788Z" fill="white"/>
<path d="M10.1382 18.087C9.68522 17.3027 9.77566 16.3366 10.3148 15.6522C9.77566 14.9679 9.68522 14.0027 10.1382 13.2174L10.8418 12C11.2287 11.3296 11.9505 10.9131 12.7252 10.9131C12.8313 10.9131 12.9356 10.9209 13.0391 10.9357C13.0679 10.8644 13.1044 10.7974 13.14 10.7295C12.6705 10.5444 12.1635 10.4348 11.6304 10.4348H4.23918C1.96167 10.4348 0.108643 12.2878 0.108643 14.5652V17.6087C0.108643 17.9687 0.400815 18.2609 0.760816 18.2609H10.2382L10.1382 18.087Z" fill="white"/>
<path d="M18.9809 16.06C18.9982 15.9253 19.0216 15.7914 19.0216 15.6522C19.0216 15.5123 18.9973 15.3791 18.9809 15.2444L19.7642 14.6513C19.939 14.5192 19.9878 14.2775 19.8782 14.0871L19.1748 12.8696C19.0651 12.68 18.8312 12.6009 18.6294 12.6861L17.7278 13.0661C17.5077 12.8983 17.2738 12.7505 17.0156 12.6426L16.8955 11.6852C16.8678 11.4678 16.6834 11.3043 16.4643 11.3043H15.0583C14.839 11.3043 14.6538 11.4678 14.6269 11.6852L14.5069 12.6426C14.2486 12.7505 14.0139 12.8991 13.7947 13.0661L12.893 12.6861C12.6913 12.6009 12.4574 12.6792 12.3478 12.8696L11.6442 14.0871C11.5347 14.2765 11.5834 14.5182 11.7582 14.6513L12.5416 15.2444C12.5242 15.3791 12.5008 15.5131 12.5008 15.6522C12.5008 15.7922 12.5252 15.9253 12.5416 16.06L11.7582 16.6531C11.5834 16.7852 11.5347 17.0269 11.6442 17.2174L12.3478 18.4357C12.4574 18.6252 12.6913 18.7044 12.893 18.6192L13.7947 18.2383C14.0147 18.4061 14.2486 18.5539 14.5069 18.6618L14.6269 19.6193C14.6538 19.8366 14.8382 20.0001 15.0573 20.0001H16.4634C16.6825 20.0001 16.8678 19.8366 16.8947 19.6193L17.0148 18.6618C17.273 18.5539 17.5077 18.4053 17.7268 18.2383L18.6287 18.6184C18.8304 18.7036 19.0643 18.6252 19.1738 18.4348L19.8773 17.2166C19.9868 17.0269 19.9383 16.7852 19.7634 16.6523L18.9809 16.06ZM15.7607 17.3914C14.8 17.3914 14.0217 16.6131 14.0217 15.6522C14.0217 14.6913 14.8 13.913 15.7607 13.913C16.7216 13.913 17.4999 14.6913 17.4999 15.6522C17.4999 16.6131 16.7216 17.3914 15.7607 17.3914Z" fill="white"/>
</g>
<defs>
<clipPath id="clip0">
<rect width="20" height="20" fill="white"/>
</clipPath>
</defs>
</svg>
