<svg width="20" height="20" viewBox="0 0 20 20" fill="none" xmlns="http://www.w3.org/2000/svg">
<path d="M1.31303 7.2261C1.41816 7.58655 1.56406 7.93412 1.74857 8.26024L1.22292 8.9232C1.05128 9.1399 1.07059 9.44885 1.26368 9.64409L2.16909 10.5495C2.36433 10.7447 2.67328 10.7619 2.88998 10.5902L3.54865 10.0689C3.88764 10.2641 4.24809 10.4165 4.62355 10.5237L4.72225 11.3712C4.75443 11.6458 4.98615 11.8518 5.26077 11.8518H6.54164C6.81627 11.8518 7.04798 11.6458 7.08016 11.3712L7.17457 10.5538C7.57792 10.4486 7.96411 10.292 8.32671 10.0882L8.96392 10.5924C9.18062 10.764 9.48957 10.7447 9.68481 10.5516L10.5902 9.64622C10.7855 9.45097 10.8026 9.14202 10.631 8.92532L10.1354 8.29669C10.3413 7.94051 10.5023 7.56078 10.6095 7.16386L11.3733 7.07589C11.648 7.04371 11.8539 6.812 11.8539 6.53737V5.2565C11.8539 4.98188 11.648 4.75016 11.3733 4.71798L10.6203 4.63001C10.5173 4.23738 10.3628 3.86192 10.1654 3.51006L10.6289 2.92433C10.8005 2.70763 10.7812 2.39868 10.5881 2.20344L9.68484 1.30018C9.48959 1.10494 9.18064 1.08777 8.96394 1.25941L8.39538 1.70997C8.02636 1.49328 7.63156 1.32807 7.2175 1.2165L7.13168 0.480594C7.09949 0.205969 6.86778 0 6.59315 0H5.31228C5.03766 0 4.80594 0.205969 4.77376 0.480594L4.68794 1.2165C4.26313 1.33022 3.85763 1.50186 3.48002 1.72714L2.89 1.25941C2.67331 1.08777 2.36435 1.10708 2.16911 1.30018L1.26371 2.20559C1.06846 2.40083 1.0513 2.70978 1.22294 2.92648L1.71641 3.55082C1.51902 3.90697 1.36884 4.28673 1.27014 4.6815L0.480594 4.77162C0.205969 4.8038 0 5.03551 0 5.31014V6.59101C0 6.86563 0.205969 7.09735 0.480594 7.12953L1.31303 7.2261ZM5.95377 3.7611C7.12093 3.7611 8.07139 4.71156 8.07139 5.87872C8.07139 7.04588 7.12093 7.99634 5.95377 7.99634C4.78663 7.99634 3.83615 7.04588 3.83615 5.87872C3.83615 4.71156 4.78661 3.7611 5.95377 3.7611Z" fill="white"/>
<path d="M18.6167 7.54148L17.9408 6.97078C17.7328 6.79485 17.4259 6.80343 17.2286 6.99009L16.8552 7.33981C16.5399 7.18748 16.2052 7.0802 15.8597 7.01798L15.7546 6.50306C15.701 6.23702 15.4542 6.0525 15.1839 6.07396L14.3021 6.14905C14.0317 6.17265 13.8193 6.39364 13.8107 6.66612L13.7936 7.18962C13.4546 7.31192 13.1349 7.47926 12.8431 7.68952L12.3969 7.39344C12.1694 7.24326 11.8669 7.28617 11.691 7.49428L11.1203 8.17441C10.9443 8.38252 10.9529 8.68933 11.1395 8.88671L11.53 9.30292C11.3949 9.60758 11.2983 9.92728 11.2425 10.2555L10.6847 10.3692C10.4187 10.4229 10.2341 10.6696 10.2556 10.94L10.3307 11.8218C10.3543 12.0921 10.5753 12.3045 10.8478 12.3131L11.4507 12.3324C11.5601 12.6199 11.7039 12.8924 11.8776 13.1477L11.5408 13.6561C11.3906 13.8836 11.4335 14.1861 11.6416 14.362L12.3174 14.9327C12.5256 15.1087 12.8324 15.1001 13.0298 14.9134L13.4718 14.4993C13.7614 14.6345 14.0661 14.7353 14.3793 14.7954L14.5016 15.4004C14.5553 15.6665 14.802 15.851 15.0723 15.8295L15.9541 15.7545C16.2245 15.7309 16.4369 15.5099 16.4455 15.2374L16.4648 14.6452C16.7866 14.5315 17.0912 14.377 17.3723 14.1861L17.8594 14.5079C18.0868 14.6581 18.3893 14.6152 18.5652 14.4071L19.1359 13.7312C19.3119 13.5231 19.3033 13.2163 19.1166 13.0189L18.724 12.6027C18.8678 12.2981 18.9729 11.9762 19.0329 11.6458L19.5693 11.5364C19.8354 11.4828 20.0199 11.236 19.9984 10.9657L19.9233 10.0839C19.8997 9.81353 19.6787 9.60113 19.4063 9.59254L18.8677 9.57538C18.7561 9.26214 18.606 8.96608 18.4193 8.69143L18.7132 8.24946C18.8677 8.02208 18.8248 7.71742 18.6167 7.54148ZM15.2933 12.6392C14.3407 12.7207 13.4996 12.0105 13.4202 11.058C13.3387 10.1054 14.0489 9.2643 15.0015 9.18492C15.9541 9.10339 16.7952 9.81357 16.8745 10.7662C16.9561 11.7188 16.2459 12.5598 15.2933 12.6392Z" fill="white"/>
<path d="M4.39823 15.0122C4.1279 15.0401 3.91978 15.2675 3.91764 15.54L3.9112 16.0828C3.90691 16.3553 4.10859 16.587 4.37892 16.6213L4.77799 16.6728C4.8445 16.9153 4.9389 17.147 5.06119 17.3658L4.80373 17.6834C4.63209 17.8958 4.64496 18.2004 4.83592 18.3957L5.21567 18.784C5.40662 18.9792 5.71128 19.0007 5.92798 18.8334L6.24764 18.5866C6.47292 18.7196 6.71109 18.8248 6.95995 18.8977L7.00286 19.3097C7.03075 19.58 7.25818 19.7881 7.53066 19.7902L8.07349 19.7967C8.34595 19.801 8.57769 19.5993 8.61201 19.329L8.66136 18.9385C8.93172 18.872 9.18918 18.7711 9.43375 18.6381L9.73412 18.8806C9.94652 19.0522 10.2512 19.0393 10.4464 18.8484L10.8348 18.4686C11.03 18.2777 11.0515 17.973 10.8842 17.7563L10.6545 17.4581C10.7961 17.2221 10.9056 16.971 10.9807 16.7071L11.3368 16.6707C11.6072 16.6428 11.8153 16.4154 11.8174 16.1429L11.8238 15.6C11.8282 15.3276 11.6265 15.0958 11.3561 15.0615L11.0085 15.0165C10.942 14.7547 10.8434 14.5015 10.7146 14.2655L10.9313 13.9995C11.103 13.7871 11.0901 13.4824 10.8992 13.2872L10.5194 12.8989C10.3285 12.7036 10.0238 12.6821 9.80709 12.8495L9.54746 13.049C9.30289 12.901 9.04112 12.7873 8.76651 12.71L8.73216 12.3732C8.70427 12.1029 8.47687 11.8948 8.20437 11.8926L7.66155 11.8862C7.38907 11.8819 7.15736 12.0836 7.12301 12.3539L7.0801 12.6886C6.79691 12.7615 6.52443 12.8731 6.27126 13.019L6.00307 12.8002C5.79067 12.6285 5.48598 12.6414 5.29074 12.8323L4.90026 13.2143C4.70502 13.4052 4.68356 13.7099 4.85091 13.9265L5.08048 14.2226C4.94746 14.4587 4.84233 14.7097 4.77367 14.9736L4.39823 15.0122ZM7.90185 14.3986C8.68067 14.4071 9.30499 15.0487 9.29643 15.8275C9.28785 16.6063 8.64632 17.2306 7.8675 17.2221C7.08868 17.2135 6.46436 16.572 6.47292 15.7931C6.48152 15.0143 7.12303 14.39 7.90185 14.3986Z" fill="white"/>
</svg>
