<svg width="70" height="70" viewBox="0 0 70 70" fill="none" xmlns="http://www.w3.org/2000/svg">
<circle cx="35" cy="35" r="35" fill="#E6E8FB"/>
<g clip-path="url(#clip0)">
<path d="M29.4085 42.5246C30.0302 41.9349 30.4265 41.0975 30.4265 40.1613V38.871C30.4265 37.0924 29.0195 35.6452 27.2903 35.6452C25.5611 35.6452 24.1541 37.0924 24.1541 38.871V40.1613C24.1541 41.0975 24.5504 41.9349 25.1721 42.5246C23.1067 43.3884 21.6451 45.4722 21.6451 47.9032V49.1936C21.6451 49.5505 21.9254 49.8387 22.2724 49.8387H32.3082C32.6552 49.8387 32.9355 49.5505 32.9355 49.1936V47.9032C32.9355 45.4722 31.4739 43.3884 29.4085 42.5246ZM25.4086 40.1613V38.871C25.4086 37.804 26.253 36.9355 27.2903 36.9355C28.3276 36.9355 29.172 37.804 29.172 38.871V40.1613C29.172 41.2283 28.3276 42.0968 27.2903 42.0968C26.253 42.0968 25.4086 41.2283 25.4086 40.1613ZM31.681 48.5484H30.4265V47.2581H29.172V48.5484H25.4086V47.2581H24.1541V48.5484H22.8996V47.9032C22.8996 45.4136 24.8699 43.3871 27.2903 43.3871C29.7108 43.3871 31.681 45.4136 31.681 47.9032V48.5484Z" fill="#605FD9"/>
<path d="M45.7167 25.7504C46.3384 25.1607 46.7347 24.3233 46.7347 23.3871V22.0968C46.7347 20.3182 45.3277 18.871 43.5985 18.871C41.8693 18.871 40.4623 20.3182 40.4623 22.0968V23.3871C40.4623 24.3233 40.8586 25.1607 41.4804 25.7504C39.4149 26.6142 37.9534 28.698 37.9534 31.129V32.4194C37.9534 32.7753 38.2336 33.0645 38.5806 33.0645H48.6164C48.9635 33.0645 49.2437 32.7753 49.2437 32.4194V31.129C49.2437 28.698 47.7822 26.6142 45.7167 25.7504ZM41.7168 23.3871V22.0968C41.7168 21.0298 42.5612 20.1613 43.5985 20.1613C44.6359 20.1613 45.4802 21.0298 45.4802 22.0968V23.3871C45.4802 24.4541 44.6359 25.3226 43.5985 25.3226C42.5612 25.3226 41.7168 24.4541 41.7168 23.3871ZM47.9892 31.7742H46.7347V30.4839H45.4802V31.7742H41.7168V30.4839H40.4623V31.7742H39.2078V31.129C39.2078 28.6388 41.1781 26.6129 43.5985 26.6129C46.019 26.6129 47.9892 28.6388 47.9892 31.129V31.7742Z" fill="#605FD9"/>
<path d="M54.2616 24.0323H53.3107C53.0681 23.0658 52.6893 22.144 52.1793 21.2793L52.8228 20.6174C52.9413 20.4968 53.0072 20.3323 53.0072 20.1613C53.0072 19.9902 52.9413 19.8258 52.8234 19.7051L50.3144 17.1245C50.0691 16.8722 49.6728 16.8722 49.4275 17.1245L48.7871 17.7832C47.9467 17.2574 47.049 16.8665 46.1075 16.6167V15.6452C46.1075 15.2892 45.8273 15 45.4803 15H41.7168C41.3698 15 41.0896 15.2892 41.0896 15.6452V16.6161C40.1426 16.8665 39.2443 17.2562 38.4064 17.7788L37.7696 17.1245C37.5243 16.8722 37.128 16.8722 36.8827 17.1245L34.3737 19.7051C34.1284 19.9575 34.1284 20.3651 34.3737 20.6174L35.0105 21.2724C34.506 22.1289 34.1296 23.0535 33.8858 24.0323H32.9355C32.5885 24.0323 32.3082 24.3214 32.3082 24.6774V28.5484C32.3082 28.9044 32.5885 29.1935 32.9355 29.1935H33.8865C34.129 30.16 34.5079 31.0818 35.0178 31.9465L32.4788 34.5574C31.6384 34.0316 30.7408 33.6407 29.7999 33.3902V32.4194C29.7999 32.0634 29.5197 31.7742 29.1727 31.7742H25.4092C25.0625 31.7742 24.782 32.0634 24.782 32.4194V33.3902C24.3743 33.498 23.978 33.6369 23.5891 33.7954C23.895 30.5251 25.4392 27.5633 27.9384 25.4814C28.2689 25.78 28.6979 25.9677 29.172 25.9677C30.2094 25.9677 31.0538 25.0992 31.0538 24.0323C31.0538 22.9653 30.2094 22.0968 29.172 22.0968C28.1347 22.0968 27.2903 22.9653 27.2903 24.0323C27.2903 24.1381 27.3047 24.2399 27.3203 24.3413C24.2576 26.8092 22.4442 30.4489 22.2886 34.4434C22.2252 34.4805 22.16 34.5136 22.0975 34.553L21.4608 33.8987C21.2155 33.6464 20.8192 33.6464 20.5738 33.8987L18.0649 36.4793C17.8195 36.7317 17.8195 37.1393 18.0649 37.3916L18.7016 38.0466C18.1978 38.9025 17.8208 39.8271 17.5776 40.8065H16.6272C16.2802 40.8065 16 41.0947 16 41.4516V45.3226C16 45.6795 16.2802 45.9677 16.6272 45.9677H17.5782C17.8208 46.9342 18.1996 47.8569 18.7096 48.7207L18.0661 49.3826C17.8208 49.6349 17.8208 50.0425 18.0661 50.2949L20.5751 52.8755C20.8204 53.1278 21.2167 53.1278 21.462 52.8755L22.1024 52.2168C22.9428 52.7426 23.8405 53.1341 24.7814 53.3839V54.3548C24.7814 54.7118 25.0616 55 25.4086 55H29.172C29.519 55 29.7993 54.7118 29.7993 54.3548V53.3839C30.7472 53.1329 31.6452 52.7438 32.4825 52.2206L33.1192 52.8755C33.3646 53.1278 33.7609 53.1278 34.0062 52.8755L36.5152 50.2949C36.7605 50.0425 36.7605 49.6349 36.5152 49.3826L35.8784 48.7276C36.3829 47.8717 36.7593 46.9465 37.003 45.9677H37.9534C38.3004 45.9677 38.5806 45.6795 38.5806 45.3226V41.4516C38.5806 41.0947 38.3004 40.8065 37.9534 40.8065H37.0024C36.7599 39.84 36.381 38.9173 35.8711 38.0535L38.4101 35.442C39.2505 35.9677 40.1481 36.3593 41.089 36.6091V37.5806C41.089 37.9376 41.3692 38.2258 41.7162 38.2258H45.4797C45.8264 38.2258 46.1069 37.9376 46.1069 37.5806V36.6098C46.5146 36.502 46.9109 36.3631 47.2998 36.204C46.9939 39.4742 45.4497 42.4361 42.9505 44.518C42.62 44.22 42.191 44.0323 41.7168 44.0323C40.6795 44.0323 39.8351 44.9008 39.8351 45.9677C39.8351 47.0347 40.6795 47.9032 41.7168 47.9032C42.7542 47.9032 43.5986 47.0347 43.5986 45.9677C43.5986 45.8619 43.5842 45.7601 43.5686 45.6587C46.6312 43.1908 48.4447 39.5511 48.6003 35.5566C48.6637 35.5195 48.7289 35.4864 48.7914 35.447L49.4281 36.1013C49.6734 36.3536 50.0697 36.3536 50.3151 36.1013L52.824 33.5207C53.0693 33.2683 53.0693 32.8607 52.824 32.6084L52.1873 31.9534C52.6917 31.0969 53.0681 30.1723 53.3119 29.1935H54.2616C54.6087 29.1935 54.8889 28.9044 54.8889 28.5484V24.6774C54.8889 24.3214 54.6087 24.0323 54.2616 24.0323V24.0323ZM29.172 23.3871C29.5181 23.3871 29.7993 23.6769 29.7993 24.0323C29.7993 24.3876 29.5181 24.6774 29.172 24.6774C28.826 24.6774 28.5448 24.3876 28.5448 24.0323C28.5448 23.6769 28.826 23.3871 29.172 23.3871ZM41.7168 46.6129C41.3708 46.6129 41.0896 46.3237 41.0896 45.9677C41.0896 45.6118 41.3708 45.3226 41.7168 45.3226C42.0629 45.3226 42.3441 45.6118 42.3441 45.9677C42.3441 46.3237 42.0629 46.6129 41.7168 46.6129ZM53.6344 27.9032H52.8121C52.5135 27.9032 52.2571 28.1193 52.198 28.4199C51.964 29.6006 51.5169 30.6975 50.8676 31.68C50.6982 31.9361 50.7297 32.2801 50.9429 32.4987L51.493 33.0645L49.871 34.7329L49.3209 34.1671C49.1077 33.9485 48.7739 33.916 48.5249 34.0896C47.5602 34.7631 46.494 35.2259 45.3547 35.464C45.0631 35.5251 44.853 35.7898 44.853 36.0963V36.9355H42.3441V36.0963C42.3441 35.7891 42.134 35.5251 41.8418 35.464C40.712 35.2278 39.6477 34.7637 38.6771 34.0846C38.4287 33.911 38.0946 33.9425 37.8805 34.162L34.6264 37.5091C34.4138 37.7278 34.382 38.0708 34.5507 38.3279C35.2092 39.3259 35.6588 40.4206 35.8885 41.5808C35.9483 41.8807 36.2052 42.0968 36.5032 42.0968H37.3262V44.6774H36.5038C36.2052 44.6774 35.9489 44.8935 35.8898 45.1941C35.6558 46.3747 35.2086 47.4716 34.5593 48.4548C34.39 48.7103 34.4215 49.0549 34.6347 49.2736L35.1847 49.8387L33.5627 51.5071L33.0127 50.9413C32.7995 50.722 32.4651 50.6896 32.2161 50.8638C31.2525 51.5373 30.1864 52.0001 29.0465 52.2388C28.7549 52.2993 28.5448 52.5639 28.5448 52.8705V53.7097H26.0358V52.8705C26.0358 52.5633 25.8257 52.2993 25.5336 52.2388C24.4037 52.002 23.3394 51.5379 22.3689 50.8587C22.1205 50.6845 21.7857 50.7167 21.5723 50.9362L21.0179 51.5071L19.3959 49.8387L19.9536 49.2651C20.1662 49.0464 20.198 48.7034 20.0293 48.4463C19.3708 47.4483 18.9212 46.3536 18.6915 45.1934C18.6324 44.8935 18.3754 44.6774 18.0774 44.6774H17.2545V42.0968H18.0768C18.3754 42.0968 18.6318 41.8807 18.6909 41.5801C18.9249 40.3994 19.372 39.3025 20.0213 38.3194C20.1907 38.0639 20.1591 37.7193 19.946 37.5006L19.3959 36.9355L21.0179 35.2671L21.568 35.8329C21.7811 36.0522 22.115 36.0846 22.364 35.9104C23.3287 35.2369 24.3948 34.7741 25.5342 34.536C25.8257 34.4755 26.0358 34.2109 26.0358 33.9037V33.0645H28.5448V33.9037C28.5448 34.2109 28.7549 34.4749 29.0471 34.536C30.1769 34.7722 31.2412 35.2363 32.2118 35.9154C32.4602 36.0903 32.7955 36.0582 33.0084 35.838L36.2625 32.4915C36.475 32.2729 36.5069 31.9298 36.3381 31.6737C35.6797 30.6748 35.2294 29.5801 35.001 28.4199C34.9406 28.1193 34.6837 27.9032 34.3857 27.9032H33.5627V25.3226H34.3851C34.6837 25.3226 34.94 25.1065 34.9991 24.8059C35.2331 23.6253 35.6803 22.5284 36.3296 21.5458C36.4989 21.2897 36.4674 20.9457 36.2542 20.7271L35.7042 20.1613L37.3262 18.4929L37.8762 19.0587C38.09 19.278 38.4238 19.3104 38.6722 19.1362C39.637 18.4627 40.7031 17.9999 41.8424 17.7618C42.134 17.7013 42.3441 17.4367 42.3441 17.1295V16.2903H44.853V17.1295C44.853 17.4367 45.0631 17.7007 45.3553 17.7618C46.4852 17.998 47.5494 18.4621 48.52 19.1406C48.769 19.3155 49.1038 19.2833 49.3166 19.0631L49.871 18.4929L51.493 20.1613L50.9353 20.7343C50.7227 20.9529 50.6909 21.296 50.8596 21.5521C51.5181 22.551 51.9686 23.6457 52.1968 24.8059C52.2565 25.1065 52.5135 25.3226 52.8115 25.3226H53.6344V27.9032Z" fill="#605FD9"/>
</g>
<defs>
<clipPath id="clip0">
<rect width="38.8889" height="40" fill="white" transform="translate(16 15)"/>
</clipPath>
</defs>
</svg>

