<svg width="100" height="100" viewBox="0 0 100 100" fill="none" xmlns="http://www.w3.org/2000/svg">
<path d="M41.4951 18.3442C19.3588 18.3442 1.3495 36.3518 1.3495 58.4881C1.3495 65.4476 3.15559 72.2804 6.58117 78.3035L0.0848984 97.7907C-0.108374 98.3722 0.031582 99.0103 0.449783 99.4568C0.769682 99.7984 1.21121 99.985 1.66606 99.985C1.80769 99.985 1.94931 99.9667 2.09093 99.93L23.3975 94.3234C28.9774 97.1459 35.2204 98.6354 41.4951 98.6354C63.6314 98.6338 81.6407 80.6245 81.6407 58.4881C81.6407 36.3518 63.6314 18.3442 41.4951 18.3442ZM23.3259 64.9961C19.6504 64.9961 16.6613 62.007 16.6613 58.3315C16.6613 54.656 19.6504 51.667 23.3259 51.667C27.0014 51.667 29.9904 54.656 29.9904 58.3315C29.9904 62.007 27.0014 64.9961 23.3259 64.9961ZM41.6534 64.9961C37.9779 64.9961 34.9888 62.007 34.9888 58.3315C34.9888 54.656 37.9779 51.667 41.6534 51.667C45.3289 51.667 48.318 54.656 48.318 58.3315C48.318 62.007 45.3289 64.9961 41.6534 64.9961ZM59.9809 64.9961C56.3054 64.9961 53.3164 62.007 53.3164 58.3315C53.3164 54.656 56.3054 51.667 59.9809 51.667C63.6564 51.667 66.6455 54.656 66.6455 58.3315C66.6455 62.007 63.6564 64.9961 59.9809 64.9961Z" fill="#5A7F9E"/>
<path d="M99.7817 79.1649L93.3854 59.9743C96.811 53.9528 98.6171 47.1183 98.6171 40.1589C98.6171 18.0225 80.6078 0.0132465 58.4715 0.0132465C44.7392 0.0132465 32.1082 7.04935 24.7838 18.3524C29.9305 16.2015 35.5754 15.0085 41.4935 15.0085C65.4693 15.0118 84.9731 34.5157 84.9731 58.4881C84.9731 65.146 83.4636 71.4556 80.7777 77.1022L97.8773 81.6008C98.0189 81.6374 98.1606 81.6557 98.3022 81.6557C98.3139 81.6557 98.3255 81.6557 98.3355 81.6557C99.2569 81.6557 100.002 80.911 100.002 79.9896C100 79.6914 99.9217 79.4098 99.7817 79.1649Z" fill="#5A7F9E"/>
</svg>
