<svg width="100" height="100" viewBox="0 0 100 100" fill="none" xmlns="http://www.w3.org/2000/svg">
<path d="M98.0114 38.3526C96.6853 37.0267 95.0746 36.364 93.1812 36.364H63.6355V6.81751C63.6355 4.9242 62.9723 3.31398 61.6469 1.98809C60.3213 0.663194 58.7123 0 56.8163 0H43.1812C41.2877 0 39.6777 0.662448 38.3518 1.98834C37.0259 3.31423 36.3632 4.92445 36.3632 6.81776V36.3642H6.81776C4.92445 36.3642 3.31423 37.0269 1.98834 38.3528C0.662448 39.6787 0 41.2874 0 43.182V56.8188C0 58.7138 0.662199 60.3228 1.98809 61.6474C3.31398 62.9738 4.9242 63.636 6.81751 63.636H36.363V93.183C36.363 95.0763 37.0257 96.6878 38.3516 98.0132C39.6775 99.3378 41.2874 100 43.181 100H56.817C58.7118 100 60.321 99.3378 61.6472 98.0132C62.9736 96.687 63.6358 95.0763 63.6358 93.183V63.636H93.181C95.076 63.636 96.6858 62.9738 98.0112 61.6474C99.3368 60.3228 99.9998 58.7138 99.9998 56.8188V43.182C99.9993 41.2874 99.3378 39.6777 98.0114 38.3526Z" fill="#AFB9D2"/>
</svg>
