<svg width="20" height="20" viewBox="0 0 20 20" fill="none" xmlns="http://www.w3.org/2000/svg">
<path d="M17.3774 4.28824L13.2118 0.122578C13.1363 0.0469141 13.0321 0 12.9167 0H4.16668C3.24789 0 2.5 0.747461 2.5 1.66668V18.3334C2.5 19.2525 3.24789 20 4.16668 20H15.8334C16.7521 20 17.5 19.2525 17.5 18.3333V4.58332C17.5 4.46793 17.4531 4.36367 17.3774 4.28824ZM6.25 5.83332C5.5607 5.83332 5 5.27262 5 4.58332C5 4.04082 5.34937 3.58266 5.83332 3.41008V3.33332C5.83332 3.10301 6.01969 2.91664 6.25 2.91664C6.48031 2.91664 6.66668 3.10301 6.66668 3.33332H7.08336C7.31363 3.33332 7.5 3.51969 7.5 3.75C7.5 3.98031 7.31363 4.16668 7.08332 4.16668H6.25C6.02051 4.16668 5.83332 4.35344 5.83332 4.58336C5.83332 4.81324 6.02051 5.00004 6.25 5.00004C6.9393 5.00004 7.5 5.56074 7.5 6.25004C7.5 6.79254 7.15063 7.2507 6.66668 7.42328V7.5C6.66668 7.73031 6.48031 7.91668 6.25 7.91668C6.01969 7.91668 5.83332 7.73031 5.83332 7.5H5.41664C5.18633 7.5 4.99996 7.31363 4.99996 7.08332C4.99996 6.85301 5.18633 6.66664 5.41664 6.66664H6.25C6.47949 6.66664 6.66668 6.47988 6.66668 6.24996C6.66668 6.02004 6.47949 5.83332 6.25 5.83332ZM10.4167 17.5H5.41668C5.18637 17.5 5 17.3136 5 17.0833C5 16.853 5.18637 16.6666 5.41668 16.6666H10.4167C10.647 16.6666 10.8334 16.853 10.8334 17.0833C10.8333 17.3136 10.647 17.5 10.4167 17.5ZM14.5833 15H5.41668C5.18637 15 5 14.8136 5 14.5833C5 14.353 5.18637 14.1666 5.41668 14.1666H14.5834C14.8137 14.1666 15 14.353 15 14.5833C15 14.8136 14.8136 15 14.5833 15ZM14.5833 12.5H5.41668C5.18637 12.5 5 12.3136 5 12.0833C5 11.853 5.18637 11.6666 5.41668 11.6666H14.5834C14.8137 11.6666 15 11.853 15 12.0833C15 12.3136 14.8136 12.5 14.5833 12.5ZM14.5833 10H5.41668C5.18637 10 5 9.81363 5 9.58332C5 9.35301 5.18637 9.16664 5.41668 9.16664H14.5834C14.8137 9.16664 15 9.35301 15 9.58332C15 9.81363 14.8136 10 14.5833 10ZM14.5833 7.5H9.58332C9.35301 7.5 9.16664 7.31363 9.16664 7.08332C9.16664 6.85301 9.35301 6.66664 9.58332 6.66664H14.5833C14.8136 6.66664 15 6.85301 15 7.08332C15 7.31363 14.8136 7.5 14.5833 7.5ZM14.1667 4.16668C13.7069 4.16668 13.3334 3.79273 13.3334 3.33336V1.42254L16.0775 4.16668H14.1667Z" fill="white"/>
</svg>
