<svg width="100" height="100" viewBox="0 0 100 100" fill="none" xmlns="http://www.w3.org/2000/svg">
<g clip-path="url(#clip0)">
<path d="M97.9166 95.8338H2.0834C0.933398 95.8338 0 96.7671 0 97.9171C0 99.0671 0.933398 100 2.0834 100H97.9168C99.0668 100 100 99.0671 100 97.9171C100 96.7671 99.0666 95.8338 97.9166 95.8338Z" fill="#5A7F9E"/>
<path d="M18.7498 70.8338H6.24976C5.09976 70.8338 4.16636 71.7672 4.16636 72.9172V97.9172C4.16636 99.067 5.09976 100 6.24976 100H18.7498C19.8998 100 20.8332 99.067 20.8332 97.917V72.917C20.8332 71.767 19.8998 70.8338 18.7498 70.8338ZM16.6664 95.8338H8.33316V75.0004H16.6666V95.8338H16.6664Z" fill="#5A7F9E"/>
<path d="M43.7498 50H31.2498C30.0998 50 29.1664 50.9334 29.1664 52.0834V97.9168C29.1664 99.0668 30.0998 100 31.2498 100H43.7498C44.8998 100 45.8332 99.0668 45.8332 97.9168V52.0834C45.8332 50.9334 44.8998 50 43.7498 50ZM41.6664 95.8334H33.333V54.1666H41.6664V95.8334Z" fill="#5A7F9E"/>
<path d="M68.75 58.3339H56.25C55.1 58.3339 54.1666 59.2673 54.1666 60.4173V97.9173C54.1666 99.0673 55.1 100.001 56.25 100.001H68.75C69.9 100.001 70.8334 99.0673 70.8334 97.9173V60.4173C70.8334 59.2671 69.9 58.3339 68.75 58.3339ZM66.6666 95.8339H58.3332V62.5005H66.6666V95.8339V95.8339Z" fill="#5A7F9E"/>
<path d="M93.7498 33.3338H81.2498C80.0998 33.3338 79.1664 34.2672 79.1664 35.4172V97.9172C79.1664 99.0672 80.0998 100.001 81.2498 100.001H93.7498C94.8998 100.001 95.8332 99.0672 95.8332 97.9172V35.4172C95.8332 34.267 94.8998 33.3338 93.7498 33.3338ZM91.6664 95.8339H83.333V37.5004H91.6664V95.8339V95.8339Z" fill="#5A7F9E"/>
<path d="M12.4998 37.5C7.90386 37.5 4.16636 41.2375 4.16636 45.8334C4.16636 50.4292 7.90386 54.1667 12.4998 54.1667C17.0957 54.1667 20.8332 50.4292 20.8332 45.8334C20.8332 41.2375 17.0957 37.5 12.4998 37.5ZM12.4998 49.9999C10.1998 49.9999 8.33316 48.1291 8.33316 45.8334C8.33316 43.5375 10.1998 41.6667 12.4998 41.6667C14.7998 41.6667 16.6664 43.5376 16.6664 45.8334C16.6664 48.1291 14.7998 49.9999 12.4998 49.9999Z" fill="#5A7F9E"/>
<path d="M37.4998 16.6662C32.9039 16.6662 29.1664 20.4037 29.1664 24.9996C29.1664 29.5955 32.9039 33.333 37.4998 33.333C42.0957 33.333 45.8332 29.5955 45.8332 24.9996C45.8332 20.4037 42.0957 16.6662 37.4998 16.6662ZM37.4998 29.1662C35.1998 29.1662 33.3332 27.2953 33.3332 24.9996C33.3332 22.7037 35.1998 20.833 37.4998 20.833C39.7998 20.833 41.6664 22.7039 41.6664 24.9996C41.6664 27.2955 39.7998 29.1662 37.4998 29.1662Z" fill="#5A7F9E"/>
<path d="M62.5 25.0001C57.9041 25.0001 54.1666 28.7376 54.1666 33.3335C54.1666 37.9294 57.9041 41.6669 62.5 41.6669C67.0959 41.6669 70.8334 37.9294 70.8334 33.3335C70.8334 28.7376 67.0959 25.0001 62.5 25.0001ZM62.5 37.5001C60.2 37.5001 58.3334 35.6292 58.3334 33.3335C58.3334 31.0376 60.2 29.1669 62.5 29.1669C64.8 29.1669 66.6666 31.0378 66.6666 33.3335C66.6666 35.6292 64.8 37.5001 62.5 37.5001Z" fill="#5A7F9E"/>
<path d="M87.4998 0C82.9039 0 79.1664 3.7375 79.1664 8.3334C79.1664 12.9293 82.9039 16.6668 87.4998 16.6668C92.0957 16.6668 95.8332 12.9293 95.8332 8.3334C95.8332 3.7375 92.0957 0 87.4998 0ZM87.4998 12.5C85.1998 12.5 83.3332 10.6291 83.3332 8.3334C83.3332 6.0375 85.1998 4.1668 87.4998 4.1668C89.7998 4.1668 91.6664 6.0377 91.6664 8.3334C91.6664 10.6291 89.7998 12.5 87.4998 12.5Z" fill="#5A7F9E"/>
<path d="M84.5584 11.2749C83.7459 10.4624 82.425 10.4624 81.6125 11.2749L65.4459 27.4415C64.6334 28.254 64.6334 29.5749 65.4459 30.3874C65.8543 30.7915 66.3875 30.9958 66.9209 30.9958C67.45 30.9958 67.9834 30.7958 68.3918 30.3874L84.5584 14.2207C85.3709 13.4082 85.3709 12.0874 84.5584 11.2749Z" fill="#5A7F9E"/>
<path d="M57.4629 28.5253L44.0795 24.7087C42.9586 24.3837 41.8211 25.0337 41.5086 26.1421C41.192 27.2505 41.8336 28.4005 42.9377 28.7171L56.3211 32.5337C56.5127 32.5878 56.7045 32.6128 56.892 32.6128C57.8004 32.6128 58.6336 32.0169 58.8961 31.1003C59.2129 29.9962 58.5713 28.8419 57.4629 28.5253Z" fill="#5A7F9E"/>
<path d="M34.2497 27.5956C33.5331 26.6956 32.2247 26.5497 31.3247 27.2622L15.6163 39.7872C14.7163 40.5081 14.5663 41.8163 15.2872 42.7163C15.6997 43.2329 16.3081 43.4997 16.9163 43.4997C17.3704 43.4997 17.8288 43.3497 18.2122 43.0497L33.9206 30.5247C34.8206 29.8038 34.9706 28.4956 34.2497 27.5956Z" fill="#5A7F9E"/>
</g>
<defs>
<clipPath id="clip0">
<rect width="100" height="100" fill="white"/>
</clipPath>
</defs>
</svg>
