<svg width="80" height="80" viewBox="0 0 80 80" fill="none" xmlns="http://www.w3.org/2000/svg">
<g clip-path="url(#clip0)">
<path d="M69.3801 63.5736C69.0897 63.283 68.6865 63.116 68.2758 63.116C67.865 63.116 67.4619 63.283 67.1714 63.5736C66.8809 63.8641 66.7137 64.2672 66.7137 64.678C66.7137 65.0888 66.8809 65.4919 67.1714 65.7822C67.4619 66.0727 67.865 66.24 68.2758 66.24C68.6865 66.24 69.0897 66.0729 69.3801 65.7822C69.6723 65.4918 69.8378 65.0888 69.8378 64.678C69.8378 64.2672 69.6723 63.8641 69.3801 63.5736Z" fill="#FF008A"/>
<path d="M30.2361 68.1145C26.9631 68.1145 24.3002 70.7773 24.3002 74.0504C24.3002 77.3234 26.963 79.9863 30.2361 79.9863C33.5091 79.9863 36.1721 77.3235 36.1721 74.0504C36.1721 70.7773 33.5091 68.1145 30.2361 68.1145ZM30.2361 76.8621C28.6858 76.8621 27.4244 75.6007 27.4244 74.0504C27.4244 72.5001 28.6858 71.2387 30.2361 71.2387C31.7864 71.2387 33.0478 72.5001 33.0478 74.0504C33.0478 75.6007 31.7864 76.8621 30.2361 76.8621Z" fill="#FF008A"/>
<path d="M58.888 68.1145C55.615 68.1145 52.952 70.7773 52.952 74.0504C52.952 77.3234 55.6148 79.9863 58.888 79.9863C62.1609 79.9863 64.8239 77.3235 64.8239 74.0504C64.8239 70.7773 62.1611 68.1145 58.888 68.1145ZM58.888 76.8621C57.3377 76.8621 56.0762 75.6007 56.0762 74.0504C56.0762 72.5001 57.3377 71.2387 58.888 71.2387C60.4383 71.2387 61.6997 72.5001 61.6997 74.0504C61.6997 75.6007 60.4386 76.8621 58.888 76.8621Z" fill="#FF008A"/>
<path d="M73.0349 41.3267C72.1883 41.1634 71.3686 41.7178 71.2055 42.5651L68.9352 54.3512C68.7938 55.0851 68.1486 55.6178 67.4013 55.6178H22.3238L16.2059 29.0105H32.2694C33.1322 29.0105 33.8314 28.3111 33.8314 27.4484C33.8314 26.5858 33.132 25.8864 32.2694 25.8864H15.4875L13.8214 18.6402C13.3294 16.4992 11.4513 15.0039 9.25438 15.0039H1.56203C0.699375 15.0038 0 15.7031 0 16.5659C0 17.4287 0.699375 18.128 1.56203 18.128H9.25453C9.98688 18.128 10.6128 18.6262 10.7769 19.34L21.2819 65.0279C21.445 65.7373 22.0764 66.24 22.8042 66.24H62.6477C63.5105 66.24 64.2097 65.5404 64.2097 64.6779C64.2097 63.8153 63.5103 63.1159 62.6477 63.1159H24.0478L23.0422 58.7422H67.4013C69.6435 58.7422 71.5789 57.1442 72.0028 54.9425L74.2731 43.1564C74.4364 42.3089 73.882 41.49 73.0349 41.3267Z" fill="#FF008A"/>
<path d="M79.3959 21.1109C80.3881 19.4988 80.1392 17.4447 78.7905 16.1164L77.2305 14.5797C77.0394 14.3914 76.9408 14.1302 76.9597 13.8625L77.1159 11.6675C77.2511 9.77032 76.0738 8.06204 74.2527 7.51313L72.1869 6.89032C71.9284 6.81235 71.7188 6.62563 71.6113 6.37813L70.7466 4.38329C69.9972 2.65454 68.1113 1.66344 66.2625 2.02594L64.1664 2.43735C63.8999 2.48938 63.6264 2.42172 63.4153 2.25125L61.7467 0.904067C60.2766 -0.282808 58.1422 -0.28312 56.6719 0.904067L55.0033 2.25125C54.792 2.42172 54.5186 2.48969 54.252 2.43719L52.1558 2.02579C50.3069 1.66282 48.4211 2.65422 47.6719 4.38266L46.8069 6.37797C46.6995 6.62563 46.4899 6.81219 46.2314 6.89016L44.1659 7.51282C42.345 8.06188 41.1677 9.77016 41.3028 11.6672L41.4591 13.8623C41.4781 14.1298 41.3794 14.3911 41.1884 14.5794L39.6284 16.1161C38.2797 17.4445 38.0308 19.4984 39.023 21.1106L40.1764 22.9852C40.3167 23.2133 40.3502 23.4902 40.2683 23.7452L39.5933 25.8441C39.0128 27.6492 39.7463 29.5861 41.3766 30.5539L43.2464 31.6641C43.4777 31.8013 43.6361 32.032 43.6813 32.2972L44.0491 34.4556C44.3697 36.3367 45.9248 37.7164 47.8305 37.8111L49.9717 37.9175C50.2422 37.9309 50.4913 38.0623 50.655 38.2777L51.9608 39.9958C52.7413 41.0223 53.9545 41.5863 55.1905 41.5863C55.7644 41.5863 56.3433 41.4647 56.8858 41.2114L58.8217 40.3075C59.0678 40.1925 59.35 40.1925 59.5963 40.3075L61.5319 41.2114C63.2431 42.0103 65.3144 41.4991 66.457 39.9953L67.7622 38.2778C67.9261 38.0622 68.1752 37.9309 68.4456 37.9175L70.5874 37.8109C72.4931 37.7163 74.0481 36.3366 74.3688 34.4555L74.7366 32.297C74.7817 32.0319 74.9403 31.8013 75.1714 31.6639L77.0413 30.5539C78.6716 29.5861 79.405 27.6492 78.8247 25.8441L78.1497 23.7452C78.0677 23.4902 78.1011 23.2133 78.2414 22.9853L79.3959 21.1109ZM76.7352 19.4736L75.5816 21.3483C74.9625 22.3545 74.8147 23.5769 75.1764 24.7016L75.8514 26.8005C75.983 27.2095 75.8167 27.6484 75.4475 27.8677L73.5778 28.9777C72.5572 29.5836 71.8575 30.602 71.6578 31.7722L71.29 33.9305C71.2174 34.3566 70.8652 34.6692 70.4331 34.6908L68.2913 34.7973C67.0978 34.8567 65.9988 35.4362 65.2756 36.3877L63.9705 38.1052C63.7114 38.4456 63.2422 38.5616 62.8544 38.3806L60.9188 37.4767C59.8325 36.9694 58.5864 36.9695 57.5003 37.4767L55.5645 38.3806C55.1769 38.5619 54.7075 38.4458 54.4486 38.1052L53.1428 36.387C52.4199 35.4359 51.3208 34.8564 50.1274 34.797L47.9861 34.6906C47.5544 34.6692 47.2019 34.3566 47.1292 33.9303L46.7614 31.7719C46.5619 30.6019 45.8622 29.5833 44.8416 28.9775L42.9717 27.8675C42.6024 27.6481 42.4363 27.2094 42.5678 26.8003L43.2428 24.7014C43.6044 23.5766 43.4569 22.3544 42.8377 21.348L41.6841 19.4733C41.4592 19.1081 41.5156 18.6427 41.8213 18.3417L43.3814 16.8048C44.2245 15.9742 44.6599 14.8208 44.5758 13.6403L44.4195 11.4452C44.3889 11.0155 44.6558 10.6283 45.0681 10.5039L47.1336 9.88125C48.2739 9.5375 49.1997 8.71344 49.6736 7.62079L50.5386 5.62547C50.685 5.28813 51.0224 5.07454 51.3811 5.07454C51.4388 5.07454 51.4967 5.08016 51.5547 5.09141L53.6508 5.50266C54.8259 5.73375 56.0342 5.43422 56.9661 4.68188L58.6347 3.33469C58.968 3.06563 59.4516 3.06579 59.7845 3.33469L61.4531 4.68188C62.3848 5.43407 63.5928 5.73313 64.7684 5.50282L66.8644 5.09157C67.2836 5.00875 67.7106 5.23407 67.8802 5.62563L68.7449 7.62047C69.2186 8.7136 70.1445 9.53766 71.2852 9.88141L73.3509 10.5042C73.7634 10.6286 74.0303 11.0156 73.9997 11.4455L73.8434 13.6405C73.7594 14.8209 74.1947 15.9744 75.0378 16.8052L76.5978 18.3419C76.9034 18.6428 76.9599 19.1081 76.7352 19.4736Z" fill="#FF008A"/>
<path d="M62.8229 13.7231C62.0715 13.2989 61.1189 13.5641 60.6948 14.3155L53.4503 27.1483C53.0262 27.8997 53.2912 28.8524 54.0426 29.2764C54.2855 29.4134 54.5489 29.4786 54.8092 29.4786C55.3544 29.4786 55.8837 29.1927 56.1709 28.6841L63.4155 15.8513C63.8394 15.0999 63.574 14.1472 62.8229 13.7231Z" fill="#FF008A"/>
<path d="M63.9175 21.9291C61.6773 21.9291 59.8549 23.7516 59.8549 25.9917C59.8549 28.2319 61.6773 30.0544 63.9175 30.0544C66.1576 30.0544 67.9801 28.2319 67.9801 25.9917C67.9801 23.7516 66.1575 21.9291 63.9175 21.9291ZM63.9175 26.9303C63.4 26.9303 62.9791 26.5094 62.9791 25.9919C62.9791 25.4744 63.4 25.0535 63.9175 25.0535C64.435 25.0535 64.8559 25.4744 64.8559 25.9919C64.8559 26.5094 64.435 26.9303 63.9175 26.9303Z" fill="#FF008A"/>
<path d="M54.5017 11.5446C52.2616 11.5446 50.4391 13.3671 50.4391 15.6072C50.4391 17.8474 52.2616 19.6699 54.5017 19.6699C56.7419 19.6699 58.5644 17.8474 58.5644 15.6072C58.5644 13.3671 56.7419 11.5446 54.5017 11.5446ZM54.5016 16.5458C53.9841 16.5458 53.5631 16.1249 53.5631 15.6074C53.5631 15.0899 53.9841 14.6689 54.5016 14.6689C55.0191 14.6689 55.44 15.0899 55.44 15.6074C55.44 16.1247 55.0191 16.5458 54.5016 16.5458Z" fill="#FF008A"/>
</g>
<defs>
<clipPath id="clip0">
<rect width="80" height="80" fill="white"/>
</clipPath>
</defs>
</svg>
