<svg width="20" height="20" viewBox="0 0 20 20" fill="none" xmlns="http://www.w3.org/2000/svg">
<g clip-path="url(#clip0)">
<path d="M12.0837 9.4903H8.77183C8.4021 9.4903 8.10242 9.78998 8.10242 10.1597V19.3201C8.10242 19.6898 8.4021 19.9895 8.77183 19.9895H12.0837C12.4534 19.9895 12.7531 19.6898 12.7531 19.3201V10.1597C12.7531 9.78998 12.4533 9.4903 12.0837 9.4903Z" fill="white"/>
<path d="M19.1538 4.9101H15.842C15.4722 4.9101 15.1725 5.20978 15.1725 5.57951V19.3201C15.1725 19.6898 15.4722 19.9895 15.842 19.9895H19.1538C19.5235 19.9895 19.8232 19.6898 19.8232 19.3201V5.57951C19.8232 5.20978 19.5235 4.9101 19.1538 4.9101Z" fill="white"/>
<path d="M5.01316 12.4604H1.70133C1.33161 12.4604 1.03192 12.7601 1.03192 13.1298V19.3307C1.03192 19.7004 1.33168 20.0001 1.70133 20.0001H5.01316C5.38289 20.0001 5.68258 19.7004 5.68258 19.3307V13.1298C5.68258 12.7601 5.38289 12.4604 5.01316 12.4604Z" fill="white"/>
<path d="M13.6272 1.28172L11.1449 0.102643C10.6174 -0.14807 9.98711 0.0766413 9.73675 0.603856C9.48625 1.13107 9.71068 1.76166 10.238 2.01202L10.4398 2.10792L0.879644 5.51079C0.329669 5.70654 0.042597 6.31106 0.238277 6.86103C0.392312 7.29382 0.799526 7.56384 1.23408 7.56384C1.35176 7.56384 1.47133 7.54411 1.58852 7.5024L11.1126 4.11235L11.04 4.26526C10.7895 4.79255 11.0139 5.42306 11.5412 5.67342C11.6876 5.74297 11.842 5.77595 11.9939 5.77595C12.3893 5.77588 12.7686 5.55307 12.9494 5.17221L14.1284 2.68989C14.3789 2.16267 14.1545 1.53216 13.6272 1.28172Z" fill="white"/>
</g>
<defs>
<clipPath id="clip0">
<rect width="20" height="20" fill="white"/>
</clipPath>
</defs>
</svg>
