<svg width="32" height="33" viewBox="0 0 32 33" fill="none" xmlns="http://www.w3.org/2000/svg">
<path d="M16 20.8053C18.2091 20.8053 20 19.0144 20 16.8053C20 14.5962 18.2091 12.8053 16 12.8053C13.7909 12.8053 12 14.5962 12 16.8053C12 19.0144 13.7909 20.8053 16 20.8053Z" fill="#AFB9D2"/>
<path d="M16 32.8053C18.2091 32.8053 20 31.0144 20 28.8053C20 26.5962 18.2091 24.8053 16 24.8053C13.7909 24.8053 12 26.5962 12 28.8053C12 31.0144 13.7909 32.8053 16 32.8053Z" fill="#AFB9D2"/>
<path d="M16 8.8053C18.2091 8.8053 20 7.01444 20 4.8053C20 2.59616 18.2091 0.805298 16 0.805298C13.7909 0.805298 12 2.59616 12 4.8053C12 7.01444 13.7909 8.8053 16 8.8053Z" fill="#AFB9D2"/>
</svg>
