<svg width="48" height="48" viewBox="0 0 48 48" fill="none" xmlns="http://www.w3.org/2000/svg">
<g clip-path="url(#clip0)">
<path d="M47 46.0002H1.00003C0.448031 46.0002 0 46.4482 0 47.0002C0 47.5522 0.448031 48.0002 1.00003 48.0002H47.0001C47.5521 48.0002 48.0001 47.5522 48.0001 47.0002C48 46.4482 47.552 46.0002 47 46.0002Z" fill="#5A7F9E"/>
<path d="M8.99991 34.0002H2.99991C2.44791 34.0002 1.99988 34.4482 1.99988 35.0002V47.0002C1.99988 47.5522 2.44791 48.0002 2.99991 48.0002H8.99991C9.55191 48.0002 9.99994 47.5522 9.99994 47.0002V35.0001C9.99994 34.4481 9.55191 34.0002 8.99991 34.0002ZM7.99988 46.0002H3.99994V36.0002H7.99997V46.0002H7.99988Z" fill="#5A7F9E"/>
<path d="M20.9999 24H14.9999C14.4479 24 13.9999 24.448 13.9999 25V47C13.9999 47.552 14.4479 48.0001 14.9999 48.0001H20.9999C21.5519 48.0001 21.9999 47.552 21.9999 47V25C21.9999 24.448 21.5519 24 20.9999 24ZM19.9999 46H15.9998V26H19.9999V46Z" fill="#5A7F9E"/>
<path d="M33 28.0002H27C26.448 28.0002 26 28.4483 26 29.0003V47.0003C26 47.5523 26.448 48.0003 27 48.0003H33C33.552 48.0003 34.0001 47.5523 34.0001 47.0003V29.0003C34.0001 28.4482 33.552 28.0002 33 28.0002ZM32 46.0002H28V30.0002H32V46.0002Z" fill="#5A7F9E"/>
<path d="M44.9999 16.0002H38.9999C38.4479 16.0002 37.9999 16.4483 37.9999 17.0003V47.0003C37.9999 47.5523 38.4479 48.0003 38.9999 48.0003H44.9999C45.5519 48.0003 45.9999 47.5523 45.9999 47.0003V17.0003C45.9999 16.4482 45.5519 16.0002 44.9999 16.0002ZM43.9999 46.0002H39.9998V18.0002H43.9999V46.0002Z" fill="#5A7F9E"/>
<path d="M5.99991 18C3.79388 18 1.99988 19.794 1.99988 22C1.99988 24.206 3.79388 26 5.99991 26C8.20594 26 9.99994 24.206 9.99994 22C9.99994 19.794 8.20594 18 5.99991 18ZM5.99991 24C4.89591 24 3.99994 23.1019 3.99994 22C3.99994 20.898 4.89591 20 5.99991 20C7.10391 20 7.99988 20.8981 7.99988 22C7.99988 23.1019 7.10391 24 5.99991 24Z" fill="#5A7F9E"/>
<path d="M17.9999 7.99976C15.7939 7.99976 13.9999 9.79376 13.9999 11.9998C13.9999 14.2058 15.7939 15.9998 17.9999 15.9998C20.2059 15.9998 21.9999 14.2058 21.9999 11.9998C21.9999 9.79376 20.2059 7.99976 17.9999 7.99976ZM17.9999 13.9998C16.8959 13.9998 15.9999 13.1017 15.9999 11.9998C15.9999 10.8978 16.8959 9.99983 17.9999 9.99983C19.1039 9.99983 19.9999 10.8979 19.9999 11.9998C19.9999 13.1018 19.1039 13.9998 17.9999 13.9998Z" fill="#5A7F9E"/>
<path d="M30 12C27.794 12 26 13.794 26 16.0001C26 18.2061 27.794 20.0001 30 20.0001C32.2061 20.0001 34.0001 18.2061 34.0001 16.0001C34.0001 13.794 32.2061 12 30 12ZM30 18C28.896 18 28.0001 17.102 28.0001 16.0001C28.0001 14.898 28.896 14.0001 30 14.0001C31.104 14.0001 32 14.8981 32 16.0001C32 17.102 31.104 18 30 18Z" fill="#5A7F9E"/>
<path d="M41.9999 0C39.7939 0 37.9999 1.794 37.9999 4.00003C37.9999 6.20606 39.7939 8.00006 41.9999 8.00006C44.2059 8.00006 45.9999 6.20606 45.9999 4.00003C45.9999 1.794 44.2059 0 41.9999 0ZM41.9999 6C40.8959 6 39.9999 5.10197 39.9999 4.00003C39.9999 2.898 40.8959 2.00006 41.9999 2.00006C43.1039 2.00006 43.9999 2.89809 43.9999 4.00003C43.9999 5.10197 43.1039 6 41.9999 6Z" fill="#5A7F9E"/>
<path d="M40.5881 5.41193C40.1981 5.02193 39.5641 5.02193 39.1741 5.41193L31.4141 13.1719C31.0241 13.5619 31.0241 14.1959 31.4141 14.5859C31.6101 14.7799 31.8661 14.878 32.1221 14.878C32.3761 14.878 32.6321 14.782 32.8281 14.5859L40.5881 6.82596C40.9781 6.43596 40.9781 5.80193 40.5881 5.41193Z" fill="#5A7F9E"/>
<path d="M27.5822 13.6921L21.1582 11.8602C20.6202 11.7042 20.0742 12.0162 19.9242 12.5482C19.7722 13.0802 20.0802 13.6322 20.6102 13.7842L27.0342 15.6162C27.1262 15.6421 27.2182 15.6541 27.3082 15.6541C27.7442 15.6541 28.1442 15.3681 28.2702 14.9281C28.4222 14.3982 28.1143 13.8441 27.5822 13.6921Z" fill="#5A7F9E"/>
<path d="M16.4399 13.2459C16.0959 12.8139 15.4679 12.7438 15.0359 13.0858L7.49587 19.0978C7.06387 19.4439 6.99187 20.0718 7.3379 20.5038C7.5359 20.7518 7.82793 20.8798 8.11987 20.8798C8.33784 20.8798 8.55787 20.8078 8.7419 20.6638L16.2819 14.6518C16.7139 14.3058 16.7859 13.6779 16.4399 13.2459Z" fill="#5A7F9E"/>
</g>
<defs>
<clipPath id="clip0">
<rect width="48" height="48" fill="white"/>
</clipPath>
</defs>
</svg>
