<svg width="14" height="13" viewBox="0 0 14 13" fill="none" xmlns="http://www.w3.org/2000/svg">
<g clip-path="url(#clip0)">
<path d="M12.8693 0.97046H0.929218C0.718494 0.970108 0.52543 1.07396 0.429163 1.23935C0.331569 1.40696 0.348698 1.60881 0.473379 1.76189L4.84773 7.20167C4.84919 7.20354 4.85078 7.2053 4.85224 7.20718C5.01118 7.39659 5.09722 7.6261 5.09762 7.86182V12.2968C5.09669 12.4281 5.15512 12.5544 5.25988 12.6475C5.36478 12.7406 5.50739 12.7931 5.6561 12.7931C5.73165 12.793 5.80654 12.7798 5.87639 12.7541L8.33443 11.9268C8.55458 11.8674 8.70078 11.6839 8.70078 11.4631V7.86182C8.70118 7.6261 8.78722 7.39659 8.94602 7.20718C8.94748 7.2053 8.94908 7.20354 8.95054 7.20167L13.325 1.76177C13.4497 1.60881 13.4668 1.40708 13.3692 1.23947C13.2731 1.07396 13.0799 0.970108 12.8693 0.97046Z" fill="#087AFF"/>
</g>
<defs>
<clipPath id="clip0">
<rect width="13.3929" height="11.8227" fill="white" transform="translate(0.196411 0.970459)"/>
</clipPath>
</defs>
</svg>
