<svg width="20" height="20" viewBox="0 0 20 20" fill="none" xmlns="http://www.w3.org/2000/svg">
<g clip-path="url(#clip0)">
<path d="M13.3566 2.28827C10.3056 -0.762757 5.33978 -0.762757 2.28875 2.28827C-0.761615 5.33996 -0.761615 10.3051 2.28875 13.3568C5.00577 16.0731 9.23739 16.3641 12.2864 14.243C12.3506 14.5466 12.4974 14.8363 12.7335 15.0724L17.1768 19.5157C17.8243 20.1619 18.8706 20.1619 19.5148 19.5157C20.1617 18.8688 20.1617 17.8225 19.5148 17.1777L15.0716 12.7331C14.8368 12.4989 14.5464 12.3514 14.2429 12.2873C16.3653 9.23757 16.0743 5.00661 13.3566 2.28827ZM11.9538 11.9539C9.6759 14.2318 5.96877 14.2318 3.69157 11.9539C1.41504 9.67608 1.41504 5.96961 3.69157 3.69176C5.96877 1.41456 9.6759 1.41456 11.9538 3.69176C14.2316 5.96961 14.2316 9.67608 11.9538 11.9539Z" fill="#AFB9D2"/>
</g>
<defs>
<clipPath id="clip0">
<rect width="20" height="20" fill="white"/>
</clipPath>
</defs>
</svg>
