<svg width="20" height="20" viewBox="0 0 20 20" fill="none" xmlns="http://www.w3.org/2000/svg">
<g clip-path="url(#clip0)">
<path d="M3.125 12.5H5.20828C5.55328 12.5 5.83328 12.22 5.83328 11.875V9.79175C5.83328 9.44675 5.55328 9.16675 5.20828 9.16675H3.125C2.78 9.16675 2.5 9.44675 2.5 9.79175V11.875C2.5 12.22 2.78 12.5 3.125 12.5Z" fill="white"/>
<path d="M3.125 17.5H5.20828C5.55328 17.5 5.83328 17.22 5.83328 16.875V14.7917C5.83328 14.4467 5.55328 14.1667 5.20828 14.1667H3.125C2.78 14.1667 2.5 14.4467 2.5 14.7917V16.875C2.5 17.22 2.78 17.5 3.125 17.5Z" fill="white"/>
<path d="M8.95825 12.5H11.0417C11.3867 12.5 11.6667 12.22 11.6667 11.875V9.79175C11.6667 9.44675 11.3867 9.16675 11.0417 9.16675H8.95825C8.61325 9.16675 8.33325 9.44675 8.33325 9.79175V11.875C8.33325 12.22 8.61325 12.5 8.95825 12.5Z" fill="white"/>
<path d="M8.95825 17.5H11.0417C11.3867 17.5 11.6667 17.22 11.6667 16.875V14.7917C11.6667 14.4467 11.3867 14.1667 11.0417 14.1667H8.95825C8.61325 14.1667 8.33325 14.4467 8.33325 14.7917V16.875C8.33325 17.22 8.61325 17.5 8.95825 17.5Z" fill="white"/>
<path d="M14.7917 12.5H16.875C17.22 12.5 17.5 12.22 17.5 11.875V9.79175C17.5 9.44675 17.22 9.16675 16.875 9.16675H14.7917C14.4467 9.16675 14.1667 9.44675 14.1667 9.79175V11.875C14.1667 12.22 14.4467 12.5 14.7917 12.5Z" fill="white"/>
<path d="M17.5 2.5H16.6667V0.833282C16.6667 0.373383 16.2933 0 15.8333 0H15C14.5399 0 14.1667 0.373383 14.1667 0.833282V2.5H5.83328V0.833282C5.83328 0.373383 5.46005 0 5 0H4.16672C3.70667 0 3.33328 0.373383 3.33328 0.833282V2.5H2.5C1.12167 2.5 0 3.62167 0 5V17.5C0 18.8783 1.12167 20 2.5 20H17.5C18.8783 20 20 18.8783 20 17.5V5C20 3.62167 18.8783 2.5 17.5 2.5ZM18.3333 17.5C18.3333 17.9591 17.9591 18.3333 17.5 18.3333H2.5C2.04086 18.3333 1.66672 17.9591 1.66672 17.5V8.3667H18.3333V17.5Z" fill="white"/>
</g>
<defs>
<clipPath id="clip0">
<rect width="20" height="20" fill="white"/>
</clipPath>
</defs>
</svg>
