<svg width="244" height="244" viewBox="0 0 244 244" fill="none" xmlns="http://www.w3.org/2000/svg">
<circle cx="122" cy="122" r="122" fill="#EEF2F5"/>
<circle cx="120.901" cy="122" r="98.9189" fill="#FAFAFA"/>
<g clip-path="url(#clip0)">
<path d="M126.885 144.949C129.344 144.949 131.338 143.042 131.338 140.69C131.338 138.337 129.344 136.43 126.885 136.43C124.425 136.43 122.432 138.337 122.432 140.69C122.432 143.042 124.425 144.949 126.885 144.949Z" fill="#28528C"/>
<path d="M141.803 167.524H86.3613C81.4504 167.524 77.4551 163.703 77.4551 159.005V124.077C77.4551 119.38 81.4504 115.558 86.3613 115.558H150.486C151.5 115.558 152.305 115.644 152.946 115.82C155.31 116.467 157.776 115.159 158.453 112.898C159.131 110.637 157.763 108.278 155.399 107.63C153.949 107.233 152.342 107.039 150.486 107.039H145.134V92.0174C145.134 78.2227 133.148 67 118.416 67C103.683 67 91.6968 78.2227 91.6968 92.0174V107.039H86.3613C76.5395 107.039 68.5488 114.683 68.5488 124.077V159.005C68.5488 168.4 76.5395 176.043 86.3613 176.043H141.803C144.262 176.043 146.256 174.136 146.256 171.784C146.256 169.431 144.262 167.524 141.803 167.524ZM100.603 92.0174C100.603 82.9201 108.594 75.519 118.416 75.519C128.237 75.519 136.228 82.9201 136.228 92.0174V107.039H100.603V92.0174V92.0174Z" fill="#28528C"/>
<path d="M110.186 144.949C112.645 144.949 114.639 143.042 114.639 140.69C114.639 138.337 112.645 136.43 110.186 136.43C107.726 136.43 105.732 138.337 105.732 140.69C105.732 143.042 107.726 144.949 110.186 144.949Z" fill="#28528C"/>
<path d="M175.448 137.54C175.35 129.279 168.294 122.587 159.634 122.587C150.915 122.587 143.82 129.372 143.82 137.713C143.82 140.066 145.814 141.973 148.273 141.973C150.733 141.973 152.727 140.066 152.727 137.713C152.727 134.07 155.825 131.106 159.635 131.106C163.444 131.106 166.543 134.07 166.543 137.713C166.543 137.752 166.543 137.791 166.544 137.829C166.498 140.437 164.86 142.772 162.344 143.8C157.993 145.577 155.182 149.682 155.182 154.257V157.941C155.182 160.293 157.175 162.2 159.635 162.2C162.094 162.2 164.088 160.293 164.088 157.941V154.257C164.088 153.099 164.776 152.069 165.841 151.635C171.681 149.25 175.453 143.785 175.452 137.712C175.452 137.654 175.45 137.597 175.448 137.54Z" fill="#28528C"/>
<path d="M159.615 176.043C162.075 176.043 164.068 174.136 164.068 171.784C164.068 169.432 162.075 167.524 159.615 167.524C157.156 167.524 155.162 169.432 155.162 171.784C155.162 174.136 157.156 176.043 159.615 176.043Z" fill="#28528C"/>
<path d="M93.4863 144.949C95.9457 144.949 97.9395 143.042 97.9395 140.69C97.9395 138.337 95.9457 136.43 93.4863 136.43C91.0269 136.43 89.0332 138.337 89.0332 140.69C89.0332 143.042 91.0269 144.949 93.4863 144.949Z" fill="#28528C"/>
</g>
<defs>
<clipPath id="clip0">
<rect width="114" height="109.043" fill="white" transform="translate(65 67)"/>
</clipPath>
</defs>
</svg>
