<svg width="70" height="70" viewBox="0 0 70 70" fill="none" xmlns="http://www.w3.org/2000/svg">
<circle cx="35" cy="35" r="35" fill="#E6E8FB"/>
<g clip-path="url(#clip0)">
<path d="M54.1666 53.3333H15.8334C15.3734 53.3333 15 53.7066 15 54.1666C15 54.6266 15.3734 55 15.8334 55H54.1667C54.6267 55 55.0001 54.6266 55.0001 54.1666C55 53.7066 54.6266 53.3333 54.1666 53.3333Z" fill="#605FD9"/>
<path d="M22.5 43.3334H17.5C17.04 43.3334 16.6666 43.7067 16.6666 44.1667V54.1667C16.6666 54.6267 17.04 55 17.5 55H22.5C22.96 55 23.3333 54.6267 23.3333 54.1667V44.1667C23.3333 43.7067 22.96 43.3334 22.5 43.3334ZM21.6666 53.3334H18.3333V45H21.6667V53.3334H21.6666Z" fill="#605FD9"/>
<path d="M32.5 35H27.5C27.04 35 26.6666 35.3734 26.6666 35.8334V54.1667C26.6666 54.6267 27.04 55.0001 27.5 55.0001H32.5C32.96 55.0001 33.3333 54.6267 33.3333 54.1667V35.8334C33.3333 35.3734 32.96 35 32.5 35ZM31.6666 53.3334H28.3333V36.6666H31.6666V53.3334Z" fill="#605FD9"/>
<path d="M42.5 38.3334H37.5C37.04 38.3334 36.6666 38.7067 36.6666 39.1667V54.1667C36.6666 54.6267 37.04 55.0001 37.5 55.0001H42.5C42.96 55.0001 43.3333 54.6267 43.3333 54.1667V39.1667C43.3333 38.7067 42.96 38.3334 42.5 38.3334ZM41.6666 53.3334H38.3333V40H41.6666V53.3334Z" fill="#605FD9"/>
<path d="M52.5 28.3333H47.5C47.04 28.3333 46.6666 28.7067 46.6666 29.1667V54.1667C46.6666 54.6267 47.04 55.0001 47.5 55.0001H52.5C52.96 55.0001 53.3333 54.6267 53.3333 54.1667V29.1667C53.3333 28.7066 52.96 28.3333 52.5 28.3333ZM51.6666 53.3333H48.3333V30H51.6666V53.3333Z" fill="#605FD9"/>
<path d="M20 30C18.1616 30 16.6666 31.495 16.6666 33.3334C16.6666 35.1717 18.1616 36.6667 20 36.6667C21.8383 36.6667 23.3333 35.1717 23.3333 33.3334C23.3333 31.495 21.8383 30 20 30ZM20 35C19.08 35 18.3333 34.2516 18.3333 33.3334C18.3333 32.415 19.08 31.6667 20 31.6667C20.92 31.6667 21.6666 32.4151 21.6666 33.3334C21.6666 34.2516 20.92 35 20 35Z" fill="#605FD9"/>
<path d="M30 21.6667C28.1616 21.6667 26.6666 23.1617 26.6666 25C26.6666 26.8384 28.1616 28.3334 30 28.3334C31.8383 28.3334 33.3333 26.8384 33.3333 25C33.3333 23.1617 31.8383 21.6667 30 21.6667ZM30 26.6667C29.08 26.6667 28.3333 25.9183 28.3333 25C28.3333 24.0817 29.08 23.3334 30 23.3334C30.92 23.3334 31.6666 24.0817 31.6666 25C31.6666 25.9184 30.92 26.6667 30 26.6667Z" fill="#605FD9"/>
<path d="M40 25C38.1616 25 36.6666 26.495 36.6666 28.3334C36.6666 30.1717 38.1616 31.6667 40 31.6667C41.8383 31.6667 43.3333 30.1717 43.3333 28.3334C43.3333 26.495 41.8383 25 40 25ZM40 30C39.08 30 38.3333 29.2516 38.3333 28.3334C38.3333 27.415 39.08 26.6667 40 26.6667C40.92 26.6667 41.6666 27.4151 41.6666 28.3334C41.6666 29.2516 40.92 30 40 30Z" fill="#605FD9"/>
<path d="M50 15C48.1616 15 46.6666 16.495 46.6666 18.3334C46.6666 20.1717 48.1616 21.6667 50 21.6667C51.8383 21.6667 53.3333 20.1717 53.3333 18.3334C53.3333 16.495 51.8383 15 50 15ZM50 20C49.08 20 48.3333 19.2516 48.3333 18.3334C48.3333 17.415 49.08 16.6667 50 16.6667C50.92 16.6667 51.6666 17.4151 51.6666 18.3334C51.6666 19.2516 50.92 20 50 20Z" fill="#605FD9"/>
<path d="M48.8233 19.51C48.4983 19.185 47.97 19.185 47.645 19.51L41.1783 25.9766C40.8533 26.3016 40.8533 26.83 41.1783 27.155C41.3417 27.3166 41.555 27.3983 41.7683 27.3983C41.98 27.3983 42.1933 27.3183 42.3567 27.155L48.8233 20.6883C49.1483 20.3633 49.1483 19.835 48.8233 19.51Z" fill="#605FD9"/>
<path d="M37.985 26.41L32.6316 24.8833C32.1833 24.7533 31.7283 25.0133 31.6033 25.4567C31.4766 25.9001 31.7333 26.3601 32.1749 26.4867L37.5283 28.0133C37.6049 28.035 37.6816 28.045 37.7566 28.045C38.12 28.045 38.4533 27.8066 38.5583 27.44C38.685 26.9983 38.4283 26.5366 37.985 26.41Z" fill="#605FD9"/>
<path d="M28.7 26.0384C28.4133 25.6784 27.89 25.62 27.53 25.905L21.2466 30.915C20.8866 31.2034 20.8266 31.7266 21.115 32.0866C21.28 32.2933 21.5233 32.4 21.7666 32.4C21.9483 32.4 22.1316 32.34 22.285 32.22L28.5683 27.21C28.9283 26.9216 28.9883 26.3984 28.7 26.0384Z" fill="#605FD9"/>
</g>
<defs>
<clipPath id="clip0">
<rect width="40" height="40" fill="white" transform="translate(15 15)"/>
</clipPath>
</defs>
</svg>
