<svg width="80" height="80" viewBox="0 0 80 80" fill="none" xmlns="http://www.w3.org/2000/svg">
<path d="M74.6729 7.98669H48.0506V5.32446C48.0506 2.39601 45.6546 0 42.7261 0H5.45492C2.52647 0 0.130463 2.39601 0.130463 5.32446V34.609C0.130463 49.2512 14.1072 49.2512 18.7661 49.2512C19.5647 49.2512 20.0972 48.7188 20.0972 47.9201C20.0972 47.1215 19.5647 46.589 18.7661 46.589C15.8376 46.589 13.4416 44.193 13.4416 41.2646C13.4416 41.1314 13.4416 40.8652 13.4416 40.7321C13.8409 37.9368 16.237 35.9401 19.0323 35.9401H37.4017V38.6023H25.4216C24.623 38.6023 24.0905 39.1348 24.0905 39.9334C24.0905 42.995 25.2885 45.9235 27.2852 48.0532C26.8859 49.3844 26.7528 50.5824 26.7528 51.9135C26.7528 57.2379 29.9474 62.0299 34.7394 64.1597C34.7394 64.9584 34.3401 66.5557 30.7461 66.5557C27.019 66.5557 24.0905 69.4842 24.0905 73.2113V79.8669H26.7528V73.2113C26.7528 71.0815 28.3501 69.3511 30.4799 69.218L37.0023 72.4126C37.5348 72.6789 38.2003 72.9451 38.7328 73.0782V79.8669H41.395V73.0782C42.0606 72.9451 42.593 72.812 43.1255 72.5458L49.6479 69.3511C51.7777 69.4842 53.3751 71.2146 53.3751 73.3444V80H56.0373V73.3444C56.0373 69.6173 53.1088 66.6889 49.3817 66.6889C45.7877 66.6889 45.3884 65.0915 45.3884 64.2928C50.4466 62.1631 53.5082 57.1048 53.3751 51.6473C53.3751 51.381 53.3751 50.8486 53.3751 50.7155C53.3751 48.8519 52.9757 46.9883 52.0439 45.391H60.9624C63.7578 45.391 66.1538 47.3877 66.5531 50.183C66.8193 53.1115 64.6895 55.7737 61.7611 56.0399C61.628 56.0399 61.3617 56.0399 61.2286 56.0399C60.43 56.0399 59.8975 56.5724 59.8975 57.371C59.8975 58.1697 60.43 58.7022 61.2286 58.7022C65.8875 58.7022 79.8643 58.7022 79.8643 44.0599V13.3111C79.9974 10.3827 77.6013 7.98669 74.6729 7.98669ZM19.0323 33.2779C14.9058 33.2779 11.3118 36.3394 10.7794 40.4659C10.6463 42.4626 11.1787 44.4592 12.3767 46.0566C5.85426 44.7255 2.79269 41.1314 2.79269 34.609V5.32446C2.79269 3.86023 3.9907 2.66223 5.45492 2.66223H42.7261C44.1904 2.66223 45.3884 3.86023 45.3884 5.32446V30.6156C45.3884 32.0799 44.1904 33.2779 42.7261 33.2779H19.0323ZM26.8859 41.2646H41.395C46.0539 41.2646 49.9142 44.7255 50.5797 49.2512H36.0706C31.4117 49.2512 27.5514 45.7903 26.8859 41.2646ZM43.6579 61.8968C43.1255 62.0299 42.7261 62.5624 42.7261 63.0948V63.8935C42.593 65.7571 43.6579 67.6206 45.3884 68.4193L41.9275 70.1497C40.7295 70.6822 39.2652 70.6822 38.0672 70.1497L34.7394 68.4193C36.4699 67.6206 37.5348 65.7571 37.4017 63.8935V63.228C37.4017 62.6955 37.0023 62.1631 36.4699 62.0299C32.2103 60.4326 29.415 56.4393 29.415 51.9135C29.415 51.2479 29.415 50.5824 29.5481 50.0499C31.4117 51.2479 33.6746 51.9135 36.0706 51.9135H50.7128C50.7128 56.4393 47.9175 60.4326 43.6579 61.8968ZM77.3351 43.9268C77.3351 50.4492 74.2736 54.0433 67.7511 55.3744C68.9491 53.777 69.4816 51.7804 69.3484 49.7837C68.816 45.6572 65.3551 42.5957 61.0955 42.5957H50.3135C48.0506 40.0666 44.8559 38.6023 41.395 38.6023H40.0639V35.9401H42.7261C45.6546 35.9401 48.0506 33.5441 48.0506 30.6156V10.6489H74.6729C76.1371 10.6489 77.3351 11.8469 77.3351 13.3111V43.9268Z" fill="#FF008A"/>
<path d="M30.7461 14.6423H29.415C28.6163 14.6423 28.0839 14.1098 28.0839 13.3112V9.31781C28.0839 7.05491 26.3534 5.32446 24.0905 5.32446C21.8276 5.32446 20.0972 7.05491 20.0972 9.31781V13.3112C20.0972 14.1098 19.5647 14.6423 18.766 14.6423C18.766 13.8436 18.2336 13.3112 17.4349 13.3112H12.1105C11.3118 13.3112 10.7794 13.8436 10.7794 14.6423V29.2845C10.7794 30.0832 11.3118 30.6156 12.1105 30.6156H17.4349C18.2336 30.6156 18.766 30.0832 18.766 29.2845H30.7461C33.009 29.2845 34.7394 27.5541 34.7394 25.2912V18.6356C34.7394 16.3727 33.009 14.6423 30.7461 14.6423ZM16.1038 27.9534H13.4416V15.9734H16.1038V27.9534ZM32.0772 25.2912C32.0772 26.0899 31.5448 26.6223 30.7461 26.6223H18.766V17.3045C21.0289 17.3045 22.7594 15.574 22.7594 13.3112V9.31781C22.7594 8.51914 23.2918 7.98669 24.0905 7.98669C24.8892 7.98669 25.4216 8.51914 25.4216 9.31781V13.3112C25.4216 15.574 27.1521 17.3045 29.415 17.3045H30.7461C31.5448 17.3045 32.0772 17.8369 32.0772 18.6356V25.2912Z" fill="#FF008A"/>
<path d="M73.3418 13.311H68.0173C67.2186 13.311 66.6862 13.8435 66.6862 14.6421H54.7061C52.4432 14.6421 50.7128 16.3726 50.7128 18.6355V25.2911C50.7128 27.554 52.4432 29.2844 54.7061 29.2844H56.0373C56.8359 29.2844 57.3684 29.8169 57.3684 30.6155V34.6089C57.3684 36.8718 59.0988 38.6022 61.3617 38.6022C63.6246 38.6022 65.3551 36.8718 65.3551 34.6089V30.6155C65.3551 29.8169 65.8875 29.2844 66.6862 29.2844C66.6862 30.0831 67.2186 30.6155 68.0173 30.6155H73.3418C74.1404 30.6155 74.6729 30.0831 74.6729 29.2844V14.6421C74.6729 13.8435 74.1404 13.311 73.3418 13.311ZM66.6862 26.6222C64.4233 26.6222 62.6928 28.3526 62.6928 30.6155V34.6089C62.6928 35.4075 62.1604 35.94 61.3617 35.94C60.563 35.94 60.0306 35.4075 60.0306 34.6089V30.6155C60.0306 28.3526 58.3002 26.6222 56.0373 26.6222H54.7061C53.9075 26.6222 53.375 26.0897 53.375 25.2911V18.6355C53.375 17.8368 53.9075 17.3044 54.7061 17.3044H66.6862V26.6222ZM72.0106 27.9533H69.3484V15.9733H72.0106V27.9533Z" fill="#FF008A"/>
<path d="M54.7062 34.6089H49.3817V37.2711H54.7062V34.6089Z" fill="#FF008A"/>
<path d="M36.0706 6.65558V5.32446H33.4083V6.65558H32.0772V9.31781H33.4083V10.6489H36.0706V9.31781H37.4017V6.65558H36.0706Z" fill="#FF008A"/>
</svg>
