<svg width="14" height="14" viewBox="0 0 14 14" fill="none" xmlns="http://www.w3.org/2000/svg">
<path d="M3.11087 6.45372L9.34104 0.223657C9.48514 0.0794465 9.6775 0 9.8826 0C10.0877 0 10.2801 0.0794465 10.4242 0.223657L10.883 0.682352C11.1815 0.981244 11.1815 1.46703 10.883 1.76547L5.65133 6.9971L10.8888 12.2345C11.0329 12.3787 11.1124 12.571 11.1124 12.776C11.1124 12.9812 11.0329 13.1734 10.8888 13.3178L10.43 13.7763C10.2858 13.9206 10.0935 14 9.8884 14C9.6833 14 9.49094 13.9206 9.34685 13.7763L3.11087 7.54059C2.96643 7.39592 2.88709 7.20277 2.88755 6.99744C2.88709 6.79131 2.96643 6.59827 3.11087 6.45372Z" fill="white"/>
</svg>
