<svg width="100" height="100" viewBox="0 0 100 100" fill="none" xmlns="http://www.w3.org/2000/svg">
<path d="M53.9063 47.4609C52.8281 47.4609 51.9531 48.3359 51.9531 49.4141C51.9531 50.4922 52.8281 51.3672 53.9063 51.3672C54.9844 51.3672 55.8594 50.4922 55.8594 49.4141C55.8594 48.3359 54.9844 47.4609 53.9063 47.4609Z" fill="#5A7F9E"/>
<path d="M18.7499 19.5312C17.6729 19.5312 16.7968 18.6551 16.7968 17.5781C16.7968 16.5012 17.6729 15.625 18.7499 15.625C19.4417 15.625 20.1724 15.9781 20.8624 16.6459C21.6376 17.3961 22.8743 17.3754 23.6241 16.6006C24.3741 15.8252 24.3538 14.5889 23.5786 13.8387C22.5874 12.8795 21.5956 12.3371 20.7028 12.0408V9.76563C20.7028 8.68711 19.8284 7.8125 18.7497 7.8125C17.671 7.8125 16.7966 8.68711 16.7966 9.76563V12.0547C14.5235 12.8609 12.8905 15.032 12.8905 17.5781C12.8905 20.809 15.519 23.4375 18.7499 23.4375C19.8268 23.4375 20.703 24.3137 20.703 25.3906C20.703 26.4676 19.8268 27.3437 18.7499 27.3437C17.9153 27.3437 17.0145 26.8189 16.2136 25.8664C15.5194 25.0404 14.2874 24.934 13.4618 25.6281C12.636 26.3223 12.5296 27.5543 13.2237 28.3799C14.2679 29.6221 15.4956 30.4875 16.7968 30.9238V33.2031C16.7968 34.2816 17.6712 35.1562 18.7499 35.1562C19.8286 35.1562 20.703 34.2816 20.703 33.2031V30.9141C22.9763 30.1078 24.6093 27.9369 24.6093 25.3906C24.6093 22.1598 21.9807 19.5312 18.7499 19.5312Z" fill="#5A7F9E"/>
<path d="M53.9063 64.2578H46.0938C45.0151 64.2578 44.1406 65.1324 44.1406 66.2109V74.0234C44.1406 75.102 45.0151 75.9766 46.0938 75.9766H53.9063C54.9848 75.9766 55.8594 75.102 55.8594 74.0234V66.2109C55.8594 65.1324 54.9848 64.2578 53.9063 64.2578ZM51.9531 72.0703H48.0469V68.1641H51.9531V72.0703Z" fill="#5A7F9E"/>
<path d="M69.5313 64.2578H61.7188C60.6403 64.2578 59.7657 65.1324 59.7657 66.2109V74.0234C59.7657 75.102 60.6403 75.9766 61.7188 75.9766H69.5313C70.6098 75.9766 71.4844 75.102 71.4844 74.0234V66.2109C71.4844 65.1324 70.6098 64.2578 69.5313 64.2578ZM67.5782 72.0703H63.6719V68.1641H67.5782V72.0703Z" fill="#5A7F9E"/>
<path d="M53.9063 79.8828H46.0938C45.0151 79.8828 44.1406 80.7574 44.1406 81.8359V89.6484C44.1406 90.7269 45.0151 91.6015 46.0938 91.6015H53.9063C54.9848 91.6015 55.8594 90.7269 55.8594 89.6484V81.8359C55.8594 80.7574 54.9848 79.8828 53.9063 79.8828ZM51.9531 87.6953H48.0469V83.7891H51.9531V87.6953Z" fill="#5A7F9E"/>
<path d="M69.5313 79.8828H61.7188C60.6403 79.8828 59.7657 80.7574 59.7657 81.8359V89.6484C59.7657 90.7269 60.6403 91.6015 61.7188 91.6015H69.5313C70.6098 91.6015 71.4844 90.7269 71.4844 89.6484V81.8359C71.4844 80.7574 70.6098 79.8828 69.5313 79.8828ZM67.5782 87.6953H63.6719V83.7891H67.5782V87.6953Z" fill="#5A7F9E"/>
<path d="M85.1563 64.2578H77.3438C76.2653 64.2578 75.3907 65.1324 75.3907 66.2109V89.6484C75.3907 90.727 76.2653 91.6016 77.3438 91.6016H85.1563C86.2348 91.6016 87.1094 90.727 87.1094 89.6484V66.2109C87.1094 65.1324 86.2348 64.2578 85.1563 64.2578ZM83.2032 87.6953H79.2969V68.164H83.2032V87.6953Z" fill="#5A7F9E"/>
<path d="M85.1563 39.6484H46.0938C45.0151 39.6484 44.1406 40.5231 44.1406 41.6016V58.3984C44.1406 59.477 45.0151 60.3516 46.0938 60.3516H85.1563C86.2348 60.3516 87.1094 59.477 87.1094 58.3984V41.6016C87.1094 40.5231 86.2348 39.6484 85.1563 39.6484ZM83.2032 56.4453H48.0469V43.5547H83.2032V56.4453Z" fill="#5A7F9E"/>
<path d="M89.0625 31.25H71.4843V19.4512C71.4843 17.9221 70.8992 16.4756 69.8382 15.3793L56.7068 1.78672C56.1421 1.20273 55.4482 0.737109 54.7029 0.435547C54.6763 0.423633 54.6494 0.412695 54.6222 0.401953C54.6205 0.401172 54.6185 0.400391 54.6167 0.399609C53.938 0.134375 53.2232 0 52.4921 0H10.9374C7.70659 0 5.07807 2.62852 5.07807 5.85938V81.8359C5.07807 85.0668 7.70659 87.6953 10.9374 87.6953H36.3281V94.1406C36.3281 97.3715 38.9566 100 42.1874 100H89.0625C92.2933 100 94.9218 97.3715 94.9218 94.1406V37.1094C94.9218 33.8785 92.2933 31.25 89.0625 31.25ZM55.8593 6.53164L67.0302 18.0949C67.3835 18.46 67.5781 18.9414 67.5781 19.4512V19.5312H57.8125C56.7355 19.5312 55.8593 18.6551 55.8593 17.5781V6.53164ZM36.3281 37.1094V83.7891H10.9374C9.86049 83.7891 8.98432 82.9129 8.98432 81.8359V5.85938C8.98432 4.78242 9.86049 3.90625 10.9374 3.90625H51.9531V17.5781C51.9531 20.809 54.5816 23.4375 57.8125 23.4375H67.5781V31.25H42.1874C38.9566 31.25 36.3281 33.8785 36.3281 37.1094ZM91.0156 94.1406C91.0156 95.2176 90.1394 96.0938 89.0625 96.0938H42.1874C41.1105 96.0938 40.2343 95.2176 40.2343 94.1406V37.1094C40.2343 36.0324 41.1105 35.1562 42.1874 35.1562H89.0625C90.1394 35.1562 91.0156 36.0324 91.0156 37.1094V94.1406Z" fill="#5A7F9E"/>
<path d="M77.3438 47.4609H61.7188C60.6403 47.4609 59.7657 48.3356 59.7657 49.4141C59.7657 50.4926 60.6403 51.3672 61.7188 51.3672H77.3438C78.4223 51.3672 79.2969 50.4926 79.2969 49.4141C79.2969 48.3356 78.4223 47.4609 77.3438 47.4609Z" fill="#5A7F9E"/>
<path d="M46.0937 23.4375H30.4687C29.39 23.4375 28.5156 24.3121 28.5156 25.3906C28.5156 26.4691 29.39 27.3438 30.4687 27.3438H46.0937C47.1722 27.3438 48.0468 26.4691 48.0468 25.3906C48.0468 24.3121 47.1722 23.4375 46.0937 23.4375Z" fill="#5A7F9E"/>
<path d="M46.0937 15.625H30.4687C29.39 15.625 28.5156 16.4996 28.5156 17.5781C28.5156 18.6566 29.39 19.5313 30.4687 19.5313H46.0937C47.1722 19.5313 48.0468 18.6566 48.0468 17.5781C48.0468 16.4996 47.1722 15.625 46.0937 15.625Z" fill="#5A7F9E"/>
<path d="M30.4687 39.6484H14.8437C13.765 39.6484 12.8906 40.523 12.8906 41.6016C12.8906 42.6801 13.765 43.5547 14.8437 43.5547H30.4687C31.5474 43.5547 32.4219 42.6801 32.4219 41.6016C32.4219 40.523 31.5474 39.6484 30.4687 39.6484Z" fill="#5A7F9E"/>
<path d="M18.75 47.4609H14.8437C13.765 47.4609 12.8906 48.3356 12.8906 49.4141C12.8906 50.4926 13.765 51.3672 14.8437 51.3672H18.75C19.8287 51.3672 20.7031 50.4926 20.7031 49.4141C20.7031 48.3356 19.8287 47.4609 18.75 47.4609Z" fill="#5A7F9E"/>
<path d="M30.4688 47.4609H26.5625C25.4838 47.4609 24.6094 48.3356 24.6094 49.4141C24.6094 50.4926 25.4838 51.3672 26.5625 51.3672H30.4688C31.5475 51.3672 32.4219 50.4926 32.4219 49.4141C32.4219 48.3356 31.5475 47.4609 30.4688 47.4609Z" fill="#5A7F9E"/>
<path d="M18.75 56.4453H14.8437C13.765 56.4453 12.8906 57.3199 12.8906 58.3985C12.8906 59.477 13.765 60.3516 14.8437 60.3516H18.75C19.8287 60.3516 20.7031 59.477 20.7031 58.3985C20.7031 57.3199 19.8287 56.4453 18.75 56.4453Z" fill="#5A7F9E"/>
<path d="M30.4688 56.4453H26.5625C25.4838 56.4453 24.6094 57.3199 24.6094 58.3985C24.6094 59.477 25.4838 60.3516 26.5625 60.3516H30.4688C31.5475 60.3516 32.4219 59.477 32.4219 58.3985C32.4219 57.3199 31.5475 56.4453 30.4688 56.4453Z" fill="#5A7F9E"/>
<path d="M18.75 64.2578H14.8437C13.765 64.2578 12.8906 65.1324 12.8906 66.2109C12.8906 67.2894 13.765 68.1641 14.8437 68.1641H18.75C19.8287 68.1641 20.7031 67.2894 20.7031 66.2109C20.7031 65.1324 19.8287 64.2578 18.75 64.2578Z" fill="#5A7F9E"/>
<path d="M30.4688 64.2578H26.5625C25.4838 64.2578 24.6094 65.1324 24.6094 66.2109C24.6094 67.2894 25.4838 68.1641 26.5625 68.1641H30.4688C31.5475 68.1641 32.4219 67.2894 32.4219 66.2109C32.4219 65.1324 31.5475 64.2578 30.4688 64.2578Z" fill="#5A7F9E"/>
<path d="M18.75 72.0703H14.8437C13.765 72.0703 12.8906 72.9449 12.8906 74.0234C12.8906 75.102 13.765 75.9766 14.8437 75.9766H18.75C19.8287 75.9766 20.7031 75.102 20.7031 74.0234C20.7031 72.9449 19.8287 72.0703 18.75 72.0703Z" fill="#5A7F9E"/>
<path d="M30.4688 72.0703H26.5625C25.4838 72.0703 24.6094 72.9449 24.6094 74.0234C24.6094 75.102 25.4838 75.9766 26.5625 75.9766H30.4688C31.5475 75.9766 32.4219 75.102 32.4219 74.0234C32.4219 72.9449 31.5475 72.0703 30.4688 72.0703Z" fill="#5A7F9E"/>
</svg>

