<svg width="26" height="26" viewBox="0 0 26 26" fill="none" xmlns="http://www.w3.org/2000/svg">
<g clip-path="url(#clip0)">
<path d="M17.6507 5.6718C17.3132 5.67184 17.0238 5.7925 16.7828 6.03348L13.0223 9.79403L9.26164 6.03338C9.02066 5.7924 8.7313 5.67187 8.39385 5.6718C8.05649 5.6719 7.76729 5.79228 7.52596 6.03361L5.79051 7.76906C5.5495 8.01007 5.4289 8.29931 5.4289 8.63682C5.4289 8.97434 5.5495 9.26363 5.79048 9.50461L9.55113 13.2653L5.7906 17.0258C5.54962 17.2668 5.42902 17.5561 5.42902 17.8936C5.42902 18.2311 5.54947 18.5202 5.7906 18.7613L7.52628 20.497C7.76748 20.7382 8.05656 20.8587 8.39391 20.8585C8.73149 20.8586 9.02073 20.7379 9.26171 20.497L13.0222 16.7364L16.7829 20.4971C17.0239 20.7381 17.3134 20.8589 17.6508 20.8588C17.9882 20.8587 18.2774 20.738 18.5184 20.497L20.254 18.7614C20.4952 18.5203 20.6157 18.2312 20.6159 17.8938C20.6159 17.5562 20.4952 17.2669 20.2542 17.0259L16.4935 13.2652L20.254 9.50468C20.4952 9.26348 20.6158 8.97431 20.6157 8.63679C20.6158 8.29946 20.4954 8.01029 20.2542 7.76909L18.5185 6.03342C18.2773 5.79234 17.9882 5.67165 17.6507 5.6718Z" fill="#AFB9D2"/>
</g>
<defs>
<clipPath id="clip0">
<rect width="18" height="18" fill="white" transform="translate(0.0292969 13) rotate(-45)"/>
</clipPath>
</defs>
</svg>
