<svg width="100" height="100" viewBox="0 0 100 100" fill="none" xmlns="http://www.w3.org/2000/svg">
    <path d="M63.3586 66.6697H63.3537C62.4332 66.67 61.6875 67.4167 61.6879 68.3372C61.6883 69.2577 62.4349 70.0034 63.3554 70.003H63.3588C64.2781 70.004 65.0234 70.7486 65.0254 71.6681C65.0263 72.5878 65.7722 73.3329 66.692 73.3331H66.6937C67.6142 73.3322 68.3596 72.5853 68.3588 71.6648C68.3529 68.9064 66.1168 66.6728 63.3586 66.6697Z" fill="#ffffff"/>
    <path d="M43.335 73.3366L46.6684 73.3333C47.5889 73.3329 48.3346 72.5862 48.3342 71.6657C48.3338 70.7452 47.5871 69.9995 46.6666 69.9999H46.6649L43.3315 70.0032C42.411 70.0036 41.6653 70.7502 41.6657 71.6708C41.6661 72.5913 42.4127 73.337 43.3332 73.3366H43.335Z" fill="#ffffff"/>
    <path d="M43.9902 66.4126L47.1234 67.5495C47.6837 67.7553 48.3113 67.6458 48.7689 67.2624C49.2265 66.879 49.4439 66.2799 49.339 65.6924C49.2341 65.1048 48.823 64.618 48.2611 64.4165L45.1279 63.2796C44.2636 62.969 43.3111 63.4159 42.9976 64.2792C42.6841 65.1422 43.1281 66.0963 43.9902 66.4126Z" fill="#ffffff"/>
    <path d="M48.7723 76.1058C48.3158 75.7234 47.69 75.6136 47.1307 75.8177L43.9992 76.9603C43.4398 77.1644 43.0318 77.6515 42.9289 78.2379C42.826 78.8244 43.0438 79.4213 43.5002 79.8037C43.9566 80.1861 44.5824 80.2959 45.1418 80.0918L48.2732 78.9492C48.8326 78.7451 49.2406 78.258 49.3436 77.6716C49.4465 77.0851 49.2287 76.4882 48.7723 76.1058Z" fill="#ffffff"/>
    <path d="M83.3334 69.9965H83.3316L79.9982 69.9998C79.0824 70.0066 78.3437 70.7514 78.3441 71.6672C78.3445 72.583 79.084 73.327 79.9998 73.333H80.0013L83.3347 73.3297C84.2553 73.3293 85.001 72.5826 85.0006 71.6621C85.0002 70.7416 84.2539 69.9961 83.3334 69.9965Z" fill="#ffffff"/>
    <path d="M79.0153 67.6228C79.2102 67.6224 79.4035 67.5879 79.5865 67.5211L82.7172 66.3785C83.2766 66.1744 83.6846 65.6873 83.7875 65.1009C83.8905 64.5146 83.6727 63.9175 83.2162 63.5351C82.7598 63.1527 82.134 63.0429 81.5746 63.247L78.444 64.3896C77.6844 64.667 77.2334 65.4494 77.374 66.2457C77.5147 67.042 78.2067 67.6226 79.0153 67.6228Z" fill="#ffffff"/>
    <path d="M82.7271 76.9272L79.5939 75.7895C78.7297 75.479 77.7771 75.9259 77.4636 76.7891C77.1502 77.6524 77.5941 78.6063 78.4562 78.9227L81.5894 80.0604C82.4533 80.3696 83.4047 79.9225 83.7177 79.0602C84.0308 78.1975 83.588 77.2442 82.7271 76.9272Z" fill="#ffffff"/>
    <path d="M34.4436 6.67874C28.2235 6.9762 23.3332 12.1059 23.3332 18.333C23.3332 19.2535 24.0793 19.9996 24.9998 19.9996C25.9203 19.9996 26.6664 19.2534 26.6664 18.333C26.6625 15.8217 27.795 13.4436 29.7467 11.8633C31.728 10.267 34.3245 9.65179 36.8114 10.1893C39.9805 10.877 42.4557 13.3524 43.1436 16.5215C43.6432 18.7862 43.1784 21.1567 41.8604 23.0649C40.5424 24.9731 38.4901 26.2471 36.1954 26.5817C34.5596 26.8192 33.343 28.2166 33.3332 29.8694V31.6663C33.3332 32.5868 34.0793 33.3329 34.9998 33.3329C35.9204 33.3329 36.6664 32.5868 36.6664 31.6663L36.6672 29.8807C42.8305 28.9912 47.2092 23.4184 46.6151 17.2196C46.0211 11.0211 40.6637 6.38128 34.4436 6.67874Z" fill="#ffffff"/>
    <path d="M36.1835 37.15C36.0214 37.0027 35.8354 36.884 35.6333 36.7992C35.2272 36.6332 34.7723 36.6332 34.3663 36.7992C34.1624 36.8799 33.9758 36.999 33.8169 37.15C33.6696 37.3117 33.5508 37.4977 33.4661 37.6994C33.3807 37.9 33.3358 38.1154 33.3335 38.3334C33.336 38.4451 33.3473 38.5562 33.3669 38.6662C33.3846 38.7707 33.4182 38.8719 33.4661 38.9664C33.5026 39.0726 33.5534 39.1738 33.6167 39.2668C33.6833 39.3498 33.7501 39.4328 33.8169 39.5166C34.1364 39.8209 34.559 39.9933 35.0001 40C35.2186 40.0057 35.4354 39.96 35.6333 39.8666C35.835 39.7818 36.0212 39.6635 36.1835 39.5166C36.2501 39.4328 36.3169 39.3498 36.3829 39.2668C36.4462 39.1738 36.4967 39.0728 36.5335 38.9664C36.5813 38.8717 36.6151 38.7705 36.6337 38.6662C36.6528 38.5562 36.6639 38.4449 36.6671 38.3334C36.6645 38.1154 36.6192 37.9 36.5337 37.6994C36.4485 37.4978 36.3301 37.3121 36.1835 37.15Z" fill="#ffffff"/>
    <path d="M73.3334 40.0001V6.66673C73.3291 2.98665 70.3469 0.00441895 66.6666 0.00012207H6.6666C2.98652 0.00441895 0.00429688 2.98665 0 6.66673V40.0001C0.00429688 43.6802 2.98652 46.6626 6.6666 46.6667H8.33321V56.6634C8.33203 58.0123 9.14395 59.2287 10.39 59.7449C11.6361 60.2611 13.0705 59.975 14.0232 59.0203C14.0633 58.981 14.1008 58.9396 14.1356 58.8957L24.1232 46.6667H66.6664C70.3469 46.6626 73.3291 43.6802 73.3334 40.0001ZM23.3334 43.3335C23.3053 43.3335 23.282 43.3482 23.2543 43.3496C23.04 43.3818 22.8291 43.4337 22.6246 43.505C22.5379 43.5527 22.4557 43.6082 22.3789 43.6707C22.2801 43.7353 22.1885 43.8103 22.1059 43.8945C22.0871 43.9154 22.0609 43.9242 22.0428 43.9462L11.6668 56.6498V45.0001C11.6668 44.0796 10.9207 43.3335 10.0002 43.3335H6.6666C4.82637 43.3318 3.33516 41.8404 3.3332 40.0001V6.66673C3.33496 4.82649 4.82637 3.33528 6.6666 3.33333H66.6666C68.5069 3.33508 69.9981 4.82649 70 6.66673V40.0001C69.9983 41.8404 68.5069 43.3316 66.6666 43.3335H23.3334Z" fill="#ffffff"/>
    <path d="M93.3334 53.3332H91.6668V43.3365C91.6666 41.9885 90.8545 40.773 89.609 40.2572C88.3635 39.7414 86.9299 40.0265 85.9766 40.9797C85.9365 41.0189 85.899 41.0603 85.8643 41.1043L75.8766 53.3332H33.3334C29.6533 53.3375 26.6709 56.3197 26.6668 59.9998V93.3332C26.6711 97.0133 29.6533 99.9957 33.3334 99.9998H93.3334C97.0135 99.9955 99.9959 97.0133 100 93.3332V59.9998C99.9957 56.3197 97.0135 53.3373 93.3334 53.3332ZM96.6666 93.3332C96.6648 95.1734 95.1734 96.6646 93.3332 96.6666H33.3332C31.493 96.6648 30.0017 95.1734 29.9998 93.3332V59.9998C30.0015 58.1596 31.493 56.6683 33.3332 56.6664H76.6666C76.8998 56.665 77.1301 56.6142 77.3422 56.5172C77.3916 56.4873 77.4396 56.4551 77.4857 56.4203C77.6392 56.3359 77.7785 56.2277 77.8978 56.0996C77.9152 56.0802 77.9406 56.0738 77.9572 56.0535L88.3332 43.35V54.9998C88.3332 55.9203 89.0795 56.6664 89.9998 56.6664H93.3332C95.1734 56.6681 96.6646 58.1596 96.6666 59.9998V93.3332V93.3332Z" fill="#ffffff"/>
    <path d="M64.7363 60.0829C59.5619 59.454 54.5984 62.335 52.5781 67.1401C50.5578 71.9452 51.9715 77.5075 56.0408 80.7649C56.4345 81.0749 56.6652 81.5479 56.6666 82.0491V83.3333C56.6703 84.5179 57.3045 85.6108 58.3312 86.202L58.3332 88.335C58.3388 89.9403 59.1123 91.446 60.414 92.3852C61.2617 93.0007 62.2824 93.3317 63.3298 93.3309C63.8875 93.33 64.4414 93.2397 64.9705 93.0632C67.0326 92.3274 68.3896 90.3513 68.3355 88.1624L68.3339 86.2026C69.3613 85.6118 69.996 84.5184 69.9998 83.3333V82.054C70.0103 81.5345 70.256 81.0477 70.6679 80.7307C73.9371 78.1096 75.5371 73.928 74.8525 69.794C73.9822 64.685 69.8765 60.744 64.7363 60.0829ZM63.9232 89.8989C63.4 90.087 62.8177 90.0061 62.3656 89.6825C61.9295 89.3702 61.6695 88.8679 61.6666 88.3315L61.6648 86.6665H65.0015L65.0023 88.1655C65.0367 88.9112 64.6076 89.6007 63.9232 89.8989ZM68.5742 78.1372C67.3765 79.0854 66.6748 80.5264 66.6666 82.054V83.3276H66.6648L59.9998 83.3333V82.0491C60.0007 80.5345 59.3091 79.1026 58.1224 78.1616C55.3674 75.9501 54.3068 72.2413 55.4759 68.9075C56.6451 65.5737 59.7898 63.3397 63.3226 63.3333C63.665 63.3333 64.0072 63.3532 64.3472 63.3934C68.0109 63.8632 70.9378 66.6708 71.5599 70.3116C72.0517 73.2678 70.9103 76.2596 68.5742 78.1372Z" fill="#ffffff"/>
</svg>
