<svg viewBox="0 0 1002 545" fill="none" xmlns="http://www.w3.org/2000/svg" id="el_4NDSjtWjq"><style>@-webkit-keyframes kf_el_r0jaewENMxp_an_OpizYwPh9{53.33%{-webkit-transform: translate(815px, 351px) translate(-815px, -351px) translate(0px, 0px);transform: translate(815px, 351px) translate(-815px, -351px) translate(0px, 0px);}56.67%{-webkit-transform: translate(815px, 351px) translate(-815px, -351px) translate(0px, -300px);transform: translate(815px, 351px) translate(-815px, -351px) translate(0px, -300px);}0%{-webkit-transform: translate(815px, 351px) translate(-815px, -351px) translate(0px, 0px);transform: translate(815px, 351px) translate(-815px, -351px) translate(0px, 0px);}100%{-webkit-transform: translate(815px, 351px) translate(-815px, -351px) translate(0px, -300px);transform: translate(815px, 351px) translate(-815px, -351px) translate(0px, -300px);}}@keyframes kf_el_r0jaewENMxp_an_OpizYwPh9{53.33%{-webkit-transform: translate(815px, 351px) translate(-815px, -351px) translate(0px, 0px);transform: translate(815px, 351px) translate(-815px, -351px) translate(0px, 0px);}56.67%{-webkit-transform: translate(815px, 351px) translate(-815px, -351px) translate(0px, -300px);transform: translate(815px, 351px) translate(-815px, -351px) translate(0px, -300px);}0%{-webkit-transform: translate(815px, 351px) translate(-815px, -351px) translate(0px, 0px);transform: translate(815px, 351px) translate(-815px, -351px) translate(0px, 0px);}100%{-webkit-transform: translate(815px, 351px) translate(-815px, -351px) translate(0px, -300px);transform: translate(815px, 351px) translate(-815px, -351px) translate(0px, -300px);}}@-webkit-keyframes kf_el_r0jaewENMxp_an_AKtnQ3DNz{53.33%{opacity: 0;}55.00%{opacity: 1;}56.67%{opacity: 0;}0%{opacity: 0;}100%{opacity: 0;}}@keyframes kf_el_r0jaewENMxp_an_AKtnQ3DNz{53.33%{opacity: 0;}55.00%{opacity: 1;}56.67%{opacity: 0;}0%{opacity: 0;}100%{opacity: 0;}}@-webkit-keyframes kf_el_uOXCsY9Cadi_an_QGNvB8R-L{50%{-webkit-transform: translate(536px, 351px) translate(-536px, -351px) translate(0px, 0px);transform: translate(536px, 351px) translate(-536px, -351px) translate(0px, 0px);}53.33%{-webkit-transform: translate(536px, 351px) translate(-536px, -351px) translate(0px, -300px);transform: translate(536px, 351px) translate(-536px, -351px) translate(0px, -300px);}0%{-webkit-transform: translate(536px, 351px) translate(-536px, -351px) translate(0px, 0px);transform: translate(536px, 351px) translate(-536px, -351px) translate(0px, 0px);}100%{-webkit-transform: translate(536px, 351px) translate(-536px, -351px) translate(0px, -300px);transform: translate(536px, 351px) translate(-536px, -351px) translate(0px, -300px);}}@keyframes kf_el_uOXCsY9Cadi_an_QGNvB8R-L{50%{-webkit-transform: translate(536px, 351px) translate(-536px, -351px) translate(0px, 0px);transform: translate(536px, 351px) translate(-536px, -351px) translate(0px, 0px);}53.33%{-webkit-transform: translate(536px, 351px) translate(-536px, -351px) translate(0px, -300px);transform: translate(536px, 351px) translate(-536px, -351px) translate(0px, -300px);}0%{-webkit-transform: translate(536px, 351px) translate(-536px, -351px) translate(0px, 0px);transform: translate(536px, 351px) translate(-536px, -351px) translate(0px, 0px);}100%{-webkit-transform: translate(536px, 351px) translate(-536px, -351px) translate(0px, -300px);transform: translate(536px, 351px) translate(-536px, -351px) translate(0px, -300px);}}@-webkit-keyframes kf_el_uOXCsY9Cadi_an_l6XRFLMR1{50%{opacity: 0;}51.67%{opacity: 1;}53.33%{opacity: 0;}0%{opacity: 0;}100%{opacity: 0;}}@keyframes kf_el_uOXCsY9Cadi_an_l6XRFLMR1{50%{opacity: 0;}51.67%{opacity: 1;}53.33%{opacity: 0;}0%{opacity: 0;}100%{opacity: 0;}}@-webkit-keyframes kf_el_dLzCZerjVwe_an_Dhht29gJ6{47%{-webkit-transform: translate(259px, 351px) translate(-259px, -351px) translate(0px, 0px);transform: translate(259px, 351px) translate(-259px, -351px) translate(0px, 0px);}50%{-webkit-transform: translate(259px, 351px) translate(-259px, -351px) translate(0px, -300px);transform: translate(259px, 351px) translate(-259px, -351px) translate(0px, -300px);}0%{-webkit-transform: translate(259px, 351px) translate(-259px, -351px) translate(0px, 0px);transform: translate(259px, 351px) translate(-259px, -351px) translate(0px, 0px);}100%{-webkit-transform: translate(259px, 351px) translate(-259px, -351px) translate(0px, -300px);transform: translate(259px, 351px) translate(-259px, -351px) translate(0px, -300px);}}@keyframes kf_el_dLzCZerjVwe_an_Dhht29gJ6{47%{-webkit-transform: translate(259px, 351px) translate(-259px, -351px) translate(0px, 0px);transform: translate(259px, 351px) translate(-259px, -351px) translate(0px, 0px);}50%{-webkit-transform: translate(259px, 351px) translate(-259px, -351px) translate(0px, -300px);transform: translate(259px, 351px) translate(-259px, -351px) translate(0px, -300px);}0%{-webkit-transform: translate(259px, 351px) translate(-259px, -351px) translate(0px, 0px);transform: translate(259px, 351px) translate(-259px, -351px) translate(0px, 0px);}100%{-webkit-transform: translate(259px, 351px) translate(-259px, -351px) translate(0px, -300px);transform: translate(259px, 351px) translate(-259px, -351px) translate(0px, -300px);}}@-webkit-keyframes kf_el_dLzCZerjVwe_an_-gFiJUit5{47%{opacity: 0;}48.67%{opacity: 1;}50%{opacity: 0;}0%{opacity: 0;}100%{opacity: 0;}}@keyframes kf_el_dLzCZerjVwe_an_-gFiJUit5{47%{opacity: 0;}48.67%{opacity: 1;}50%{opacity: 0;}0%{opacity: 0;}100%{opacity: 0;}}@-webkit-keyframes kf_el_bdN8e76sRC3_an_o3l86Ajxp{30%{opacity: 0;}40%{opacity: 1;}90%{opacity: 1;}100%{opacity: 0;}0%{opacity: 0;}}@keyframes kf_el_bdN8e76sRC3_an_o3l86Ajxp{30%{opacity: 0;}40%{opacity: 1;}90%{opacity: 1;}100%{opacity: 0;}0%{opacity: 0;}}@-webkit-keyframes kf_el_YS_V9Otwk9_an_kSFJpDzMR{20%{opacity: 0;}30%{opacity: 1;}90%{opacity: 1;}100%{opacity: 0;}0%{opacity: 0;}}@keyframes kf_el_YS_V9Otwk9_an_kSFJpDzMR{20%{opacity: 0;}30%{opacity: 1;}90%{opacity: 1;}100%{opacity: 0;}0%{opacity: 0;}}@-webkit-keyframes kf_el_JTSYp6GAB3F_an_iZSn8zYRK{10%{opacity: 0;}20%{opacity: 1;}90%{opacity: 1;}100%{opacity: 0;}0%{opacity: 0;}}@keyframes kf_el_JTSYp6GAB3F_an_iZSn8zYRK{10%{opacity: 0;}20%{opacity: 1;}90%{opacity: 1;}100%{opacity: 0;}0%{opacity: 0;}}@-webkit-keyframes kf_el_LO67QlqzHF_an_6kqE_QQOh{0%{opacity: 0;}10%{opacity: 1;}80%{opacity: 1;}90%{opacity: 0;}100%{opacity: 0;}}@keyframes kf_el_LO67QlqzHF_an_6kqE_QQOh{0%{opacity: 0;}10%{opacity: 1;}80%{opacity: 1;}90%{opacity: 0;}100%{opacity: 0;}}#el_4NDSjtWjq *{-webkit-animation-duration: 10s;animation-duration: 10s;-webkit-animation-iteration-count: infinite;animation-iteration-count: infinite;-webkit-animation-timing-function: cubic-bezier(0, 0, 1, 1);animation-timing-function: cubic-bezier(0, 0, 1, 1);}#el_5KYgAjA1N_{fill: white;visibility: hidden;}#el_KJLhEgXFYV{fill: white;}#el_jhps0XVil8{fill: #35074A;}#el_oe5NoPgtPG{fill: white;}#el_khSiXfs2Xd{fill: white;}#el_xEcMDbTMQe{fill: white;}#el_S162w_Ykkj{fill: #35074A;}#el_Tn7BrPbmp0{fill: white;}#el_dzgvrSZ_eM{fill: white;stroke: white;stroke-width: 2;}#el_Gj9OYq6z8r{fill: #333333;}#el_wi9ECVVvNPW{fill: #333333;}#el_BULzeI32nht{fill: white;}#el_Q-XxnMOg-Be{fill: white;}#el__ni8RRaKnJX{fill: white;}#el_LT-4dhjVt2Y{stroke: white;stroke-width: 4;}#el_pguxVOIHCLB{fill: white;}#el_TVKe2jHHs66{fill: #35074A;}#el_twenuWtDW2_{fill: white;}#el_pIT7_R0QpLJ{fill: white;stroke: white;stroke-width: 2;}#el_xdE2ZWk4z3t{fill: #333333;}#el_5LIghAT93Zd{fill: #333333;}#el_CyPRvIHEdkp{fill: white;}#el_TfP0r7ml2nb{fill: white;}#el_e8E12yx9QvJ{fill: white;}#el_veGueYst9VP{stroke: white;stroke-width: 4;}#el_ashfQxdlrRB{fill: white;}#el_WZVhnQwhIu3{fill: #35074A;}#el_QDLK3cWEaN1{fill: white;}#el_qtqFERTbRrE{fill: white;stroke: white;stroke-width: 2;}#el_ZP3SLAz2Ttf{fill: #333333;}#el_DcJYTqvITvt{fill: #333333;}#el_ed4qEClZrBM{fill: white;}#el_vHg2kUUxNdW{fill: white;}#el_ZmyZabQ9zbi{fill: white;}#el_PjCMdIVPSec{stroke: white;stroke-width: 4;}#el_8qfdq_EyIRE{fill: white;}#el_Q88a7xC54Fl{fill: white;}#el_Vz8LfNC_HOe{fill: white;}#el_t419nvEP59q{fill: white;}#el_BxqimmrWadi{fill: white;}#el_VbIA4KsWzqc{fill: white;}#el_Y9DfOFjdIuz{fill: white;}#el_LO67QlqzHF{-webkit-animation-fill-mode: backwards;animation-fill-mode: backwards;opacity: 0;-webkit-animation-name: kf_el_LO67QlqzHF_an_6kqE_QQOh;animation-name: kf_el_LO67QlqzHF_an_6kqE_QQOh;-webkit-animation-timing-function: cubic-bezier(0, 0, 1, 1);animation-timing-function: cubic-bezier(0, 0, 1, 1);}#el_JTSYp6GAB3F{-webkit-animation-fill-mode: backwards;animation-fill-mode: backwards;opacity: 0;-webkit-animation-name: kf_el_JTSYp6GAB3F_an_iZSn8zYRK;animation-name: kf_el_JTSYp6GAB3F_an_iZSn8zYRK;-webkit-animation-timing-function: cubic-bezier(0, 0, 1, 1);animation-timing-function: cubic-bezier(0, 0, 1, 1);}#el_YS_V9Otwk9{-webkit-animation-fill-mode: backwards;animation-fill-mode: backwards;opacity: 0;-webkit-animation-name: kf_el_YS_V9Otwk9_an_kSFJpDzMR;animation-name: kf_el_YS_V9Otwk9_an_kSFJpDzMR;-webkit-animation-timing-function: cubic-bezier(0, 0, 1, 1);animation-timing-function: cubic-bezier(0, 0, 1, 1);}#el_bdN8e76sRC3{-webkit-animation-fill-mode: backwards;animation-fill-mode: backwards;opacity: 0;-webkit-animation-name: kf_el_bdN8e76sRC3_an_o3l86Ajxp;animation-name: kf_el_bdN8e76sRC3_an_o3l86Ajxp;-webkit-animation-timing-function: cubic-bezier(0, 0, 1, 1);animation-timing-function: cubic-bezier(0, 0, 1, 1);}#el_dLzCZerjVwe{-webkit-animation-fill-mode: backwards;animation-fill-mode: backwards;opacity: 0;-webkit-animation-name: kf_el_dLzCZerjVwe_an_-gFiJUit5;animation-name: kf_el_dLzCZerjVwe_an_-gFiJUit5;-webkit-animation-timing-function: cubic-bezier(0, 0, 1, 1);animation-timing-function: cubic-bezier(0, 0, 1, 1);}#el_dLzCZerjVwe_an_Dhht29gJ6{-webkit-animation-fill-mode: backwards;animation-fill-mode: backwards;-webkit-transform: translate(259px, 351px) translate(-259px, -351px) translate(0px, 0px);transform: translate(259px, 351px) translate(-259px, -351px) translate(0px, 0px);-webkit-animation-name: kf_el_dLzCZerjVwe_an_Dhht29gJ6;animation-name: kf_el_dLzCZerjVwe_an_Dhht29gJ6;-webkit-animation-timing-function: cubic-bezier(0, 0, 1, 1);animation-timing-function: cubic-bezier(0, 0, 1, 1);}#el_uOXCsY9Cadi{-webkit-animation-fill-mode: backwards;animation-fill-mode: backwards;opacity: 0;-webkit-animation-name: kf_el_uOXCsY9Cadi_an_l6XRFLMR1;animation-name: kf_el_uOXCsY9Cadi_an_l6XRFLMR1;-webkit-animation-timing-function: cubic-bezier(0, 0, 1, 1);animation-timing-function: cubic-bezier(0, 0, 1, 1);}#el_uOXCsY9Cadi_an_QGNvB8R-L{-webkit-animation-fill-mode: backwards;animation-fill-mode: backwards;-webkit-transform: translate(536px, 351px) translate(-536px, -351px) translate(0px, 0px);transform: translate(536px, 351px) translate(-536px, -351px) translate(0px, 0px);-webkit-animation-name: kf_el_uOXCsY9Cadi_an_QGNvB8R-L;animation-name: kf_el_uOXCsY9Cadi_an_QGNvB8R-L;-webkit-animation-timing-function: cubic-bezier(0, 0, 1, 1);animation-timing-function: cubic-bezier(0, 0, 1, 1);}#el_r0jaewENMxp{-webkit-animation-fill-mode: backwards;animation-fill-mode: backwards;opacity: 0;-webkit-animation-name: kf_el_r0jaewENMxp_an_AKtnQ3DNz;animation-name: kf_el_r0jaewENMxp_an_AKtnQ3DNz;-webkit-animation-timing-function: cubic-bezier(0, 0, 1, 1);animation-timing-function: cubic-bezier(0, 0, 1, 1);}#el_r0jaewENMxp_an_OpizYwPh9{-webkit-animation-fill-mode: backwards;animation-fill-mode: backwards;-webkit-transform: translate(815px, 351px) translate(-815px, -351px) translate(0px, 0px);transform: translate(815px, 351px) translate(-815px, -351px) translate(0px, 0px);-webkit-animation-name: kf_el_r0jaewENMxp_an_OpizYwPh9;animation-name: kf_el_r0jaewENMxp_an_OpizYwPh9;-webkit-animation-timing-function: cubic-bezier(0, 0, 1, 1);animation-timing-function: cubic-bezier(0, 0, 1, 1);}</style>
<g clip-path="url(#clip0)" id="el_bRVuCvTyGo">

<g clip-path="url(#clip1)" filter="url(#filter0_d)" id="el_LO67QlqzHF">
<path d="M115.11 454.685C114.232 454.685 113.53 454.685 112.652 454.685C76.4883 454.685 40.1486 454.685 3.98444 454.685C0.824463 454.685 0.824463 454.685 0.824463 451.525C1.00002 396.928 1.00002 342.33 1.00002 287.909C1.00002 223.656 1.00002 159.403 1.00002 95.1503C1.00002 64.4283 1.00002 33.7064 1.00002 2.80887C1.00002 2.63331 1.00002 2.63331 1.00002 2.45776C1.00002 0.175554 1.00002 0.175554 3.28222 0.175554C11.8844 0.175554 20.6621 0.175554 29.2642 0.175554C169.532 0.175554 309.8 0.175554 450.243 0.175554C565.055 0.175554 679.868 0.175554 794.68 0.175554C796.436 0.175554 798.191 0.175554 799.947 0C800.824 0 801 0.351108 801 1.05332C801 2.80887 800.825 4.38885 800.825 6.14439C800.825 153.259 800.825 300.373 800.825 447.487C800.825 449.243 800.825 451.174 800.825 452.93C800.825 454.158 800.649 454.334 799.42 454.51C798.893 454.51 798.542 454.51 798.016 454.51C761.5 454.51 724.985 454.51 688.47 454.51C687.943 454.51 687.241 454.51 686.714 454.51C686.363 455.212 686.89 455.563 687.065 456.089C694.439 472.416 701.812 488.567 709.185 504.894C709.536 505.596 709.712 506.122 710.063 506.825C710.59 508.405 710.063 509.458 708.483 509.633C706.201 509.809 703.743 509.633 701.636 508.756C700.056 508.229 699.179 506.825 698.652 505.42C696.545 500.856 694.439 496.291 692.508 491.727C691.805 490.323 691.103 488.918 690.576 487.514C690.225 486.636 689.699 486.46 688.997 486.636C686.714 486.987 684.257 486.987 681.974 486.636C679.517 486.285 678.639 485.583 677.937 483.125C675.654 474.347 673.372 465.394 671.09 456.616C670.563 454.51 670.563 454.51 668.632 454.51C606.837 454.51 545.042 454.51 483.072 454.51C464.638 454.51 446.205 454.51 427.948 454.51C405.126 454.51 382.479 454.51 359.657 454.51C284.344 454.51 209.207 454.51 133.894 454.51C131.437 454.51 131.437 454.509 130.734 456.967C128.452 465.745 125.995 474.523 123.888 483.3C123.361 485.407 122.132 486.285 120.201 486.636C117.919 486.987 115.637 486.987 113.355 486.811C111.775 486.636 111.775 486.636 111.072 488.04C108.615 493.483 105.981 498.925 103.524 504.542C102.295 507.702 100.188 509.282 96.8525 509.458C95.7992 509.458 94.7459 509.633 93.6926 509.633C91.5859 509.633 90.7082 508.405 91.5859 506.474C93.6926 501.558 95.9748 496.818 98.257 491.903C103.699 479.789 109.141 467.852 114.759 455.738C114.759 455.563 114.935 455.212 115.11 454.685Z" id="el_KJLhEgXFYV"></path>
<path d="M400.736 4.03784C531.7 4.03784 662.663 4.03784 793.802 4.03784C796.435 4.03784 796.435 4.03784 796.435 6.67115C796.435 70.7484 796.435 134.826 796.435 198.727C796.435 252.622 796.435 306.518 796.435 360.413C796.435 389.203 796.435 417.994 796.435 446.785C796.435 450.121 796.787 449.594 793.627 449.594C531.875 449.594 269.949 449.594 8.19757 449.594C5.0376 449.594 5.0376 449.594 5.0376 446.61C5.0376 300.022 5.0376 153.259 5.0376 6.67115C5.0376 4.03784 5.0376 4.03784 7.67091 4.03784C138.81 4.03784 269.773 4.03784 400.736 4.03784Z" id="el_jhps0XVil8"></path>
<g clip-path="url(#clip2)" id="el_tST7a2rP2I">
<path d="M38.4951 37.4435C37.0741 40.4551 35.6531 43.4747 34.2321 46.4863C29.6218 36.8218 25.0197 27.1572 20.4094 17.5007C23.2918 17.5007 26.1662 17.5007 29.0486 17.5007C32.1974 24.1456 35.3463 30.7905 38.4951 37.4435Z" id="el_oe5NoPgtPG"></path>
<path d="M38.4949 26.5435C32.173 26.5435 25.843 26.5435 19.5211 26.5435C18.0678 23.3705 16.6144 20.1893 15.1611 17.0162C21.4346 17.0162 27.7 17.0162 33.9735 17.0162C35.4833 20.1893 36.9851 23.3705 38.4949 26.5435Z" id="el_khSiXfs2Xd"></path>
<path d="M49.3146 20.811C48.6122 19.5434 47.9178 18.2839 47.2154 17.0162C43.2592 17.0162 39.3029 17.0162 35.3467 17.0162L49.3146 46.4863L63.2826 17.0162C59.2456 17.0162 55.2086 17.0162 51.1717 17.0162C50.55 18.2758 49.9363 19.5434 49.3146 20.811Z" id="el_xEcMDbTMQe"></path>
</g>
</g>
<g filter="url(#filter1_d)" id="el_YS_V9Otwk9">
<rect x="482" y="37" width="235" height="489" rx="30" id="el_S162w_Ykkj"></rect>
<g clip-path="url(#clip3)" id="el_QuRbrHRWwy">
<path d="M722.822 68.2813C722.824 63.516 721.888 58.7969 720.066 54.3938C718.243 49.9907 715.571 45.99 712.201 42.6204C708.832 39.2509 704.831 36.5785 700.428 34.7562C696.025 32.9338 691.306 31.9973 686.54 32H513.281C508.516 31.9973 503.797 32.9338 499.394 34.7562C494.991 36.5785 490.99 39.2509 487.62 42.6204C484.251 45.99 481.579 49.9907 479.756 54.3938C477.934 58.7969 476.997 63.516 477 68.2813V495.719C476.997 500.484 477.934 505.203 479.756 509.606C481.579 514.009 484.251 518.01 487.62 521.38C490.99 524.749 494.991 527.422 499.394 529.244C503.797 531.066 508.516 532.003 513.281 532H686.54C691.306 532.003 696.025 531.066 700.428 529.244C704.831 527.422 708.832 524.749 712.201 521.38C715.571 518.01 718.243 514.009 720.066 509.606C721.888 505.203 722.824 500.484 722.822 495.719V68.2813ZM717.251 495.37C717.243 503.605 713.969 511.501 708.146 517.324C702.323 523.147 694.427 526.422 686.192 526.429H512.933C504.698 526.422 496.803 523.147 490.98 517.324C485.157 511.501 481.882 503.605 481.875 495.37V67.9332C481.882 59.6982 485.157 51.8026 490.98 45.9796C496.803 40.1566 504.698 36.882 512.933 36.8747H686.192C694.427 36.882 702.323 40.1566 708.146 45.9796C713.969 51.8026 717.243 59.6982 717.251 67.9332V495.37Z" id="el_Tn7BrPbmp0"></path>
<path d="M718.251 67.9331V67.9322C718.243 59.4324 714.863 51.2828 708.853 45.2725C702.843 39.2622 694.693 35.8822 686.193 35.8746H686.192L512.933 35.8746L512.932 35.8746C504.432 35.8822 496.283 39.2622 490.273 45.2725C484.262 51.2828 480.882 59.4324 480.875 67.9322V67.9331L480.875 495.37L480.875 495.371C480.882 503.871 484.262 512.021 490.273 518.031C496.283 524.041 504.432 527.421 512.932 527.429H512.933H686.192H686.193C694.693 527.421 702.843 524.041 708.853 518.031C714.863 512.021 718.243 503.871 718.251 495.371V495.37V67.9331ZM628.786 48.7616L628.786 48.7722V48.7827C628.786 49.191 628.665 49.59 628.438 49.9294C628.211 50.2689 627.889 50.5334 627.511 50.6897C627.134 50.8459 626.719 50.8868 626.319 50.8071C625.918 50.7275 625.551 50.5309 625.262 50.2422C624.973 49.9536 624.777 49.5858 624.697 49.1854C624.618 48.785 624.658 48.37 624.815 47.9928C624.971 47.6157 625.235 47.2933 625.575 47.0665C625.914 46.8397 626.313 46.7186 626.722 46.7186H626.732L626.743 46.7184C627.013 46.7127 627.281 46.7617 627.531 46.8623C627.782 46.963 628.009 47.1133 628.2 47.3042C628.391 47.495 628.541 47.7226 628.642 47.973C628.743 48.2235 628.792 48.4917 628.786 48.7616ZM588.253 48.3155L588.302 48.3203H588.351H615.51C615.912 48.3203 616.2 48.4389 616.367 48.5746C616.519 48.6984 616.599 48.8537 616.599 49.0613C616.599 49.2688 616.519 49.4241 616.367 49.5479C616.2 49.6836 615.912 49.8022 615.51 49.8022H588.351C587.948 49.8022 587.661 49.6836 587.494 49.5479C587.352 49.4324 587.273 49.2893 587.263 49.102C587.277 48.9968 587.309 48.8946 587.358 48.8003C587.413 48.6934 587.49 48.5986 587.582 48.5215C587.675 48.4444 587.782 48.3865 587.897 48.3511C588.012 48.3157 588.133 48.3036 588.253 48.3155ZM708.451 494.187V495.187H708.57C708.095 506.377 699.684 514.983 688.421 514.983H515.022C503.402 514.983 493.32 505.767 493.32 494.187V67.0975C493.32 55.5807 503.409 46.2312 515.022 46.2312H535.078C535.182 46.2312 535.284 46.2311 535.384 46.231C536.325 46.2304 537.063 46.2299 537.683 46.2887C538.363 46.3532 538.767 46.4805 539.039 46.6627C539.535 46.9948 539.997 47.8009 540.138 50.5048C540.289 53.5311 541.416 55.9379 543.223 57.7935C545.012 59.6297 547.423 60.8823 550.098 61.7141C551.825 62.2659 553.725 62.2572 555.402 62.2496C555.594 62.2488 555.784 62.2479 555.969 62.2479H647.543C647.828 62.2479 648.123 62.2519 648.426 62.256C650.003 62.2772 651.795 62.3014 653.415 61.7837C658.783 60.1143 663.141 56.585 663.375 50.4295C663.516 47.7269 663.979 46.95 664.463 46.6349C664.733 46.459 665.136 46.3376 665.821 46.2786C666.408 46.228 667.098 46.2292 667.965 46.2307C668.116 46.2309 668.272 46.2312 668.435 46.2312H688.281C699.872 46.2312 708.451 55.4876 708.451 67.0975V494.187Z" id="el_dzgvrSZ_eM"></path>
<path d="M626.791 51.8468C628.483 51.8468 629.855 50.4749 629.855 48.7827C629.855 47.0905 628.483 45.7186 626.791 45.7186C625.099 45.7186 623.727 47.0905 623.727 48.7827C623.727 50.4749 625.099 51.8468 626.791 51.8468Z" id="el_Gj9OYq6z8r"></path>
<path d="M588.351 50.8022H615.51C616.694 50.8022 617.599 50.1058 617.599 49.0613C617.599 48.0167 616.694 47.3203 615.51 47.3203H588.351C587.167 47.3203 586.262 48.0167 586.262 49.0613C586.283 49.3135 586.354 49.559 586.471 49.7835C586.587 50.0081 586.748 50.2072 586.942 50.3692C587.136 50.5312 587.361 50.6529 587.603 50.7273C587.845 50.8016 588.099 50.8271 588.351 50.8022Z" id="el_wi9ECVVvNPW"></path>
<g clip-path="url(#clip4)" id="el_D4zIiJNlY6g">
<path d="M519.52 82.504C518.581 84.4934 517.643 86.488 516.704 88.4774C513.659 82.0934 510.619 75.7094 507.573 69.3307C509.477 69.3307 511.376 69.3307 513.28 69.3307C515.36 73.72 517.44 78.1094 519.52 82.504Z" id="el_BULzeI32nht"></path>
<path d="M519.52 75.3041C515.344 75.3041 511.163 75.3041 506.987 75.3041C506.027 73.2081 505.067 71.1067 504.107 69.0107C508.251 69.0107 512.389 69.0107 516.533 69.0107C517.531 71.1067 518.523 73.2081 519.52 75.3041Z" id="el_Q-XxnMOg-Be"></path>
<path d="M526.667 71.5174C526.203 70.6801 525.744 69.8481 525.28 69.0107C522.667 69.0107 520.053 69.0107 517.44 69.0107L526.667 88.4774L535.893 69.0107C533.227 69.0107 530.56 69.0107 527.893 69.0107C527.483 69.8427 527.077 70.6801 526.667 71.5174Z" id="el__ni8RRaKnJX"></path>
</g>
<rect x="505" y="425" width="192" height="53" rx="26.5" id="el_LT-4dhjVt2Y"></rect>
<path d="M546.367 455.363H541.744L540.865 458H538.062L542.825 445.203H545.269L550.059 458H547.255L546.367 455.363ZM542.456 453.228H545.655L544.047 448.438L542.456 453.228ZM561.66 458H559.023L553.891 449.58V458H551.254V445.203H553.891L559.032 453.641V445.203H561.66V458ZM573.648 445.203V453.632C573.648 455.032 573.209 456.14 572.33 456.954C571.457 457.769 570.262 458.176 568.744 458.176C567.25 458.176 566.063 457.78 565.185 456.989C564.306 456.198 563.857 455.111 563.84 453.729V445.203H566.477V453.649C566.477 454.487 566.676 455.1 567.074 455.486C567.479 455.867 568.035 456.058 568.744 456.058C570.227 456.058 570.979 455.278 571.003 453.72V445.203H573.648ZM586.217 458H583.58L578.447 449.58V458H575.811V445.203H578.447L583.589 453.641V445.203H586.217V458ZM598.565 453.737C598.466 455.114 597.956 456.198 597.036 456.989C596.122 457.78 594.915 458.176 593.415 458.176C591.774 458.176 590.482 457.625 589.539 456.523C588.602 455.416 588.133 453.898 588.133 451.971V451.188C588.133 449.958 588.35 448.874 588.783 447.937C589.217 446.999 589.835 446.281 590.638 445.783C591.446 445.279 592.384 445.027 593.45 445.027C594.927 445.027 596.116 445.423 597.019 446.214C597.921 447.005 598.442 448.115 598.583 449.545H595.946C595.882 448.719 595.65 448.121 595.252 447.752C594.859 447.377 594.259 447.189 593.45 447.189C592.571 447.189 591.912 447.506 591.473 448.139C591.039 448.766 590.816 449.741 590.805 451.065V452.032C590.805 453.415 591.013 454.426 591.429 455.064C591.851 455.703 592.513 456.022 593.415 456.022C594.229 456.022 594.836 455.838 595.234 455.469C595.639 455.094 595.87 454.517 595.929 453.737H598.565ZM603.101 458H600.464V445.203H603.101V458ZM612.936 455.363H608.312L607.434 458H604.63L609.394 445.203H611.837L616.627 458H613.823L612.936 455.363ZM609.024 453.228H612.224L610.615 448.438L609.024 453.228ZM629.529 455.363H624.906L624.027 458H621.224L625.987 445.203H628.431L633.221 458H630.417L629.529 455.363ZM625.618 453.228H628.817L627.209 448.438L625.618 453.228ZM644.717 451.892C644.717 453.087 644.523 454.127 644.137 455.012C643.75 455.891 643.214 456.597 642.528 457.13L644.655 458.8L642.977 460.285L640.252 458.097C639.941 458.149 639.619 458.176 639.285 458.176C638.225 458.176 637.278 457.921 636.446 457.411C635.614 456.901 634.97 456.175 634.513 455.231C634.056 454.282 633.824 453.192 633.818 451.962V451.329C633.818 450.069 634.044 448.962 634.495 448.007C634.952 447.046 635.594 446.311 636.42 445.801C637.252 445.285 638.201 445.027 639.268 445.027C640.334 445.027 641.28 445.285 642.106 445.801C642.938 446.311 643.58 447.046 644.031 448.007C644.488 448.962 644.717 450.066 644.717 451.32V451.892ZM642.045 451.312C642.045 449.97 641.805 448.95 641.324 448.253C640.844 447.556 640.158 447.207 639.268 447.207C638.383 447.207 637.7 447.553 637.22 448.244C636.739 448.93 636.496 449.938 636.49 451.268V451.892C636.49 453.198 636.73 454.212 637.211 454.933C637.691 455.653 638.383 456.014 639.285 456.014C640.17 456.014 640.85 455.668 641.324 454.977C641.799 454.279 642.039 453.266 642.045 451.936V451.312ZM656.336 445.203V453.632C656.336 455.032 655.896 456.14 655.018 456.954C654.145 457.769 652.949 458.176 651.432 458.176C649.938 458.176 648.751 457.78 647.872 456.989C646.993 456.198 646.545 455.111 646.527 453.729V445.203H649.164V453.649C649.164 454.487 649.363 455.1 649.762 455.486C650.166 455.867 650.723 456.058 651.432 456.058C652.914 456.058 653.667 455.278 653.69 453.72V445.203H656.336ZM661.302 458H658.665V445.203H661.302V458Z" id="el_pguxVOIHCLB"></path>
</g>
</g>
<g filter="url(#filter2_d)" id="el_bdN8e76sRC3">
<rect x="760" y="38" width="235" height="489" rx="30" id="el_TVKe2jHHs66"></rect>
<g clip-path="url(#clip5)" id="el_xf91DyA8xVm">
<path d="M1000.82 69.2813C1000.82 64.516 999.888 59.7969 998.066 55.3938C996.243 50.9907 993.571 46.99 990.201 43.6204C986.832 40.2509 982.831 37.5785 978.428 35.7562C974.025 33.9338 969.306 32.9973 964.54 33H791.281C786.516 32.9973 781.797 33.9338 777.394 35.7562C772.991 37.5785 768.99 40.2509 765.62 43.6204C762.251 46.99 759.579 50.9907 757.756 55.3938C755.934 59.7969 754.997 64.516 755 69.2813V496.719C754.997 501.484 755.934 506.203 757.756 510.606C759.579 515.009 762.251 519.01 765.62 522.38C768.99 525.749 772.991 528.422 777.394 530.244C781.797 532.066 786.516 533.003 791.281 533H964.54C969.306 533.003 974.025 532.066 978.428 530.244C982.831 528.422 986.832 525.749 990.201 522.38C993.571 519.01 996.243 515.009 998.066 510.606C999.888 506.203 1000.82 501.484 1000.82 496.719V69.2813ZM995.251 496.37C995.243 504.605 991.969 512.501 986.146 518.324C980.323 524.147 972.427 527.422 964.192 527.429H790.933C782.698 527.422 774.803 524.147 768.98 518.324C763.157 512.501 759.882 504.605 759.875 496.37V68.9332C759.882 60.6982 763.157 52.8026 768.98 46.9796C774.803 41.1566 782.698 37.882 790.933 37.8747H964.192C972.427 37.882 980.323 41.1566 986.146 46.9796C991.969 52.8026 995.243 60.6982 995.251 68.9332V496.37Z" id="el_twenuWtDW2_"></path>
<path d="M996.251 68.9331V68.9322C996.243 60.4324 992.863 52.2828 986.853 46.2725C980.843 40.2622 972.693 36.8822 964.193 36.8746H964.192L790.933 36.8746L790.932 36.8746C782.432 36.8822 774.283 40.2622 768.273 46.2725C762.262 52.2828 758.882 60.4324 758.875 68.9322V68.9331L758.875 496.37L758.875 496.371C758.882 504.871 762.262 513.021 768.273 519.031C774.283 525.041 782.432 528.421 790.932 528.429H790.933H964.192H964.193C972.693 528.421 980.843 525.041 986.853 519.031C992.863 513.021 996.243 504.871 996.251 496.371V496.37V68.9331ZM906.786 49.7616L906.786 49.7722V49.7827C906.786 50.191 906.665 50.59 906.438 50.9294C906.211 51.2689 905.889 51.5334 905.511 51.6897C905.134 51.8459 904.719 51.8868 904.319 51.8071C903.918 51.7275 903.551 51.5309 903.262 51.2422C902.973 50.9536 902.777 50.5858 902.697 50.1854C902.618 49.785 902.658 49.37 902.815 48.9928C902.971 48.6157 903.235 48.2933 903.575 48.0665C903.914 47.8397 904.313 47.7186 904.722 47.7186H904.732L904.743 47.7184C905.013 47.7127 905.281 47.7617 905.531 47.8623C905.782 47.963 906.009 48.1133 906.2 48.3042C906.391 48.495 906.541 48.7226 906.642 48.973C906.743 49.2235 906.792 49.4917 906.786 49.7616ZM866.253 49.3155L866.302 49.3203H866.351H893.51C893.912 49.3203 894.2 49.4389 894.367 49.5746C894.519 49.6984 894.599 49.8537 894.599 50.0613C894.599 50.2688 894.519 50.4241 894.367 50.5479C894.2 50.6836 893.912 50.8022 893.51 50.8022H866.351C865.948 50.8022 865.661 50.6836 865.494 50.5479C865.352 50.4324 865.273 50.2893 865.263 50.102C865.277 49.9968 865.309 49.8946 865.358 49.8003C865.413 49.6934 865.49 49.5986 865.582 49.5215C865.675 49.4444 865.782 49.3865 865.897 49.3511C866.012 49.3157 866.133 49.3036 866.253 49.3155ZM986.451 495.187V496.187H986.57C986.095 507.377 977.684 515.983 966.421 515.983H793.022C781.402 515.983 771.32 506.767 771.32 495.187V68.0975C771.32 56.5807 781.409 47.2312 793.022 47.2312H813.078C813.182 47.2312 813.284 47.2311 813.384 47.231C814.325 47.2304 815.063 47.2299 815.683 47.2887C816.363 47.3532 816.767 47.4805 817.039 47.6627C817.535 47.9948 817.997 48.8009 818.138 51.5048C818.289 54.5311 819.416 56.9379 821.223 58.7935C823.012 60.6297 825.423 61.8823 828.098 62.7141C829.825 63.2659 831.725 63.2572 833.402 63.2496C833.594 63.2488 833.784 63.2479 833.969 63.2479H925.543C925.828 63.2479 926.123 63.2519 926.426 63.256C928.003 63.2772 929.795 63.3014 931.415 62.7837C936.783 61.1143 941.141 57.585 941.375 51.4295C941.516 48.7269 941.979 47.95 942.463 47.6349C942.733 47.459 943.136 47.3376 943.821 47.2786C944.408 47.228 945.098 47.2292 945.965 47.2307C946.116 47.2309 946.272 47.2312 946.435 47.2312H966.281C977.872 47.2312 986.451 56.4876 986.451 68.0975V495.187Z" id="el_pIT7_R0QpLJ"></path>
<path d="M904.791 52.8468C906.483 52.8468 907.855 51.4749 907.855 49.7827C907.855 48.0905 906.483 46.7186 904.791 46.7186C903.099 46.7186 901.727 48.0905 901.727 49.7827C901.727 51.4749 903.099 52.8468 904.791 52.8468Z" id="el_xdE2ZWk4z3t"></path>
<path d="M866.351 51.8022H893.51C894.694 51.8022 895.599 51.1058 895.599 50.0613C895.599 49.0167 894.694 48.3203 893.51 48.3203H866.351C865.167 48.3203 864.262 49.0167 864.262 50.0613C864.283 50.3135 864.354 50.559 864.471 50.7835C864.587 51.0081 864.748 51.2072 864.942 51.3692C865.136 51.5312 865.361 51.6529 865.603 51.7273C865.845 51.8016 866.099 51.8271 866.351 51.8022Z" id="el_5LIghAT93Zd"></path>
<g clip-path="url(#clip6)" id="el_EaLtMtWq-wU">
<path d="M797.52 83.504C796.581 85.4934 795.643 87.488 794.704 89.4774C791.659 83.0934 788.619 76.7094 785.573 70.3307C787.477 70.3307 789.376 70.3307 791.28 70.3307C793.36 74.72 795.44 79.1094 797.52 83.504Z" id="el_CyPRvIHEdkp"></path>
<path d="M797.52 76.3041C793.344 76.3041 789.163 76.3041 784.987 76.3041C784.027 74.2081 783.067 72.1067 782.107 70.0107C786.251 70.0107 790.389 70.0107 794.533 70.0107C795.531 72.1067 796.523 74.2081 797.52 76.3041Z" id="el_TfP0r7ml2nb"></path>
<path d="M804.667 72.5174C804.203 71.6801 803.744 70.8481 803.28 70.0107C800.667 70.0107 798.053 70.0107 795.44 70.0107L804.667 89.4774L813.893 70.0107C811.227 70.0107 808.56 70.0107 805.893 70.0107C805.483 70.8427 805.077 71.6801 804.667 72.5174Z" id="el_e8E12yx9QvJ"></path>
</g>
<rect x="783" y="425" width="192" height="53" rx="26.5" id="el_veGueYst9VP"></rect>
<path d="M816.779 453.491V458H814.143V445.203H819.135C820.096 445.203 820.939 445.379 821.666 445.73C822.398 446.082 822.961 446.583 823.354 447.233C823.746 447.878 823.942 448.613 823.942 449.439C823.942 450.693 823.512 451.684 822.65 452.41C821.795 453.131 820.608 453.491 819.091 453.491H816.779ZM816.779 451.355H819.135C819.832 451.355 820.362 451.191 820.726 450.863C821.095 450.535 821.279 450.066 821.279 449.457C821.279 448.83 821.095 448.323 820.726 447.937C820.356 447.55 819.847 447.351 819.196 447.339H816.779V451.355ZM831.422 455.363H826.799L825.92 458H823.116L827.88 445.203H830.323L835.113 458H832.31L831.422 455.363ZM827.511 453.228H830.71L829.102 448.438L827.511 453.228ZM841.046 453.315H838.945V458H836.309V445.203H841.063C842.575 445.203 843.741 445.54 844.562 446.214C845.382 446.888 845.792 447.84 845.792 449.07C845.792 449.943 845.602 450.673 845.221 451.259C844.846 451.839 844.274 452.302 843.507 452.647L846.275 457.877V458H843.445L841.046 453.315ZM838.945 451.18H841.072C841.734 451.18 842.247 451.013 842.61 450.679C842.974 450.339 843.155 449.873 843.155 449.281C843.155 448.678 842.982 448.203 842.637 447.857C842.297 447.512 841.772 447.339 841.063 447.339H838.945V451.18ZM856.998 447.339H853.078V458H850.441V447.339H846.574V445.203H856.998V447.339ZM861.313 458H858.677V445.203H861.313V458ZM873.812 453.737C873.712 455.114 873.202 456.198 872.282 456.989C871.368 457.78 870.161 458.176 868.661 458.176C867.021 458.176 865.729 457.625 864.785 456.523C863.848 455.416 863.379 453.898 863.379 451.971V451.188C863.379 449.958 863.596 448.874 864.029 447.937C864.463 446.999 865.081 446.281 865.884 445.783C866.692 445.279 867.63 445.027 868.696 445.027C870.173 445.027 871.362 445.423 872.265 446.214C873.167 447.005 873.688 448.115 873.829 449.545H871.192C871.128 448.719 870.896 448.121 870.498 447.752C870.105 447.377 869.505 447.189 868.696 447.189C867.817 447.189 867.158 447.506 866.719 448.139C866.285 448.766 866.062 449.741 866.051 451.065V452.032C866.051 453.415 866.259 454.426 866.675 455.064C867.097 455.703 867.759 456.022 868.661 456.022C869.476 456.022 870.082 455.838 870.48 455.469C870.885 455.094 871.116 454.517 871.175 453.737H873.812ZM878.347 458H875.71V445.203H878.347V458ZM883.436 453.491V458H880.799V445.203H885.791C886.752 445.203 887.596 445.379 888.322 445.73C889.055 446.082 889.617 446.583 890.01 447.233C890.402 447.878 890.599 448.613 890.599 449.439C890.599 450.693 890.168 451.684 889.307 452.41C888.451 453.131 887.265 453.491 885.747 453.491H883.436ZM883.436 451.355H885.791C886.488 451.355 887.019 451.191 887.382 450.863C887.751 450.535 887.936 450.066 887.936 449.457C887.936 448.83 887.751 448.323 887.382 447.937C887.013 447.55 886.503 447.351 885.853 447.339H883.436V451.355ZM898.078 455.363H893.455L892.576 458H889.772L894.536 445.203H896.979L901.77 458H898.966L898.078 455.363ZM894.167 453.228H897.366L895.758 448.438L894.167 453.228ZM912.026 449.615L914.426 445.203H917.458L913.731 451.549L917.555 458H914.487L912.026 453.518L909.565 458H906.498L910.321 451.549L906.595 445.203H909.627L912.026 449.615ZM929.174 454.634C929.174 454.153 929.039 453.772 928.77 453.491C928.506 453.204 928.055 452.94 927.416 452.7C926.777 452.46 926.227 452.223 925.764 451.988C925.301 451.748 924.902 451.476 924.568 451.171C924.24 450.86 923.982 450.497 923.795 450.081C923.613 449.665 923.522 449.17 923.522 448.596C923.522 447.605 923.839 446.794 924.472 446.161C925.104 445.528 925.945 445.159 926.994 445.054V443.173H928.4V445.08C929.438 445.227 930.249 445.66 930.835 446.381C931.421 447.096 931.714 448.024 931.714 449.167H929.174C929.174 448.464 929.027 447.939 928.734 447.594C928.447 447.242 928.061 447.066 927.574 447.066C927.094 447.066 926.722 447.204 926.458 447.479C926.194 447.749 926.062 448.124 926.062 448.604C926.062 449.05 926.191 449.407 926.449 449.677C926.707 449.946 927.185 450.222 927.882 450.503C928.585 450.784 929.162 451.051 929.613 451.303C930.064 451.549 930.445 451.83 930.756 452.146C931.066 452.457 931.304 452.814 931.468 453.219C931.632 453.617 931.714 454.083 931.714 454.616C931.714 455.612 931.403 456.421 930.782 457.042C930.161 457.663 929.306 458.029 928.216 458.141V459.89H926.818V458.149C925.617 458.021 924.686 457.596 924.023 456.875C923.367 456.148 923.039 455.185 923.039 453.983H925.579C925.579 454.681 925.743 455.217 926.071 455.592C926.405 455.961 926.883 456.146 927.504 456.146C928.02 456.146 928.427 456.011 928.726 455.741C929.024 455.466 929.174 455.097 929.174 454.634ZM939.606 458H937.066V448.209L934.034 449.149V447.084L939.334 445.186H939.606V458Z" id="el_ashfQxdlrRB"></path>
</g>
</g>
<g filter="url(#filter3_d)" id="el_JTSYp6GAB3F">
<rect x="204" y="38" width="235" height="489" rx="30" id="el_WZVhnQwhIu3"></rect>
<g clip-path="url(#clip7)" id="el_ClGWMnJkPWr">
<path d="M444.822 69.2813C444.824 64.516 443.888 59.7969 442.066 55.3938C440.243 50.9907 437.571 46.99 434.201 43.6204C430.832 40.2509 426.831 37.5785 422.428 35.7562C418.025 33.9338 413.306 32.9973 408.54 33H235.281C230.516 32.9973 225.797 33.9338 221.394 35.7562C216.991 37.5785 212.99 40.2509 209.62 43.6204C206.251 46.99 203.579 50.9907 201.756 55.3938C199.934 59.7969 198.997 64.516 199 69.2813V496.719C198.997 501.484 199.934 506.203 201.756 510.606C203.579 515.009 206.251 519.01 209.62 522.38C212.99 525.749 216.991 528.422 221.394 530.244C225.797 532.066 230.516 533.003 235.281 533H408.54C413.306 533.003 418.025 532.066 422.428 530.244C426.831 528.422 430.832 525.749 434.201 522.38C437.571 519.01 440.243 515.009 442.066 510.606C443.888 506.203 444.824 501.484 444.822 496.719V69.2813ZM439.251 496.37C439.243 504.605 435.969 512.501 430.146 518.324C424.323 524.147 416.427 527.422 408.192 527.429H234.933C226.698 527.422 218.803 524.147 212.98 518.324C207.157 512.501 203.882 504.605 203.875 496.37V68.9332C203.882 60.6982 207.157 52.8026 212.98 46.9796C218.803 41.1566 226.698 37.882 234.933 37.8747H408.192C416.427 37.882 424.323 41.1566 430.146 46.9796C435.969 52.8026 439.243 60.6982 439.251 68.9332V496.37Z" id="el_QDLK3cWEaN1"></path>
<path d="M440.251 68.9331V68.9322C440.243 60.4324 436.863 52.2828 430.853 46.2725C424.843 40.2622 416.693 36.8822 408.193 36.8746H408.192L234.933 36.8746L234.932 36.8746C226.432 36.8822 218.283 40.2622 212.273 46.2725C206.262 52.2828 202.882 60.4324 202.875 68.9322V68.9331L202.875 496.37L202.875 496.371C202.882 504.871 206.262 513.021 212.273 519.031C218.283 525.041 226.432 528.421 234.932 528.429H234.933H408.192H408.193C416.693 528.421 424.843 525.041 430.853 519.031C436.863 513.021 440.243 504.871 440.251 496.371V496.37V68.9331ZM350.786 49.7616L350.786 49.7722V49.7827C350.786 50.191 350.665 50.59 350.438 50.9294C350.211 51.2689 349.889 51.5334 349.511 51.6897C349.134 51.8459 348.719 51.8868 348.319 51.8071C347.918 51.7275 347.551 51.5309 347.262 51.2422C346.973 50.9536 346.777 50.5858 346.697 50.1854C346.618 49.785 346.658 49.37 346.815 48.9928C346.971 48.6157 347.235 48.2933 347.575 48.0665C347.914 47.8397 348.313 47.7186 348.722 47.7186H348.732L348.743 47.7184C349.013 47.7127 349.281 47.7617 349.531 47.8623C349.782 47.963 350.009 48.1133 350.2 48.3042C350.391 48.495 350.541 48.7226 350.642 48.973C350.743 49.2235 350.792 49.4917 350.786 49.7616ZM310.253 49.3155L310.302 49.3203H310.351H337.51C337.912 49.3203 338.2 49.4389 338.367 49.5746C338.519 49.6984 338.599 49.8537 338.599 50.0613C338.599 50.2688 338.519 50.4241 338.367 50.5479C338.2 50.6836 337.912 50.8022 337.51 50.8022H310.351C309.948 50.8022 309.661 50.6836 309.494 50.5479C309.352 50.4324 309.273 50.2893 309.263 50.102C309.277 49.9968 309.309 49.8946 309.358 49.8003C309.413 49.6934 309.49 49.5986 309.582 49.5215C309.675 49.4444 309.782 49.3865 309.897 49.3511C310.012 49.3157 310.133 49.3036 310.253 49.3155ZM430.451 495.187V496.187H430.57C430.095 507.377 421.684 515.983 410.421 515.983H237.022C225.402 515.983 215.32 506.767 215.32 495.187V68.0975C215.32 56.5807 225.409 47.2312 237.022 47.2312H257.078C257.182 47.2312 257.284 47.2311 257.384 47.231C258.325 47.2304 259.063 47.2299 259.683 47.2887C260.363 47.3532 260.767 47.4805 261.039 47.6627C261.535 47.9948 261.997 48.8009 262.138 51.5048C262.289 54.5311 263.416 56.9379 265.223 58.7935C267.012 60.6297 269.423 61.8823 272.098 62.7141C273.825 63.2659 275.725 63.2572 277.402 63.2496C277.594 63.2488 277.784 63.2479 277.969 63.2479H369.543C369.828 63.2479 370.123 63.2519 370.426 63.256C372.003 63.2772 373.795 63.3014 375.415 62.7837C380.783 61.1143 385.141 57.585 385.375 51.4295C385.516 48.7269 385.979 47.95 386.463 47.6349C386.733 47.459 387.136 47.3376 387.821 47.2786C388.408 47.228 389.098 47.2292 389.965 47.2307C390.116 47.2309 390.272 47.2312 390.435 47.2312H410.281C421.872 47.2312 430.451 56.4876 430.451 68.0975V495.187Z" id="el_qtqFERTbRrE"></path>
<path d="M348.791 52.8468C350.483 52.8468 351.855 51.4749 351.855 49.7827C351.855 48.0905 350.483 46.7186 348.791 46.7186C347.099 46.7186 345.727 48.0905 345.727 49.7827C345.727 51.4749 347.099 52.8468 348.791 52.8468Z" id="el_ZP3SLAz2Ttf"></path>
<path d="M310.351 51.8022H337.51C338.694 51.8022 339.599 51.1058 339.599 50.0613C339.599 49.0167 338.694 48.3203 337.51 48.3203H310.351C309.167 48.3203 308.262 49.0167 308.262 50.0613C308.283 50.3135 308.354 50.559 308.471 50.7835C308.587 51.0081 308.748 51.2072 308.942 51.3692C309.136 51.5312 309.361 51.6529 309.603 51.7273C309.845 51.8016 310.099 51.8271 310.351 51.8022Z" id="el_DcJYTqvITvt"></path>
<g clip-path="url(#clip8)" id="el_Ackk_9uSkJ7">
<path d="M241.52 83.504C240.581 85.4934 239.643 87.488 238.704 89.4774C235.659 83.0934 232.619 76.7094 229.573 70.3307C231.477 70.3307 233.376 70.3307 235.28 70.3307C237.36 74.72 239.44 79.1094 241.52 83.504Z" id="el_ed4qEClZrBM"></path>
<path d="M241.52 76.3041C237.344 76.3041 233.163 76.3041 228.987 76.3041C228.027 74.2081 227.067 72.1067 226.107 70.0107C230.251 70.0107 234.389 70.0107 238.533 70.0107C239.531 72.1067 240.523 74.2081 241.52 76.3041Z" id="el_vHg2kUUxNdW"></path>
<path d="M248.667 72.5174C248.203 71.6801 247.744 70.8481 247.28 70.0107C244.667 70.0107 242.053 70.0107 239.44 70.0107L248.667 89.4774L257.893 70.0107C255.227 70.0107 252.56 70.0107 249.893 70.0107C249.483 70.8427 249.077 71.6801 248.667 72.5174Z" id="el_ZmyZabQ9zbi"></path>
</g>
<rect x="227" y="425" width="192" height="53" rx="26.5" id="el_PjCMdIVPSec"></rect>
<path d="M276.188 453.737C276.089 455.114 275.579 456.198 274.659 456.989C273.745 457.78 272.538 458.176 271.038 458.176C269.397 458.176 268.105 457.625 267.162 456.523C266.225 455.416 265.756 453.898 265.756 451.971V451.188C265.756 449.958 265.973 448.874 266.406 447.937C266.84 446.999 267.458 446.281 268.261 445.783C269.069 445.279 270.007 445.027 271.073 445.027C272.55 445.027 273.739 445.423 274.642 446.214C275.544 447.005 276.065 448.115 276.206 449.545H273.569C273.505 448.719 273.273 448.121 272.875 447.752C272.482 447.377 271.882 447.189 271.073 447.189C270.194 447.189 269.535 447.506 269.096 448.139C268.662 448.766 268.439 449.741 268.428 451.065V452.032C268.428 453.415 268.636 454.426 269.052 455.064C269.474 455.703 270.136 456.022 271.038 456.022C271.853 456.022 272.459 455.838 272.857 455.469C273.262 455.094 273.493 454.517 273.552 453.737H276.188ZM288.432 451.892C288.432 453.151 288.209 454.256 287.764 455.205C287.318 456.154 286.68 456.887 285.848 457.402C285.021 457.918 284.072 458.176 283 458.176C281.939 458.176 280.993 457.921 280.161 457.411C279.329 456.901 278.685 456.175 278.228 455.231C277.771 454.282 277.539 453.192 277.533 451.962V451.329C277.533 450.069 277.759 448.962 278.21 448.007C278.667 447.046 279.309 446.311 280.135 445.801C280.967 445.285 281.916 445.027 282.982 445.027C284.049 445.027 284.995 445.285 285.821 445.801C286.653 446.311 287.295 447.046 287.746 448.007C288.203 448.962 288.432 450.066 288.432 451.32V451.892ZM285.76 451.312C285.76 449.97 285.52 448.95 285.039 448.253C284.559 447.556 283.873 447.207 282.982 447.207C282.098 447.207 281.415 447.553 280.935 448.244C280.454 448.93 280.211 449.938 280.205 451.268V451.892C280.205 453.198 280.445 454.212 280.926 454.933C281.406 455.653 282.098 456.014 283 456.014C283.885 456.014 284.564 455.668 285.039 454.977C285.514 454.279 285.754 453.266 285.76 451.936V451.312ZM293.793 445.203L297.08 454.484L300.35 445.203H303.812V458H301.167V454.502L301.431 448.464L297.977 458H296.166L292.721 448.473L292.984 454.502V458H290.348V445.203H293.793ZM308.752 453.491V458H306.115V445.203H311.107C312.068 445.203 312.912 445.379 313.639 445.73C314.371 446.082 314.934 446.583 315.326 447.233C315.719 447.878 315.915 448.613 315.915 449.439C315.915 450.693 315.484 451.684 314.623 452.41C313.768 453.131 312.581 453.491 311.063 453.491H308.752ZM308.752 451.355H311.107C311.805 451.355 312.335 451.191 312.698 450.863C313.067 450.535 313.252 450.066 313.252 449.457C313.252 448.83 313.067 448.323 312.698 447.937C312.329 447.55 311.819 447.351 311.169 447.339H308.752V451.355ZM322.472 453.315H320.371V458H317.734V445.203H322.489C324.001 445.203 325.167 445.54 325.987 446.214C326.808 446.888 327.218 447.84 327.218 449.07C327.218 449.943 327.027 450.673 326.646 451.259C326.271 451.839 325.7 452.302 324.933 452.647L327.701 457.877V458H324.871L322.472 453.315ZM320.371 451.18H322.498C323.16 451.18 323.673 451.013 324.036 450.679C324.399 450.339 324.581 449.873 324.581 449.281C324.581 448.678 324.408 448.203 324.062 447.857C323.723 447.512 323.198 447.339 322.489 447.339H320.371V451.18ZM336.455 455.363H331.832L330.953 458H328.149L332.913 445.203H335.356L340.146 458H337.343L336.455 455.363ZM332.544 453.228H335.743L334.135 448.438L332.544 453.228ZM346.079 453.315H343.979V458H341.342V445.203H346.097C347.608 445.203 348.774 445.54 349.595 446.214C350.415 446.888 350.825 447.84 350.825 449.07C350.825 449.943 350.635 450.673 350.254 451.259C349.879 451.839 349.308 452.302 348.54 452.647L351.309 457.877V458H348.479L346.079 453.315ZM343.979 451.18H346.105C346.768 451.18 347.28 451.013 347.644 450.679C348.007 450.339 348.188 449.873 348.188 449.281C348.188 448.678 348.016 448.203 347.67 447.857C347.33 447.512 346.806 447.339 346.097 447.339H343.979V451.18ZM361.732 450.969L364.396 445.203H367.278L363.077 453.359V458H360.396V453.359L356.195 445.203H359.087L361.732 450.969ZM374.354 455.363H369.73L368.852 458H366.048L370.812 445.203H373.255L378.045 458H375.241L374.354 455.363ZM370.442 453.228H373.642L372.033 448.438L370.442 453.228Z" id="el_8qfdq_EyIRE"></path>
</g>
</g>
<g id="el_dLzCZerjVwe_an_Dhht29gJ6" data-animator-group="true" data-animator-type="0"><g clip-path="url(#clip9)" id="el_dLzCZerjVwe">
<path d="M368.255 369.835C356.167 357.689 340.095 351 323 351C305.905 351 289.833 357.689 277.745 369.835C265.657 381.981 259 398.131 259 415.308C259 432.485 265.657 448.634 277.745 460.78C289.833 472.926 305.905 479.615 323 479.615C340.095 479.615 356.167 472.926 368.255 460.78C380.343 448.634 387 432.485 387 415.308C387 398.131 380.343 381.981 368.255 369.835ZM323 472.079C291.846 472.079 266.5 446.612 266.5 415.308C266.5 384.004 291.846 358.536 323 358.536C354.154 358.536 379.5 384.004 379.5 415.308C379.5 446.612 354.154 472.079 323 472.079Z" id="el_Q88a7xC54Fl"></path>
<path d="M327.017 411.54H318.983C314.407 411.54 310.683 407.798 310.683 403.2C310.683 398.601 314.407 394.86 318.983 394.86H335.05C337.121 394.86 338.8 393.173 338.8 391.092C338.8 389.011 337.121 387.324 335.05 387.324H326.75V378.984C326.75 376.903 325.071 375.216 323 375.216C320.929 375.216 319.25 376.903 319.25 378.984V387.324H318.984C310.271 387.324 303.184 394.446 303.184 403.2C303.184 411.954 310.272 419.076 318.984 419.076H327.017C331.594 419.076 335.317 422.817 335.317 427.416C335.317 432.014 331.594 435.755 327.017 435.755H310.95C308.879 435.755 307.2 437.443 307.2 439.524C307.2 441.604 308.879 443.292 310.95 443.292H319.25V451.632C319.25 453.713 320.929 455.4 323 455.4C325.071 455.4 326.75 453.713 326.75 451.632V443.292H327.017C335.729 443.292 342.817 436.169 342.817 427.416C342.817 418.662 335.729 411.54 327.017 411.54Z" id="el_Vz8LfNC_HOe"></path>
</g></g>
<g id="el_uOXCsY9Cadi_an_QGNvB8R-L" data-animator-group="true" data-animator-type="0"><g clip-path="url(#clip10)" id="el_uOXCsY9Cadi">
<path d="M645.255 369.835C633.167 357.689 617.095 351 600 351C582.905 351 566.833 357.689 554.745 369.835C542.657 381.981 536 398.131 536 415.308C536 432.485 542.657 448.634 554.745 460.78C566.833 472.926 582.905 479.615 600 479.615C617.095 479.615 633.167 472.926 645.255 460.78C657.343 448.634 664 432.485 664 415.308C664 398.131 657.343 381.981 645.255 369.835ZM600 472.079C568.846 472.079 543.5 446.612 543.5 415.308C543.5 384.004 568.846 358.536 600 358.536C631.154 358.536 656.5 384.004 656.5 415.308C656.5 446.612 631.154 472.079 600 472.079Z" id="el_t419nvEP59q"></path>
<path d="M604.017 411.54H595.983C591.407 411.54 587.683 407.798 587.683 403.2C587.683 398.601 591.407 394.86 595.983 394.86H612.05C614.121 394.86 615.8 393.173 615.8 391.092C615.8 389.011 614.121 387.324 612.05 387.324H603.75V378.984C603.75 376.903 602.071 375.216 600 375.216C597.929 375.216 596.25 376.903 596.25 378.984V387.324H595.984C587.271 387.324 580.184 394.446 580.184 403.2C580.184 411.954 587.272 419.076 595.984 419.076H604.017C608.594 419.076 612.317 422.817 612.317 427.416C612.317 432.014 608.594 435.755 604.017 435.755H587.95C585.879 435.755 584.2 437.443 584.2 439.524C584.2 441.604 585.879 443.292 587.95 443.292H596.25V451.632C596.25 453.713 597.929 455.4 600 455.4C602.071 455.4 603.75 453.713 603.75 451.632V443.292H604.017C612.729 443.292 619.817 436.169 619.817 427.416C619.817 418.662 612.729 411.54 604.017 411.54Z" id="el_BxqimmrWadi"></path>
</g></g>
<g id="el_r0jaewENMxp_an_OpizYwPh9" data-animator-group="true" data-animator-type="0"><g clip-path="url(#clip11)" id="el_r0jaewENMxp">
<path d="M924.255 369.835C912.167 357.689 896.095 351 879 351C861.905 351 845.833 357.689 833.745 369.835C821.657 381.981 815 398.131 815 415.308C815 432.485 821.657 448.634 833.745 460.78C845.833 472.926 861.905 479.615 879 479.615C896.095 479.615 912.167 472.926 924.255 460.78C936.343 448.634 943 432.485 943 415.308C943 398.131 936.343 381.981 924.255 369.835ZM879 472.079C847.846 472.079 822.5 446.612 822.5 415.308C822.5 384.004 847.846 358.536 879 358.536C910.154 358.536 935.5 384.004 935.5 415.308C935.5 446.612 910.154 472.079 879 472.079Z" id="el_VbIA4KsWzqc"></path>
<path d="M883.017 411.54H874.983C870.407 411.54 866.683 407.798 866.683 403.2C866.683 398.601 870.407 394.86 874.983 394.86H891.05C893.121 394.86 894.8 393.173 894.8 391.092C894.8 389.011 893.121 387.324 891.05 387.324H882.75V378.984C882.75 376.903 881.071 375.216 879 375.216C876.929 375.216 875.25 376.903 875.25 378.984V387.324H874.984C866.271 387.324 859.184 394.446 859.184 403.2C859.184 411.954 866.272 419.076 874.984 419.076H883.017C887.594 419.076 891.317 422.817 891.317 427.416C891.317 432.014 887.594 435.755 883.017 435.755H866.95C864.879 435.755 863.2 437.443 863.2 439.524C863.2 441.604 864.879 443.292 866.95 443.292H875.25V451.632C875.25 453.713 876.929 455.4 879 455.4C881.071 455.4 882.75 453.713 882.75 451.632V443.292H883.017C891.729 443.292 898.817 436.169 898.817 427.416C898.817 418.662 891.729 411.54 883.017 411.54Z" id="el_Y9DfOFjdIuz"></path>
</g></g>
</g>
<defs>
<filter id="filter0_d" x="-3" y="0" width="808" height="517.633" filterUnits="userSpaceOnUse" color-interpolation-filters="sRGB">
<feFlood flood-opacity="0" result="BackgroundImageFix"></feFlood>
<feColorMatrix in="SourceAlpha" type="matrix" values="0 0 0 0 0 0 0 0 0 0 0 0 0 0 0 0 0 0 127 0"></feColorMatrix>
<feOffset dy="4"></feOffset>
<feGaussianBlur stdDeviation="2"></feGaussianBlur>
<feColorMatrix type="matrix" values="0 0 0 0 0 0 0 0 0 0 0 0 0 0 0 0 0 0 0.25 0"></feColorMatrix>
<feBlend mode="normal" in2="BackgroundImageFix" result="effect1_dropShadow"></feBlend>
<feBlend mode="normal" in="SourceGraphic" in2="effect1_dropShadow" result="shape"></feBlend>
</filter>
<filter id="filter1_d" x="473" y="32" width="253.822" height="508" filterUnits="userSpaceOnUse" color-interpolation-filters="sRGB">
<feFlood flood-opacity="0" result="BackgroundImageFix"></feFlood>
<feColorMatrix in="SourceAlpha" type="matrix" values="0 0 0 0 0 0 0 0 0 0 0 0 0 0 0 0 0 0 127 0"></feColorMatrix>
<feOffset dy="4"></feOffset>
<feGaussianBlur stdDeviation="2"></feGaussianBlur>
<feColorMatrix type="matrix" values="0 0 0 0 0 0 0 0 0 0 0 0 0 0 0 0 0 0 0.25 0"></feColorMatrix>
<feBlend mode="normal" in2="BackgroundImageFix" result="effect1_dropShadow"></feBlend>
<feBlend mode="normal" in="SourceGraphic" in2="effect1_dropShadow" result="shape"></feBlend>
</filter>
<filter id="filter2_d" x="751" y="33" width="253.822" height="508" filterUnits="userSpaceOnUse" color-interpolation-filters="sRGB">
<feFlood flood-opacity="0" result="BackgroundImageFix"></feFlood>
<feColorMatrix in="SourceAlpha" type="matrix" values="0 0 0 0 0 0 0 0 0 0 0 0 0 0 0 0 0 0 127 0"></feColorMatrix>
<feOffset dy="4"></feOffset>
<feGaussianBlur stdDeviation="2"></feGaussianBlur>
<feColorMatrix type="matrix" values="0 0 0 0 0 0 0 0 0 0 0 0 0 0 0 0 0 0 0.25 0"></feColorMatrix>
<feBlend mode="normal" in2="BackgroundImageFix" result="effect1_dropShadow"></feBlend>
<feBlend mode="normal" in="SourceGraphic" in2="effect1_dropShadow" result="shape"></feBlend>
</filter>
<filter id="filter3_d" x="195" y="33" width="253.822" height="508" filterUnits="userSpaceOnUse" color-interpolation-filters="sRGB">
<feFlood flood-opacity="0" result="BackgroundImageFix"></feFlood>
<feColorMatrix in="SourceAlpha" type="matrix" values="0 0 0 0 0 0 0 0 0 0 0 0 0 0 0 0 0 0 127 0"></feColorMatrix>
<feOffset dy="4"></feOffset>
<feGaussianBlur stdDeviation="2"></feGaussianBlur>
<feColorMatrix type="matrix" values="0 0 0 0 0 0 0 0 0 0 0 0 0 0 0 0 0 0 0.25 0"></feColorMatrix>
<feBlend mode="normal" in2="BackgroundImageFix" result="effect1_dropShadow"></feBlend>
<feBlend mode="normal" in="SourceGraphic" in2="effect1_dropShadow" result="shape"></feBlend>
</filter>
<clipPath id="clip0">
<rect width="1002" height="545" fill="white"></rect>
</clipPath>
<clipPath id="clip1">
<rect width="800" height="509.633" fill="white" transform="translate(1)"></rect>
</clipPath>
<clipPath id="clip2">
<rect width="48.4438" height="29.47" fill="white" transform="translate(15 17)"></rect>
</clipPath>
<clipPath id="clip3">
<rect width="245.822" height="500" fill="white" transform="translate(477 32)"></rect>
</clipPath>
<clipPath id="clip4">
<rect width="32" height="19.4667" fill="white" transform="translate(504 69)"></rect>
</clipPath>
<clipPath id="clip5">
<rect width="245.822" height="500" fill="white" transform="translate(755 33)"></rect>
</clipPath>
<clipPath id="clip6">
<rect width="32" height="19.4667" fill="white" transform="translate(782 70)"></rect>
</clipPath>
<clipPath id="clip7">
<rect width="245.822" height="500" fill="white" transform="translate(199 33)"></rect>
</clipPath>
<clipPath id="clip8">
<rect width="32" height="19.4667" fill="white" transform="translate(226 70)"></rect>
</clipPath>
<clipPath id="clip9">
<rect width="128" height="128.615" fill="white" transform="translate(259 351)"></rect>
</clipPath>
<clipPath id="clip10">
<rect width="128" height="128.615" fill="white" transform="translate(536 351)"></rect>
</clipPath>
<clipPath id="clip11">
<rect width="128" height="128.615" fill="white" transform="translate(815 351)"></rect>
</clipPath>
</defs>
</svg>