<svg width="218" height="239" viewBox="0 0 218 239" fill="none" xmlns="http://www.w3.org/2000/svg">
<ellipse cx="108.966" cy="111" rx="108.966" ry="111" fill="#EEF0FE"/>
<ellipse cx="109.351" cy="111" rx="88.3508" ry="90" fill="#E6E8FB"/>
<path d="M143.138 74.5173C141.424 74.5173 140.034 75.907 140.034 77.6209V111.759H146.241V77.6209C146.241 75.9066 144.852 74.5173 143.138 74.5173Z" fill="#AFB9D2"/>
<path d="M155.552 86.931C153.838 86.931 152.448 88.3207 152.448 90.0346V124.172H158.655V90.0346C158.655 88.3207 157.266 86.931 155.552 86.931Z" fill="#AFB9D2"/>
<path d="M133.828 105.552H174.173C175.886 105.552 177.276 106.942 177.276 108.655V235.897H133.828V105.552Z" fill="#C7CFE2"/>
<path d="M177.276 223.483H133.828V235.896H177.276V223.483Z" fill="#AFB9D2"/>
<path d="M177.276 211.069H130.724V217.276H177.276V211.069Z" fill="#AFB9D2"/>
<path d="M171.069 211.069H164.862V217.276H171.069V211.069Z" fill="#8F96AC"/>
<path d="M146.241 211.069H140.035V217.276H146.241V211.069Z" fill="#8F96AC"/>
<path d="M158.655 211.069H152.448V217.276H158.655V211.069Z" fill="#8F96AC"/>
<path d="M177.276 198.655H130.724V204.862H177.276V198.655Z" fill="#AFB9D2"/>
<path d="M171.069 198.655H164.862V204.862H171.069V198.655Z" fill="#8F96AC"/>
<path d="M146.241 198.655H140.035V204.862H146.241V198.655Z" fill="#8F96AC"/>
<path d="M158.655 198.655H152.448V204.862H158.655V198.655Z" fill="#8F96AC"/>
<path d="M177.276 186.241H130.724V192.448H177.276V186.241Z" fill="#AFB9D2"/>
<path d="M171.069 186.241H164.862V192.448H171.069V186.241Z" fill="#8F96AC"/>
<path d="M146.241 186.241H140.035V192.448H146.241V186.241Z" fill="#8F96AC"/>
<path d="M158.655 186.241H152.448V192.448H158.655V186.241Z" fill="#8F96AC"/>
<path d="M177.276 173.828H130.724V180.035H177.276V173.828Z" fill="#AFB9D2"/>
<path d="M171.069 173.828H164.862V180.035H171.069V173.828Z" fill="#8F96AC"/>
<path d="M146.241 173.828H140.035V180.035H146.241V173.828Z" fill="#8F96AC"/>
<path d="M158.655 173.828H152.448V180.035H158.655V173.828Z" fill="#8F96AC"/>
<path d="M177.276 161.414H130.724V167.621H177.276V161.414Z" fill="#AFB9D2"/>
<path d="M171.069 161.414H164.862V167.621H171.069V161.414Z" fill="#8F96AC"/>
<path d="M146.241 161.414H140.035V167.621H146.241V161.414Z" fill="#8F96AC"/>
<path d="M158.655 161.414H152.448V167.621H158.655V161.414Z" fill="#8F96AC"/>
<path d="M177.276 149H130.724V155.207H177.276V149Z" fill="#AFB9D2"/>
<path d="M171.069 149H164.862V155.207H171.069V149Z" fill="#8F96AC"/>
<path d="M146.241 149H140.035V155.207H146.241V149Z" fill="#8F96AC"/>
<path d="M158.655 149H152.448V155.207H158.655V149Z" fill="#8F96AC"/>
<path d="M177.276 136.586H130.724V142.793H177.276V136.586Z" fill="#AFB9D2"/>
<path d="M171.069 136.586H164.862V142.793H171.069V136.586Z" fill="#8F96AC"/>
<path d="M146.241 136.586H140.035V142.793H146.241V136.586Z" fill="#8F96AC"/>
<path d="M158.655 136.586H152.448V142.793H158.655V136.586Z" fill="#8F96AC"/>
<path d="M177.276 124.172H130.724V130.379H177.276V124.172Z" fill="#AFB9D2"/>
<path d="M171.069 124.172H164.862V130.379H171.069V124.172Z" fill="#8F96AC"/>
<path d="M146.241 124.172H140.035V130.379H146.241V124.172Z" fill="#8F96AC"/>
<path d="M158.655 124.172H152.448V130.379H158.655V124.172Z" fill="#8F96AC"/>
<path d="M177.276 111.759H130.724V117.965H177.276V111.759Z" fill="#AFB9D2"/>
<path d="M171.069 111.759H164.862V117.965H171.069V111.759Z" fill="#8F96AC"/>
<path d="M146.241 111.759H140.035V117.965H146.241V111.759Z" fill="#8F96AC"/>
<path d="M158.655 111.759H152.448V117.965H158.655V111.759Z" fill="#8F96AC"/>
<path d="M133.828 235.896H40.7241V62.1036C40.7241 60.3897 42.1138 59 43.8277 59H130.724C132.438 59 133.828 60.3897 133.828 62.1036V235.896Z" fill="#AFB9D2"/>
<path d="M50.0345 204.862C48.3206 204.862 46.9309 203.473 46.9309 201.759V77.6209C46.9309 75.907 48.3206 74.5173 50.0345 74.5173C51.7484 74.5173 53.1381 75.907 53.1381 77.6209V201.759C53.1377 203.473 51.7484 204.862 50.0345 204.862Z" fill="#8F96AC"/>
<path d="M133.828 211.069H40.7241V235.897H133.828V211.069Z" fill="#9FA7BF"/>
<path d="M53.1377 232.793V220.379C53.1377 218.666 51.748 217.276 50.0341 217.276C48.3203 217.276 46.9305 218.666 46.9305 220.379V232.793H53.1377Z" fill="#707487"/>
<path d="M62.4482 204.862C60.7343 204.862 59.3446 203.473 59.3446 201.759V77.6209C59.3446 75.907 60.7343 74.5173 62.4482 74.5173C64.1621 74.5173 65.5518 75.907 65.5518 77.6209V201.759C65.5518 203.473 64.1621 204.862 62.4482 204.862Z" fill="#8F96AC"/>
<path d="M65.5518 232.793V220.379C65.5518 218.666 64.1621 217.276 62.4482 217.276C60.7343 217.276 59.3446 218.666 59.3446 220.379V232.793H65.5518Z" fill="#707487"/>
<path d="M74.8623 204.862C73.1484 204.862 71.7587 203.473 71.7587 201.759V77.6209C71.7587 75.907 73.1484 74.5173 74.8623 74.5173C76.5761 74.5173 77.9659 75.907 77.9659 77.6209V201.759C77.9655 203.473 76.5761 204.862 74.8623 204.862Z" fill="#8F96AC"/>
<path d="M77.9655 232.793V220.379C77.9655 218.666 76.5758 217.276 74.8619 217.276C73.148 217.276 71.7583 218.666 71.7583 220.379V232.793H77.9655Z" fill="#707487"/>
<path d="M87.276 204.862C85.5621 204.862 84.1724 203.473 84.1724 201.759V77.6209C84.1724 75.907 85.5621 74.5173 87.276 74.5173C88.9898 74.5173 90.3796 75.907 90.3796 77.6209V201.759C90.3792 203.473 88.9898 204.862 87.276 204.862Z" fill="#8F96AC"/>
<path d="M90.3792 232.793V220.379C90.3792 218.666 88.9895 217.276 87.2756 217.276C85.5617 217.276 84.172 218.666 84.172 220.379V232.793H90.3792Z" fill="#707487"/>
<path d="M99.6895 204.862C97.9757 204.862 96.5859 203.473 96.5859 201.759V77.6209C96.5859 75.907 97.9757 74.5173 99.6895 74.5173C101.403 74.5173 102.793 75.907 102.793 77.6209V201.759C102.793 203.473 101.403 204.862 99.6895 204.862Z" fill="#8F96AC"/>
<path d="M102.793 232.793V220.379C102.793 218.666 101.403 217.276 99.6895 217.276C97.9757 217.276 96.5859 218.666 96.5859 220.379V232.793H102.793Z" fill="#707487"/>
<path d="M112.104 204.862C110.39 204.862 109 203.473 109 201.759V77.6209C109 75.907 110.39 74.5173 112.104 74.5173C113.817 74.5173 115.207 75.907 115.207 77.6209V201.759C115.207 203.473 113.817 204.862 112.104 204.862Z" fill="#8F96AC"/>
<path d="M115.207 232.793V220.379C115.207 218.666 113.817 217.276 112.103 217.276C110.389 217.276 109 218.665 109 220.379V232.793H115.207V232.793Z" fill="#707487"/>
<path d="M124.517 204.862C122.803 204.862 121.414 203.473 121.414 201.759V77.6209C121.414 75.907 122.803 74.5173 124.517 74.5173C126.231 74.5173 127.621 75.907 127.621 77.6209V201.759C127.621 203.473 126.231 204.862 124.517 204.862Z" fill="#8F96AC"/>
<path d="M127.621 232.793V220.379C127.621 218.666 126.231 217.276 124.517 217.276C122.803 217.276 121.414 218.666 121.414 220.379V232.793H127.621Z" fill="#707487"/>
<path d="M53.1377 192.448H46.9309V198.655H53.1377V192.448Z" fill="#707487"/>
<path d="M65.5518 192.448H59.345V198.655H65.5518V192.448Z" fill="#707487"/>
<path d="M77.9654 192.448H71.7585V198.655H77.9654V192.448Z" fill="#707487"/>
<path d="M90.3791 192.448H84.1722V198.655H90.3791V192.448Z" fill="#707487"/>
<path d="M102.793 192.448H96.5863V198.655H102.793V192.448Z" fill="#707487"/>
<path d="M115.207 192.448H109V198.655H115.207V192.448Z" fill="#707487"/>
<path d="M127.62 192.448H121.414V198.655H127.62V192.448Z" fill="#707487"/>
<path d="M53.1377 173.828H46.9309V180.035H53.1377V173.828Z" fill="#707487"/>
<path d="M65.5518 173.828H59.345V180.035H65.5518V173.828Z" fill="#707487"/>
<path d="M77.9654 173.828H71.7585V180.035H77.9654V173.828Z" fill="#707487"/>
<path d="M90.3791 173.828H84.1722V180.035H90.3791V173.828Z" fill="#707487"/>
<path d="M102.793 173.828H96.5863V180.035H102.793V173.828Z" fill="#707487"/>
<path d="M115.207 173.828H109V180.035H115.207V173.828Z" fill="#707487"/>
<path d="M127.62 173.828H121.414V180.035H127.62V173.828Z" fill="#707487"/>
<path d="M53.1377 155.207H46.9309V161.414H53.1377V155.207Z" fill="#707487"/>
<path d="M65.5518 155.207H59.345V161.414H65.5518V155.207Z" fill="#707487"/>
<path d="M77.9654 155.207H71.7585V161.414H77.9654V155.207Z" fill="#707487"/>
<path d="M90.3791 155.207H84.1722V161.414H90.3791V155.207Z" fill="#707487"/>
<path d="M102.793 155.207H96.5863V161.414H102.793V155.207Z" fill="#707487"/>
<path d="M115.207 155.207H109V161.414H115.207V155.207Z" fill="#707487"/>
<path d="M127.62 155.207H121.414V161.414H127.62V155.207Z" fill="#707487"/>
<path d="M53.1377 136.586H46.9309V142.793H53.1377V136.586Z" fill="#707487"/>
<path d="M65.5518 136.586H59.345V142.793H65.5518V136.586Z" fill="#707487"/>
<path d="M77.9654 136.586H71.7585V142.793H77.9654V136.586Z" fill="#707487"/>
<path d="M90.3791 136.586H84.1722V142.793H90.3791V136.586Z" fill="#707487"/>
<path d="M102.793 136.586H96.5863V142.793H102.793V136.586Z" fill="#707487"/>
<path d="M115.207 136.586H109V142.793H115.207V136.586Z" fill="#707487"/>
<path d="M127.62 136.586H121.414V142.793H127.62V136.586Z" fill="#707487"/>
<path d="M53.1377 117.965H46.9309V124.172H53.1377V117.965Z" fill="#707487"/>
<path d="M65.5518 117.965H59.345V124.172H65.5518V117.965Z" fill="#707487"/>
<path d="M77.9654 117.965H71.7585V124.172H77.9654V117.965Z" fill="#707487"/>
<path d="M90.3791 117.965H84.1722V124.172H90.3791V117.965Z" fill="#707487"/>
<path d="M102.793 117.965H96.5863V124.172H102.793V117.965Z" fill="#707487"/>
<path d="M115.207 117.965H109V124.172H115.207V117.965Z" fill="#707487"/>
<path d="M127.62 117.965H121.414V124.172H127.62V117.965Z" fill="#707487"/>
<path d="M53.1377 99.345H46.9309V105.552H53.1377V99.345Z" fill="#707487"/>
<path d="M65.5518 99.345H59.345V105.552H65.5518V99.345Z" fill="#707487"/>
<path d="M77.9654 99.345H71.7585V105.552H77.9654V99.345Z" fill="#707487"/>
<path d="M90.3791 99.345H84.1722V105.552H90.3791V99.345Z" fill="#707487"/>
<path d="M102.793 99.345H96.5863V105.552H102.793V99.345Z" fill="#707487"/>
<path d="M115.207 99.345H109V105.552H115.207V99.345Z" fill="#707487"/>
<path d="M127.62 99.345H121.414V105.552H127.62V99.345Z" fill="#707487"/>
<path d="M53.1377 80.7241H46.9309V86.931H53.1377V80.7241Z" fill="#707487"/>
<path d="M65.5518 80.7241H59.345V86.931H65.5518V80.7241Z" fill="#707487"/>
<path d="M77.9654 80.7241H71.7585V86.931H77.9654V80.7241Z" fill="#707487"/>
<path d="M90.3791 80.7241H84.1722V86.931H90.3791V80.7241Z" fill="#707487"/>
<path d="M102.793 80.7241H96.5863V86.931H102.793V80.7241Z" fill="#707487"/>
<path d="M115.207 80.7241H109V86.931H115.207V80.7241Z" fill="#707487"/>
<path d="M127.62 80.7241H121.414V86.931H127.62V80.7241Z" fill="#707487"/>
<path d="M133.828 68.3104H40.724V62.1036C40.724 60.3897 42.1137 59 43.8276 59H130.724C132.438 59 133.828 60.3897 133.828 62.1036V68.3104Z" fill="#8F96AC"/>
<path d="M180.379 239H37.6208C35.9069 239 34.5172 237.61 34.5172 235.896C34.5172 234.183 35.9069 232.793 37.6208 232.793H180.379C182.093 232.793 183.483 234.183 183.483 235.896C183.483 237.61 182.093 239 180.379 239Z" fill="#8F96AC"/>
<g clip-path="url(#clip0)">
<path d="M89.6113 36.1195C88.301 36.1195 87.2346 35.0535 87.2346 33.7428V22.3529C87.2346 21.9585 87.5547 21.6384 87.9495 21.6384C88.3439 21.6384 88.6639 21.9585 88.6639 22.3529V33.7428C88.6639 34.2654 89.0887 34.6902 89.6113 34.6902C90.1339 34.6902 90.5591 34.2654 90.5591 33.7428C90.5591 33.348 90.8792 33.0283 91.2736 33.0283C91.6683 33.0283 91.988 33.348 91.988 33.7428C91.988 35.0535 90.922 36.1195 89.6113 36.1195Z" fill="#BBB0BA"/>
<path d="M90.0548 30.8223C90.0548 31.9854 89.1122 32.928 87.9495 32.928C86.7864 32.928 85.8438 31.9854 85.8438 30.8223C85.8438 29.6595 86.7864 28.7169 87.9495 28.7169C89.1122 28.7169 90.0548 29.6595 90.0548 30.8223Z" fill="#FF6930"/>
<path d="M88.5222 28.7964C88.7086 29.1106 88.8163 29.4775 88.8163 29.8698C88.8163 31.0325 87.8737 31.9751 86.7106 31.9751C86.5121 31.9751 86.3202 31.9469 86.1378 31.8956C86.5048 32.5134 87.1786 32.928 87.9495 32.928C89.1122 32.928 90.0548 31.9854 90.0548 30.8223C90.0548 29.858 89.4066 29.0461 88.5222 28.7964Z" fill="#FF5426"/>
<path d="M131.478 15.2122H117.351V11.7145C117.351 11.3197 117.031 11 116.637 11H110.211C110.201 11 110.191 11.0011 110.181 11.0015C110.051 10.9974 109.919 11.0282 109.802 11.0959C109.58 11.2234 109.444 11.4592 109.444 11.7145V15.2122H91.6596C91.4043 15.2122 91.1685 15.3484 91.0407 15.5696L87.3306 21.9958C87.2028 22.2167 87.2028 22.4891 87.3306 22.7103C87.458 22.9315 87.6939 23.0677 87.9491 23.0677H109.444L109.496 52.744C109.496 53.1388 109.816 53.4585 110.211 53.4585H116.637C117.031 53.4585 117.351 53.1388 117.351 52.744V23.0674H131.478C131.868 23.0674 132.193 22.7407 132.193 22.3529V15.9266C132.192 15.5319 131.872 15.2122 131.478 15.2122ZM89.1869 21.6384L91.6596 17.3556L94.1322 21.6384H89.1869ZM92.897 16.6411H97.8423L95.3697 20.924L92.897 16.6411ZM96.6071 21.6384L99.0797 17.3556L101.552 21.6384H96.6071ZM100.318 16.6411H105.263L102.79 20.924L100.318 16.6411ZM104.028 21.6384L106.501 17.3556L108.973 21.6384H104.028ZM109.445 19.5968L107.738 16.6411H109.445V19.5968ZM110.925 37.0969L115.156 39.5399L110.925 41.9825V37.0969ZM110.925 44.5175L115.156 46.9601L110.925 49.4031V44.5175ZM111.588 43.25L115.923 40.7477V45.7523L111.588 43.25ZM115.923 21.6373L111.588 19.135L115.908 16.6411H115.922V21.6373H115.923ZM115.923 12.429V14.2168L112.826 12.429H115.923ZM110.925 12.9819L114.788 15.2122H110.925V12.9819ZM110.925 16.6411H113.049L110.925 17.8676V16.6411ZM110.925 20.4025L113.066 21.6384H110.925V20.4025ZM110.925 23.0674H114.771L110.925 25.2881V23.0674ZM115.923 24.0532V38.3322L110.925 35.4471V26.9382L115.923 24.0532ZM110.925 52.0295V51.0532L115.922 48.1682V52.0295H110.925ZM117.351 16.6411H119.11L117.351 19.6865V16.6411ZM117.874 21.6384L120.347 17.3556L122.82 21.6384H117.874ZM121.585 16.6411H126.53L124.057 20.924L121.585 16.6411ZM125.295 21.6384L127.768 17.3556L130.24 21.6384H125.295ZM130.763 19.6862L129.005 16.6411H130.763V19.6862Z" fill="#E9B900"/>
<path d="M124.122 59H121.486C121.214 59 120.994 58.7795 120.994 58.5078V56.6903C120.994 56.134 120.543 55.6829 119.986 55.6829H106.758C106.202 55.6829 105.751 56.134 105.751 56.6903V58.5078C105.751 58.7795 105.53 59 105.258 59H102.622C102.351 59 102.13 58.7795 102.13 58.5078V56.6903C102.13 54.1345 104.202 52.0625 106.758 52.0625H119.986C122.542 52.0625 124.614 54.1345 124.614 56.6907V58.5078C124.614 58.7795 124.393 59 124.122 59Z" fill="#FBC700"/>
<path d="M121.119 52.2028C122.364 53.0322 123.185 54.4484 123.185 56.0564V57.8739C123.185 58.1456 122.964 58.3661 122.693 58.3661H120.994V58.5074C120.994 58.7795 121.214 58.9996 121.486 58.9996H124.122C124.393 58.9996 124.614 58.7795 124.614 58.5074V56.6903C124.614 54.5256 123.127 52.7085 121.119 52.2028Z" fill="#E9B900"/>
<path d="M117.708 34.5474H109.036C108.247 34.5474 107.607 33.9076 107.607 33.1184V26.1637C107.607 25.3745 108.247 24.7347 109.036 24.7347H117.708C118.497 24.7347 119.137 25.3745 119.137 26.1637V33.1184C119.137 33.9076 118.497 34.5474 117.708 34.5474Z" fill="#FF6930"/>
<path d="M117.708 24.7347H115.976V31.0226C115.976 31.8118 115.336 32.4515 114.547 32.4515H107.607V33.1184C107.607 33.9076 108.247 34.5474 109.036 34.5474H117.708C118.497 34.5474 119.137 33.9076 119.137 33.1184V26.1637C119.137 25.3745 118.497 24.7347 117.708 24.7347Z" fill="#FF5426"/>
<path d="M116.421 56.65H110.323C109.534 56.65 108.895 56.0103 108.895 55.2211V52.5243C108.895 51.7351 109.534 51.0953 110.323 51.0953H116.421C117.21 51.0953 117.85 51.7351 117.85 52.5243V55.2211C117.85 56.0103 117.21 56.65 116.421 56.65Z" fill="#FF6930"/>
<path d="M116.421 51.095H116.135V53.4427C116.135 54.2319 115.495 54.8717 114.706 54.8717H108.894V55.2211C108.894 56.0103 109.534 56.65 110.323 56.65H116.421C117.21 56.65 117.849 56.0103 117.849 55.2211V52.5243C117.85 51.7351 117.21 51.095 116.421 51.095Z" fill="#FF5426"/>
<path d="M112.205 26.7354H107.607V30.8318H112.205C112.428 30.8318 112.61 30.6505 112.61 30.4271V27.1404C112.61 26.9166 112.428 26.7354 112.205 26.7354Z" fill="#B4CFED"/>
<path d="M112.205 26.7354H111.098C111.322 26.7354 111.503 26.9166 111.503 27.1404V30.4271C111.503 30.6505 111.322 30.8318 111.098 30.8318H112.205C112.428 30.8318 112.61 30.6505 112.61 30.4271V27.1404C112.61 26.9166 112.428 26.7354 112.205 26.7354Z" fill="#7CADE0"/>
</g>
<defs>
<clipPath id="clip0">
<rect width="48" height="48" fill="white" transform="translate(85 11)"/>
</clipPath>
</defs>
</svg>
