<svg width="614" height="392" viewBox="0 0 614 392" fill="none" xmlns="http://www.w3.org/2000/svg">
<path d="M569.979 223.249C569.979 222.835 570.315 222.499 570.729 222.499H573.908C574.323 222.499 574.658 222.835 574.658 223.249C574.658 223.664 574.323 223.999 573.908 223.999H570.729C570.315 223.999 569.979 223.664 569.979 223.249Z" fill="#28528C"/>
<path d="M577.583 223.249C577.583 222.835 577.918 222.499 578.333 222.499H581.512C581.926 222.499 582.262 222.835 582.262 223.249C582.262 223.664 581.926 223.999 581.512 223.999H578.333C577.918 223.999 577.583 223.664 577.583 223.249Z" fill="#28528C"/>
<rect x="575.243" y="222" width="4.00009" height="1.75474" rx="0.87737" transform="rotate(-90 575.243 222)" fill="#28528C"/>
<path d="M585.686 316.249C585.686 315.835 586.022 315.499 586.436 315.499H589.615C590.029 315.499 590.365 315.835 590.365 316.249C590.365 316.664 590.029 316.999 589.615 316.999H586.436C586.022 316.999 585.686 316.664 585.686 316.249Z" fill="#28528C"/>
<path d="M593.289 316.249C593.289 315.835 593.625 315.499 594.039 315.499H597.219C597.633 315.499 597.969 315.835 597.969 316.249C597.969 316.664 597.633 316.999 597.219 316.999H594.039C593.625 316.999 593.289 316.664 593.289 316.249Z" fill="#28528C"/>
<rect x="590.95" y="315" width="4.00009" height="1.75474" rx="0.87737" transform="rotate(-90 590.95 315)" fill="#28528C"/>
<path d="M301 313.499C301 312.67 301.672 311.999 302.5 311.999H308.859C309.687 311.999 310.359 312.67 310.359 313.499C310.359 314.327 309.687 314.999 308.859 314.999H302.5C301.672 314.999 301 314.327 301 313.499Z" fill="#28528C"/>
<path d="M316.207 313.499C316.207 312.67 316.879 311.999 317.707 311.999H324.066C324.894 311.999 325.566 312.67 325.566 313.499C325.566 314.327 324.894 314.999 324.066 314.999H317.707C316.879 314.999 316.207 314.327 316.207 313.499Z" fill="#28528C"/>
<rect x="311.529" y="311" width="8.00018" height="3.50948" rx="1.75474" transform="rotate(-90 311.529 311)" fill="#28528C"/>
<rect x="311.529" y="323" width="8.00018" height="3.50948" rx="1.75474" transform="rotate(-90 311.529 323)" fill="#28528C"/>
<path d="M576.851 278.499C576.851 277.67 577.522 276.999 578.351 276.999H584.709C585.538 276.999 586.209 277.67 586.209 278.499C586.209 279.327 585.538 279.999 584.709 279.999H578.351C577.522 279.999 576.851 279.327 576.851 278.499Z" fill="#28528C"/>
<path d="M592.058 278.499C592.058 277.67 592.729 276.999 593.558 276.999H599.916C600.745 276.999 601.416 277.67 601.416 278.499C601.416 279.327 600.745 279.999 599.916 279.999H593.558C592.729 279.999 592.058 279.327 592.058 278.499Z" fill="#28528C"/>
<rect x="587.38" y="276" width="8.00018" height="3.50948" rx="1.75474" transform="rotate(-90 587.38 276)" fill="#28528C"/>
<rect x="587.38" y="288" width="8.00018" height="3.50948" rx="1.75474" transform="rotate(-90 587.38 288)" fill="#28528C"/>
<path d="M309.23 269.731C309.23 269.317 309.566 268.981 309.98 268.981H313.16C313.574 268.981 313.91 269.317 313.91 269.731C313.91 270.146 313.574 270.481 313.16 270.481H309.98C309.566 270.481 309.23 270.146 309.23 269.731Z" fill="#28528C"/>
<path d="M316.834 269.731C316.834 269.317 317.17 268.981 317.584 268.981H320.763C321.177 268.981 321.513 269.317 321.513 269.731C321.513 270.146 321.177 270.481 320.763 270.481H317.584C317.17 270.481 316.834 270.146 316.834 269.731Z" fill="#28528C"/>
<rect x="314.495" y="268.482" width="4.00009" height="1.75474" rx="0.87737" transform="rotate(-90 314.495 268.482)" fill="#28528C"/>
<rect x="314.495" y="274.482" width="4.00009" height="1.75474" rx="0.87737" transform="rotate(-90 314.495 274.482)" fill="#28528C"/>
<path d="M483.592 132.496C483.592 132.063 483.943 131.711 484.377 131.711H487.706C488.139 131.711 488.491 132.063 488.491 132.496C488.491 132.93 488.139 133.282 487.706 133.282H484.377C483.943 133.282 483.592 132.93 483.592 132.496Z" fill="#28528C"/>
<path d="M491.553 132.496C491.553 132.063 491.904 131.711 492.338 131.711H495.667C496.101 131.711 496.452 132.063 496.452 132.496C496.452 132.93 496.101 133.282 495.667 133.282H492.338C491.904 133.282 491.553 132.93 491.553 132.496Z" fill="#28528C"/>
<rect x="489.104" y="131.188" width="4.18833" height="1.83727" rx="0.918635" transform="rotate(-90 489.104 131.188)" fill="#28528C"/>
<rect x="489.104" y="137.471" width="4.18833" height="1.83727" rx="0.918635" transform="rotate(-90 489.104 137.471)" fill="#28528C"/>
<path d="M356.966 199.283C356.966 198.85 357.318 198.498 357.751 198.498H361.08C361.514 198.498 361.865 198.85 361.865 199.283C361.865 199.717 361.514 200.069 361.08 200.069H357.751C357.318 200.069 356.966 199.717 356.966 199.283Z" fill="#28528C"/>
<rect x="354.517" y="197.975" width="4.18833" height="1.83727" rx="0.918635" transform="rotate(-90 354.517 197.975)" fill="#28528C"/>
<rect x="354.517" y="204.257" width="4.18833" height="1.83727" rx="0.918635" transform="rotate(-90 354.517 204.257)" fill="#28528C"/>
<path d="M561.687 349.733C561.687 349.3 562.039 348.948 562.473 348.948H565.801C566.235 348.948 566.587 349.3 566.587 349.733C566.587 350.167 566.235 350.519 565.801 350.519H562.473C562.039 350.519 561.687 350.167 561.687 349.733Z" fill="#28528C"/>
<path d="M569.648 349.733C569.648 349.3 570 348.948 570.434 348.948H573.763C574.196 348.948 574.548 349.3 574.548 349.733C574.548 350.167 574.196 350.519 573.763 350.519H570.434C570 350.519 569.648 350.167 569.648 349.733Z" fill="#28528C"/>
<rect x="567.199" y="348.425" width="4.18833" height="1.83727" rx="0.918635" transform="rotate(-90 567.199 348.425)" fill="#28528C"/>
<path d="M582.198 142.801C582.198 142.092 582.773 141.516 583.483 141.516H588.485C589.194 141.516 589.77 142.092 589.77 142.801C589.77 143.511 589.194 144.086 588.485 144.086H583.483C582.773 144.086 582.198 143.511 582.198 142.801Z" fill="#28528C"/>
<path d="M594.502 142.801C594.502 142.092 595.077 141.516 595.787 141.516H600.789C601.498 141.516 602.074 142.092 602.074 142.801C602.074 143.511 601.498 144.086 600.789 144.086H595.787C595.077 144.086 594.502 143.511 594.502 142.801Z" fill="#28528C"/>
<rect x="590.717" y="150.941" width="6.8537" height="2.8395" rx="1.41975" transform="rotate(-90 590.717 150.941)" fill="#28528C"/>
<path d="M345.31 136.738C345.31 136.364 345.613 136.061 345.986 136.061H348.621C348.995 136.061 349.298 136.364 349.298 136.738C349.298 137.111 348.995 137.415 348.621 137.415H345.986C345.613 137.415 345.31 137.111 345.31 136.738Z" fill="#28528C"/>
<path d="M351.791 136.738C351.791 136.364 352.094 136.061 352.467 136.061H355.102C355.476 136.061 355.779 136.364 355.779 136.738C355.779 137.111 355.476 137.415 355.102 137.415H352.467C352.094 137.415 351.791 137.111 351.791 136.738Z" fill="#28528C"/>
<rect x="349.797" y="135.61" width="3.61012" height="1.49568" rx="0.74784" transform="rotate(-90 349.797 135.61)" fill="#28528C"/>
<rect x="349.797" y="141.025" width="3.61012" height="1.49568" rx="0.74784" transform="rotate(-90 349.797 141.025)" fill="#28528C"/>
<path d="M308.988 4.73763C308.988 4.36379 309.291 4.06073 309.665 4.06073H312.299C312.673 4.06073 312.976 4.36379 312.976 4.73763C312.976 5.11147 312.673 5.41453 312.299 5.41453H309.665C309.291 5.41453 308.988 5.11147 308.988 4.73763Z" fill="#28528C"/>
<path d="M315.469 4.73763C315.469 4.36379 315.772 4.06073 316.146 4.06073H318.78C319.154 4.06073 319.457 4.36379 319.457 4.73763C319.457 5.11147 319.154 5.41453 318.78 5.41453H316.146C315.772 5.41453 315.469 5.11147 315.469 4.73763Z" fill="#28528C"/>
<rect x="313.475" y="3.61011" width="3.61012" height="1.49568" rx="0.74784" transform="rotate(-90 313.475 3.61011)" fill="#28528C"/>
<rect x="313.475" y="9.02509" width="3.61012" height="1.49568" rx="0.74784" transform="rotate(-90 313.475 9.02509)" fill="#28528C"/>
<path d="M574.04 21.7376C574.04 21.3638 574.343 21.0607 574.717 21.0607H577.352C577.725 21.0607 578.029 21.3638 578.029 21.7376C578.029 22.1115 577.725 22.4145 577.352 22.4145H574.717C574.343 22.4145 574.04 22.1115 574.04 21.7376Z" fill="#28528C"/>
<path d="M580.521 21.7376C580.521 21.3638 580.824 21.0607 581.198 21.0607H583.833C584.206 21.0607 584.509 21.3638 584.509 21.7376C584.509 22.1115 584.206 22.4145 583.833 22.4145H581.198C580.824 22.4145 580.521 22.1115 580.521 21.7376Z" fill="#28528C"/>
<rect x="578.527" y="20.6101" width="3.61012" height="1.49568" rx="0.74784" transform="rotate(-90 578.527 20.6101)" fill="#28528C"/>
<rect x="578.527" y="26.0251" width="3.61012" height="1.49568" rx="0.74784" transform="rotate(-90 578.527 26.0251)" fill="#28528C"/>
<path d="M600.411 177.496C600.411 177.063 600.763 176.711 601.196 176.711H604.525C604.959 176.711 605.31 177.063 605.31 177.496C605.31 177.93 604.959 178.282 604.525 178.282H601.196C600.763 178.282 600.411 177.93 600.411 177.496Z" fill="#28528C"/>
<path d="M608.372 177.496C608.372 177.063 608.724 176.711 609.158 176.711H612.486C612.92 176.711 613.272 177.063 613.272 177.496C613.272 177.93 612.92 178.282 612.486 178.282H609.158C608.724 178.282 608.372 177.93 608.372 177.496Z" fill="#28528C"/>
<rect x="605.923" y="176.188" width="4.18833" height="1.83727" rx="0.918635" transform="rotate(-90 605.923 176.188)" fill="#28528C"/>
<rect x="605.923" y="182.471" width="4.18833" height="1.83727" rx="0.918635" transform="rotate(-90 605.923 182.471)" fill="#28528C"/>
<path d="M427.979 264.249C427.979 263.835 428.315 263.499 428.729 263.499H431.908C432.323 263.499 432.658 263.835 432.658 264.249C432.658 264.664 432.323 264.999 431.908 264.999H428.729C428.315 264.999 427.979 264.664 427.979 264.249Z" fill="#28528C"/>
<path d="M435.583 264.249C435.583 263.835 435.918 263.499 436.333 263.499H439.512C439.926 263.499 440.262 263.835 440.262 264.249C440.262 264.664 439.926 264.999 439.512 264.999H436.333C435.918 264.999 435.583 264.664 435.583 264.249Z" fill="#28528C"/>
<rect x="433.243" y="263" width="4.00009" height="1.75474" rx="0.87737" transform="rotate(-90 433.243 263)" fill="#28528C"/>
<path d="M443.686 357.249C443.686 356.835 444.022 356.499 444.436 356.499H447.615C448.029 356.499 448.365 356.835 448.365 357.249C448.365 357.664 448.029 357.999 447.615 357.999H444.436C444.022 357.999 443.686 357.664 443.686 357.249Z" fill="#28528C"/>
<path d="M451.289 357.249C451.289 356.835 451.625 356.499 452.039 356.499H455.219C455.633 356.499 455.969 356.835 455.969 357.249C455.969 357.664 455.633 357.999 455.219 357.999H452.039C451.625 357.999 451.289 357.664 451.289 357.249Z" fill="#28528C"/>
<rect x="448.95" y="356" width="4.00009" height="1.75474" rx="0.87737" transform="rotate(-90 448.95 356)" fill="#28528C"/>
<path d="M159 354.499C159 353.67 159.672 352.999 160.5 352.999H166.859C167.687 352.999 168.359 353.67 168.359 354.499C168.359 355.327 167.687 355.999 166.859 355.999H160.5C159.672 355.999 159 355.327 159 354.499Z" fill="#28528C"/>
<path d="M174.207 354.499C174.207 353.67 174.879 352.999 175.707 352.999H182.066C182.894 352.999 183.566 353.67 183.566 354.499C183.566 355.327 182.894 355.999 182.066 355.999H175.707C174.879 355.999 174.207 355.327 174.207 354.499Z" fill="#28528C"/>
<rect x="169.529" y="352" width="8.00018" height="3.50948" rx="1.75474" transform="rotate(-90 169.529 352)" fill="#28528C"/>
<rect x="169.529" y="364" width="8.00018" height="3.50948" rx="1.75474" transform="rotate(-90 169.529 364)" fill="#28528C"/>
<path d="M434.851 319.499C434.851 318.67 435.522 317.999 436.351 317.999H442.709C443.538 317.999 444.209 318.67 444.209 319.499C444.209 320.327 443.538 320.999 442.709 320.999H436.351C435.522 320.999 434.851 320.327 434.851 319.499Z" fill="#28528C"/>
<path d="M450.058 319.499C450.058 318.67 450.729 317.999 451.558 317.999H457.916C458.745 317.999 459.416 318.67 459.416 319.499C459.416 320.327 458.745 320.999 457.916 320.999H451.558C450.729 320.999 450.058 320.327 450.058 319.499Z" fill="#28528C"/>
<rect x="445.38" y="317" width="8.00018" height="3.50948" rx="1.75474" transform="rotate(-90 445.38 317)" fill="#28528C"/>
<rect x="445.38" y="329" width="8.00018" height="3.50948" rx="1.75474" transform="rotate(-90 445.38 329)" fill="#28528C"/>
<path d="M167.23 310.731C167.23 310.317 167.566 309.981 167.98 309.981H171.16C171.574 309.981 171.91 310.317 171.91 310.731C171.91 311.146 171.574 311.481 171.16 311.481H167.98C167.566 311.481 167.23 311.146 167.23 310.731Z" fill="#28528C"/>
<path d="M174.834 310.731C174.834 310.317 175.17 309.981 175.584 309.981H178.763C179.177 309.981 179.513 310.317 179.513 310.731C179.513 311.146 179.177 311.481 178.763 311.481H175.584C175.17 311.481 174.834 311.146 174.834 310.731Z" fill="#28528C"/>
<rect x="172.495" y="309.482" width="4.00009" height="1.75474" rx="0.87737" transform="rotate(-90 172.495 309.482)" fill="#28528C"/>
<rect x="172.495" y="315.482" width="4.00009" height="1.75474" rx="0.87737" transform="rotate(-90 172.495 315.482)" fill="#28528C"/>
<path d="M214.966 240.283C214.966 239.85 215.318 239.498 215.751 239.498H219.08C219.514 239.498 219.865 239.85 219.865 240.283C219.865 240.717 219.514 241.069 219.08 241.069H215.751C215.318 241.069 214.966 240.717 214.966 240.283Z" fill="#28528C"/>
<rect x="212.517" y="238.975" width="4.18833" height="1.83727" rx="0.918635" transform="rotate(-90 212.517 238.975)" fill="#28528C"/>
<rect x="212.517" y="245.257" width="4.18833" height="1.83727" rx="0.918635" transform="rotate(-90 212.517 245.257)" fill="#28528C"/>
<path d="M419.687 390.733C419.687 390.3 420.039 389.948 420.473 389.948H423.801C424.235 389.948 424.587 390.3 424.587 390.733C424.587 391.167 424.235 391.519 423.801 391.519H420.473C420.039 391.519 419.687 391.167 419.687 390.733Z" fill="#28528C"/>
<path d="M427.648 390.733C427.648 390.3 428 389.948 428.434 389.948H431.763C432.196 389.948 432.548 390.3 432.548 390.733C432.548 391.167 432.196 391.519 431.763 391.519H428.434C428 391.519 427.648 391.167 427.648 390.733Z" fill="#28528C"/>
<rect x="425.199" y="389.425" width="4.18833" height="1.83727" rx="0.918635" transform="rotate(-90 425.199 389.425)" fill="#28528C"/>
<path d="M440.198 183.801C440.198 183.092 440.773 182.516 441.483 182.516H446.485C447.194 182.516 447.77 183.092 447.77 183.801C447.77 184.511 447.194 185.086 446.485 185.086H441.483C440.773 185.086 440.198 184.511 440.198 183.801Z" fill="#28528C"/>
<path d="M452.502 183.801C452.502 183.092 453.077 182.516 453.787 182.516H458.789C459.498 182.516 460.074 183.092 460.074 183.801C460.074 184.511 459.498 185.086 458.789 185.086H453.787C453.077 185.086 452.502 184.511 452.502 183.801Z" fill="#28528C"/>
<rect x="448.717" y="191.941" width="6.8537" height="2.8395" rx="1.41975" transform="rotate(-90 448.717 191.941)" fill="#28528C"/>
<path d="M203.31 177.738C203.31 177.364 203.613 177.061 203.986 177.061H206.621C206.995 177.061 207.298 177.364 207.298 177.738C207.298 178.111 206.995 178.415 206.621 178.415H203.986C203.613 178.415 203.31 178.111 203.31 177.738Z" fill="#28528C"/>
<path d="M209.791 177.738C209.791 177.364 210.094 177.061 210.467 177.061H213.102C213.476 177.061 213.779 177.364 213.779 177.738C213.779 178.111 213.476 178.415 213.102 178.415H210.467C210.094 178.415 209.791 178.111 209.791 177.738Z" fill="#28528C"/>
<rect x="207.797" y="176.61" width="3.61012" height="1.49568" rx="0.74784" transform="rotate(-90 207.797 176.61)" fill="#28528C"/>
<rect x="207.797" y="182.025" width="3.61012" height="1.49568" rx="0.74784" transform="rotate(-90 207.797 182.025)" fill="#28528C"/>
<path d="M166.988 45.7376C166.988 45.3638 167.291 45.0607 167.665 45.0607H170.299C170.673 45.0607 170.976 45.3638 170.976 45.7376C170.976 46.1115 170.673 46.4145 170.299 46.4145H167.665C167.291 46.4145 166.988 46.1115 166.988 45.7376Z" fill="#28528C"/>
<path d="M173.469 45.7376C173.469 45.3638 173.772 45.0607 174.146 45.0607H176.78C177.154 45.0607 177.457 45.3638 177.457 45.7376C177.457 46.1115 177.154 46.4145 176.78 46.4145H174.146C173.772 46.4145 173.469 46.1115 173.469 45.7376Z" fill="#28528C"/>
<rect x="171.475" y="44.6101" width="3.61012" height="1.49568" rx="0.74784" transform="rotate(-90 171.475 44.6101)" fill="#28528C"/>
<rect x="171.475" y="50.0251" width="3.61012" height="1.49568" rx="0.74784" transform="rotate(-90 171.475 50.0251)" fill="#28528C"/>
<path d="M432.04 62.7376C432.04 62.3638 432.343 62.0607 432.717 62.0607H435.352C435.725 62.0607 436.029 62.3638 436.029 62.7376C436.029 63.1115 435.725 63.4145 435.352 63.4145H432.717C432.343 63.4145 432.04 63.1115 432.04 62.7376Z" fill="#28528C"/>
<path d="M438.521 62.7376C438.521 62.3638 438.824 62.0607 439.198 62.0607H441.833C442.206 62.0607 442.509 62.3638 442.509 62.7376C442.509 63.1115 442.206 63.4145 441.833 63.4145H439.198C438.824 63.4145 438.521 63.1115 438.521 62.7376Z" fill="#28528C"/>
<rect x="436.527" y="61.6101" width="3.61012" height="1.49568" rx="0.74784" transform="rotate(-90 436.527 61.6101)" fill="#28528C"/>
<rect x="436.527" y="67.0251" width="3.61012" height="1.49568" rx="0.74784" transform="rotate(-90 436.527 67.0251)" fill="#28528C"/>
<path d="M458.411 218.496C458.411 218.063 458.763 217.711 459.196 217.711H462.525C462.959 217.711 463.31 218.063 463.31 218.496C463.31 218.93 462.959 219.282 462.525 219.282H459.196C458.763 219.282 458.411 218.93 458.411 218.496Z" fill="#28528C"/>
<path d="M466.372 218.496C466.372 218.063 466.724 217.711 467.158 217.711H470.486C470.92 217.711 471.272 218.063 471.272 218.496C471.272 218.93 470.92 219.282 470.486 219.282H467.158C466.724 219.282 466.372 218.93 466.372 218.496Z" fill="#28528C"/>
<rect x="463.923" y="217.188" width="4.18833" height="1.83727" rx="0.918635" transform="rotate(-90 463.923 217.188)" fill="#28528C"/>
<rect x="463.923" y="223.471" width="4.18833" height="1.83727" rx="0.918635" transform="rotate(-90 463.923 223.471)" fill="#28528C"/>
<path d="M161.945 208.499C161.945 207.67 162.617 206.999 163.445 206.999H169.804C170.632 206.999 171.304 207.67 171.304 208.499C171.304 209.327 170.632 209.999 169.804 209.999H163.445C162.617 209.999 161.945 209.327 161.945 208.499Z" fill="#28528C"/>
<rect x="172.474" y="206" width="8.00018" height="3.50948" rx="1.75474" transform="rotate(-90 172.474 206)" fill="#28528C"/>
<rect x="172.474" y="218" width="8.00018" height="3.50948" rx="1.75474" transform="rotate(-90 172.474 218)" fill="#28528C"/>
<path d="M268.979 253.249C268.979 252.835 269.315 252.499 269.729 252.499H272.908C273.323 252.499 273.658 252.835 273.658 253.249C273.658 253.664 273.323 253.999 272.908 253.999H269.729C269.315 253.999 268.979 253.664 268.979 253.249Z" fill="#28528C"/>
<path d="M276.583 253.249C276.583 252.835 276.918 252.499 277.333 252.499H280.512C280.926 252.499 281.262 252.835 281.262 253.249C281.262 253.664 280.926 253.999 280.512 253.999H277.333C276.918 253.999 276.583 253.664 276.583 253.249Z" fill="#28528C"/>
<rect x="274.243" y="252" width="4.00009" height="1.75474" rx="0.87737" transform="rotate(-90 274.243 252)" fill="#28528C"/>
<path d="M284.686 346.249C284.686 345.835 285.022 345.499 285.436 345.499H288.615C289.029 345.499 289.365 345.835 289.365 346.249C289.365 346.664 289.029 346.999 288.615 346.999H285.436C285.022 346.999 284.686 346.664 284.686 346.249Z" fill="#28528C"/>
<path d="M292.289 346.249C292.289 345.835 292.625 345.499 293.039 345.499H296.219C296.633 345.499 296.969 345.835 296.969 346.249C296.969 346.664 296.633 346.999 296.219 346.999H293.039C292.625 346.999 292.289 346.664 292.289 346.249Z" fill="#28528C"/>
<rect x="289.95" y="345" width="4.00009" height="1.75474" rx="0.87737" transform="rotate(-90 289.95 345)" fill="#28528C"/>
<path d="M0 343.499C0 342.67 0.671588 341.999 1.50003 341.999H7.85858C8.68703 341.999 9.35861 342.67 9.35861 343.499C9.35861 344.327 8.68703 344.999 7.85858 344.999H1.50003C0.671589 344.999 0 344.327 0 343.499Z" fill="#28528C"/>
<path d="M15.207 343.499C15.207 342.67 15.8786 341.999 16.7071 341.999H23.0656C23.8941 341.999 24.5656 342.67 24.5656 343.499C24.5656 344.327 23.8941 344.999 23.0656 344.999H16.7071C15.8786 344.999 15.207 344.327 15.207 343.499Z" fill="#28528C"/>
<rect x="10.5287" y="341" width="8.00018" height="3.50948" rx="1.75474" transform="rotate(-90 10.5287 341)" fill="#28528C"/>
<rect x="10.5287" y="353" width="8.00018" height="3.50948" rx="1.75474" transform="rotate(-90 10.5287 353)" fill="#28528C"/>
<path d="M297.851 288.499C297.851 287.67 298.522 286.999 299.351 286.999H305.709C306.538 286.999 307.209 287.67 307.209 288.499C307.209 289.327 306.538 289.999 305.709 289.999H299.351C298.522 289.999 297.851 289.327 297.851 288.499Z" fill="#28528C"/>
<path d="M313.058 288.499C313.058 287.67 313.729 286.999 314.558 286.999H320.916C321.745 286.999 322.416 287.67 322.416 288.499C322.416 289.327 321.745 289.999 320.916 289.999H314.558C313.729 289.999 313.058 289.327 313.058 288.499Z" fill="#28528C"/>
<rect x="308.38" y="286" width="8.00018" height="3.50948" rx="1.75474" transform="rotate(-90 308.38 286)" fill="#28528C"/>
<rect x="308.38" y="298" width="8.00018" height="3.50948" rx="1.75474" transform="rotate(-90 308.38 298)" fill="#28528C"/>
<path d="M8.23041 299.731C8.23041 299.317 8.5662 298.981 8.98042 298.981H12.1597C12.5739 298.981 12.9097 299.317 12.9097 299.731C12.9097 300.146 12.5739 300.481 12.1597 300.481H8.98043C8.5662 300.481 8.23041 300.146 8.23041 299.731Z" fill="#28528C"/>
<path d="M15.8339 299.731C15.8339 299.317 16.1697 298.981 16.5839 298.981H19.7632C20.1774 298.981 20.5132 299.317 20.5132 299.731C20.5132 300.146 20.1774 300.481 19.7632 300.481H16.5839C16.1697 300.481 15.8339 300.146 15.8339 299.731Z" fill="#28528C"/>
<rect x="13.4948" y="298.482" width="4.00009" height="1.75474" rx="0.87737" transform="rotate(-90 13.4948 298.482)" fill="#28528C"/>
<rect x="13.4948" y="304.482" width="4.00009" height="1.75474" rx="0.87737" transform="rotate(-90 13.4948 304.482)" fill="#28528C"/>
<path d="M182.592 162.496C182.592 162.063 182.943 161.711 183.377 161.711H186.706C187.139 161.711 187.491 162.063 187.491 162.496C187.491 162.93 187.139 163.282 186.706 163.282H183.377C182.943 163.282 182.592 162.93 182.592 162.496Z" fill="#28528C"/>
<path d="M190.553 162.496C190.553 162.063 190.904 161.711 191.338 161.711H194.667C195.101 161.711 195.452 162.063 195.452 162.496C195.452 162.93 195.101 163.282 194.667 163.282H191.338C190.904 163.282 190.553 162.93 190.553 162.496Z" fill="#28528C"/>
<rect x="188.104" y="161.188" width="4.18833" height="1.83727" rx="0.918635" transform="rotate(-90 188.104 161.188)" fill="#28528C"/>
<rect x="188.104" y="167.471" width="4.18833" height="1.83727" rx="0.918635" transform="rotate(-90 188.104 167.471)" fill="#28528C"/>
<path d="M55.9659 229.283C55.9659 228.85 56.3175 228.498 56.7512 228.498H60.08C60.5137 228.498 60.8653 228.85 60.8653 229.283C60.8653 229.717 60.5137 230.069 60.08 230.069H56.7512C56.3175 230.069 55.9659 229.717 55.9659 229.283Z" fill="#28528C"/>
<rect x="53.5168" y="227.975" width="4.18833" height="1.83727" rx="0.918635" transform="rotate(-90 53.5168 227.975)" fill="#28528C"/>
<rect x="53.5168" y="234.257" width="4.18833" height="1.83727" rx="0.918635" transform="rotate(-90 53.5168 234.257)" fill="#28528C"/>
<path d="M260.687 379.733C260.687 379.3 261.039 378.948 261.473 378.948H264.801C265.235 378.948 265.587 379.3 265.587 379.733C265.587 380.167 265.235 380.519 264.801 380.519H261.473C261.039 380.519 260.687 380.167 260.687 379.733Z" fill="#28528C"/>
<path d="M268.648 379.733C268.648 379.3 269 378.948 269.434 378.948H272.763C273.196 378.948 273.548 379.3 273.548 379.733C273.548 380.167 273.196 380.519 272.763 380.519H269.434C269 380.519 268.648 380.167 268.648 379.733Z" fill="#28528C"/>
<rect x="266.199" y="378.425" width="4.18833" height="1.83727" rx="0.918635" transform="rotate(-90 266.199 378.425)" fill="#28528C"/>
<path d="M281.198 172.801C281.198 172.092 281.773 171.516 282.483 171.516H287.485C288.194 171.516 288.77 172.092 288.77 172.801C288.77 173.511 288.194 174.086 287.485 174.086H282.483C281.773 174.086 281.198 173.511 281.198 172.801Z" fill="#28528C"/>
<path d="M293.502 172.801C293.502 172.092 294.077 171.516 294.787 171.516H299.789C300.498 171.516 301.074 172.092 301.074 172.801C301.074 173.511 300.498 174.086 299.789 174.086H294.787C294.077 174.086 293.502 173.511 293.502 172.801Z" fill="#28528C"/>
<rect x="289.717" y="180.941" width="6.8537" height="2.8395" rx="1.41975" transform="rotate(-90 289.717 180.941)" fill="#28528C"/>
<path d="M44.3096 166.738C44.3096 166.364 44.6127 166.061 44.9865 166.061H47.6212C47.9951 166.061 48.2981 166.364 48.2981 166.738C48.2981 167.111 47.9951 167.415 47.6212 167.415H44.9865C44.6127 167.415 44.3096 167.111 44.3096 166.738Z" fill="#28528C"/>
<path d="M50.7906 166.738C50.7906 166.364 51.0936 166.061 51.4675 166.061H54.1022C54.476 166.061 54.7791 166.364 54.7791 166.738C54.7791 167.111 54.476 167.415 54.1022 167.415H51.4675C51.0936 167.415 50.7906 167.111 50.7906 166.738Z" fill="#28528C"/>
<rect x="48.7969" y="165.61" width="3.61012" height="1.49568" rx="0.74784" transform="rotate(-90 48.7969 165.61)" fill="#28528C"/>
<rect x="48.7969" y="171.025" width="3.61012" height="1.49568" rx="0.74784" transform="rotate(-90 48.7969 171.025)" fill="#28528C"/>
<path d="M7.98761 34.7376C7.98761 34.3638 8.29067 34.0607 8.66451 34.0607H11.2992C11.673 34.0607 11.9761 34.3638 11.9761 34.7376C11.9761 35.1115 11.673 35.4145 11.2992 35.4145H8.66451C8.29067 35.4145 7.98761 35.1115 7.98761 34.7376Z" fill="#28528C"/>
<path d="M14.4686 34.7376C14.4686 34.3638 14.7716 34.0607 15.1455 34.0607H17.7801C18.154 34.0607 18.457 34.3638 18.457 34.7376C18.457 35.1115 18.154 35.4145 17.7801 35.4145H15.1455C14.7716 35.4145 14.4686 35.1115 14.4686 34.7376Z" fill="#28528C"/>
<rect x="12.4749" y="33.6101" width="3.61012" height="1.49568" rx="0.74784" transform="rotate(-90 12.4749 33.6101)" fill="#28528C"/>
<rect x="12.4749" y="39.0251" width="3.61012" height="1.49568" rx="0.74784" transform="rotate(-90 12.4749 39.0251)" fill="#28528C"/>
<path d="M273.04 51.7376C273.04 51.3638 273.343 51.0607 273.717 51.0607H276.352C276.725 51.0607 277.029 51.3638 277.029 51.7376C277.029 52.1115 276.725 52.4145 276.352 52.4145H273.717C273.343 52.4145 273.04 52.1115 273.04 51.7376Z" fill="#28528C"/>
<path d="M279.521 51.7376C279.521 51.3638 279.824 51.0607 280.198 51.0607H282.833C283.206 51.0607 283.509 51.3638 283.509 51.7376C283.509 52.1115 283.206 52.4145 282.833 52.4145H280.198C279.824 52.4145 279.521 52.1115 279.521 51.7376Z" fill="#28528C"/>
<rect x="277.527" y="50.6101" width="3.61012" height="1.49568" rx="0.74784" transform="rotate(-90 277.527 50.6101)" fill="#28528C"/>
<rect x="277.527" y="56.0251" width="3.61012" height="1.49568" rx="0.74784" transform="rotate(-90 277.527 56.0251)" fill="#28528C"/>
<path d="M299.411 207.496C299.411 207.063 299.763 206.711 300.196 206.711H303.525C303.959 206.711 304.31 207.063 304.31 207.496C304.31 207.93 303.959 208.282 303.525 208.282H300.196C299.763 208.282 299.411 207.93 299.411 207.496Z" fill="#28528C"/>
<path d="M307.372 207.496C307.372 207.063 307.724 206.711 308.158 206.711H311.486C311.92 206.711 312.272 207.063 312.272 207.496C312.272 207.93 311.92 208.282 311.486 208.282H308.158C307.724 208.282 307.372 207.93 307.372 207.496Z" fill="#28528C"/>
<rect x="304.923" y="206.188" width="4.18833" height="1.83727" rx="0.918635" transform="rotate(-90 304.923 206.188)" fill="#28528C"/>
<rect x="304.923" y="212.471" width="4.18833" height="1.83727" rx="0.918635" transform="rotate(-90 304.923 212.471)" fill="#28528C"/>
<path d="M2.94507 197.499C2.94507 196.67 3.61666 195.999 4.4451 195.999H10.8036C11.6321 195.999 12.3037 196.67 12.3037 197.499C12.3037 198.327 11.6321 198.999 10.8036 198.999H4.4451C3.61666 198.999 2.94507 198.327 2.94507 197.499Z" fill="#28528C"/>
<rect x="13.4738" y="195" width="8.00018" height="3.50948" rx="1.75474" transform="rotate(-90 13.4738 195)" fill="#28528C"/>
<rect x="13.4738" y="207" width="8.00018" height="3.50948" rx="1.75474" transform="rotate(-90 13.4738 207)" fill="#28528C"/>
<g clip-path="url(#clip0)">
<path d="M136.181 210.736C135.586 210.736 134.993 210.796 134.41 210.916C133.971 208.683 132.551 206.777 130.557 205.746C128.563 204.715 126.215 204.672 124.186 205.629C122.349 200.475 116.759 197.815 111.701 199.685C106.642 201.556 104.03 207.251 105.866 212.404C101.435 212.546 97.9345 216.283 98.0008 220.799C98.0675 225.315 101.677 228.942 106.11 228.949H136.181C141.118 228.949 145.121 224.872 145.121 219.842C145.121 214.813 141.118 210.736 136.181 210.736Z" fill="#A3D4F7" fill-opacity="0.2"/>
</g>
<g clip-path="url(#clip1)">
<path d="M558.181 253.736C557.586 253.736 556.993 253.796 556.41 253.916C555.971 251.683 554.551 249.777 552.557 248.746C550.563 247.715 548.215 247.672 546.186 248.629C544.349 243.475 538.759 240.815 533.701 242.685C528.642 244.556 526.03 250.251 527.866 255.404C523.435 255.546 519.935 259.283 520.001 263.799C520.067 268.315 523.677 271.942 528.11 271.949H558.181C563.118 271.949 567.121 267.872 567.121 262.842C567.121 257.813 563.118 253.736 558.181 253.736Z" fill="#A3D4F7" fill-opacity="0.2"/>
</g>
<defs>
<clipPath id="clip0">
<rect width="47.1204" height="48" fill="white" transform="translate(98 190)"/>
</clipPath>
<clipPath id="clip1">
<rect width="47.1204" height="48" fill="white" transform="translate(520 233)"/>
</clipPath>
</defs>
</svg>
