<svg viewBox="0 0 1002 541" fill="none" xmlns="http://www.w3.org/2000/svg" id="el__kI8-WhO7"><style>@-webkit-keyframes kf_el_IossR4gKfB_an_XWFpFitup{0%{opacity: 0;}5%{opacity: 1;}90%{opacity: 1;}100%{opacity: 0;}}@keyframes kf_el_IossR4gKfB_an_XWFpFitup{0%{opacity: 0;}5%{opacity: 1;}90%{opacity: 1;}100%{opacity: 0;}}@-webkit-keyframes kf_el_1nYYrgrMpUL_an_JabB3JxsR{0%{opacity: 0;}5%{opacity: 0;}10%{opacity: 1;}90%{opacity: 1;}100%{opacity: 0;}}@keyframes kf_el_1nYYrgrMpUL_an_JabB3JxsR{0%{opacity: 0;}5%{opacity: 0;}10%{opacity: 1;}90%{opacity: 1;}100%{opacity: 0;}}@-webkit-keyframes kf_el_L1r9bZgHjIQ_an_PfUBh0ZeW{0%{opacity: 0;}15%{opacity: 0;}20%{opacity: 1;}90%{opacity: 1;}100%{opacity: 0;}}@keyframes kf_el_L1r9bZgHjIQ_an_PfUBh0ZeW{0%{opacity: 0;}15%{opacity: 0;}20%{opacity: 1;}90%{opacity: 1;}100%{opacity: 0;}}@-webkit-keyframes kf_el_0GLWouYdyU_an_FSTzsXg9k{0%{opacity: 0;}10%{opacity: 0;}15%{opacity: 1;}90%{opacity: 1;}100%{opacity: 0;}}@keyframes kf_el_0GLWouYdyU_an_FSTzsXg9k{0%{opacity: 0;}10%{opacity: 0;}15%{opacity: 1;}90%{opacity: 1;}100%{opacity: 0;}}#el__kI8-WhO7 *{-webkit-animation-duration: 10s;animation-duration: 10s;-webkit-animation-iteration-count: infinite;animation-iteration-count: infinite;-webkit-animation-timing-function: cubic-bezier(0, 0, 1, 1);animation-timing-function: cubic-bezier(0, 0, 1, 1);}#el_jCBAyGC_z9{fill: white;}#el_ydASB86xqs{fill: #35074A;}#el_ANSqixIerF{fill: white;}#el_H6cMMW6Nfv{fill: white;}#el_Sa1d4nPXQu{fill: white;}#el_SNIHScQwoV{fill: #35074A;}#el_O_HErF-LuU{fill: white;}#el_n5QsqndZqP{fill: #F2F2F2;}#el_HK7D9pxj_X{fill: #333333;}#el_RsXcMlFUTw{fill: #333333;}#el_xdkSLuHwSdj{fill: white;}#el_t_eO1XiV8Z3{fill: white;}#el_8jYlYioutp-{fill: white;}#el_bVcMjcgbI04{stroke: white;stroke-width: 4;}#el_1oGp3iLEOt2{fill: white;}#el_xwzmVhV_uzF{fill: #35074A;}#el_FOBI_GJZGoG{fill: white;}#el_C5ff9IUK02z{fill: #F2F2F2;}#el_NMMzXnUIG6H{fill: #333333;}#el_x7V9W4UmG5p{fill: #333333;}#el_sw8xrxKmx8t{fill: white;}#el_tyAy8QAIxmf{fill: white;}#el_7VF4xrF-BMK{fill: white;}#el_f_EHzBv_xd_{stroke: white;stroke-width: 4;}#el_dSf_L6sLOgJ{fill: white;}#el_YJx0r7FdimP{fill: #35074A;}#el_yCqxkELe1Ur{fill: white;}#el_PDUNzevzXaA{fill: #F2F2F2;}#el_NbVX_Zyd-Ji{fill: #333333;}#el_E-_cKrvs2wZ{fill: #333333;}#el_lklL-a5Ivvn{fill: white;}#el_UFSY8lUsnKa{fill: white;}#el_41E95nS10xf{fill: white;}#el_CUaajbIYcFo{stroke: white;stroke-width: 4;}#el_4W6y3-_2iaL{fill: white;}#el_IossR4gKfB_an_CKgYwwtVG{-webkit-transform: translate(0.8244630098342896px, 0px) translate(-0.8244630098342896px, 0px) translate(0px, 500px);transform: translate(0.8244630098342896px, 0px) translate(-0.8244630098342896px, 0px) translate(0px, 500px);}#el_0GLWouYdyU{-webkit-animation-fill-mode: backwards;animation-fill-mode: backwards;opacity: 0;-webkit-animation-name: kf_el_0GLWouYdyU_an_FSTzsXg9k;animation-name: kf_el_0GLWouYdyU_an_FSTzsXg9k;-webkit-animation-timing-function: cubic-bezier(0, 0, 1, 1);animation-timing-function: cubic-bezier(0, 0, 1, 1);}#el_L1r9bZgHjIQ{-webkit-animation-fill-mode: backwards;animation-fill-mode: backwards;opacity: 0;-webkit-animation-name: kf_el_L1r9bZgHjIQ_an_PfUBh0ZeW;animation-name: kf_el_L1r9bZgHjIQ_an_PfUBh0ZeW;-webkit-animation-timing-function: cubic-bezier(0, 0, 1, 1);animation-timing-function: cubic-bezier(0, 0, 1, 1);}#el_1nYYrgrMpUL{-webkit-animation-fill-mode: backwards;animation-fill-mode: backwards;opacity: 0;-webkit-animation-name: kf_el_1nYYrgrMpUL_an_JabB3JxsR;animation-name: kf_el_1nYYrgrMpUL_an_JabB3JxsR;-webkit-animation-timing-function: cubic-bezier(0, 0, 1, 1);animation-timing-function: cubic-bezier(0, 0, 1, 1);}#el_IossR4gKfB{-webkit-animation-fill-mode: backwards;animation-fill-mode: backwards;opacity: 0;-webkit-animation-name: kf_el_IossR4gKfB_an_XWFpFitup;animation-name: kf_el_IossR4gKfB_an_XWFpFitup;-webkit-animation-timing-function: cubic-bezier(0, 0, 1, 1);animation-timing-function: cubic-bezier(0, 0, 1, 1);}</style>
<g clip-path="url(#clip0)" filter="url(#filter0_d)" id="el_IossR4gKfB">
<path d="M115.11 454.685C114.232 454.685 113.53 454.685 112.652 454.685C76.4883 454.685 40.1486 454.685 3.98444 454.685C0.824463 454.685 0.824463 454.685 0.824463 451.525C1.00002 396.928 1.00002 342.33 1.00002 287.909C1.00002 223.656 1.00002 159.403 1.00002 95.1503C1.00002 64.4283 1.00002 33.7064 1.00002 2.80887C1.00002 2.63331 1.00002 2.63331 1.00002 2.45776C1.00002 0.175554 1.00002 0.175554 3.28222 0.175554C11.8844 0.175554 20.6621 0.175554 29.2642 0.175554C169.532 0.175554 309.8 0.175554 450.243 0.175554C565.055 0.175554 679.868 0.175554 794.68 0.175554C796.436 0.175554 798.191 0.175554 799.947 0C800.824 0 801 0.351108 801 1.05332C801 2.80887 800.825 4.38885 800.825 6.14439C800.825 153.259 800.825 300.373 800.825 447.487C800.825 449.243 800.825 451.174 800.825 452.93C800.825 454.158 800.649 454.334 799.42 454.51C798.893 454.51 798.542 454.51 798.016 454.51C761.5 454.51 724.985 454.51 688.47 454.51C687.943 454.51 687.241 454.51 686.714 454.51C686.363 455.212 686.89 455.563 687.065 456.089C694.439 472.416 701.812 488.567 709.185 504.894C709.536 505.596 709.712 506.122 710.063 506.825C710.59 508.405 710.063 509.458 708.483 509.633C706.201 509.809 703.743 509.633 701.636 508.756C700.056 508.229 699.179 506.825 698.652 505.42C696.545 500.856 694.439 496.291 692.508 491.727C691.805 490.323 691.103 488.918 690.576 487.514C690.225 486.636 689.699 486.46 688.997 486.636C686.714 486.987 684.257 486.987 681.974 486.636C679.517 486.285 678.639 485.583 677.937 483.125C675.654 474.347 673.372 465.394 671.09 456.616C670.563 454.51 670.563 454.51 668.632 454.51C606.837 454.51 545.042 454.51 483.072 454.51C464.638 454.51 446.205 454.51 427.948 454.51C405.126 454.51 382.479 454.51 359.657 454.51C284.344 454.51 209.207 454.51 133.894 454.51C131.437 454.51 131.437 454.509 130.734 456.967C128.452 465.745 125.995 474.523 123.888 483.3C123.361 485.407 122.132 486.285 120.201 486.636C117.919 486.987 115.637 486.987 113.355 486.811C111.775 486.636 111.775 486.636 111.072 488.04C108.615 493.483 105.981 498.925 103.524 504.542C102.295 507.702 100.188 509.282 96.8525 509.458C95.7992 509.458 94.7459 509.633 93.6926 509.633C91.5859 509.633 90.7082 508.405 91.5859 506.474C93.6926 501.558 95.9748 496.818 98.257 491.903C103.699 479.789 109.141 467.852 114.759 455.738C114.759 455.563 114.935 455.212 115.11 454.685Z" id="el_jCBAyGC_z9"></path>
<path d="M400.736 4.03784C531.7 4.03784 662.663 4.03784 793.802 4.03784C796.435 4.03784 796.435 4.03784 796.435 6.67115C796.435 70.7484 796.435 134.826 796.435 198.727C796.435 252.622 796.435 306.518 796.435 360.413C796.435 389.203 796.435 417.994 796.435 446.785C796.435 450.121 796.787 449.594 793.627 449.594C531.875 449.594 269.949 449.594 8.19757 449.594C5.0376 449.594 5.0376 449.594 5.0376 446.61C5.0376 300.022 5.0376 153.259 5.0376 6.67115C5.0376 4.03784 5.0376 4.03784 7.67091 4.03784C138.81 4.03784 269.773 4.03784 400.736 4.03784Z" id="el_ydASB86xqs"></path>
<g clip-path="url(#clip1)" id="el_zL5anNWVTb">
<path d="M38.4951 37.4435C37.0741 40.4551 35.6531 43.4747 34.2321 46.4863C29.6218 36.8218 25.0197 27.1572 20.4094 17.5007C23.2918 17.5007 26.1662 17.5007 29.0486 17.5007C32.1974 24.1456 35.3463 30.7905 38.4951 37.4435Z" id="el_ANSqixIerF"></path>
<path d="M38.4949 26.5435C32.173 26.5435 25.843 26.5435 19.5211 26.5435C18.0678 23.3705 16.6144 20.1893 15.1611 17.0162C21.4346 17.0162 27.7 17.0162 33.9735 17.0162C35.4833 20.1893 36.9851 23.3705 38.4949 26.5435Z" id="el_H6cMMW6Nfv"></path>
<path d="M49.3146 20.811C48.6122 19.5434 47.9178 18.2839 47.2154 17.0162C43.2592 17.0162 39.3029 17.0162 35.3467 17.0162L49.3146 46.4863L63.2826 17.0162C59.2456 17.0162 55.2086 17.0162 51.1717 17.0162C50.55 18.2758 49.9363 19.5434 49.3146 20.811Z" id="el_Sa1d4nPXQu"></path>
</g>
</g>
<g filter="url(#filter1_d)" id="el_0GLWouYdyU">
<rect x="482" y="37" width="235" height="489" rx="30" id="el_SNIHScQwoV"></rect>
<g clip-path="url(#clip2)" id="el_C48_X2vPbi">
<path d="M722.822 68.2813C722.824 63.516 721.888 58.7969 720.066 54.3938C718.243 49.9907 715.571 45.99 712.201 42.6204C708.832 39.2509 704.831 36.5785 700.428 34.7562C696.025 32.9338 691.306 31.9973 686.54 32H513.281C508.516 31.9973 503.797 32.9338 499.394 34.7562C494.991 36.5785 490.99 39.2509 487.62 42.6204C484.251 45.99 481.579 49.9907 479.756 54.3938C477.934 58.7969 476.997 63.516 477 68.2813V495.719C476.997 500.484 477.934 505.203 479.756 509.606C481.579 514.009 484.251 518.01 487.62 521.38C490.99 524.749 494.991 527.422 499.394 529.244C503.797 531.066 508.516 532.003 513.281 532H686.54C691.306 532.003 696.025 531.066 700.428 529.244C704.831 527.422 708.832 524.749 712.201 521.38C715.571 518.01 718.243 514.009 720.066 509.606C721.888 505.203 722.824 500.484 722.822 495.719V68.2813ZM717.251 495.37C717.243 503.605 713.969 511.501 708.146 517.324C702.323 523.147 694.427 526.422 686.192 526.429H512.933C504.698 526.422 496.803 523.147 490.98 517.324C485.157 511.501 481.882 503.605 481.875 495.37V67.9332C481.882 59.6982 485.157 51.8026 490.98 45.9796C496.803 40.1566 504.698 36.882 512.933 36.8747H686.192C694.427 36.882 702.323 40.1566 708.146 45.9796C713.969 51.8026 717.243 59.6982 717.251 67.9332V495.37Z" id="el_O_HErF-LuU"></path>
<path d="M717.251 67.9331C717.243 59.6982 713.969 51.8026 708.146 45.9796C702.323 40.1566 694.427 36.882 686.192 36.8746H512.933C504.698 36.882 496.803 40.1566 490.98 45.9796C485.157 51.8026 481.882 59.6982 481.875 67.9331V495.37C481.882 503.605 485.157 511.501 490.98 517.324C496.803 523.147 504.698 526.422 512.933 526.429H686.192C694.427 526.422 702.323 523.147 708.146 517.324C713.969 511.501 717.243 503.605 717.251 495.37V67.9331ZM629.786 48.7827C629.786 49.3887 629.606 49.9811 629.269 50.485C628.933 50.9889 628.454 51.3816 627.894 51.6135C627.334 51.8455 626.718 51.9061 626.124 51.7879C625.529 51.6697 624.983 51.3779 624.555 50.9493C624.126 50.5208 623.835 49.9749 623.716 49.3805C623.598 48.7861 623.659 48.17 623.891 47.6101C624.123 47.0503 624.515 46.5717 625.019 46.235C625.523 45.8984 626.116 45.7186 626.722 45.7186C627.126 45.7101 627.529 45.7835 627.904 45.9345C628.28 46.0854 628.621 46.3108 628.907 46.5971C629.193 46.8833 629.419 47.2245 629.57 47.6001C629.721 47.9757 629.794 48.378 629.786 48.7827ZM588.351 47.3203H615.51C616.694 47.3203 617.599 48.0167 617.599 49.0613C617.599 50.1058 616.694 50.8022 615.51 50.8022H588.351C587.167 50.8022 586.262 50.1058 586.262 49.0613C586.283 48.809 586.354 48.5635 586.471 48.339C586.587 48.1144 586.748 47.9153 586.942 47.7533C587.136 47.5913 587.361 47.4696 587.603 47.3952C587.845 47.3209 588.099 47.2954 588.351 47.3203ZM709.591 494.187C709.591 506.373 700.607 515.983 688.421 515.983H515.022C502.905 515.983 492.32 506.373 492.32 494.187V67.0975C492.32 54.9805 502.905 45.2312 515.022 45.2312H535.078C539.326 45.2312 540.858 45.0919 541.137 50.454C541.415 56.025 545.245 59.1588 550.398 60.7604C552.139 61.3175 554.089 61.2479 555.969 61.2479H647.543C649.423 61.2479 651.373 61.3872 653.114 60.8301C658.268 59.2284 662.167 55.9554 662.376 50.3844C662.655 45.0223 664.187 45.2312 668.435 45.2312H688.281C700.468 45.2312 709.451 54.9805 709.451 67.0975V494.187H709.591Z" id="el_n5QsqndZqP"></path>
<path d="M626.791 51.8468C628.483 51.8468 629.855 50.4749 629.855 48.7827C629.855 47.0905 628.483 45.7186 626.791 45.7186C625.099 45.7186 623.727 47.0905 623.727 48.7827C623.727 50.4749 625.099 51.8468 626.791 51.8468Z" id="el_HK7D9pxj_X"></path>
<path d="M588.351 50.8022H615.51C616.694 50.8022 617.599 50.1058 617.599 49.0613C617.599 48.0167 616.694 47.3203 615.51 47.3203H588.351C587.167 47.3203 586.262 48.0167 586.262 49.0613C586.283 49.3135 586.354 49.559 586.471 49.7835C586.587 50.0081 586.748 50.2072 586.942 50.3692C587.136 50.5312 587.361 50.6529 587.603 50.7273C587.845 50.8016 588.099 50.8271 588.351 50.8022Z" id="el_RsXcMlFUTw"></path>
<g clip-path="url(#clip3)" id="el_vGye-IXNLK">
<path d="M519.52 82.504C518.581 84.4934 517.643 86.488 516.704 88.4774C513.659 82.0934 510.619 75.7094 507.573 69.3307C509.477 69.3307 511.376 69.3307 513.28 69.3307C515.36 73.72 517.44 78.1094 519.52 82.504Z" id="el_xdkSLuHwSdj"></path>
<path d="M519.52 75.3041C515.344 75.3041 511.163 75.3041 506.987 75.3041C506.027 73.2081 505.067 71.1067 504.107 69.0107C508.251 69.0107 512.389 69.0107 516.533 69.0107C517.531 71.1067 518.523 73.2081 519.52 75.3041Z" id="el_t_eO1XiV8Z3"></path>
<path d="M526.667 71.5174C526.203 70.6801 525.744 69.8481 525.28 69.0107C522.667 69.0107 520.053 69.0107 517.44 69.0107L526.667 88.4774L535.893 69.0107C533.227 69.0107 530.56 69.0107 527.893 69.0107C527.483 69.8427 527.077 70.6801 526.667 71.5174Z" id="el_8jYlYioutp-"></path>
</g>
<rect x="505" y="255" width="192" height="53" rx="26.5" id="el_bVcMjcgbI04"></rect>
<path d="M546.367 285.363H541.744L540.865 288H538.062L542.825 275.203H545.269L550.059 288H547.255L546.367 285.363ZM542.456 283.228H545.655L544.047 278.438L542.456 283.228ZM561.66 288H559.023L553.891 279.58V288H551.254V275.203H553.891L559.032 283.641V275.203H561.66V288ZM573.648 275.203V283.632C573.648 285.032 573.209 286.14 572.33 286.954C571.457 287.769 570.262 288.176 568.744 288.176C567.25 288.176 566.063 287.78 565.185 286.989C564.306 286.198 563.857 285.111 563.84 283.729V275.203H566.477V283.649C566.477 284.487 566.676 285.1 567.074 285.486C567.479 285.867 568.035 286.058 568.744 286.058C570.227 286.058 570.979 285.278 571.003 283.72V275.203H573.648ZM586.217 288H583.58L578.447 279.58V288H575.811V275.203H578.447L583.589 283.641V275.203H586.217V288ZM598.565 283.737C598.466 285.114 597.956 286.198 597.036 286.989C596.122 287.78 594.915 288.176 593.415 288.176C591.774 288.176 590.482 287.625 589.539 286.523C588.602 285.416 588.133 283.898 588.133 281.971V281.188C588.133 279.958 588.35 278.874 588.783 277.937C589.217 276.999 589.835 276.281 590.638 275.783C591.446 275.279 592.384 275.027 593.45 275.027C594.927 275.027 596.116 275.423 597.019 276.214C597.921 277.005 598.442 278.115 598.583 279.545H595.946C595.882 278.719 595.65 278.121 595.252 277.752C594.859 277.377 594.259 277.189 593.45 277.189C592.571 277.189 591.912 277.506 591.473 278.139C591.039 278.766 590.816 279.741 590.805 281.065V282.032C590.805 283.415 591.013 284.426 591.429 285.064C591.851 285.703 592.513 286.022 593.415 286.022C594.229 286.022 594.836 285.838 595.234 285.469C595.639 285.094 595.87 284.517 595.929 283.737H598.565ZM603.101 288H600.464V275.203H603.101V288ZM612.936 285.363H608.312L607.434 288H604.63L609.394 275.203H611.837L616.627 288H613.823L612.936 285.363ZM609.024 283.228H612.224L610.615 278.438L609.024 283.228ZM629.529 285.363H624.906L624.027 288H621.224L625.987 275.203H628.431L633.221 288H630.417L629.529 285.363ZM625.618 283.228H628.817L627.209 278.438L625.618 283.228ZM644.717 281.892C644.717 283.087 644.523 284.127 644.137 285.012C643.75 285.891 643.214 286.597 642.528 287.13L644.655 288.8L642.977 290.285L640.252 288.097C639.941 288.149 639.619 288.176 639.285 288.176C638.225 288.176 637.278 287.921 636.446 287.411C635.614 286.901 634.97 286.175 634.513 285.231C634.056 284.282 633.824 283.192 633.818 281.962V281.329C633.818 280.069 634.044 278.962 634.495 278.007C634.952 277.046 635.594 276.311 636.42 275.801C637.252 275.285 638.201 275.027 639.268 275.027C640.334 275.027 641.28 275.285 642.106 275.801C642.938 276.311 643.58 277.046 644.031 278.007C644.488 278.962 644.717 280.066 644.717 281.32V281.892ZM642.045 281.312C642.045 279.97 641.805 278.95 641.324 278.253C640.844 277.556 640.158 277.207 639.268 277.207C638.383 277.207 637.7 277.553 637.22 278.244C636.739 278.93 636.496 279.938 636.49 281.268V281.892C636.49 283.198 636.73 284.212 637.211 284.933C637.691 285.653 638.383 286.014 639.285 286.014C640.17 286.014 640.85 285.668 641.324 284.977C641.799 284.279 642.039 283.266 642.045 281.936V281.312ZM656.336 275.203V283.632C656.336 285.032 655.896 286.14 655.018 286.954C654.145 287.769 652.949 288.176 651.432 288.176C649.938 288.176 648.751 287.78 647.872 286.989C646.993 286.198 646.545 285.111 646.527 283.729V275.203H649.164V283.649C649.164 284.487 649.363 285.1 649.762 285.486C650.166 285.867 650.723 286.058 651.432 286.058C652.914 286.058 653.667 285.278 653.69 283.72V275.203H656.336ZM661.302 288H658.665V275.203H661.302V288Z" id="el_1oGp3iLEOt2"></path>
</g>
</g>
<g filter="url(#filter2_d)" id="el_L1r9bZgHjIQ">
<rect x="760" y="38" width="235" height="489" rx="30" id="el_xwzmVhV_uzF"></rect>
<g clip-path="url(#clip4)" id="el_LJkYPtpZF31">
<path d="M1000.82 69.2813C1000.82 64.516 999.888 59.7969 998.066 55.3938C996.243 50.9907 993.571 46.99 990.201 43.6204C986.832 40.2509 982.831 37.5785 978.428 35.7562C974.025 33.9338 969.306 32.9973 964.54 33H791.281C786.516 32.9973 781.797 33.9338 777.394 35.7562C772.991 37.5785 768.99 40.2509 765.62 43.6204C762.251 46.99 759.579 50.9907 757.756 55.3938C755.934 59.7969 754.997 64.516 755 69.2813V496.719C754.997 501.484 755.934 506.203 757.756 510.606C759.579 515.009 762.251 519.01 765.62 522.38C768.99 525.749 772.991 528.422 777.394 530.244C781.797 532.066 786.516 533.003 791.281 533H964.54C969.306 533.003 974.025 532.066 978.428 530.244C982.831 528.422 986.832 525.749 990.201 522.38C993.571 519.01 996.243 515.009 998.066 510.606C999.888 506.203 1000.82 501.484 1000.82 496.719V69.2813ZM995.251 496.37C995.243 504.605 991.969 512.501 986.146 518.324C980.323 524.147 972.427 527.422 964.192 527.429H790.933C782.698 527.422 774.803 524.147 768.98 518.324C763.157 512.501 759.882 504.605 759.875 496.37V68.9332C759.882 60.6982 763.157 52.8026 768.98 46.9796C774.803 41.1566 782.698 37.882 790.933 37.8747H964.192C972.427 37.882 980.323 41.1566 986.146 46.9796C991.969 52.8026 995.243 60.6982 995.251 68.9332V496.37Z" id="el_FOBI_GJZGoG"></path>
<path d="M995.251 68.9331C995.243 60.6982 991.969 52.8026 986.146 46.9796C980.323 41.1566 972.427 37.882 964.192 37.8746H790.933C782.698 37.882 774.803 41.1566 768.98 46.9796C763.157 52.8026 759.882 60.6982 759.875 68.9331V496.37C759.882 504.605 763.157 512.501 768.98 518.324C774.803 524.147 782.698 527.422 790.933 527.429H964.192C972.427 527.422 980.323 524.147 986.146 518.324C991.969 512.501 995.243 504.605 995.251 496.37V68.9331ZM907.786 49.7827C907.786 50.3887 907.606 50.9811 907.269 51.485C906.933 51.9889 906.454 52.3816 905.894 52.6135C905.334 52.8455 904.718 52.9061 904.124 52.7879C903.529 52.6697 902.983 52.3779 902.555 51.9493C902.126 51.5208 901.835 50.9749 901.716 50.3805C901.598 49.7861 901.659 49.17 901.891 48.6101C902.123 48.0503 902.515 47.5717 903.019 47.235C903.523 46.8984 904.116 46.7186 904.722 46.7186C905.126 46.7101 905.529 46.7835 905.904 46.9345C906.28 47.0854 906.621 47.3108 906.907 47.5971C907.193 47.8833 907.419 48.2245 907.57 48.6001C907.721 48.9757 907.794 49.378 907.786 49.7827ZM866.351 48.3203H893.51C894.694 48.3203 895.599 49.0167 895.599 50.0613C895.599 51.1058 894.694 51.8022 893.51 51.8022H866.351C865.167 51.8022 864.262 51.1058 864.262 50.0613C864.283 49.809 864.354 49.5635 864.471 49.339C864.587 49.1144 864.748 48.9153 864.942 48.7533C865.136 48.5913 865.361 48.4696 865.603 48.3952C865.845 48.3209 866.099 48.2954 866.351 48.3203ZM987.591 495.187C987.591 507.373 978.607 516.983 966.421 516.983H793.022C780.905 516.983 770.32 507.373 770.32 495.187V68.0975C770.32 55.9805 780.905 46.2312 793.022 46.2312H813.078C817.326 46.2312 818.858 46.0919 819.137 51.454C819.415 57.025 823.245 60.1588 828.398 61.7604C830.139 62.3175 832.089 62.2479 833.969 62.2479H925.543C927.423 62.2479 929.373 62.3872 931.114 61.8301C936.268 60.2284 940.167 56.9554 940.376 51.3844C940.655 46.0223 942.187 46.2312 946.435 46.2312H966.281C978.468 46.2312 987.451 55.9805 987.451 68.0975V495.187H987.591Z" id="el_C5ff9IUK02z"></path>
<path d="M904.791 52.8468C906.483 52.8468 907.855 51.4749 907.855 49.7827C907.855 48.0905 906.483 46.7186 904.791 46.7186C903.099 46.7186 901.727 48.0905 901.727 49.7827C901.727 51.4749 903.099 52.8468 904.791 52.8468Z" id="el_NMMzXnUIG6H"></path>
<path d="M866.351 51.8022H893.51C894.694 51.8022 895.599 51.1058 895.599 50.0613C895.599 49.0167 894.694 48.3203 893.51 48.3203H866.351C865.167 48.3203 864.262 49.0167 864.262 50.0613C864.283 50.3135 864.354 50.559 864.471 50.7835C864.587 51.0081 864.748 51.2072 864.942 51.3692C865.136 51.5312 865.361 51.6529 865.603 51.7273C865.845 51.8016 866.099 51.8271 866.351 51.8022Z" id="el_x7V9W4UmG5p"></path>
<g clip-path="url(#clip5)" id="el_1n9yIkgz2B9">
<path d="M797.52 83.504C796.581 85.4934 795.643 87.488 794.704 89.4774C791.659 83.0934 788.619 76.7094 785.573 70.3307C787.477 70.3307 789.376 70.3307 791.28 70.3307C793.36 74.72 795.44 79.1094 797.52 83.504Z" id="el_sw8xrxKmx8t"></path>
<path d="M797.52 76.3041C793.344 76.3041 789.163 76.3041 784.987 76.3041C784.027 74.2081 783.067 72.1067 782.107 70.0107C786.251 70.0107 790.389 70.0107 794.533 70.0107C795.531 72.1067 796.523 74.2081 797.52 76.3041Z" id="el_tyAy8QAIxmf"></path>
<path d="M804.667 72.5174C804.203 71.6801 803.744 70.8481 803.28 70.0107C800.667 70.0107 798.053 70.0107 795.44 70.0107L804.667 89.4774L813.893 70.0107C811.227 70.0107 808.56 70.0107 805.893 70.0107C805.483 70.8427 805.077 71.6801 804.667 72.5174Z" id="el_7VF4xrF-BMK"></path>
</g>
<rect x="783" y="255" width="192" height="53" rx="26.5" id="el_f_EHzBv_xd_"></rect>
<path d="M816.779 283.491V288H814.143V275.203H819.135C820.096 275.203 820.939 275.379 821.666 275.73C822.398 276.082 822.961 276.583 823.354 277.233C823.746 277.878 823.942 278.613 823.942 279.439C823.942 280.693 823.512 281.684 822.65 282.41C821.795 283.131 820.608 283.491 819.091 283.491H816.779ZM816.779 281.355H819.135C819.832 281.355 820.362 281.191 820.726 280.863C821.095 280.535 821.279 280.066 821.279 279.457C821.279 278.83 821.095 278.323 820.726 277.937C820.356 277.55 819.847 277.351 819.196 277.339H816.779V281.355ZM831.422 285.363H826.799L825.92 288H823.116L827.88 275.203H830.323L835.113 288H832.31L831.422 285.363ZM827.511 283.228H830.71L829.102 278.438L827.511 283.228ZM841.046 283.315H838.945V288H836.309V275.203H841.063C842.575 275.203 843.741 275.54 844.562 276.214C845.382 276.888 845.792 277.84 845.792 279.07C845.792 279.943 845.602 280.673 845.221 281.259C844.846 281.839 844.274 282.302 843.507 282.647L846.275 287.877V288H843.445L841.046 283.315ZM838.945 281.18H841.072C841.734 281.18 842.247 281.013 842.61 280.679C842.974 280.339 843.155 279.873 843.155 279.281C843.155 278.678 842.982 278.203 842.637 277.857C842.297 277.512 841.772 277.339 841.063 277.339H838.945V281.18ZM856.998 277.339H853.078V288H850.441V277.339H846.574V275.203H856.998V277.339ZM861.313 288H858.677V275.203H861.313V288ZM873.812 283.737C873.712 285.114 873.202 286.198 872.282 286.989C871.368 287.78 870.161 288.176 868.661 288.176C867.021 288.176 865.729 287.625 864.785 286.523C863.848 285.416 863.379 283.898 863.379 281.971V281.188C863.379 279.958 863.596 278.874 864.029 277.937C864.463 276.999 865.081 276.281 865.884 275.783C866.692 275.279 867.63 275.027 868.696 275.027C870.173 275.027 871.362 275.423 872.265 276.214C873.167 277.005 873.688 278.115 873.829 279.545H871.192C871.128 278.719 870.896 278.121 870.498 277.752C870.105 277.377 869.505 277.189 868.696 277.189C867.817 277.189 867.158 277.506 866.719 278.139C866.285 278.766 866.062 279.741 866.051 281.065V282.032C866.051 283.415 866.259 284.426 866.675 285.064C867.097 285.703 867.759 286.022 868.661 286.022C869.476 286.022 870.082 285.838 870.48 285.469C870.885 285.094 871.116 284.517 871.175 283.737H873.812ZM878.347 288H875.71V275.203H878.347V288ZM883.436 283.491V288H880.799V275.203H885.791C886.752 275.203 887.596 275.379 888.322 275.73C889.055 276.082 889.617 276.583 890.01 277.233C890.402 277.878 890.599 278.613 890.599 279.439C890.599 280.693 890.168 281.684 889.307 282.41C888.451 283.131 887.265 283.491 885.747 283.491H883.436ZM883.436 281.355H885.791C886.488 281.355 887.019 281.191 887.382 280.863C887.751 280.535 887.936 280.066 887.936 279.457C887.936 278.83 887.751 278.323 887.382 277.937C887.013 277.55 886.503 277.351 885.853 277.339H883.436V281.355ZM898.078 285.363H893.455L892.576 288H889.772L894.536 275.203H896.979L901.77 288H898.966L898.078 285.363ZM894.167 283.228H897.366L895.758 278.438L894.167 283.228ZM912.026 279.615L914.426 275.203H917.458L913.731 281.549L917.555 288H914.487L912.026 283.518L909.565 288H906.498L910.321 281.549L906.595 275.203H909.627L912.026 279.615ZM929.174 284.634C929.174 284.153 929.039 283.772 928.77 283.491C928.506 283.204 928.055 282.94 927.416 282.7C926.777 282.46 926.227 282.223 925.764 281.988C925.301 281.748 924.902 281.476 924.568 281.171C924.24 280.86 923.982 280.497 923.795 280.081C923.613 279.665 923.522 279.17 923.522 278.596C923.522 277.605 923.839 276.794 924.472 276.161C925.104 275.528 925.945 275.159 926.994 275.054V273.173H928.4V275.08C929.438 275.227 930.249 275.66 930.835 276.381C931.421 277.096 931.714 278.024 931.714 279.167H929.174C929.174 278.464 929.027 277.939 928.734 277.594C928.447 277.242 928.061 277.066 927.574 277.066C927.094 277.066 926.722 277.204 926.458 277.479C926.194 277.749 926.062 278.124 926.062 278.604C926.062 279.05 926.191 279.407 926.449 279.677C926.707 279.946 927.185 280.222 927.882 280.503C928.585 280.784 929.162 281.051 929.613 281.303C930.064 281.549 930.445 281.83 930.756 282.146C931.066 282.457 931.304 282.814 931.468 283.219C931.632 283.617 931.714 284.083 931.714 284.616C931.714 285.612 931.403 286.421 930.782 287.042C930.161 287.663 929.306 288.029 928.216 288.141V289.89H926.818V288.149C925.617 288.021 924.686 287.596 924.023 286.875C923.367 286.148 923.039 285.185 923.039 283.983H925.579C925.579 284.681 925.743 285.217 926.071 285.592C926.405 285.961 926.883 286.146 927.504 286.146C928.02 286.146 928.427 286.011 928.726 285.741C929.024 285.466 929.174 285.097 929.174 284.634ZM939.606 288H937.066V278.209L934.034 279.149V277.084L939.334 275.186H939.606V288Z" id="el_dSf_L6sLOgJ"></path>
</g>
</g>
<g filter="url(#filter3_d)" id="el_1nYYrgrMpUL">
<rect x="204" y="38" width="235" height="489" rx="30" id="el_YJx0r7FdimP"></rect>
<g clip-path="url(#clip6)" id="el_9hyVw-PTvdY">
<path d="M444.822 69.2813C444.824 64.516 443.888 59.7969 442.066 55.3938C440.243 50.9907 437.571 46.99 434.201 43.6204C430.832 40.2509 426.831 37.5785 422.428 35.7562C418.025 33.9338 413.306 32.9973 408.54 33H235.281C230.516 32.9973 225.797 33.9338 221.394 35.7562C216.991 37.5785 212.99 40.2509 209.62 43.6204C206.251 46.99 203.579 50.9907 201.756 55.3938C199.934 59.7969 198.997 64.516 199 69.2813V496.719C198.997 501.484 199.934 506.203 201.756 510.606C203.579 515.009 206.251 519.01 209.62 522.38C212.99 525.749 216.991 528.422 221.394 530.244C225.797 532.066 230.516 533.003 235.281 533H408.54C413.306 533.003 418.025 532.066 422.428 530.244C426.831 528.422 430.832 525.749 434.201 522.38C437.571 519.01 440.243 515.009 442.066 510.606C443.888 506.203 444.824 501.484 444.822 496.719V69.2813ZM439.251 496.37C439.243 504.605 435.969 512.501 430.146 518.324C424.323 524.147 416.427 527.422 408.192 527.429H234.933C226.698 527.422 218.803 524.147 212.98 518.324C207.157 512.501 203.882 504.605 203.875 496.37V68.9332C203.882 60.6982 207.157 52.8026 212.98 46.9796C218.803 41.1566 226.698 37.882 234.933 37.8747H408.192C416.427 37.882 424.323 41.1566 430.146 46.9796C435.969 52.8026 439.243 60.6982 439.251 68.9332V496.37Z" id="el_yCqxkELe1Ur"></path>
<path d="M439.251 68.9331C439.243 60.6982 435.969 52.8026 430.146 46.9796C424.323 41.1566 416.427 37.882 408.192 37.8746H234.933C226.698 37.882 218.803 41.1566 212.98 46.9796C207.157 52.8026 203.882 60.6982 203.875 68.9331V496.37C203.882 504.605 207.157 512.501 212.98 518.324C218.803 524.147 226.698 527.422 234.933 527.429H408.192C416.427 527.422 424.323 524.147 430.146 518.324C435.969 512.501 439.243 504.605 439.251 496.37V68.9331ZM351.786 49.7827C351.786 50.3887 351.606 50.9811 351.269 51.485C350.933 51.9889 350.454 52.3816 349.894 52.6135C349.334 52.8455 348.718 52.9061 348.124 52.7879C347.529 52.6697 346.983 52.3779 346.555 51.9493C346.126 51.5208 345.835 50.9749 345.716 50.3805C345.598 49.7861 345.659 49.17 345.891 48.6101C346.123 48.0503 346.515 47.5717 347.019 47.235C347.523 46.8984 348.116 46.7186 348.722 46.7186C349.126 46.7101 349.529 46.7835 349.904 46.9345C350.28 47.0854 350.621 47.3108 350.907 47.5971C351.193 47.8833 351.419 48.2245 351.57 48.6001C351.721 48.9757 351.794 49.378 351.786 49.7827ZM310.351 48.3203H337.51C338.694 48.3203 339.599 49.0167 339.599 50.0613C339.599 51.1058 338.694 51.8022 337.51 51.8022H310.351C309.167 51.8022 308.262 51.1058 308.262 50.0613C308.283 49.809 308.354 49.5635 308.471 49.339C308.587 49.1144 308.748 48.9153 308.942 48.7533C309.136 48.5913 309.361 48.4696 309.603 48.3952C309.845 48.3209 310.099 48.2954 310.351 48.3203ZM431.591 495.187C431.591 507.373 422.607 516.983 410.421 516.983H237.022C224.905 516.983 214.32 507.373 214.32 495.187V68.0975C214.32 55.9805 224.905 46.2312 237.022 46.2312H257.078C261.326 46.2312 262.858 46.0919 263.137 51.454C263.415 57.025 267.245 60.1588 272.398 61.7604C274.139 62.3175 276.089 62.2479 277.969 62.2479H369.543C371.423 62.2479 373.373 62.3872 375.114 61.8301C380.268 60.2284 384.167 56.9554 384.376 51.3844C384.655 46.0223 386.187 46.2312 390.435 46.2312H410.281C422.468 46.2312 431.451 55.9805 431.451 68.0975V495.187H431.591Z" id="el_PDUNzevzXaA"></path>
<path d="M348.791 52.8468C350.483 52.8468 351.855 51.4749 351.855 49.7827C351.855 48.0905 350.483 46.7186 348.791 46.7186C347.099 46.7186 345.727 48.0905 345.727 49.7827C345.727 51.4749 347.099 52.8468 348.791 52.8468Z" id="el_NbVX_Zyd-Ji"></path>
<path d="M310.351 51.8022H337.51C338.694 51.8022 339.599 51.1058 339.599 50.0613C339.599 49.0167 338.694 48.3203 337.51 48.3203H310.351C309.167 48.3203 308.262 49.0167 308.262 50.0613C308.283 50.3135 308.354 50.559 308.471 50.7835C308.587 51.0081 308.748 51.2072 308.942 51.3692C309.136 51.5312 309.361 51.6529 309.603 51.7273C309.845 51.8016 310.099 51.8271 310.351 51.8022Z" id="el_E-_cKrvs2wZ"></path>
<g clip-path="url(#clip7)" id="el_1EWqNIGfcze">
<path d="M241.52 83.504C240.581 85.4934 239.643 87.488 238.704 89.4774C235.659 83.0934 232.619 76.7094 229.573 70.3307C231.477 70.3307 233.376 70.3307 235.28 70.3307C237.36 74.72 239.44 79.1094 241.52 83.504Z" id="el_lklL-a5Ivvn"></path>
<path d="M241.52 76.3041C237.344 76.3041 233.163 76.3041 228.987 76.3041C228.027 74.2081 227.067 72.1067 226.107 70.0107C230.251 70.0107 234.389 70.0107 238.533 70.0107C239.531 72.1067 240.523 74.2081 241.52 76.3041Z" id="el_UFSY8lUsnKa"></path>
<path d="M248.667 72.5174C248.203 71.6801 247.744 70.8481 247.28 70.0107C244.667 70.0107 242.053 70.0107 239.44 70.0107L248.667 89.4774L257.893 70.0107C255.227 70.0107 252.56 70.0107 249.893 70.0107C249.483 70.8427 249.077 71.6801 248.667 72.5174Z" id="el_41E95nS10xf"></path>
</g>
<rect x="227" y="255" width="192" height="53" rx="26.5" id="el_CUaajbIYcFo"></rect>
<path d="M276.188 283.737C276.089 285.114 275.579 286.198 274.659 286.989C273.745 287.78 272.538 288.176 271.038 288.176C269.397 288.176 268.105 287.625 267.162 286.523C266.225 285.416 265.756 283.898 265.756 281.971V281.188C265.756 279.958 265.973 278.874 266.406 277.937C266.84 276.999 267.458 276.281 268.261 275.783C269.069 275.279 270.007 275.027 271.073 275.027C272.55 275.027 273.739 275.423 274.642 276.214C275.544 277.005 276.065 278.115 276.206 279.545H273.569C273.505 278.719 273.273 278.121 272.875 277.752C272.482 277.377 271.882 277.189 271.073 277.189C270.194 277.189 269.535 277.506 269.096 278.139C268.662 278.766 268.439 279.741 268.428 281.065V282.032C268.428 283.415 268.636 284.426 269.052 285.064C269.474 285.703 270.136 286.022 271.038 286.022C271.853 286.022 272.459 285.838 272.857 285.469C273.262 285.094 273.493 284.517 273.552 283.737H276.188ZM288.432 281.892C288.432 283.151 288.209 284.256 287.764 285.205C287.318 286.154 286.68 286.887 285.848 287.402C285.021 287.918 284.072 288.176 283 288.176C281.939 288.176 280.993 287.921 280.161 287.411C279.329 286.901 278.685 286.175 278.228 285.231C277.771 284.282 277.539 283.192 277.533 281.962V281.329C277.533 280.069 277.759 278.962 278.21 278.007C278.667 277.046 279.309 276.311 280.135 275.801C280.967 275.285 281.916 275.027 282.982 275.027C284.049 275.027 284.995 275.285 285.821 275.801C286.653 276.311 287.295 277.046 287.746 278.007C288.203 278.962 288.432 280.066 288.432 281.32V281.892ZM285.76 281.312C285.76 279.97 285.52 278.95 285.039 278.253C284.559 277.556 283.873 277.207 282.982 277.207C282.098 277.207 281.415 277.553 280.935 278.244C280.454 278.93 280.211 279.938 280.205 281.268V281.892C280.205 283.198 280.445 284.212 280.926 284.933C281.406 285.653 282.098 286.014 283 286.014C283.885 286.014 284.564 285.668 285.039 284.977C285.514 284.279 285.754 283.266 285.76 281.936V281.312ZM293.793 275.203L297.08 284.484L300.35 275.203H303.812V288H301.167V284.502L301.431 278.464L297.977 288H296.166L292.721 278.473L292.984 284.502V288H290.348V275.203H293.793ZM308.752 283.491V288H306.115V275.203H311.107C312.068 275.203 312.912 275.379 313.639 275.73C314.371 276.082 314.934 276.583 315.326 277.233C315.719 277.878 315.915 278.613 315.915 279.439C315.915 280.693 315.484 281.684 314.623 282.41C313.768 283.131 312.581 283.491 311.063 283.491H308.752ZM308.752 281.355H311.107C311.805 281.355 312.335 281.191 312.698 280.863C313.067 280.535 313.252 280.066 313.252 279.457C313.252 278.83 313.067 278.323 312.698 277.937C312.329 277.55 311.819 277.351 311.169 277.339H308.752V281.355ZM322.472 283.315H320.371V288H317.734V275.203H322.489C324.001 275.203 325.167 275.54 325.987 276.214C326.808 276.888 327.218 277.84 327.218 279.07C327.218 279.943 327.027 280.673 326.646 281.259C326.271 281.839 325.7 282.302 324.933 282.647L327.701 287.877V288H324.871L322.472 283.315ZM320.371 281.18H322.498C323.16 281.18 323.673 281.013 324.036 280.679C324.399 280.339 324.581 279.873 324.581 279.281C324.581 278.678 324.408 278.203 324.062 277.857C323.723 277.512 323.198 277.339 322.489 277.339H320.371V281.18ZM336.455 285.363H331.832L330.953 288H328.149L332.913 275.203H335.356L340.146 288H337.343L336.455 285.363ZM332.544 283.228H335.743L334.135 278.438L332.544 283.228ZM346.079 283.315H343.979V288H341.342V275.203H346.097C347.608 275.203 348.774 275.54 349.595 276.214C350.415 276.888 350.825 277.84 350.825 279.07C350.825 279.943 350.635 280.673 350.254 281.259C349.879 281.839 349.308 282.302 348.54 282.647L351.309 287.877V288H348.479L346.079 283.315ZM343.979 281.18H346.105C346.768 281.18 347.28 281.013 347.644 280.679C348.007 280.339 348.188 279.873 348.188 279.281C348.188 278.678 348.016 278.203 347.67 277.857C347.33 277.512 346.806 277.339 346.097 277.339H343.979V281.18ZM361.732 280.969L364.396 275.203H367.278L363.077 283.359V288H360.396V283.359L356.195 275.203H359.087L361.732 280.969ZM374.354 285.363H369.73L368.852 288H366.048L370.812 275.203H373.255L378.045 288H375.241L374.354 285.363ZM370.442 283.228H373.642L372.033 278.438L370.442 283.228Z" id="el_4W6y3-_2iaL"></path>
</g>
</g>
<defs>
<filter id="filter0_d" x="-3" y="0" width="808" height="517.633" filterUnits="userSpaceOnUse" color-interpolation-filters="sRGB">
<feFlood flood-opacity="0" result="BackgroundImageFix"></feFlood>
<feColorMatrix in="SourceAlpha" type="matrix" values="0 0 0 0 0 0 0 0 0 0 0 0 0 0 0 0 0 0 127 0"></feColorMatrix>
<feOffset dy="4"></feOffset>
<feGaussianBlur stdDeviation="2"></feGaussianBlur>
<feColorMatrix type="matrix" values="0 0 0 0 0 0 0 0 0 0 0 0 0 0 0 0 0 0 0.25 0"></feColorMatrix>
<feBlend mode="normal" in2="BackgroundImageFix" result="effect1_dropShadow"></feBlend>
<feBlend mode="normal" in="SourceGraphic" in2="effect1_dropShadow" result="shape"></feBlend>
</filter>
<filter id="filter1_d" x="473" y="32" width="253.822" height="508" filterUnits="userSpaceOnUse" color-interpolation-filters="sRGB">
<feFlood flood-opacity="0" result="BackgroundImageFix"></feFlood>
<feColorMatrix in="SourceAlpha" type="matrix" values="0 0 0 0 0 0 0 0 0 0 0 0 0 0 0 0 0 0 127 0"></feColorMatrix>
<feOffset dy="4"></feOffset>
<feGaussianBlur stdDeviation="2"></feGaussianBlur>
<feColorMatrix type="matrix" values="0 0 0 0 0 0 0 0 0 0 0 0 0 0 0 0 0 0 0.25 0"></feColorMatrix>
<feBlend mode="normal" in2="BackgroundImageFix" result="effect1_dropShadow"></feBlend>
<feBlend mode="normal" in="SourceGraphic" in2="effect1_dropShadow" result="shape"></feBlend>
</filter>
<filter id="filter2_d" x="751" y="33" width="253.822" height="508" filterUnits="userSpaceOnUse" color-interpolation-filters="sRGB">
<feFlood flood-opacity="0" result="BackgroundImageFix"></feFlood>
<feColorMatrix in="SourceAlpha" type="matrix" values="0 0 0 0 0 0 0 0 0 0 0 0 0 0 0 0 0 0 127 0"></feColorMatrix>
<feOffset dy="4"></feOffset>
<feGaussianBlur stdDeviation="2"></feGaussianBlur>
<feColorMatrix type="matrix" values="0 0 0 0 0 0 0 0 0 0 0 0 0 0 0 0 0 0 0.25 0"></feColorMatrix>
<feBlend mode="normal" in2="BackgroundImageFix" result="effect1_dropShadow"></feBlend>
<feBlend mode="normal" in="SourceGraphic" in2="effect1_dropShadow" result="shape"></feBlend>
</filter>
<filter id="filter3_d" x="195" y="33" width="253.822" height="508" filterUnits="userSpaceOnUse" color-interpolation-filters="sRGB">
<feFlood flood-opacity="0" result="BackgroundImageFix"></feFlood>
<feColorMatrix in="SourceAlpha" type="matrix" values="0 0 0 0 0 0 0 0 0 0 0 0 0 0 0 0 0 0 127 0"></feColorMatrix>
<feOffset dy="4"></feOffset>
<feGaussianBlur stdDeviation="2"></feGaussianBlur>
<feColorMatrix type="matrix" values="0 0 0 0 0 0 0 0 0 0 0 0 0 0 0 0 0 0 0.25 0"></feColorMatrix>
<feBlend mode="normal" in2="BackgroundImageFix" result="effect1_dropShadow"></feBlend>
<feBlend mode="normal" in="SourceGraphic" in2="effect1_dropShadow" result="shape"></feBlend>
</filter>
<clipPath id="clip0">
<rect width="800" height="509.633" fill="white" transform="translate(1)"></rect>
</clipPath>
<clipPath id="clip1">
<rect width="48.4438" height="29.47" fill="white" transform="translate(15 17)"></rect>
</clipPath>
<clipPath id="clip2">
<rect width="245.822" height="500" fill="white" transform="translate(477 32)"></rect>
</clipPath>
<clipPath id="clip3">
<rect width="32" height="19.4667" fill="white" transform="translate(504 69)"></rect>
</clipPath>
<clipPath id="clip4">
<rect width="245.822" height="500" fill="white" transform="translate(755 33)"></rect>
</clipPath>
<clipPath id="clip5">
<rect width="32" height="19.4667" fill="white" transform="translate(782 70)"></rect>
</clipPath>
<clipPath id="clip6">
<rect width="245.822" height="500" fill="white" transform="translate(199 33)"></rect>
</clipPath>
<clipPath id="clip7">
<rect width="32" height="19.4667" fill="white" transform="translate(226 70)"></rect>
</clipPath>
</defs>
</svg>