<svg width="222" height="32" viewBox="0 0 222 32" fill="none" xmlns="http://www.w3.org/2000/svg">
<g clip-path="url(#clip0)">
<path d="M25.5124 22.1984C23.9694 25.4685 22.4264 28.7474 20.8834 32.0176C15.8773 21.5233 10.8801 11.029 5.87402 0.543564C9.0039 0.543564 12.125 0.543564 15.2549 0.543564C18.6741 7.75891 22.0933 14.9743 25.5124 22.1984Z" fill="white"/>
<path d="M25.5124 10.3627C18.6477 10.3627 11.7742 10.3627 4.90955 10.3627C3.33147 6.91726 1.75338 3.46301 0.175293 0.0175323C6.98737 0.0175323 13.7907 0.0175323 20.6027 0.0175323C22.2422 3.46301 23.8729 6.91726 25.5124 10.3627Z" fill="white"/>
<path d="M37.2604 4.13808C36.4977 2.76164 35.7437 1.39397 34.981 0.0175323C30.6851 0.0175323 26.3892 0.0175323 22.0933 0.0175323L37.2604 32.0175L52.4276 0.0175323C48.044 0.0175323 43.6604 0.0175323 39.2769 0.0175323C38.6018 1.3852 37.9355 2.76164 37.2604 4.13808Z" fill="white"/>
</g>
<path d="M84.7584 9.86576C84.9116 10.019 84.9627 10.2233 84.9627 10.4787C84.9627 10.6319 84.9116 10.7851 84.8606 10.9384L80.0083 25.5462C79.9572 25.7505 79.8551 25.8526 79.7018 25.9548C79.5486 26.057 79.3443 26.108 79.14 26.108C78.9357 26.108 78.7825 26.057 78.5782 25.9548C78.4249 25.8526 78.3228 25.6994 78.2717 25.5462L74.1856 12.7771L70.2016 25.5462C70.0484 25.9037 69.793 26.108 69.3333 26.108C69.129 26.108 68.9758 26.057 68.8226 25.9548C68.6694 25.8526 68.5672 25.6994 68.5161 25.5462L63.6639 10.9384C63.6128 10.683 63.6128 10.5298 63.6128 10.4787C63.6128 9.91684 63.8682 9.66146 64.3789 9.66146C64.5832 9.66146 64.7365 9.71253 64.8897 9.81469C65.0429 9.91684 65.1451 10.019 65.2472 10.2233L69.4866 23.0435L73.4195 10.3765C73.4705 10.1722 73.5727 9.96792 73.7259 9.86576C73.8791 9.71253 74.0834 9.66146 74.2878 9.66146C74.7474 9.66146 75.0539 9.91684 75.2071 10.3765L79.14 22.7881L83.3283 10.1722C83.4815 9.81469 83.788 9.61038 84.1966 9.61038C84.4009 9.61038 84.6052 9.71253 84.7584 9.86576Z" fill="white"/>
<path d="M98.1403 10.5297C99.3151 11.2448 100.183 12.1642 100.847 13.39C101.511 14.6159 101.818 15.9949 101.818 17.5783C101.818 17.8337 101.716 18.038 101.562 18.1912C101.409 18.3444 101.205 18.3955 100.95 18.3955H88.3337C88.3847 19.5703 88.6912 20.6429 89.253 21.5622C89.8149 22.4816 90.581 23.2478 91.5004 23.7585C92.4198 24.2693 93.4924 24.5247 94.6671 24.5247C95.4333 24.5247 96.2505 24.3714 97.0167 24.1161C97.8339 23.8607 98.4468 23.5031 98.9065 23.0435C99.1108 22.8902 99.3151 22.7881 99.5194 22.7881C99.7237 22.7881 99.928 22.8391 100.081 22.9924C100.286 23.1967 100.388 23.401 100.388 23.6053C100.388 23.8096 100.286 24.0139 100.132 24.1671C99.4683 24.729 98.6511 25.2397 97.6296 25.5973C96.608 25.9548 95.5865 26.1591 94.6671 26.1591C93.0838 26.1591 91.6536 25.8016 90.4278 25.0865C89.202 24.3714 88.2315 23.401 87.5165 22.1241C86.8014 20.8472 86.4438 19.417 86.4438 17.7826C86.4438 16.1481 86.7503 14.718 87.4143 13.4411C88.0783 12.1642 88.9977 11.1937 90.1724 10.4787C91.3472 9.7636 92.6752 9.40607 94.2075 9.40607C95.6887 9.45714 97.0167 9.81468 98.1403 10.5297ZM90.2746 12.726C89.202 13.7476 88.538 15.1266 88.3847 16.8632H100.132C99.9791 15.1777 99.3662 13.7986 98.3446 12.726C97.272 11.7045 95.944 11.1427 94.3096 11.1427C92.6752 11.1427 91.3472 11.7045 90.2746 12.726Z" fill="white"/>
<path d="M118.469 10.5297C119.746 11.2448 120.767 12.2663 121.482 13.5433C122.197 14.8202 122.606 16.2503 122.606 17.8337C122.606 19.417 122.248 20.8472 121.482 22.1241C120.767 23.401 119.746 24.4225 118.469 25.1376C117.192 25.8526 115.762 26.2613 114.178 26.2613C112.646 26.2613 111.216 25.9037 109.939 25.1887C108.662 24.4736 107.641 23.5031 106.925 22.2262C106.159 20.9493 105.802 19.5703 105.802 17.9869V17.9358V3.48122C105.802 3.17476 105.904 2.97045 106.057 2.81723C106.21 2.664 106.466 2.56184 106.721 2.56184C107.028 2.56184 107.232 2.664 107.385 2.81723C107.538 2.97045 107.641 3.17476 107.641 3.48122V12.8793C108.304 11.8067 109.224 10.9894 110.348 10.3765C111.522 9.7636 112.799 9.45715 114.229 9.45715C115.711 9.45715 117.192 9.81468 118.469 10.5297ZM117.498 23.7074C118.52 23.0945 119.286 22.3284 119.899 21.3069C120.461 20.2853 120.767 19.1616 120.767 17.8847C120.767 16.6078 120.461 15.4841 119.899 14.4626C119.337 13.4411 118.52 12.6239 117.498 12.062C116.477 11.5002 115.353 11.1937 114.127 11.1937C112.901 11.1937 111.778 11.5002 110.756 12.062C109.735 12.6239 108.968 13.4411 108.407 14.4626C107.845 15.4841 107.538 16.6078 107.538 17.8847C107.538 19.1616 107.845 20.2853 108.407 21.3069C108.968 22.3284 109.786 23.1456 110.756 23.7074C111.778 24.3204 112.901 24.5757 114.127 24.5757C115.404 24.6268 116.528 24.3204 117.498 23.7074Z" fill="white"/>
<path d="M138.899 10.5298C140.176 11.2448 141.198 12.2663 141.913 13.5433C142.628 14.8202 143.036 16.2503 143.036 17.8337V25.1376C143.036 25.393 142.934 25.5973 142.781 25.8016C142.628 25.9548 142.423 26.0569 142.117 26.0569C141.862 26.0569 141.657 25.9548 141.453 25.8016C141.3 25.6483 141.198 25.393 141.198 25.1376V22.7881C140.534 23.8607 139.614 24.6779 138.491 25.2908C137.316 25.9037 136.039 26.2102 134.609 26.2102C133.025 26.2102 131.595 25.8526 130.318 25.0865C129.041 24.3714 128.02 23.3499 127.305 22.073C126.59 20.7961 126.181 19.366 126.181 17.7826C126.181 16.1992 126.539 14.7691 127.305 13.4922C128.02 12.2153 129.041 11.1937 130.318 10.4787C131.595 9.76361 133.025 9.355 134.609 9.355C136.192 9.45715 137.622 9.81468 138.899 10.5298ZM138.031 23.7074C139.052 23.1456 139.819 22.3284 140.38 21.3069C140.942 20.2853 141.249 19.1616 141.249 17.8847C141.249 16.6078 140.942 15.4842 140.38 14.4626C139.819 13.4411 139.001 12.6239 138.031 12.062C137.009 11.4491 135.886 11.1937 134.66 11.1937C133.434 11.1937 132.31 11.5002 131.289 12.062C130.267 12.675 129.501 13.4411 128.888 14.4626C128.326 15.4842 128.02 16.6078 128.02 17.8847C128.02 19.1616 128.326 20.2853 128.888 21.3069C129.45 22.3284 130.267 23.1456 131.289 23.7074C132.31 24.2693 133.434 24.5757 134.66 24.5757C135.886 24.6268 137.009 24.3204 138.031 23.7074Z" fill="white"/>
<path d="M159.023 10.3254C160.198 10.9384 161.066 11.8067 161.73 12.9814C162.394 14.1562 162.701 15.5352 162.701 17.1186V25.2397C162.701 25.4951 162.599 25.6994 162.445 25.9037C162.292 26.057 162.037 26.1591 161.781 26.1591C161.526 26.1591 161.322 26.057 161.117 25.9037C160.964 25.7505 160.862 25.4951 160.862 25.2397V17.1186C160.862 15.2288 160.3 13.7476 159.228 12.726C158.155 11.7045 156.776 11.1937 155.039 11.1937C153.967 11.1937 152.996 11.398 152.128 11.8067C151.26 12.2153 150.545 12.7771 150.085 13.5433C149.574 14.2583 149.319 15.0755 149.319 15.9438V25.1887C149.319 25.444 149.217 25.6483 149.063 25.8527C148.91 26.0059 148.706 26.108 148.399 26.108C148.144 26.108 147.94 26.0059 147.735 25.8527C147.582 25.6994 147.48 25.444 147.48 25.1887V10.5297C147.48 10.2233 147.582 10.019 147.735 9.86575C147.889 9.71252 148.144 9.61037 148.399 9.61037C148.706 9.61037 148.91 9.71252 149.063 9.86575C149.217 10.019 149.319 10.2233 149.319 10.5297V12.1131C149.983 11.2448 150.851 10.6319 151.821 10.1211C152.792 9.66145 153.865 9.40607 155.039 9.40607C156.572 9.40607 157.848 9.71252 159.023 10.3254Z" fill="white"/>
<path d="M183.54 2.81723C183.693 2.97045 183.795 3.17476 183.795 3.48122V17.9869V18.038C183.795 19.5703 183.387 21.0004 182.672 22.2773C181.906 23.5542 180.935 24.5247 179.658 25.2397C178.381 25.9548 176.951 26.3123 175.419 26.3123C173.835 26.3123 172.405 25.9548 171.128 25.1887C169.851 24.4736 168.83 23.4521 168.115 22.1751C167.4 20.8982 166.991 19.4681 166.991 17.8847C166.991 16.3014 167.349 14.8712 168.115 13.5943C168.83 12.3174 169.851 11.2959 171.128 10.5808C172.405 9.86576 173.835 9.45715 175.419 9.45715C176.849 9.45715 178.126 9.7636 179.301 10.3765C180.475 10.9894 181.344 11.8067 182.008 12.8793V3.48122C182.008 3.17476 182.11 2.97045 182.263 2.81723C182.416 2.664 182.672 2.56184 182.927 2.56184C183.182 2.56184 183.387 2.664 183.54 2.81723ZM178.739 23.7074C179.76 23.0945 180.526 22.3284 181.088 21.3069C181.65 20.2853 181.957 19.1616 181.957 17.8847C181.957 16.6078 181.65 15.4842 181.088 14.4626C180.526 13.4411 179.709 12.6239 178.739 12.062C177.717 11.5002 176.594 11.1937 175.368 11.1937C174.142 11.1937 173.018 11.5002 171.997 12.062C170.975 12.6239 170.209 13.4411 169.596 14.4626C169.034 15.4842 168.728 16.6078 168.728 17.8847C168.728 19.1616 169.034 20.2853 169.596 21.3069C170.158 22.3284 170.975 23.1456 171.997 23.7074C173.018 24.3204 174.142 24.5757 175.368 24.5757C176.645 24.6268 177.768 24.3204 178.739 23.7074Z" fill="white"/>
<path d="M188.444 26.1591C188.137 25.8527 187.984 25.4951 187.984 25.0354C187.984 24.6268 188.137 24.2693 188.444 23.9628C188.75 23.6564 189.108 23.5031 189.516 23.5031C189.925 23.5031 190.282 23.6564 190.589 23.9628C190.895 24.2693 191.048 24.6268 191.048 25.0354C191.048 25.444 190.895 25.8016 190.589 26.108C190.282 26.4145 189.925 26.5677 189.516 26.5677C189.108 26.5677 188.75 26.4656 188.444 26.1591Z" fill="white"/>
<path d="M203.409 24.5247C203.562 24.6779 203.664 24.9333 203.664 25.1887C203.664 25.444 203.562 25.6483 203.409 25.8526C203.256 26.0059 203 26.108 202.745 26.108H202.03C200.906 26.108 199.936 25.8526 199.067 25.3419C198.199 24.8311 197.535 24.1671 197.024 23.2988C196.514 22.4305 196.309 21.409 196.309 20.3364V11.8577H193.96C193.704 11.8577 193.5 11.8067 193.347 11.6534C193.194 11.5002 193.143 11.2959 193.143 11.0405C193.143 10.7851 193.194 10.5808 193.347 10.4276C193.5 10.2744 193.704 10.2233 193.96 10.2233H196.309V5.31996C196.309 5.0135 196.411 4.8092 196.565 4.65597C196.718 4.50274 196.973 4.40059 197.229 4.40059C197.535 4.40059 197.739 4.50274 197.893 4.65597C198.046 4.8092 198.148 5.06458 198.148 5.31996V10.2233H202.132C202.387 10.2233 202.592 10.2744 202.745 10.4276C202.898 10.5808 202.949 10.7851 202.949 11.0405C202.949 11.2959 202.898 11.5002 202.745 11.6534C202.592 11.8067 202.387 11.8577 202.132 11.8577H198.148V20.3364C198.148 21.5112 198.506 22.4305 199.221 23.1967C199.936 23.9117 200.855 24.3204 202.03 24.3204H202.694C203 24.2693 203.205 24.3714 203.409 24.5247Z" fill="white"/>
<path d="M220.877 10.4276C220.877 10.5808 220.877 10.683 220.826 10.7341L214.033 25.4951C213.828 25.9037 213.522 26.108 213.062 26.108C212.858 26.108 212.705 26.057 212.551 25.9548C212.398 25.8526 212.296 25.6994 212.194 25.4951L205.299 10.7851C205.248 10.683 205.248 10.5808 205.248 10.4787C205.248 10.1211 205.401 9.86575 205.758 9.71252C205.86 9.66145 206.014 9.61037 206.116 9.61037C206.473 9.61037 206.729 9.7636 206.882 10.1211L213.062 23.5031L219.14 10.0701C219.294 9.71252 219.549 9.5593 219.906 9.5593C220.06 9.5593 220.162 9.61037 220.315 9.66145C220.724 9.81468 220.877 10.0701 220.877 10.4276Z" fill="white"/>
<defs>
<clipPath id="clip0">
<rect width="52.6029" height="32" fill="white"/>
</clipPath>
</defs>
</svg>
