<?xml version="1.0" encoding="utf-8"?>
<!-- Generator: Adobe Illustrator 22.0.1, SVG Export Plug-In . SVG Version: 6.00 Build 0)  -->
<svg version="1.1" id="Layer_1" xmlns="http://www.w3.org/2000/svg" xmlns:xlink="http://www.w3.org/1999/xlink" x="0px" y="0px"
	 viewBox="0 0 1000 1000" style="enable-background:new 0 0 1000 1000;" xml:space="preserve">
<style type="text/css">
	.st0{fill:#FFFFFF;}
</style>
<g>
	<polygon class="st0" points="223.7,821.7 101.7,748.2 101.7,259 223.7,259 	"/>
	<polygon class="st0" points="901.7,745.4 784.2,746.8 784.2,252.6 901.7,252.6 	"/>
	<polygon class="st0" points="147.2,369.4 101.7,259 501.7,4 501.7,147.9 	"/>
	<polygon class="st0" points="856.2,369.4 901.7,252.6 501.7,4 501.7,147.9 	"/>
	<polygon class="st0" points="856.2,628.6 901.7,745.4 501.7,994 501.7,850.1 	"/>
	<polygon class="st0" points="501.7,994 546.7,877.2 336.9,746.8 337,891.4 	"/>
	<polygon class="st0" points="856.2,628.6 901.7,745.4 501.7,994 501.7,850.1 	"/>
	<polygon class="st0" points="784.2,673.6 901.7,745.4 501.7,994 501.7,850.1 	"/>
	<polygon class="st0" points="501.7,501.1 336.4,598 336.4,400 501.7,295.4 	"/>
	<polygon class="st0" points="501.3,500.9 666.6,597.7 666.6,399.8 501.7,295.4 	"/>
	<polygon class="st0" points="666.6,597.7 501.7,706.5 336.4,598 501.7,501.1 	"/>
</g>
</svg>
