<svg width="180" height="180" viewBox="0 0 180 180" fill="none" xmlns="http://www.w3.org/2000/svg">
<circle cx="90" cy="90" r="90" fill="#EEF2F5"/>
<circle cx="89.1892" cy="90" r="72.973" fill="#FAFAFA"/>
<g clip-path="url(#clip0)">
<path d="M128.58 73.8083H115.893L123.469 65.3743C123.889 64.9054 124.103 64.3017 124.069 63.6732C124.035 63.0441 123.759 62.4663 123.29 62.0457L120.032 59.1197C119.065 58.2512 117.572 58.331 116.704 59.2978L103.67 73.8083H80.9843C80.3286 73.8083 79.7966 74.3397 79.7966 74.996C79.7966 75.6524 80.3286 76.1837 80.9843 76.1837H101.536L96.2372 82.0827C95.8165 82.551 95.6037 83.1554 95.6371 83.7839C95.6414 83.8581 95.6489 83.9311 95.6594 84.0041L93.8382 88.9287C93.5679 89.6599 93.7677 90.4691 94.3479 90.9899C94.7036 91.3097 95.1527 91.4755 95.6074 91.4755C95.8932 91.4755 96.1815 91.41 96.4512 91.2763L101.157 88.9368C101.187 88.938 101.216 88.9411 101.246 88.9411C101.289 88.9411 101.331 88.9399 101.375 88.9374C102.003 88.9034 102.581 88.6275 103.002 88.1586L113.759 76.1837H128.58C128.798 76.1837 128.976 76.3613 128.976 76.5796V122.34C128.976 122.558 128.798 122.736 128.58 122.736H119.939C119.284 122.736 118.752 123.267 118.752 123.924C118.752 124.579 119.284 125.111 119.939 125.111H128.58C130.108 125.111 131.351 123.868 131.351 122.34V76.5796C131.351 75.0511 130.108 73.8083 128.58 73.8083ZM121.689 63.8006L120.278 65.3706L117.048 62.4694L118.459 60.8988L121.689 63.8006ZM115.461 64.2367L116.193 64.8937L98.7487 84.3134L98.0169 83.6558L115.461 64.2367ZM97.3587 86.2576L98.7307 87.4905L96.4914 88.6034L97.3587 86.2576ZM101.247 86.5577L100.515 85.9007L117.96 66.481L118.691 67.138L101.247 86.5577Z" fill="#28528C"/>
<path d="M114.767 122.736H61.3469C56.549 122.736 52.6457 118.832 52.6457 114.035V113.407C52.6457 108.609 56.5484 104.706 61.3463 104.706H63.7873C65.3158 104.706 66.5586 103.463 66.5586 101.935V76.1838H75.8122C76.4686 76.1838 76.9999 75.6518 76.9999 74.9961C76.9999 74.3397 76.4686 73.8083 75.8122 73.8083H66.5586V69.6841C66.5586 69.0284 66.0272 68.4964 65.3709 68.4964C64.7152 68.4964 64.1832 69.0284 64.1832 69.6841V101.935C64.1832 102.153 64.0056 102.331 63.7873 102.331H61.3463C57.8215 102.331 54.6753 103.986 52.6457 106.56V64.4761C52.6457 59.6783 56.549 55.7749 61.3469 55.7749H63.7873C64.0056 55.7749 64.1832 55.9525 64.1832 56.1708V64.512C64.1832 65.1684 64.7152 65.6997 65.3709 65.6997C66.0272 65.6997 66.5586 65.1684 66.5586 64.512V56.1708C66.5586 54.6429 65.3158 53.3995 63.7873 53.3995H61.3469C55.2395 53.3995 50.2703 58.3681 50.2703 64.4761V114.035C50.2703 120.142 55.2395 125.111 61.3469 125.111H114.767C115.424 125.111 115.955 124.579 115.955 123.924C115.955 123.267 115.424 122.736 114.767 122.736Z" fill="#28528C"/>
<path d="M113.646 86.3474C108.794 86.3474 104.816 90.1505 104.531 94.9317H99.0636C98.4079 94.9317 97.8759 95.4637 97.8759 96.1194V109.686C97.8759 110.343 98.4079 110.874 99.0636 110.874H112.631C113.287 110.874 113.818 110.343 113.818 109.686V104.609C118.775 104.516 122.779 100.458 122.779 95.4804C122.779 90.4443 118.682 86.3474 113.646 86.3474ZM111.444 101.867C109.363 101.148 107.741 99.44 107.142 97.3071H111.444V101.867ZM100.251 108.499V97.3071H104.697C105.4 100.754 108.05 103.499 111.444 104.343V108.499H100.251ZM113.819 102.234V96.1194C113.819 95.4637 113.287 94.9317 112.631 94.9317H106.913C107.193 91.4613 110.105 88.7228 113.646 88.7228C117.372 88.7228 120.404 91.7539 120.404 95.4804C120.403 99.1487 117.465 102.141 113.819 102.234Z" fill="#28528C"/>
<path d="M118.058 105.434C117.402 105.434 116.871 105.965 116.871 106.621C116.871 107.277 117.402 107.809 118.058 107.809H120.7C121.357 107.809 121.888 107.277 121.888 106.621C121.888 105.965 121.357 105.434 120.7 105.434H118.058Z" fill="#28528C"/>
<path d="M121.888 109.686C121.888 109.031 121.357 108.499 120.7 108.499H118.058C117.402 108.499 116.871 109.031 116.871 109.686C116.871 110.343 117.402 110.874 118.058 110.874H120.7C121.357 110.874 121.888 110.343 121.888 109.686Z" fill="#28528C"/>
<path d="M71.9658 85.8741H73.8661C74.5218 85.8741 75.0538 85.3427 75.0538 84.6864C75.0538 84.0307 74.5218 83.4987 73.8661 83.4987H71.9658C71.3101 83.4987 70.7781 84.0307 70.7781 84.6864C70.7781 85.3427 71.3101 85.8741 71.9658 85.8741Z" fill="#28528C"/>
<path d="M71.9658 89.3346H81.1341C81.7904 89.3346 82.3218 88.8026 82.3218 88.1468C82.3218 87.4905 81.7904 86.9591 81.1341 86.9591H71.9658C71.3101 86.9591 70.7781 87.4905 70.7781 88.1468C70.7781 88.8026 71.3101 89.3346 71.9658 89.3346Z" fill="#28528C"/>
<path d="M79.2337 85.8741H81.1341C81.7904 85.8741 82.3218 85.3427 82.3218 84.6864C82.3218 84.0307 81.7904 83.4987 81.1341 83.4987H79.2337C78.578 83.4987 78.046 84.0307 78.046 84.6864C78.046 85.3427 78.578 85.8741 79.2337 85.8741Z" fill="#28528C"/>
<path d="M88.402 83.4987H86.5016C85.8459 83.4987 85.3139 84.0307 85.3139 84.6864C85.3139 85.3427 85.8459 85.8741 86.5016 85.8741H88.402C89.0583 85.8741 89.5897 85.3427 89.5897 84.6864C89.5897 84.0307 89.0583 83.4987 88.402 83.4987Z" fill="#28528C"/>
<path d="M71.9658 92.769H81.1341C81.7904 92.769 82.3218 92.237 82.3218 91.5813C82.3218 90.925 81.7904 90.3936 81.1341 90.3936H71.9658C71.3101 90.3936 70.7781 90.925 70.7781 91.5813C70.7781 92.237 71.3101 92.769 71.9658 92.769Z" fill="#28528C"/>
<path d="M70.7781 95.0152C70.7781 95.6715 71.3101 96.2029 71.9658 96.2029H86.5016C87.158 96.2029 87.6894 95.6715 87.6894 95.0152C87.6894 94.3594 87.158 93.8275 86.5016 93.8275H71.9658C71.3101 93.8275 70.7781 94.3594 70.7781 95.0152Z" fill="#28528C"/>
<path d="M89.5897 98.4496C89.5897 97.7939 89.0583 97.2619 88.402 97.2619H71.9658C71.3101 97.2619 70.7781 97.7939 70.7781 98.4496C70.7781 99.1059 71.3101 99.6373 71.9658 99.6373H88.402C89.0583 99.6373 89.5897 99.1059 89.5897 98.4496Z" fill="#28528C"/>
<path d="M76.4265 103.983C76.4265 103.327 75.8945 102.795 75.2388 102.795H71.9658C71.3101 102.795 70.7781 103.327 70.7781 103.983V107.255C70.7781 107.912 71.3101 108.443 71.9658 108.443H75.2388C75.8945 108.443 76.4265 107.912 76.4265 107.255V103.983ZM74.0511 106.068H73.1535V105.171H74.0511V106.068Z" fill="#28528C"/>
<path d="M84.279 103.983C84.279 103.327 83.747 102.795 83.0913 102.795H79.8183C79.1625 102.795 78.6306 103.327 78.6306 103.983V107.255C78.6306 107.912 79.1625 108.443 79.8183 108.443H83.0913C83.747 108.443 84.279 107.912 84.279 107.255V103.983ZM81.9036 106.068H81.006V105.171H81.9036V106.068Z" fill="#28528C"/>
<path d="M92.1321 103.983C92.1321 103.327 91.6001 102.795 90.9444 102.795H87.6714C87.0151 102.795 86.4837 103.327 86.4837 103.983V107.255C86.4837 107.912 87.0151 108.443 87.6714 108.443H90.9444C91.6001 108.443 92.1321 107.912 92.1321 107.255V103.983ZM89.7567 106.068H88.8591V105.171H89.7567V106.068Z" fill="#28528C"/>
<path d="M75.2388 111.136H71.9658C71.3101 111.136 70.7781 111.667 70.7781 112.324V115.596C70.7781 116.252 71.3101 116.784 71.9658 116.784H75.2388C75.8945 116.784 76.4265 116.252 76.4265 115.596V112.324C76.4265 111.667 75.8945 111.136 75.2388 111.136ZM74.0511 114.408H73.1535V113.511H74.0511V114.408Z" fill="#28528C"/>
<path d="M83.0913 111.136H79.8183C79.1625 111.136 78.6306 111.667 78.6306 112.324V115.596C78.6306 116.252 79.1625 116.784 79.8183 116.784H83.0913C83.747 116.784 84.279 116.252 84.279 115.596V112.324C84.279 111.667 83.747 111.136 83.0913 111.136ZM81.9036 114.408H81.006V113.511H81.9036V114.408Z" fill="#28528C"/>
<path d="M87.6714 116.784H90.9444C91.6001 116.784 92.1321 116.252 92.1321 115.596V112.323C92.1321 111.667 91.6001 111.135 90.9444 111.135H87.6714C87.0151 111.135 86.4837 111.667 86.4837 112.323V115.596C86.4837 116.252 87.0151 116.784 87.6714 116.784ZM88.8591 113.511H89.7567V114.408H88.8591V113.511Z" fill="#28528C"/>
</g>
<defs>
<clipPath id="clip0">
<rect width="81.0811" height="81.0811" fill="white" transform="translate(50.2703 48.6487)"/>
</clipPath>
</defs>
</svg>
